<?xml version="1.0" encoding="utf-8" standalone="no"?>
<!DOCTYPE svg PUBLIC "-//W3C//DTD SVG 1.1//EN"
  "http://www.w3.org/Graphics/SVG/1.1/DTD/svg11.dtd">
<svg height="345.6pt" version="1.1" viewBox="0 0 460.8 345.6" width="460.8pt" xmlns="http://www.w3.org/2000/svg" xmlns:xlink="http://www.w3.org/1999/xlink">
 <metadata>
  <rdf:RDF xmlns:cc="http://creativecommons.org/ns#" xmlns:dc="http://purl.org/dc/elements/1.1/" xmlns:rdf="http://www.w3.org/1999/02/22-rdf-syntax-ns#">
   <cc:Work>
    <dc:type rdf:resource="http://purl.org/dc/dcmitype/StillImage"/>
    <dc:date>2021-09-26T21:34:43.650703</dc:date>
    <dc:format>image/svg+xml</dc:format>
    <dc:creator>
     <cc:Agent>
      <dc:title>Matplotlib v3.4.2, https://matplotlib.org/</dc:title>
     </cc:Agent>
    </dc:creator>
   </cc:Work>
  </rdf:RDF>
 </metadata>
 <defs>
  <style type="text/css">*{stroke-linecap:butt;stroke-linejoin:round;}</style>
 </defs>
 <g id="figure_1">
  <g id="patch_1">
   <path d="M 0 345.6 
L 460.8 345.6 
L 460.8 0 
L 0 0 
z
" style="fill:#ffffff;"/>
  </g>
  <g id="axes_1">
   <g id="patch_2">
    <path d="M 57.6 307.584 
L 414.72 307.584 
L 414.72 41.472 
L 57.6 41.472 
z
" style="fill:#ffffff;"/>
   </g>
   <g id="matplotlib.axis_1">
    <g id="xtick_1">
     <g id="line2d_1">
      <defs>
       <path d="M 0 0 
L 0 3.5 
" id="m8d6a887691" style="stroke:#000000;stroke-width:0.8;"/>
      </defs>
      <g>
       <use style="stroke:#000000;stroke-width:0.8;" x="72.391881" xlink:href="#m8d6a887691" y="307.584"/>
      </g>
     </g>
     <g id="text_1">
      <!-- 0 -->
      <g transform="translate(69.210631 322.182437)scale(0.1 -0.1)">
       <defs>
        <path d="M 2034 4250 
Q 1547 4250 1301 3770 
Q 1056 3291 1056 2328 
Q 1056 1369 1301 889 
Q 1547 409 2034 409 
Q 2525 409 2770 889 
Q 3016 1369 3016 2328 
Q 3016 3291 2770 3770 
Q 2525 4250 2034 4250 
z
M 2034 4750 
Q 2819 4750 3233 4129 
Q 3647 3509 3647 2328 
Q 3647 1150 3233 529 
Q 2819 -91 2034 -91 
Q 1250 -91 836 529 
Q 422 1150 422 2328 
Q 422 3509 836 4129 
Q 1250 4750 2034 4750 
z
" id="DejaVuSans-30" transform="scale(0.015625)"/>
       </defs>
       <use xlink:href="#DejaVuSans-30"/>
      </g>
     </g>
    </g>
    <g id="xtick_2">
     <g id="line2d_2">
      <g>
       <use style="stroke:#000000;stroke-width:0.8;" x="120.368646" xlink:href="#m8d6a887691" y="307.584"/>
      </g>
     </g>
     <g id="text_2">
      <!-- 1500 -->
      <g transform="translate(107.643646 322.182437)scale(0.1 -0.1)">
       <defs>
        <path d="M 794 531 
L 1825 531 
L 1825 4091 
L 703 3866 
L 703 4441 
L 1819 4666 
L 2450 4666 
L 2450 531 
L 3481 531 
L 3481 0 
L 794 0 
L 794 531 
z
" id="DejaVuSans-31" transform="scale(0.015625)"/>
        <path d="M 691 4666 
L 3169 4666 
L 3169 4134 
L 1269 4134 
L 1269 2991 
Q 1406 3038 1543 3061 
Q 1681 3084 1819 3084 
Q 2600 3084 3056 2656 
Q 3513 2228 3513 1497 
Q 3513 744 3044 326 
Q 2575 -91 1722 -91 
Q 1428 -91 1123 -41 
Q 819 9 494 109 
L 494 744 
Q 775 591 1075 516 
Q 1375 441 1709 441 
Q 2250 441 2565 725 
Q 2881 1009 2881 1497 
Q 2881 1984 2565 2268 
Q 2250 2553 1709 2553 
Q 1456 2553 1204 2497 
Q 953 2441 691 2322 
L 691 4666 
z
" id="DejaVuSans-35" transform="scale(0.015625)"/>
       </defs>
       <use xlink:href="#DejaVuSans-31"/>
       <use x="63.623047" xlink:href="#DejaVuSans-35"/>
       <use x="127.246094" xlink:href="#DejaVuSans-30"/>
       <use x="190.869141" xlink:href="#DejaVuSans-30"/>
      </g>
     </g>
    </g>
    <g id="xtick_3">
     <g id="line2d_3">
      <g>
       <use style="stroke:#000000;stroke-width:0.8;" x="168.345411" xlink:href="#m8d6a887691" y="307.584"/>
      </g>
     </g>
     <g id="text_3">
      <!-- 3000 -->
      <g transform="translate(155.620411 322.182437)scale(0.1 -0.1)">
       <defs>
        <path d="M 2597 2516 
Q 3050 2419 3304 2112 
Q 3559 1806 3559 1356 
Q 3559 666 3084 287 
Q 2609 -91 1734 -91 
Q 1441 -91 1130 -33 
Q 819 25 488 141 
L 488 750 
Q 750 597 1062 519 
Q 1375 441 1716 441 
Q 2309 441 2620 675 
Q 2931 909 2931 1356 
Q 2931 1769 2642 2001 
Q 2353 2234 1838 2234 
L 1294 2234 
L 1294 2753 
L 1863 2753 
Q 2328 2753 2575 2939 
Q 2822 3125 2822 3475 
Q 2822 3834 2567 4026 
Q 2313 4219 1838 4219 
Q 1578 4219 1281 4162 
Q 984 4106 628 3988 
L 628 4550 
Q 988 4650 1302 4700 
Q 1616 4750 1894 4750 
Q 2613 4750 3031 4423 
Q 3450 4097 3450 3541 
Q 3450 3153 3228 2886 
Q 3006 2619 2597 2516 
z
" id="DejaVuSans-33" transform="scale(0.015625)"/>
       </defs>
       <use xlink:href="#DejaVuSans-33"/>
       <use x="63.623047" xlink:href="#DejaVuSans-30"/>
       <use x="127.246094" xlink:href="#DejaVuSans-30"/>
       <use x="190.869141" xlink:href="#DejaVuSans-30"/>
      </g>
     </g>
    </g>
    <g id="xtick_4">
     <g id="line2d_4">
      <g>
       <use style="stroke:#000000;stroke-width:0.8;" x="216.322176" xlink:href="#m8d6a887691" y="307.584"/>
      </g>
     </g>
     <g id="text_4">
      <!-- 4500 -->
      <g transform="translate(203.597176 322.182437)scale(0.1 -0.1)">
       <defs>
        <path d="M 2419 4116 
L 825 1625 
L 2419 1625 
L 2419 4116 
z
M 2253 4666 
L 3047 4666 
L 3047 1625 
L 3713 1625 
L 3713 1100 
L 3047 1100 
L 3047 0 
L 2419 0 
L 2419 1100 
L 313 1100 
L 313 1709 
L 2253 4666 
z
" id="DejaVuSans-34" transform="scale(0.015625)"/>
       </defs>
       <use xlink:href="#DejaVuSans-34"/>
       <use x="63.623047" xlink:href="#DejaVuSans-35"/>
       <use x="127.246094" xlink:href="#DejaVuSans-30"/>
       <use x="190.869141" xlink:href="#DejaVuSans-30"/>
      </g>
     </g>
    </g>
    <g id="xtick_5">
     <g id="line2d_5">
      <g>
       <use style="stroke:#000000;stroke-width:0.8;" x="264.298941" xlink:href="#m8d6a887691" y="307.584"/>
      </g>
     </g>
     <g id="text_5">
      <!-- 6000 -->
      <g transform="translate(251.573941 322.182437)scale(0.1 -0.1)">
       <defs>
        <path d="M 2113 2584 
Q 1688 2584 1439 2293 
Q 1191 2003 1191 1497 
Q 1191 994 1439 701 
Q 1688 409 2113 409 
Q 2538 409 2786 701 
Q 3034 994 3034 1497 
Q 3034 2003 2786 2293 
Q 2538 2584 2113 2584 
z
M 3366 4563 
L 3366 3988 
Q 3128 4100 2886 4159 
Q 2644 4219 2406 4219 
Q 1781 4219 1451 3797 
Q 1122 3375 1075 2522 
Q 1259 2794 1537 2939 
Q 1816 3084 2150 3084 
Q 2853 3084 3261 2657 
Q 3669 2231 3669 1497 
Q 3669 778 3244 343 
Q 2819 -91 2113 -91 
Q 1303 -91 875 529 
Q 447 1150 447 2328 
Q 447 3434 972 4092 
Q 1497 4750 2381 4750 
Q 2619 4750 2861 4703 
Q 3103 4656 3366 4563 
z
" id="DejaVuSans-36" transform="scale(0.015625)"/>
       </defs>
       <use xlink:href="#DejaVuSans-36"/>
       <use x="63.623047" xlink:href="#DejaVuSans-30"/>
       <use x="127.246094" xlink:href="#DejaVuSans-30"/>
       <use x="190.869141" xlink:href="#DejaVuSans-30"/>
      </g>
     </g>
    </g>
    <g id="xtick_6">
     <g id="line2d_6">
      <g>
       <use style="stroke:#000000;stroke-width:0.8;" x="312.275706" xlink:href="#m8d6a887691" y="307.584"/>
      </g>
     </g>
     <g id="text_6">
      <!-- 7500 -->
      <g transform="translate(299.550706 322.182437)scale(0.1 -0.1)">
       <defs>
        <path d="M 525 4666 
L 3525 4666 
L 3525 4397 
L 1831 0 
L 1172 0 
L 2766 4134 
L 525 4134 
L 525 4666 
z
" id="DejaVuSans-37" transform="scale(0.015625)"/>
       </defs>
       <use xlink:href="#DejaVuSans-37"/>
       <use x="63.623047" xlink:href="#DejaVuSans-35"/>
       <use x="127.246094" xlink:href="#DejaVuSans-30"/>
       <use x="190.869141" xlink:href="#DejaVuSans-30"/>
      </g>
     </g>
    </g>
    <g id="xtick_7">
     <g id="line2d_7">
      <g>
       <use style="stroke:#000000;stroke-width:0.8;" x="360.252471" xlink:href="#m8d6a887691" y="307.584"/>
      </g>
     </g>
     <g id="text_7">
      <!-- 9000 -->
      <g transform="translate(347.527471 322.182437)scale(0.1 -0.1)">
       <defs>
        <path d="M 703 97 
L 703 672 
Q 941 559 1184 500 
Q 1428 441 1663 441 
Q 2288 441 2617 861 
Q 2947 1281 2994 2138 
Q 2813 1869 2534 1725 
Q 2256 1581 1919 1581 
Q 1219 1581 811 2004 
Q 403 2428 403 3163 
Q 403 3881 828 4315 
Q 1253 4750 1959 4750 
Q 2769 4750 3195 4129 
Q 3622 3509 3622 2328 
Q 3622 1225 3098 567 
Q 2575 -91 1691 -91 
Q 1453 -91 1209 -44 
Q 966 3 703 97 
z
M 1959 2075 
Q 2384 2075 2632 2365 
Q 2881 2656 2881 3163 
Q 2881 3666 2632 3958 
Q 2384 4250 1959 4250 
Q 1534 4250 1286 3958 
Q 1038 3666 1038 3163 
Q 1038 2656 1286 2365 
Q 1534 2075 1959 2075 
z
" id="DejaVuSans-39" transform="scale(0.015625)"/>
       </defs>
       <use xlink:href="#DejaVuSans-39"/>
       <use x="63.623047" xlink:href="#DejaVuSans-30"/>
       <use x="127.246094" xlink:href="#DejaVuSans-30"/>
       <use x="190.869141" xlink:href="#DejaVuSans-30"/>
      </g>
     </g>
    </g>
    <g id="text_8">
     <!-- Time taken (sec) -->
     <g transform="translate(194.432656 335.860562)scale(0.1 -0.1)">
      <defs>
       <path d="M -19 4666 
L 3928 4666 
L 3928 4134 
L 2272 4134 
L 2272 0 
L 1638 0 
L 1638 4134 
L -19 4134 
L -19 4666 
z
" id="DejaVuSans-54" transform="scale(0.015625)"/>
       <path d="M 603 3500 
L 1178 3500 
L 1178 0 
L 603 0 
L 603 3500 
z
M 603 4863 
L 1178 4863 
L 1178 4134 
L 603 4134 
L 603 4863 
z
" id="DejaVuSans-69" transform="scale(0.015625)"/>
       <path d="M 3328 2828 
Q 3544 3216 3844 3400 
Q 4144 3584 4550 3584 
Q 5097 3584 5394 3201 
Q 5691 2819 5691 2113 
L 5691 0 
L 5113 0 
L 5113 2094 
Q 5113 2597 4934 2840 
Q 4756 3084 4391 3084 
Q 3944 3084 3684 2787 
Q 3425 2491 3425 1978 
L 3425 0 
L 2847 0 
L 2847 2094 
Q 2847 2600 2669 2842 
Q 2491 3084 2119 3084 
Q 1678 3084 1418 2786 
Q 1159 2488 1159 1978 
L 1159 0 
L 581 0 
L 581 3500 
L 1159 3500 
L 1159 2956 
Q 1356 3278 1631 3431 
Q 1906 3584 2284 3584 
Q 2666 3584 2933 3390 
Q 3200 3197 3328 2828 
z
" id="DejaVuSans-6d" transform="scale(0.015625)"/>
       <path d="M 3597 1894 
L 3597 1613 
L 953 1613 
Q 991 1019 1311 708 
Q 1631 397 2203 397 
Q 2534 397 2845 478 
Q 3156 559 3463 722 
L 3463 178 
Q 3153 47 2828 -22 
Q 2503 -91 2169 -91 
Q 1331 -91 842 396 
Q 353 884 353 1716 
Q 353 2575 817 3079 
Q 1281 3584 2069 3584 
Q 2775 3584 3186 3129 
Q 3597 2675 3597 1894 
z
M 3022 2063 
Q 3016 2534 2758 2815 
Q 2500 3097 2075 3097 
Q 1594 3097 1305 2825 
Q 1016 2553 972 2059 
L 3022 2063 
z
" id="DejaVuSans-65" transform="scale(0.015625)"/>
       <path id="DejaVuSans-20" transform="scale(0.015625)"/>
       <path d="M 1172 4494 
L 1172 3500 
L 2356 3500 
L 2356 3053 
L 1172 3053 
L 1172 1153 
Q 1172 725 1289 603 
Q 1406 481 1766 481 
L 2356 481 
L 2356 0 
L 1766 0 
Q 1100 0 847 248 
Q 594 497 594 1153 
L 594 3053 
L 172 3053 
L 172 3500 
L 594 3500 
L 594 4494 
L 1172 4494 
z
" id="DejaVuSans-74" transform="scale(0.015625)"/>
       <path d="M 2194 1759 
Q 1497 1759 1228 1600 
Q 959 1441 959 1056 
Q 959 750 1161 570 
Q 1363 391 1709 391 
Q 2188 391 2477 730 
Q 2766 1069 2766 1631 
L 2766 1759 
L 2194 1759 
z
M 3341 1997 
L 3341 0 
L 2766 0 
L 2766 531 
Q 2569 213 2275 61 
Q 1981 -91 1556 -91 
Q 1019 -91 701 211 
Q 384 513 384 1019 
Q 384 1609 779 1909 
Q 1175 2209 1959 2209 
L 2766 2209 
L 2766 2266 
Q 2766 2663 2505 2880 
Q 2244 3097 1772 3097 
Q 1472 3097 1187 3025 
Q 903 2953 641 2809 
L 641 3341 
Q 956 3463 1253 3523 
Q 1550 3584 1831 3584 
Q 2591 3584 2966 3190 
Q 3341 2797 3341 1997 
z
" id="DejaVuSans-61" transform="scale(0.015625)"/>
       <path d="M 581 4863 
L 1159 4863 
L 1159 1991 
L 2875 3500 
L 3609 3500 
L 1753 1863 
L 3688 0 
L 2938 0 
L 1159 1709 
L 1159 0 
L 581 0 
L 581 4863 
z
" id="DejaVuSans-6b" transform="scale(0.015625)"/>
       <path d="M 3513 2113 
L 3513 0 
L 2938 0 
L 2938 2094 
Q 2938 2591 2744 2837 
Q 2550 3084 2163 3084 
Q 1697 3084 1428 2787 
Q 1159 2491 1159 1978 
L 1159 0 
L 581 0 
L 581 3500 
L 1159 3500 
L 1159 2956 
Q 1366 3272 1645 3428 
Q 1925 3584 2291 3584 
Q 2894 3584 3203 3211 
Q 3513 2838 3513 2113 
z
" id="DejaVuSans-6e" transform="scale(0.015625)"/>
       <path d="M 1984 4856 
Q 1566 4138 1362 3434 
Q 1159 2731 1159 2009 
Q 1159 1288 1364 580 
Q 1569 -128 1984 -844 
L 1484 -844 
Q 1016 -109 783 600 
Q 550 1309 550 2009 
Q 550 2706 781 3412 
Q 1013 4119 1484 4856 
L 1984 4856 
z
" id="DejaVuSans-28" transform="scale(0.015625)"/>
       <path d="M 2834 3397 
L 2834 2853 
Q 2591 2978 2328 3040 
Q 2066 3103 1784 3103 
Q 1356 3103 1142 2972 
Q 928 2841 928 2578 
Q 928 2378 1081 2264 
Q 1234 2150 1697 2047 
L 1894 2003 
Q 2506 1872 2764 1633 
Q 3022 1394 3022 966 
Q 3022 478 2636 193 
Q 2250 -91 1575 -91 
Q 1294 -91 989 -36 
Q 684 19 347 128 
L 347 722 
Q 666 556 975 473 
Q 1284 391 1588 391 
Q 1994 391 2212 530 
Q 2431 669 2431 922 
Q 2431 1156 2273 1281 
Q 2116 1406 1581 1522 
L 1381 1569 
Q 847 1681 609 1914 
Q 372 2147 372 2553 
Q 372 3047 722 3315 
Q 1072 3584 1716 3584 
Q 2034 3584 2315 3537 
Q 2597 3491 2834 3397 
z
" id="DejaVuSans-73" transform="scale(0.015625)"/>
       <path d="M 3122 3366 
L 3122 2828 
Q 2878 2963 2633 3030 
Q 2388 3097 2138 3097 
Q 1578 3097 1268 2742 
Q 959 2388 959 1747 
Q 959 1106 1268 751 
Q 1578 397 2138 397 
Q 2388 397 2633 464 
Q 2878 531 3122 666 
L 3122 134 
Q 2881 22 2623 -34 
Q 2366 -91 2075 -91 
Q 1284 -91 818 406 
Q 353 903 353 1747 
Q 353 2603 823 3093 
Q 1294 3584 2113 3584 
Q 2378 3584 2631 3529 
Q 2884 3475 3122 3366 
z
" id="DejaVuSans-63" transform="scale(0.015625)"/>
       <path d="M 513 4856 
L 1013 4856 
Q 1481 4119 1714 3412 
Q 1947 2706 1947 2009 
Q 1947 1309 1714 600 
Q 1481 -109 1013 -844 
L 513 -844 
Q 928 -128 1133 580 
Q 1338 1288 1338 2009 
Q 1338 2731 1133 3434 
Q 928 4138 513 4856 
z
" id="DejaVuSans-29" transform="scale(0.015625)"/>
      </defs>
      <use xlink:href="#DejaVuSans-54"/>
      <use x="57.958984" xlink:href="#DejaVuSans-69"/>
      <use x="85.742188" xlink:href="#DejaVuSans-6d"/>
      <use x="183.154297" xlink:href="#DejaVuSans-65"/>
      <use x="244.677734" xlink:href="#DejaVuSans-20"/>
      <use x="276.464844" xlink:href="#DejaVuSans-74"/>
      <use x="315.673828" xlink:href="#DejaVuSans-61"/>
      <use x="376.953125" xlink:href="#DejaVuSans-6b"/>
      <use x="431.238281" xlink:href="#DejaVuSans-65"/>
      <use x="492.761719" xlink:href="#DejaVuSans-6e"/>
      <use x="556.140625" xlink:href="#DejaVuSans-20"/>
      <use x="587.927734" xlink:href="#DejaVuSans-28"/>
      <use x="626.941406" xlink:href="#DejaVuSans-73"/>
      <use x="679.041016" xlink:href="#DejaVuSans-65"/>
      <use x="740.564453" xlink:href="#DejaVuSans-63"/>
      <use x="795.544922" xlink:href="#DejaVuSans-29"/>
     </g>
    </g>
   </g>
   <g id="matplotlib.axis_2">
    <g id="ytick_1">
     <g id="line2d_8">
      <defs>
       <path d="M 0 0 
L -3.5 0 
" id="m9dc5951ec2" style="stroke:#000000;stroke-width:0.8;"/>
      </defs>
      <g>
       <use style="stroke:#000000;stroke-width:0.8;" x="57.6" xlink:href="#m9dc5951ec2" y="307.584"/>
      </g>
     </g>
     <g id="text_9">
      <!-- 0.0 -->
      <g transform="translate(34.696875 311.383219)scale(0.1 -0.1)">
       <defs>
        <path d="M 684 794 
L 1344 794 
L 1344 0 
L 684 0 
L 684 794 
z
" id="DejaVuSans-2e" transform="scale(0.015625)"/>
       </defs>
       <use xlink:href="#DejaVuSans-30"/>
       <use x="63.623047" xlink:href="#DejaVuSans-2e"/>
       <use x="95.410156" xlink:href="#DejaVuSans-30"/>
      </g>
     </g>
    </g>
    <g id="ytick_2">
     <g id="line2d_9">
      <g>
       <use style="stroke:#000000;stroke-width:0.8;" x="57.6" xlink:href="#m9dc5951ec2" y="278.016"/>
      </g>
     </g>
     <g id="text_10">
      <!-- 0.1 -->
      <g transform="translate(34.696875 281.815219)scale(0.1 -0.1)">
       <use xlink:href="#DejaVuSans-30"/>
       <use x="63.623047" xlink:href="#DejaVuSans-2e"/>
       <use x="95.410156" xlink:href="#DejaVuSans-31"/>
      </g>
     </g>
    </g>
    <g id="ytick_3">
     <g id="line2d_10">
      <g>
       <use style="stroke:#000000;stroke-width:0.8;" x="57.6" xlink:href="#m9dc5951ec2" y="248.448"/>
      </g>
     </g>
     <g id="text_11">
      <!-- 0.2 -->
      <g transform="translate(34.696875 252.247219)scale(0.1 -0.1)">
       <defs>
        <path d="M 1228 531 
L 3431 531 
L 3431 0 
L 469 0 
L 469 531 
Q 828 903 1448 1529 
Q 2069 2156 2228 2338 
Q 2531 2678 2651 2914 
Q 2772 3150 2772 3378 
Q 2772 3750 2511 3984 
Q 2250 4219 1831 4219 
Q 1534 4219 1204 4116 
Q 875 4013 500 3803 
L 500 4441 
Q 881 4594 1212 4672 
Q 1544 4750 1819 4750 
Q 2544 4750 2975 4387 
Q 3406 4025 3406 3419 
Q 3406 3131 3298 2873 
Q 3191 2616 2906 2266 
Q 2828 2175 2409 1742 
Q 1991 1309 1228 531 
z
" id="DejaVuSans-32" transform="scale(0.015625)"/>
       </defs>
       <use xlink:href="#DejaVuSans-30"/>
       <use x="63.623047" xlink:href="#DejaVuSans-2e"/>
       <use x="95.410156" xlink:href="#DejaVuSans-32"/>
      </g>
     </g>
    </g>
    <g id="ytick_4">
     <g id="line2d_11">
      <g>
       <use style="stroke:#000000;stroke-width:0.8;" x="57.6" xlink:href="#m9dc5951ec2" y="218.88"/>
      </g>
     </g>
     <g id="text_12">
      <!-- 0.3 -->
      <g transform="translate(34.696875 222.679219)scale(0.1 -0.1)">
       <use xlink:href="#DejaVuSans-30"/>
       <use x="63.623047" xlink:href="#DejaVuSans-2e"/>
       <use x="95.410156" xlink:href="#DejaVuSans-33"/>
      </g>
     </g>
    </g>
    <g id="ytick_5">
     <g id="line2d_12">
      <g>
       <use style="stroke:#000000;stroke-width:0.8;" x="57.6" xlink:href="#m9dc5951ec2" y="189.312"/>
      </g>
     </g>
     <g id="text_13">
      <!-- 0.4 -->
      <g transform="translate(34.696875 193.111219)scale(0.1 -0.1)">
       <use xlink:href="#DejaVuSans-30"/>
       <use x="63.623047" xlink:href="#DejaVuSans-2e"/>
       <use x="95.410156" xlink:href="#DejaVuSans-34"/>
      </g>
     </g>
    </g>
    <g id="ytick_6">
     <g id="line2d_13">
      <g>
       <use style="stroke:#000000;stroke-width:0.8;" x="57.6" xlink:href="#m9dc5951ec2" y="159.744"/>
      </g>
     </g>
     <g id="text_14">
      <!-- 0.5 -->
      <g transform="translate(34.696875 163.543219)scale(0.1 -0.1)">
       <use xlink:href="#DejaVuSans-30"/>
       <use x="63.623047" xlink:href="#DejaVuSans-2e"/>
       <use x="95.410156" xlink:href="#DejaVuSans-35"/>
      </g>
     </g>
    </g>
    <g id="ytick_7">
     <g id="line2d_14">
      <g>
       <use style="stroke:#000000;stroke-width:0.8;" x="57.6" xlink:href="#m9dc5951ec2" y="130.176"/>
      </g>
     </g>
     <g id="text_15">
      <!-- 0.6 -->
      <g transform="translate(34.696875 133.975219)scale(0.1 -0.1)">
       <use xlink:href="#DejaVuSans-30"/>
       <use x="63.623047" xlink:href="#DejaVuSans-2e"/>
       <use x="95.410156" xlink:href="#DejaVuSans-36"/>
      </g>
     </g>
    </g>
    <g id="ytick_8">
     <g id="line2d_15">
      <g>
       <use style="stroke:#000000;stroke-width:0.8;" x="57.6" xlink:href="#m9dc5951ec2" y="100.608"/>
      </g>
     </g>
     <g id="text_16">
      <!-- 0.7 -->
      <g transform="translate(34.696875 104.407219)scale(0.1 -0.1)">
       <use xlink:href="#DejaVuSans-30"/>
       <use x="63.623047" xlink:href="#DejaVuSans-2e"/>
       <use x="95.410156" xlink:href="#DejaVuSans-37"/>
      </g>
     </g>
    </g>
    <g id="ytick_9">
     <g id="line2d_16">
      <g>
       <use style="stroke:#000000;stroke-width:0.8;" x="57.6" xlink:href="#m9dc5951ec2" y="71.04"/>
      </g>
     </g>
     <g id="text_17">
      <!-- 0.8 -->
      <g transform="translate(34.696875 74.839219)scale(0.1 -0.1)">
       <defs>
        <path d="M 2034 2216 
Q 1584 2216 1326 1975 
Q 1069 1734 1069 1313 
Q 1069 891 1326 650 
Q 1584 409 2034 409 
Q 2484 409 2743 651 
Q 3003 894 3003 1313 
Q 3003 1734 2745 1975 
Q 2488 2216 2034 2216 
z
M 1403 2484 
Q 997 2584 770 2862 
Q 544 3141 544 3541 
Q 544 4100 942 4425 
Q 1341 4750 2034 4750 
Q 2731 4750 3128 4425 
Q 3525 4100 3525 3541 
Q 3525 3141 3298 2862 
Q 3072 2584 2669 2484 
Q 3125 2378 3379 2068 
Q 3634 1759 3634 1313 
Q 3634 634 3220 271 
Q 2806 -91 2034 -91 
Q 1263 -91 848 271 
Q 434 634 434 1313 
Q 434 1759 690 2068 
Q 947 2378 1403 2484 
z
M 1172 3481 
Q 1172 3119 1398 2916 
Q 1625 2713 2034 2713 
Q 2441 2713 2670 2916 
Q 2900 3119 2900 3481 
Q 2900 3844 2670 4047 
Q 2441 4250 2034 4250 
Q 1625 4250 1398 4047 
Q 1172 3844 1172 3481 
z
" id="DejaVuSans-38" transform="scale(0.015625)"/>
       </defs>
       <use xlink:href="#DejaVuSans-30"/>
       <use x="63.623047" xlink:href="#DejaVuSans-2e"/>
       <use x="95.410156" xlink:href="#DejaVuSans-38"/>
      </g>
     </g>
    </g>
    <g id="ytick_10">
     <g id="line2d_17">
      <g>
       <use style="stroke:#000000;stroke-width:0.8;" x="57.6" xlink:href="#m9dc5951ec2" y="41.472"/>
      </g>
     </g>
     <g id="text_18">
      <!-- 0.9 -->
      <g transform="translate(34.696875 45.271219)scale(0.1 -0.1)">
       <use xlink:href="#DejaVuSans-30"/>
       <use x="63.623047" xlink:href="#DejaVuSans-2e"/>
       <use x="95.410156" xlink:href="#DejaVuSans-39"/>
      </g>
     </g>
    </g>
    <g id="text_19">
     <!-- Accuracy -->
     <g transform="translate(28.617187 197.356125)rotate(-90)scale(0.1 -0.1)">
      <defs>
       <path d="M 2188 4044 
L 1331 1722 
L 3047 1722 
L 2188 4044 
z
M 1831 4666 
L 2547 4666 
L 4325 0 
L 3669 0 
L 3244 1197 
L 1141 1197 
L 716 0 
L 50 0 
L 1831 4666 
z
" id="DejaVuSans-41" transform="scale(0.015625)"/>
       <path d="M 544 1381 
L 544 3500 
L 1119 3500 
L 1119 1403 
Q 1119 906 1312 657 
Q 1506 409 1894 409 
Q 2359 409 2629 706 
Q 2900 1003 2900 1516 
L 2900 3500 
L 3475 3500 
L 3475 0 
L 2900 0 
L 2900 538 
Q 2691 219 2414 64 
Q 2138 -91 1772 -91 
Q 1169 -91 856 284 
Q 544 659 544 1381 
z
M 1991 3584 
L 1991 3584 
z
" id="DejaVuSans-75" transform="scale(0.015625)"/>
       <path d="M 2631 2963 
Q 2534 3019 2420 3045 
Q 2306 3072 2169 3072 
Q 1681 3072 1420 2755 
Q 1159 2438 1159 1844 
L 1159 0 
L 581 0 
L 581 3500 
L 1159 3500 
L 1159 2956 
Q 1341 3275 1631 3429 
Q 1922 3584 2338 3584 
Q 2397 3584 2469 3576 
Q 2541 3569 2628 3553 
L 2631 2963 
z
" id="DejaVuSans-72" transform="scale(0.015625)"/>
       <path d="M 2059 -325 
Q 1816 -950 1584 -1140 
Q 1353 -1331 966 -1331 
L 506 -1331 
L 506 -850 
L 844 -850 
Q 1081 -850 1212 -737 
Q 1344 -625 1503 -206 
L 1606 56 
L 191 3500 
L 800 3500 
L 1894 763 
L 2988 3500 
L 3597 3500 
L 2059 -325 
z
" id="DejaVuSans-79" transform="scale(0.015625)"/>
      </defs>
      <use xlink:href="#DejaVuSans-41"/>
      <use x="66.658203" xlink:href="#DejaVuSans-63"/>
      <use x="121.638672" xlink:href="#DejaVuSans-63"/>
      <use x="176.619141" xlink:href="#DejaVuSans-75"/>
      <use x="239.998047" xlink:href="#DejaVuSans-72"/>
      <use x="281.111328" xlink:href="#DejaVuSans-61"/>
      <use x="342.390625" xlink:href="#DejaVuSans-63"/>
      <use x="397.371094" xlink:href="#DejaVuSans-79"/>
     </g>
    </g>
   </g>
   <g id="line2d_18">
    <path clip-path="url(#p03b5cb5dfa)" d="M 74.094252 252.574757 
L 75.708646 232.423137 
L 77.606121 232.423137 
L 79.318333 252.489669 
L 80.933176 245.044489 
L 82.793389 248.065105 
L 84.852133 252.489669 
L 86.483157 220.291039 
L 87.987921 221.326273 
L 90.245407 214.093813 
L 92.243861 205.599217 
L 94.091948 206.606089 
L 95.970789 222.368599 
L 97.717248 188.709295 
L 99.389043 196.955718 
L 100.978299 208.967275 
L 102.601641 204.613617 
L 104.898332 195.899212 
L 106.439825 191.446285 
L 108.167483 200.508132 
L 110.198014 185.497232 
L 112.147582 194.048553 
L 114.382177 189.815436 
L 116.182102 200.203235 
L 117.909297 186.263022 
L 119.613529 185.057612 
L 121.207013 197.423701 
L 122.746392 202.975678 
L 124.866028 179.314187 
L 126.61303 169.167471 
L 128.469276 184.873255 
L 129.964622 181.32084 
L 131.732349 181.285387 
L 133.301156 172.946786 
L 134.985831 174.556363 
L 136.691448 189.950158 
L 138.495809 188.879471 
L 140.036372 175.754682 
L 141.818102 175.045617 
L 143.487549 178.264771 
L 145.174119 169.38019 
L 146.701643 169.982895 
L 148.360154 177.350078 
L 150.116363 165.246342 
L 152.178528 162.211545 
L 153.700644 163.658037 
L 155.688756 163.6864 
L 157.358145 170.528875 
L 159.221571 167.664253 
L 161.285678 166.792104 
L 163.008885 156.262492 
L 164.583403 155.936322 
L 166.15099 165.040714 
L 167.671596 170.202705 
L 169.231122 163.551678 
L 170.740842 166.005042 
L 172.435785 168.444224 
L 174.085665 172.712794 
L 175.623428 168.415862 
L 177.455584 149.810003 
L 179.209811 161.481209 
L 180.791765 144.456564 
L 182.652815 151.107591 
L 184.757489 149.909272 
L 186.436516 150.490705 
L 188.024916 166.579384 
L 190.047653 156.67375 
L 192.001423 155.071263 
L 193.665929 152.093191 
L 195.296724 159.510009 
L 196.873574 171.315937 
L 198.729835 161.842832 
L 200.262311 149.186026 
L 202.044943 160.233255 
L 203.966232 146.200863 
L 205.94003 164.905991 
L 207.541682 151.96556 
L 209.185214 146.314314 
L 211.030623 147.143919 
L 212.854169 160.091442 
L 214.521002 149.427108 
L 216.305703 158.340052 
L 218.47519 141.209047 
L 220.272049 147.668627 
L 222.032993 155.638515 
L 223.997809 150.504886 
L 225.585683 141.989019 
L 227.411624 152.476086 
L 229.143845 156.943194 
L 231.098829 146.250498 
L 232.837387 134.813283 
L 234.520009 132.303194 
L 236.19595 137.046837 
L 237.945113 151.759931 
L 239.677133 144.804006 
L 241.570113 142.669721 
L 243.104177 153.965122 
L 245.025536 141.074325 
L 248.682322 148.25006 
L 250.836045 140.514164 
L 252.594547 142.818624 
L 254.141702 135.536529 
L 255.853872 153.993485 
L 257.44668 143.790043 
L 259.096617 149.512196 
L 260.938289 146.675937 
L 262.747283 130.197272 
L 264.584592 131.998296 
L 266.463233 141.109778 
L 268.032806 141.464311 
L 269.623521 143.109341 
L 271.585357 137.748812 
L 273.299638 138.812409 
L 275.057057 157.801163 
L 276.838503 135.64998 
L 278.453009 142.719355 
L 280.056992 127.999171 
L 281.744933 145.881784 
L 283.429948 130.480898 
L 285.56749 152.788075 
L 287.439186 143.53478 
L 289.146292 128.913865 
L 290.889736 133.948224 
L 292.830765 157.737347 
L 294.470476 137.0752 
L 296.258604 135.657071 
L 297.804191 142.527908 
L 299.353045 127.651729 
L 300.907501 144.591286 
L 302.661212 130.594348 
L 304.581374 144.172938 
L 306.209422 141.790481 
L 308.174655 132.019568 
L 309.775371 135.139453 
L 311.33222 140.36526 
L 312.945398 147.831712 
L 314.804459 150.880691 
L 316.566871 144.74019 
L 318.243096 127.885721 
L 320.118049 148.335148 
L 321.838131 141.627396 
L 323.554477 144.541652 
L 325.171097 153.61059 
L 326.831799 140.861606 
L 328.877592 140.258901 
L 330.72593 134.260213 
L 332.440395 131.991206 
L 334.149674 136.52922 
L 336.08751 138.17425 
L 338.186508 131.48777 
L 339.916366 134.948006 
L 341.463665 142.939165 
L 343.129911 137.018475 
L 344.944825 125.368541 
L 346.769161 138.542964 
L 348.670056 136.19596 
L 350.270902 146.803568 
L 352.225318 128.800414 
L 353.921866 143.64823 
L 355.778063 131.757214 
L 357.553793 141.45722 
L 359.324999 136.912115 
L 361.264819 124.801289 
L 363.070359 145.548524 
L 364.737387 148.696771 
L 366.424594 150.157445 
L 370.061601 136.252685 
L 371.785764 147.987706 
L 371.785764 147.987706 
" style="fill:none;stroke:#1f77b4;stroke-dasharray:5.55,2.4;stroke-dashoffset:0;stroke-width:1.5;"/>
   </g>
   <g id="line2d_19">
    <path clip-path="url(#p03b5cb5dfa)" d="M 73.888124 240.790101 
L 75.384368 211.775171 
L 76.880611 225.148132 
L 78.376855 228.246745 
L 79.873098 213.179119 
L 81.369342 201.741905 
L 82.865585 201.890809 
L 84.361828 199.309813 
L 85.858072 187.716604 
L 87.354315 192.368069 
L 88.850559 189.148915 
L 90.346802 188.780201 
L 91.843046 190.021065 
L 93.339289 190.985393 
L 96.331776 184.979614 
L 97.828019 180.4416 
L 99.324263 184.554176 
L 100.820506 183.206953 
L 102.31675 180.313968 
L 103.812993 181.994452 
L 105.309237 181.994452 
L 106.80548 178.002417 
L 109.797967 180.101249 
L 111.29421 176.662285 
L 112.790454 176.931729 
L 114.286697 176.619741 
L 115.782941 175.052708 
L 117.279184 171.060673 
L 118.775428 172.932604 
L 120.271671 170.394153 
L 121.767914 167.182089 
L 123.264158 168.536403 
L 124.760401 167.309721 
L 126.256645 164.34583 
L 127.752888 163.835304 
L 129.249132 161.864104 
L 130.745375 163.374412 
L 132.241619 161.722291 
L 133.737862 159.552553 
L 135.234105 163.346049 
L 136.730349 160.531062 
L 138.226592 158.921485 
L 139.722836 154.730912 
L 141.219079 154.511102 
L 142.715323 153.248967 
L 144.211566 151.518849 
L 145.707809 151.433761 
L 147.204053 150.348892 
L 148.700296 150.00145 
L 150.19654 148.328058 
L 151.692783 149.512196 
L 153.189027 152.164098 
L 156.181514 145.917237 
L 157.677757 144.676374 
L 159.174 145.427983 
L 160.670244 144.336023 
L 162.166487 140.833243 
L 163.662731 140.294354 
L 165.158974 146.300132 
L 166.655218 141.634486 
L 168.151461 143.570233 
L 169.647705 139.783827 
L 171.143948 140.670158 
L 172.640191 136.337773 
L 174.136435 138.897496 
L 175.632678 137.933168 
L 177.128922 136.19596 
L 178.625165 136.266866 
L 180.121409 140.755246 
L 181.617652 136.74194 
L 183.113895 134.657289 
L 184.610139 133.707142 
L 186.106382 134.55802 
L 187.602626 131.459407 
L 189.098869 130.190181 
L 190.595113 132.636455 
L 192.091356 136.42286 
L 193.5876 133.941134 
L 195.083843 129.204581 
L 196.580086 130.82834 
L 198.07633 131.232506 
L 199.572573 130.190181 
L 201.068817 130.268178 
L 202.56506 130.473807 
L 205.557547 132.005387 
L 208.550034 130.126365 
L 210.046277 135.735068 
L 211.542521 130.977243 
L 213.038764 129.176219 
L 214.535008 131.27505 
L 216.031251 130.083822 
L 217.527495 130.658164 
L 219.023738 134.699833 
L 220.519981 130.183091 
L 222.016225 129.474026 
L 223.512468 133.267522 
L 225.008712 132.69318 
L 226.504955 129.176219 
L 228.001199 129.126584 
L 229.497442 129.644201 
L 230.993686 128.304069 
L 232.489929 129.481117 
L 233.986172 130.424173 
L 235.482416 129.438573 
L 236.978659 128.616058 
L 238.474903 127.524098 
L 239.971146 127.509917 
L 241.46739 127.999171 
L 242.963633 127.928265 
L 244.459877 126.843396 
L 245.95612 127.559551 
L 247.452363 130.211453 
L 248.948607 126.105968 
L 250.44485 127.169565 
L 251.941094 130.899246 
L 253.437337 126.368322 
L 254.933581 129.119494 
L 256.429824 127.169565 
L 257.926067 129.431482 
L 259.422311 126.403776 
L 260.918554 127.800633 
L 262.414798 127.141203 
L 263.911041 129.381847 
L 265.407285 126.417957 
L 266.903528 126.89303 
L 268.399772 127.914083 
L 269.896015 126.985209 
L 271.392258 125.014009 
L 272.888502 128.346613 
L 274.384745 126.283235 
L 275.880989 126.488863 
L 277.377232 126.070515 
L 278.873476 125.269272 
L 280.369719 128.545151 
L 281.865963 125.708892 
L 283.362206 125.177094 
L 284.858449 125.90034 
L 286.354693 127.32556 
L 287.850936 125.666348 
L 289.34718 125.439447 
L 290.843423 124.645295 
L 292.339667 124.503482 
L 293.83591 124.134768 
L 295.332153 125.177094 
L 296.828397 125.432357 
L 298.32464 125.389813 
L 299.820884 124.928921 
L 301.317127 127.502826 
L 302.813371 125.481991 
L 304.309614 126.488863 
L 305.805858 125.90743 
L 307.302101 124.680748 
L 308.798344 124.184403 
L 310.294588 125.737255 
L 311.790831 123.113715 
L 313.287075 127.141203 
L 314.783318 124.836742 
L 316.279562 125.609623 
L 317.775805 123.099534 
L 319.272049 125.36145 
L 320.768292 123.241347 
L 322.264535 124.290763 
L 323.760779 123.815689 
L 325.257022 126.12724 
L 326.753266 122.603188 
L 326.753266 122.603188 
" style="fill:none;stroke:#ff7f0e;stroke-dasharray:9.6,2.4,1.5,2.4;stroke-dashoffset:0;stroke-width:1.5;"/>
   </g>
   <g id="line2d_20">
    <defs>
     <path d="M 3 0 
L -3 -3 
L -3 3 
z
" id="m233cedf8c6" style="stroke:#2ca02c;stroke-linejoin:miter;"/>
    </defs>
    <g clip-path="url(#p03b5cb5dfa)">
     <use style="fill:#2ca02c;stroke:#2ca02c;stroke-linejoin:miter;" x="73.832727" xlink:href="#m233cedf8c6" y="243.342734"/>
     <use style="fill:#2ca02c;stroke:#2ca02c;stroke-linejoin:miter;" x="75.273574" xlink:href="#m233cedf8c6" y="235.025404"/>
     <use style="fill:#2ca02c;stroke:#2ca02c;stroke-linejoin:miter;" x="76.71442" xlink:href="#m233cedf8c6" y="243.342734"/>
     <use style="fill:#2ca02c;stroke:#2ca02c;stroke-linejoin:miter;" x="78.155266" xlink:href="#m233cedf8c6" y="243.342734"/>
     <use style="fill:#2ca02c;stroke:#2ca02c;stroke-linejoin:miter;" x="79.596113" xlink:href="#m233cedf8c6" y="241.059545"/>
     <use style="fill:#2ca02c;stroke:#2ca02c;stroke-linejoin:miter;" x="81.036959" xlink:href="#m233cedf8c6" y="229.636512"/>
     <use style="fill:#2ca02c;stroke:#2ca02c;stroke-linejoin:miter;" x="82.477805" xlink:href="#m233cedf8c6" y="245.845732"/>
     <use style="fill:#2ca02c;stroke:#2ca02c;stroke-linejoin:miter;" x="83.918652" xlink:href="#m233cedf8c6" y="223.652006"/>
     <use style="fill:#2ca02c;stroke:#2ca02c;stroke-linejoin:miter;" x="85.359498" xlink:href="#m233cedf8c6" y="224.311436"/>
     <use style="fill:#2ca02c;stroke:#2ca02c;stroke-linejoin:miter;" x="86.800344" xlink:href="#m233cedf8c6" y="224.283073"/>
     <use style="fill:#2ca02c;stroke:#2ca02c;stroke-linejoin:miter;" x="88.241191" xlink:href="#m233cedf8c6" y="228.204201"/>
     <use style="fill:#2ca02c;stroke:#2ca02c;stroke-linejoin:miter;" x="89.682037" xlink:href="#m233cedf8c6" y="222.404052"/>
     <use style="fill:#2ca02c;stroke:#2ca02c;stroke-linejoin:miter;" x="91.122883" xlink:href="#m233cedf8c6" y="227.85676"/>
     <use style="fill:#2ca02c;stroke:#2ca02c;stroke-linejoin:miter;" x="92.563729" xlink:href="#m233cedf8c6" y="227.757491"/>
     <use style="fill:#2ca02c;stroke:#2ca02c;stroke-linejoin:miter;" x="94.004576" xlink:href="#m233cedf8c6" y="218.518377"/>
     <use style="fill:#2ca02c;stroke:#2ca02c;stroke-linejoin:miter;" x="95.445422" xlink:href="#m233cedf8c6" y="219.021813"/>
     <use style="fill:#2ca02c;stroke:#2ca02c;stroke-linejoin:miter;" x="96.886268" xlink:href="#m233cedf8c6" y="207.804409"/>
     <use style="fill:#2ca02c;stroke:#2ca02c;stroke-linejoin:miter;" x="98.327115" xlink:href="#m233cedf8c6" y="215.136138"/>
     <use style="fill:#2ca02c;stroke:#2ca02c;stroke-linejoin:miter;" x="99.767961" xlink:href="#m233cedf8c6" y="215.667937"/>
     <use style="fill:#2ca02c;stroke:#2ca02c;stroke-linejoin:miter;" x="101.208807" xlink:href="#m233cedf8c6" y="202.252432"/>
     <use style="fill:#2ca02c;stroke:#2ca02c;stroke-linejoin:miter;" x="102.649654" xlink:href="#m233cedf8c6" y="198.324213"/>
     <use style="fill:#2ca02c;stroke:#2ca02c;stroke-linejoin:miter;" x="104.0905" xlink:href="#m233cedf8c6" y="220.369036"/>
     <use style="fill:#2ca02c;stroke:#2ca02c;stroke-linejoin:miter;" x="105.531346" xlink:href="#m233cedf8c6" y="193.701111"/>
     <use style="fill:#2ca02c;stroke:#2ca02c;stroke-linejoin:miter;" x="106.972193" xlink:href="#m233cedf8c6" y="205.067419"/>
     <use style="fill:#2ca02c;stroke:#2ca02c;stroke-linejoin:miter;" x="108.413039" xlink:href="#m233cedf8c6" y="187.830055"/>
     <use style="fill:#2ca02c;stroke:#2ca02c;stroke-linejoin:miter;" x="109.853885" xlink:href="#m233cedf8c6" y="199.082912"/>
     <use style="fill:#2ca02c;stroke:#2ca02c;stroke-linejoin:miter;" x="111.294732" xlink:href="#m233cedf8c6" y="194.169094"/>
     <use style="fill:#2ca02c;stroke:#2ca02c;stroke-linejoin:miter;" x="112.735578" xlink:href="#m233cedf8c6" y="192.680058"/>
     <use style="fill:#2ca02c;stroke:#2ca02c;stroke-linejoin:miter;" x="114.176424" xlink:href="#m233cedf8c6" y="205.897024"/>
     <use style="fill:#2ca02c;stroke:#2ca02c;stroke-linejoin:miter;" x="115.617271" xlink:href="#m233cedf8c6" y="197.756961"/>
     <use style="fill:#2ca02c;stroke:#2ca02c;stroke-linejoin:miter;" x="117.058117" xlink:href="#m233cedf8c6" y="183.958561"/>
     <use style="fill:#2ca02c;stroke:#2ca02c;stroke-linejoin:miter;" x="118.498963" xlink:href="#m233cedf8c6" y="211.640449"/>
     <use style="fill:#2ca02c;stroke:#2ca02c;stroke-linejoin:miter;" x="119.93981" xlink:href="#m233cedf8c6" y="187.631517"/>
     <use style="fill:#2ca02c;stroke:#2ca02c;stroke-linejoin:miter;" x="121.380656" xlink:href="#m233cedf8c6" y="183.022596"/>
     <use style="fill:#2ca02c;stroke:#2ca02c;stroke-linejoin:miter;" x="122.821502" xlink:href="#m233cedf8c6" y="188.801473"/>
     <use style="fill:#2ca02c;stroke:#2ca02c;stroke-linejoin:miter;" x="124.262349" xlink:href="#m233cedf8c6" y="187.092627"/>
     <use style="fill:#2ca02c;stroke:#2ca02c;stroke-linejoin:miter;" x="125.703195" xlink:href="#m233cedf8c6" y="184.306003"/>
     <use style="fill:#2ca02c;stroke:#2ca02c;stroke-linejoin:miter;" x="127.144041" xlink:href="#m233cedf8c6" y="183.07223"/>
     <use style="fill:#2ca02c;stroke:#2ca02c;stroke-linejoin:miter;" x="128.584888" xlink:href="#m233cedf8c6" y="180.796132"/>
     <use style="fill:#2ca02c;stroke:#2ca02c;stroke-linejoin:miter;" x="130.025734" xlink:href="#m233cedf8c6" y="182.965871"/>
     <use style="fill:#2ca02c;stroke:#2ca02c;stroke-linejoin:miter;" x="131.46658" xlink:href="#m233cedf8c6" y="184.525813"/>
     <use style="fill:#2ca02c;stroke:#2ca02c;stroke-linejoin:miter;" x="132.907427" xlink:href="#m233cedf8c6" y="184.539994"/>
     <use style="fill:#2ca02c;stroke:#2ca02c;stroke-linejoin:miter;" x="134.348273" xlink:href="#m233cedf8c6" y="182.930417"/>
     <use style="fill:#2ca02c;stroke:#2ca02c;stroke-linejoin:miter;" x="135.789119" xlink:href="#m233cedf8c6" y="182.200081"/>
     <use style="fill:#2ca02c;stroke:#2ca02c;stroke-linejoin:miter;" x="137.229966" xlink:href="#m233cedf8c6" y="178.58385"/>
     <use style="fill:#2ca02c;stroke:#2ca02c;stroke-linejoin:miter;" x="138.670812" xlink:href="#m233cedf8c6" y="180.66141"/>
     <use style="fill:#2ca02c;stroke:#2ca02c;stroke-linejoin:miter;" x="140.111658" xlink:href="#m233cedf8c6" y="182.951689"/>
     <use style="fill:#2ca02c;stroke:#2ca02c;stroke-linejoin:miter;" x="141.552504" xlink:href="#m233cedf8c6" y="181.327931"/>
     <use style="fill:#2ca02c;stroke:#2ca02c;stroke-linejoin:miter;" x="142.993351" xlink:href="#m233cedf8c6" y="176.399931"/>
     <use style="fill:#2ca02c;stroke:#2ca02c;stroke-linejoin:miter;" x="144.434197" xlink:href="#m233cedf8c6" y="177.250809"/>
     <use style="fill:#2ca02c;stroke:#2ca02c;stroke-linejoin:miter;" x="145.875043" xlink:href="#m233cedf8c6" y="182.753151"/>
     <use style="fill:#2ca02c;stroke:#2ca02c;stroke-linejoin:miter;" x="147.31589" xlink:href="#m233cedf8c6" y="178.158412"/>
     <use style="fill:#2ca02c;stroke:#2ca02c;stroke-linejoin:miter;" x="148.756736" xlink:href="#m233cedf8c6" y="174.988892"/>
     <use style="fill:#2ca02c;stroke:#2ca02c;stroke-linejoin:miter;" x="150.197582" xlink:href="#m233cedf8c6" y="179.441819"/>
     <use style="fill:#2ca02c;stroke:#2ca02c;stroke-linejoin:miter;" x="151.638429" xlink:href="#m233cedf8c6" y="175.882314"/>
     <use style="fill:#2ca02c;stroke:#2ca02c;stroke-linejoin:miter;" x="153.079275" xlink:href="#m233cedf8c6" y="179.392184"/>
     <use style="fill:#2ca02c;stroke:#2ca02c;stroke-linejoin:miter;" x="154.520121" xlink:href="#m233cedf8c6" y="180.271424"/>
     <use style="fill:#2ca02c;stroke:#2ca02c;stroke-linejoin:miter;" x="155.960968" xlink:href="#m233cedf8c6" y="174.953439"/>
     <use style="fill:#2ca02c;stroke:#2ca02c;stroke-linejoin:miter;" x="157.401814" xlink:href="#m233cedf8c6" y="178.271862"/>
     <use style="fill:#2ca02c;stroke:#2ca02c;stroke-linejoin:miter;" x="158.84266" xlink:href="#m233cedf8c6" y="180.165065"/>
     <use style="fill:#2ca02c;stroke:#2ca02c;stroke-linejoin:miter;" x="160.283507" xlink:href="#m233cedf8c6" y="177.867695"/>
     <use style="fill:#2ca02c;stroke:#2ca02c;stroke-linejoin:miter;" x="161.724353" xlink:href="#m233cedf8c6" y="177.314624"/>
     <use style="fill:#2ca02c;stroke:#2ca02c;stroke-linejoin:miter;" x="163.165199" xlink:href="#m233cedf8c6" y="181.136483"/>
     <use style="fill:#2ca02c;stroke:#2ca02c;stroke-linejoin:miter;" x="164.606046" xlink:href="#m233cedf8c6" y="177.030999"/>
     <use style="fill:#2ca02c;stroke:#2ca02c;stroke-linejoin:miter;" x="166.046892" xlink:href="#m233cedf8c6" y="173.280046"/>
     <use style="fill:#2ca02c;stroke:#2ca02c;stroke-linejoin:miter;" x="167.487738" xlink:href="#m233cedf8c6" y="179.448909"/>
     <use style="fill:#2ca02c;stroke:#2ca02c;stroke-linejoin:miter;" x="168.928585" xlink:href="#m233cedf8c6" y="177.26499"/>
     <use style="fill:#2ca02c;stroke:#2ca02c;stroke-linejoin:miter;" x="170.369431" xlink:href="#m233cedf8c6" y="177.385531"/>
     <use style="fill:#2ca02c;stroke:#2ca02c;stroke-linejoin:miter;" x="171.810277" xlink:href="#m233cedf8c6" y="177.676247"/>
     <use style="fill:#2ca02c;stroke:#2ca02c;stroke-linejoin:miter;" x="173.251124" xlink:href="#m233cedf8c6" y="175.471056"/>
     <use style="fill:#2ca02c;stroke:#2ca02c;stroke-linejoin:miter;" x="174.69197" xlink:href="#m233cedf8c6" y="175.981583"/>
     <use style="fill:#2ca02c;stroke:#2ca02c;stroke-linejoin:miter;" x="176.132816" xlink:href="#m233cedf8c6" y="174.258555"/>
     <use style="fill:#2ca02c;stroke:#2ca02c;stroke-linejoin:miter;" x="177.573663" xlink:href="#m233cedf8c6" y="181.264115"/>
     <use style="fill:#2ca02c;stroke:#2ca02c;stroke-linejoin:miter;" x="179.014509" xlink:href="#m233cedf8c6" y="177.350078"/>
     <use style="fill:#2ca02c;stroke:#2ca02c;stroke-linejoin:miter;" x="180.455355" xlink:href="#m233cedf8c6" y="179.399275"/>
     <use style="fill:#2ca02c;stroke:#2ca02c;stroke-linejoin:miter;" x="181.896202" xlink:href="#m233cedf8c6" y="170.110527"/>
     <use style="fill:#2ca02c;stroke:#2ca02c;stroke-linejoin:miter;" x="183.337048" xlink:href="#m233cedf8c6" y="176.208483"/>
     <use style="fill:#2ca02c;stroke:#2ca02c;stroke-linejoin:miter;" x="184.777894" xlink:href="#m233cedf8c6" y="177.172812"/>
     <use style="fill:#2ca02c;stroke:#2ca02c;stroke-linejoin:miter;" x="186.218741" xlink:href="#m233cedf8c6" y="170.862135"/>
     <use style="fill:#2ca02c;stroke:#2ca02c;stroke-linejoin:miter;" x="187.659587" xlink:href="#m233cedf8c6" y="172.911332"/>
     <use style="fill:#2ca02c;stroke:#2ca02c;stroke-linejoin:miter;" x="189.100433" xlink:href="#m233cedf8c6" y="175.471056"/>
     <use style="fill:#2ca02c;stroke:#2ca02c;stroke-linejoin:miter;" x="190.541279" xlink:href="#m233cedf8c6" y="177.030999"/>
     <use style="fill:#2ca02c;stroke:#2ca02c;stroke-linejoin:miter;" x="191.982126" xlink:href="#m233cedf8c6" y="178.434947"/>
     <use style="fill:#2ca02c;stroke:#2ca02c;stroke-linejoin:miter;" x="193.422972" xlink:href="#m233cedf8c6" y="174.627269"/>
     <use style="fill:#2ca02c;stroke:#2ca02c;stroke-linejoin:miter;" x="194.863818" xlink:href="#m233cedf8c6" y="171.720104"/>
     <use style="fill:#2ca02c;stroke:#2ca02c;stroke-linejoin:miter;" x="196.304665" xlink:href="#m233cedf8c6" y="174.754901"/>
     <use style="fill:#2ca02c;stroke:#2ca02c;stroke-linejoin:miter;" x="197.745511" xlink:href="#m233cedf8c6" y="179.115649"/>
     <use style="fill:#2ca02c;stroke:#2ca02c;stroke-linejoin:miter;" x="199.186357" xlink:href="#m233cedf8c6" y="172.003729"/>
     <use style="fill:#2ca02c;stroke:#2ca02c;stroke-linejoin:miter;" x="200.627204" xlink:href="#m233cedf8c6" y="169.720541"/>
     <use style="fill:#2ca02c;stroke:#2ca02c;stroke-linejoin:miter;" x="202.06805" xlink:href="#m233cedf8c6" y="176.534653"/>
     <use style="fill:#2ca02c;stroke:#2ca02c;stroke-linejoin:miter;" x="203.508896" xlink:href="#m233cedf8c6" y="169.465278"/>
     <use style="fill:#2ca02c;stroke:#2ca02c;stroke-linejoin:miter;" x="204.949743" xlink:href="#m233cedf8c6" y="175.726319"/>
     <use style="fill:#2ca02c;stroke:#2ca02c;stroke-linejoin:miter;" x="206.390589" xlink:href="#m233cedf8c6" y="176.314843"/>
     <use style="fill:#2ca02c;stroke:#2ca02c;stroke-linejoin:miter;" x="207.831435" xlink:href="#m233cedf8c6" y="174.166377"/>
     <use style="fill:#2ca02c;stroke:#2ca02c;stroke-linejoin:miter;" x="209.272282" xlink:href="#m233cedf8c6" y="172.77661"/>
     <use style="fill:#2ca02c;stroke:#2ca02c;stroke-linejoin:miter;" x="210.713128" xlink:href="#m233cedf8c6" y="169.011476"/>
     <use style="fill:#2ca02c;stroke:#2ca02c;stroke-linejoin:miter;" x="212.153974" xlink:href="#m233cedf8c6" y="173.067327"/>
     <use style="fill:#2ca02c;stroke:#2ca02c;stroke-linejoin:miter;" x="213.594821" xlink:href="#m233cedf8c6" y="177.002636"/>
     <use style="fill:#2ca02c;stroke:#2ca02c;stroke-linejoin:miter;" x="215.035667" xlink:href="#m233cedf8c6" y="171.620835"/>
     <use style="fill:#2ca02c;stroke:#2ca02c;stroke-linejoin:miter;" x="216.476513" xlink:href="#m233cedf8c6" y="173.797663"/>
     <use style="fill:#2ca02c;stroke:#2ca02c;stroke-linejoin:miter;" x="217.91736" xlink:href="#m233cedf8c6" y="169.947442"/>
     <use style="fill:#2ca02c;stroke:#2ca02c;stroke-linejoin:miter;" x="219.358206" xlink:href="#m233cedf8c6" y="174.499637"/>
     <use style="fill:#2ca02c;stroke:#2ca02c;stroke-linejoin:miter;" x="220.799052" xlink:href="#m233cedf8c6" y="172.216449"/>
     <use style="fill:#2ca02c;stroke:#2ca02c;stroke-linejoin:miter;" x="222.239899" xlink:href="#m233cedf8c6" y="174.336553"/>
     <use style="fill:#2ca02c;stroke:#2ca02c;stroke-linejoin:miter;" x="223.680745" xlink:href="#m233cedf8c6" y="171.698832"/>
     <use style="fill:#2ca02c;stroke:#2ca02c;stroke-linejoin:miter;" x="225.121591" xlink:href="#m233cedf8c6" y="174.294009"/>
     <use style="fill:#2ca02c;stroke:#2ca02c;stroke-linejoin:miter;" x="226.562438" xlink:href="#m233cedf8c6" y="170.791229"/>
     <use style="fill:#2ca02c;stroke:#2ca02c;stroke-linejoin:miter;" x="228.003284" xlink:href="#m233cedf8c6" y="171.705922"/>
     <use style="fill:#2ca02c;stroke:#2ca02c;stroke-linejoin:miter;" x="229.44413" xlink:href="#m233cedf8c6" y="172.124271"/>
     <use style="fill:#2ca02c;stroke:#2ca02c;stroke-linejoin:miter;" x="230.884977" xlink:href="#m233cedf8c6" y="168.259868"/>
     <use style="fill:#2ca02c;stroke:#2ca02c;stroke-linejoin:miter;" x="232.325823" xlink:href="#m233cedf8c6" y="171.202486"/>
     <use style="fill:#2ca02c;stroke:#2ca02c;stroke-linejoin:miter;" x="233.766669" xlink:href="#m233cedf8c6" y="168.756213"/>
     <use style="fill:#2ca02c;stroke:#2ca02c;stroke-linejoin:miter;" x="235.207516" xlink:href="#m233cedf8c6" y="169.70636"/>
     <use style="fill:#2ca02c;stroke:#2ca02c;stroke-linejoin:miter;" x="236.648362" xlink:href="#m233cedf8c6" y="169.465278"/>
     <use style="fill:#2ca02c;stroke:#2ca02c;stroke-linejoin:miter;" x="238.089208" xlink:href="#m233cedf8c6" y="172.656069"/>
     <use style="fill:#2ca02c;stroke:#2ca02c;stroke-linejoin:miter;" x="239.530054" xlink:href="#m233cedf8c6" y="170.280702"/>
     <use style="fill:#2ca02c;stroke:#2ca02c;stroke-linejoin:miter;" x="240.970901" xlink:href="#m233cedf8c6" y="170.231068"/>
     <use style="fill:#2ca02c;stroke:#2ca02c;stroke-linejoin:miter;" x="242.411747" xlink:href="#m233cedf8c6" y="170.564328"/>
     <use style="fill:#2ca02c;stroke:#2ca02c;stroke-linejoin:miter;" x="243.852593" xlink:href="#m233cedf8c6" y="172.379534"/>
     <use style="fill:#2ca02c;stroke:#2ca02c;stroke-linejoin:miter;" x="245.29344" xlink:href="#m233cedf8c6" y="172.762429"/>
     <use style="fill:#2ca02c;stroke:#2ca02c;stroke-linejoin:miter;" x="246.734286" xlink:href="#m233cedf8c6" y="173.109871"/>
     <use style="fill:#2ca02c;stroke:#2ca02c;stroke-linejoin:miter;" x="248.175132" xlink:href="#m233cedf8c6" y="168.94766"/>
     <use style="fill:#2ca02c;stroke:#2ca02c;stroke-linejoin:miter;" x="249.615979" xlink:href="#m233cedf8c6" y="169.387281"/>
     <use style="fill:#2ca02c;stroke:#2ca02c;stroke-linejoin:miter;" x="251.056825" xlink:href="#m233cedf8c6" y="167.763522"/>
     <use style="fill:#2ca02c;stroke:#2ca02c;stroke-linejoin:miter;" x="252.497671" xlink:href="#m233cedf8c6" y="170.621053"/>
     <use style="fill:#2ca02c;stroke:#2ca02c;stroke-linejoin:miter;" x="253.938518" xlink:href="#m233cedf8c6" y="170.947223"/>
     <use style="fill:#2ca02c;stroke:#2ca02c;stroke-linejoin:miter;" x="255.379364" xlink:href="#m233cedf8c6" y="169.578728"/>
     <use style="fill:#2ca02c;stroke:#2ca02c;stroke-linejoin:miter;" x="256.82021" xlink:href="#m233cedf8c6" y="167.529531"/>
     <use style="fill:#2ca02c;stroke:#2ca02c;stroke-linejoin:miter;" x="258.261057" xlink:href="#m233cedf8c6" y="170.670688"/>
     <use style="fill:#2ca02c;stroke:#2ca02c;stroke-linejoin:miter;" x="259.701903" xlink:href="#m233cedf8c6" y="168.770394"/>
     <use style="fill:#2ca02c;stroke:#2ca02c;stroke-linejoin:miter;" x="261.142749" xlink:href="#m233cedf8c6" y="171.273393"/>
     <use style="fill:#2ca02c;stroke:#2ca02c;stroke-linejoin:miter;" x="262.583596" xlink:href="#m233cedf8c6" y="168.344955"/>
     <use style="fill:#2ca02c;stroke:#2ca02c;stroke-linejoin:miter;" x="264.024442" xlink:href="#m233cedf8c6" y="168.94057"/>
     <use style="fill:#2ca02c;stroke:#2ca02c;stroke-linejoin:miter;" x="265.465288" xlink:href="#m233cedf8c6" y="167.784794"/>
     <use style="fill:#2ca02c;stroke:#2ca02c;stroke-linejoin:miter;" x="266.906135" xlink:href="#m233cedf8c6" y="167.728069"/>
     <use style="fill:#2ca02c;stroke:#2ca02c;stroke-linejoin:miter;" x="268.346981" xlink:href="#m233cedf8c6" y="170.5856"/>
     <use style="fill:#2ca02c;stroke:#2ca02c;stroke-linejoin:miter;" x="269.787827" xlink:href="#m233cedf8c6" y="172.471712"/>
     <use style="fill:#2ca02c;stroke:#2ca02c;stroke-linejoin:miter;" x="271.228674" xlink:href="#m233cedf8c6" y="169.677997"/>
     <use style="fill:#2ca02c;stroke:#2ca02c;stroke-linejoin:miter;" x="272.66952" xlink:href="#m233cedf8c6" y="172.159724"/>
     <use style="fill:#2ca02c;stroke:#2ca02c;stroke-linejoin:miter;" x="274.110366" xlink:href="#m233cedf8c6" y="171.663378"/>
     <use style="fill:#2ca02c;stroke:#2ca02c;stroke-linejoin:miter;" x="275.551213" xlink:href="#m233cedf8c6" y="169.71345"/>
     <use style="fill:#2ca02c;stroke:#2ca02c;stroke-linejoin:miter;" x="276.992059" xlink:href="#m233cedf8c6" y="172.322809"/>
     <use style="fill:#2ca02c;stroke:#2ca02c;stroke-linejoin:miter;" x="278.432905" xlink:href="#m233cedf8c6" y="171.847735"/>
     <use style="fill:#2ca02c;stroke:#2ca02c;stroke-linejoin:miter;" x="279.873752" xlink:href="#m233cedf8c6" y="171.422296"/>
     <use style="fill:#2ca02c;stroke:#2ca02c;stroke-linejoin:miter;" x="281.314598" xlink:href="#m233cedf8c6" y="167.926607"/>
     <use style="fill:#2ca02c;stroke:#2ca02c;stroke-linejoin:miter;" x="282.755444" xlink:href="#m233cedf8c6" y="168.06842"/>
     <use style="fill:#2ca02c;stroke:#2ca02c;stroke-linejoin:miter;" x="284.196291" xlink:href="#m233cedf8c6" y="171.280483"/>
     <use style="fill:#2ca02c;stroke:#2ca02c;stroke-linejoin:miter;" x="285.637137" xlink:href="#m233cedf8c6" y="170.025439"/>
     <use style="fill:#2ca02c;stroke:#2ca02c;stroke-linejoin:miter;" x="287.077983" xlink:href="#m233cedf8c6" y="169.238377"/>
     <use style="fill:#2ca02c;stroke:#2ca02c;stroke-linejoin:miter;" x="288.51883" xlink:href="#m233cedf8c6" y="169.344737"/>
     <use style="fill:#2ca02c;stroke:#2ca02c;stroke-linejoin:miter;" x="289.959676" xlink:href="#m233cedf8c6" y="166.983551"/>
     <use style="fill:#2ca02c;stroke:#2ca02c;stroke-linejoin:miter;" x="291.400522" xlink:href="#m233cedf8c6" y="169.139108"/>
     <use style="fill:#2ca02c;stroke:#2ca02c;stroke-linejoin:miter;" x="292.841368" xlink:href="#m233cedf8c6" y="170.670688"/>
     <use style="fill:#2ca02c;stroke:#2ca02c;stroke-linejoin:miter;" x="294.282215" xlink:href="#m233cedf8c6" y="168.869663"/>
     <use style="fill:#2ca02c;stroke:#2ca02c;stroke-linejoin:miter;" x="295.723061" xlink:href="#m233cedf8c6" y="169.677997"/>
     <use style="fill:#2ca02c;stroke:#2ca02c;stroke-linejoin:miter;" x="297.163907" xlink:href="#m233cedf8c6" y="169.642544"/>
     <use style="fill:#2ca02c;stroke:#2ca02c;stroke-linejoin:miter;" x="298.604754" xlink:href="#m233cedf8c6" y="169.628363"/>
     <use style="fill:#2ca02c;stroke:#2ca02c;stroke-linejoin:miter;" x="300.0456" xlink:href="#m233cedf8c6" y="170.535965"/>
     <use style="fill:#2ca02c;stroke:#2ca02c;stroke-linejoin:miter;" x="301.486446" xlink:href="#m233cedf8c6" y="171.606653"/>
     <use style="fill:#2ca02c;stroke:#2ca02c;stroke-linejoin:miter;" x="302.927293" xlink:href="#m233cedf8c6" y="168.444224"/>
     <use style="fill:#2ca02c;stroke:#2ca02c;stroke-linejoin:miter;" x="304.368139" xlink:href="#m233cedf8c6" y="167.586256"/>
     <use style="fill:#2ca02c;stroke:#2ca02c;stroke-linejoin:miter;" x="305.808985" xlink:href="#m233cedf8c6" y="166.799194"/>
     <use style="fill:#2ca02c;stroke:#2ca02c;stroke-linejoin:miter;" x="307.249832" xlink:href="#m233cedf8c6" y="167.224633"/>
     <use style="fill:#2ca02c;stroke:#2ca02c;stroke-linejoin:miter;" x="308.690678" xlink:href="#m233cedf8c6" y="169.940351"/>
     <use style="fill:#2ca02c;stroke:#2ca02c;stroke-linejoin:miter;" x="310.131524" xlink:href="#m233cedf8c6" y="170.550147"/>
     <use style="fill:#2ca02c;stroke:#2ca02c;stroke-linejoin:miter;" x="311.572371" xlink:href="#m233cedf8c6" y="169.614181"/>
     <use style="fill:#2ca02c;stroke:#2ca02c;stroke-linejoin:miter;" x="313.013217" xlink:href="#m233cedf8c6" y="169.791447"/>
     <use style="fill:#2ca02c;stroke:#2ca02c;stroke-linejoin:miter;" x="314.454063" xlink:href="#m233cedf8c6" y="167.791885"/>
     <use style="fill:#2ca02c;stroke:#2ca02c;stroke-linejoin:miter;" x="315.89491" xlink:href="#m233cedf8c6" y="167.728069"/>
     <use style="fill:#2ca02c;stroke:#2ca02c;stroke-linejoin:miter;" x="317.335756" xlink:href="#m233cedf8c6" y="169.451096"/>
    </g>
   </g>
   <g id="line2d_21">
    <defs>
     <path d="M -3 0 
L 3 0 
M 0 3 
L 0 -3 
" id="m01f4a2f918" style="stroke:#d62728;"/>
    </defs>
    <g clip-path="url(#p03b5cb5dfa)">
     <use style="fill:#d62728;stroke:#d62728;" x="74.310089" xlink:href="#m01f4a2f918" y="239.088345"/>
     <use style="fill:#d62728;stroke:#d62728;" x="76.228297" xlink:href="#m01f4a2f918" y="212.491327"/>
     <use style="fill:#d62728;stroke:#d62728;" x="78.146506" xlink:href="#m01f4a2f918" y="232.281324"/>
     <use style="fill:#d62728;stroke:#d62728;" x="80.064714" xlink:href="#m01f4a2f918" y="223.772547"/>
     <use style="fill:#d62728;stroke:#d62728;" x="81.982922" xlink:href="#m01f4a2f918" y="231.196455"/>
     <use style="fill:#d62728;stroke:#d62728;" x="83.90113" xlink:href="#m01f4a2f918" y="213.016035"/>
     <use style="fill:#d62728;stroke:#d62728;" x="85.819338" xlink:href="#m01f4a2f918" y="228.870722"/>
     <use style="fill:#d62728;stroke:#d62728;" x="87.737546" xlink:href="#m01f4a2f918" y="205.882843"/>
     <use style="fill:#d62728;stroke:#d62728;" x="89.655755" xlink:href="#m01f4a2f918" y="200.174872"/>
     <use style="fill:#d62728;stroke:#d62728;" x="91.573963" xlink:href="#m01f4a2f918" y="212.037525"/>
     <use style="fill:#d62728;stroke:#d62728;" x="93.492171" xlink:href="#m01f4a2f918" y="203.089128"/>
     <use style="fill:#d62728;stroke:#d62728;" x="95.410379" xlink:href="#m01f4a2f918" y="203.713105"/>
     <use style="fill:#d62728;stroke:#d62728;" x="97.328587" xlink:href="#m01f4a2f918" y="199.004915"/>
     <use style="fill:#d62728;stroke:#d62728;" x="99.246796" xlink:href="#m01f4a2f918" y="203.074947"/>
     <use style="fill:#d62728;stroke:#d62728;" x="101.165004" xlink:href="#m01f4a2f918" y="194.282544"/>
     <use style="fill:#d62728;stroke:#d62728;" x="103.083212" xlink:href="#m01f4a2f918" y="198.06895"/>
     <use style="fill:#d62728;stroke:#d62728;" x="105.00142" xlink:href="#m01f4a2f918" y="196.750089"/>
     <use style="fill:#d62728;stroke:#d62728;" x="106.919628" xlink:href="#m01f4a2f918" y="191.205203"/>
     <use style="fill:#d62728;stroke:#d62728;" x="108.837837" xlink:href="#m01f4a2f918" y="189.361635"/>
     <use style="fill:#d62728;stroke:#d62728;" x="110.756045" xlink:href="#m01f4a2f918" y="192.176622"/>
     <use style="fill:#d62728;stroke:#d62728;" x="112.674253" xlink:href="#m01f4a2f918" y="191.134296"/>
     <use style="fill:#d62728;stroke:#d62728;" x="114.592461" xlink:href="#m01f4a2f918" y="186.922452"/>
     <use style="fill:#d62728;stroke:#d62728;" x="116.510669" xlink:href="#m01f4a2f918" y="187.752058"/>
     <use style="fill:#d62728;stroke:#d62728;" x="118.428877" xlink:href="#m01f4a2f918" y="187.042993"/>
     <use style="fill:#d62728;stroke:#d62728;" x="120.347086" xlink:href="#m01f4a2f918" y="184.327275"/>
     <use style="fill:#d62728;stroke:#d62728;" x="122.265294" xlink:href="#m01f4a2f918" y="184.256368"/>
     <use style="fill:#d62728;stroke:#d62728;" x="124.183502" xlink:href="#m01f4a2f918" y="182.568794"/>
     <use style="fill:#d62728;stroke:#d62728;" x="126.10171" xlink:href="#m01f4a2f918" y="182.582976"/>
     <use style="fill:#d62728;stroke:#d62728;" x="128.019918" xlink:href="#m01f4a2f918" y="181.654101"/>
     <use style="fill:#d62728;stroke:#d62728;" x="129.938127" xlink:href="#m01f4a2f918" y="182.391528"/>
     <use style="fill:#d62728;stroke:#d62728;" x="131.856335" xlink:href="#m01f4a2f918" y="179.945255"/>
     <use style="fill:#d62728;stroke:#d62728;" x="133.774543" xlink:href="#m01f4a2f918" y="179.356731"/>
     <use style="fill:#d62728;stroke:#d62728;" x="135.692751" xlink:href="#m01f4a2f918" y="179.23619"/>
     <use style="fill:#d62728;stroke:#d62728;" x="137.610959" xlink:href="#m01f4a2f918" y="178.711482"/>
     <use style="fill:#d62728;stroke:#d62728;" x="139.529167" xlink:href="#m01f4a2f918" y="175.612869"/>
     <use style="fill:#d62728;stroke:#d62728;" x="141.447376" xlink:href="#m01f4a2f918" y="176.71901"/>
     <use style="fill:#d62728;stroke:#d62728;" x="143.365584" xlink:href="#m01f4a2f918" y="177.37135"/>
     <use style="fill:#d62728;stroke:#d62728;" x="145.283792" xlink:href="#m01f4a2f918" y="171.755557"/>
     <use style="fill:#d62728;stroke:#d62728;" x="147.202" xlink:href="#m01f4a2f918" y="171.323027"/>
     <use style="fill:#d62728;stroke:#d62728;" x="149.120208" xlink:href="#m01f4a2f918" y="169.316374"/>
     <use style="fill:#d62728;stroke:#d62728;" x="151.038417" xlink:href="#m01f4a2f918" y="172.698613"/>
     <use style="fill:#d62728;stroke:#d62728;" x="152.956625" xlink:href="#m01f4a2f918" y="171.011039"/>
     <use style="fill:#d62728;stroke:#d62728;" x="154.874833" xlink:href="#m01f4a2f918" y="167.969151"/>
     <use style="fill:#d62728;stroke:#d62728;" x="156.793041" xlink:href="#m01f4a2f918" y="164.594003"/>
     <use style="fill:#d62728;stroke:#d62728;" x="158.711249" xlink:href="#m01f4a2f918" y="170.486331"/>
     <use style="fill:#d62728;stroke:#d62728;" x="160.629458" xlink:href="#m01f4a2f918" y="166.083039"/>
     <use style="fill:#d62728;stroke:#d62728;" x="162.547666" xlink:href="#m01f4a2f918" y="162.863885"/>
     <use style="fill:#d62728;stroke:#d62728;" x="164.465874" xlink:href="#m01f4a2f918" y="160.275799"/>
     <use style="fill:#d62728;stroke:#d62728;" x="166.384082" xlink:href="#m01f4a2f918" y="161.630112"/>
     <use style="fill:#d62728;stroke:#d62728;" x="168.30229" xlink:href="#m01f4a2f918" y="163.048242"/>
     <use style="fill:#d62728;stroke:#d62728;" x="170.220498" xlink:href="#m01f4a2f918" y="158.744219"/>
     <use style="fill:#d62728;stroke:#d62728;" x="172.138707" xlink:href="#m01f4a2f918" y="160.211983"/>
     <use style="fill:#d62728;stroke:#d62728;" x="174.056915" xlink:href="#m01f4a2f918" y="159.325652"/>
     <use style="fill:#d62728;stroke:#d62728;" x="175.975123" xlink:href="#m01f4a2f918" y="163.764397"/>
     <use style="fill:#d62728;stroke:#d62728;" x="177.893331" xlink:href="#m01f4a2f918" y="157.730256"/>
     <use style="fill:#d62728;stroke:#d62728;" x="179.811539" xlink:href="#m01f4a2f918" y="158.247873"/>
     <use style="fill:#d62728;stroke:#d62728;" x="181.729748" xlink:href="#m01f4a2f918" y="159.588006"/>
     <use style="fill:#d62728;stroke:#d62728;" x="183.647956" xlink:href="#m01f4a2f918" y="155.014538"/>
     <use style="fill:#d62728;stroke:#d62728;" x="185.566164" xlink:href="#m01f4a2f918" y="155.354889"/>
     <use style="fill:#d62728;stroke:#d62728;" x="187.484372" xlink:href="#m01f4a2f918" y="157.510446"/>
     <use style="fill:#d62728;stroke:#d62728;" x="189.40258" xlink:href="#m01f4a2f918" y="156.503574"/>
     <use style="fill:#d62728;stroke:#d62728;" x="191.320789" xlink:href="#m01f4a2f918" y="154.149479"/>
     <use style="fill:#d62728;stroke:#d62728;" x="193.238997" xlink:href="#m01f4a2f918" y="155.787419"/>
     <use style="fill:#d62728;stroke:#d62728;" x="195.157205" xlink:href="#m01f4a2f918" y="154.15657"/>
     <use style="fill:#d62728;stroke:#d62728;" x="197.075413" xlink:href="#m01f4a2f918" y="152.681715"/>
     <use style="fill:#d62728;stroke:#d62728;" x="198.993621" xlink:href="#m01f4a2f918" y="153.546774"/>
     <use style="fill:#d62728;stroke:#d62728;" x="200.911829" xlink:href="#m01f4a2f918" y="153.901306"/>
     <use style="fill:#d62728;stroke:#d62728;" x="202.830038" xlink:href="#m01f4a2f918" y="154.128207"/>
     <use style="fill:#d62728;stroke:#d62728;" x="204.748246" xlink:href="#m01f4a2f918" y="149.242751"/>
     <use style="fill:#d62728;stroke:#d62728;" x="206.666454" xlink:href="#m01f4a2f918" y="154.461468"/>
     <use style="fill:#d62728;stroke:#d62728;" x="208.584662" xlink:href="#m01f4a2f918" y="151.958469"/>
     <use style="fill:#d62728;stroke:#d62728;" x="210.50287" xlink:href="#m01f4a2f918" y="152.773894"/>
     <use style="fill:#d62728;stroke:#d62728;" x="212.421079" xlink:href="#m01f4a2f918" y="151.242314"/>
     <use style="fill:#d62728;stroke:#d62728;" x="214.339287" xlink:href="#m01f4a2f918" y="152.575355"/>
     <use style="fill:#d62728;stroke:#d62728;" x="216.257495" xlink:href="#m01f4a2f918" y="148.235879"/>
     <use style="fill:#d62728;stroke:#d62728;" x="218.175703" xlink:href="#m01f4a2f918" y="153.759494"/>
     <use style="fill:#d62728;stroke:#d62728;" x="220.093911" xlink:href="#m01f4a2f918" y="151.384127"/>
     <use style="fill:#d62728;stroke:#d62728;" x="222.01212" xlink:href="#m01f4a2f918" y="150.582883"/>
     <use style="fill:#d62728;stroke:#d62728;" x="223.930328" xlink:href="#m01f4a2f918" y="151.09341"/>
     <use style="fill:#d62728;stroke:#d62728;" x="225.848536" xlink:href="#m01f4a2f918" y="150.76015"/>
     <use style="fill:#d62728;stroke:#d62728;" x="227.766744" xlink:href="#m01f4a2f918" y="149.795822"/>
     <use style="fill:#d62728;stroke:#d62728;" x="229.684952" xlink:href="#m01f4a2f918" y="146.775206"/>
     <use style="fill:#d62728;stroke:#d62728;" x="231.60316" xlink:href="#m01f4a2f918" y="148.335148"/>
     <use style="fill:#d62728;stroke:#d62728;" x="233.521369" xlink:href="#m01f4a2f918" y="148.46278"/>
     <use style="fill:#d62728;stroke:#d62728;" x="235.439577" xlink:href="#m01f4a2f918" y="150.114901"/>
     <use style="fill:#d62728;stroke:#d62728;" x="237.357785" xlink:href="#m01f4a2f918" y="147.725353"/>
     <use style="fill:#d62728;stroke:#d62728;" x="239.275993" xlink:href="#m01f4a2f918" y="148.044432"/>
     <use style="fill:#d62728;stroke:#d62728;" x="241.194201" xlink:href="#m01f4a2f918" y="148.554958"/>
     <use style="fill:#d62728;stroke:#d62728;" x="243.11241" xlink:href="#m01f4a2f918" y="149.625646"/>
     <use style="fill:#d62728;stroke:#d62728;" x="245.030618" xlink:href="#m01f4a2f918" y="149.646918"/>
     <use style="fill:#d62728;stroke:#d62728;" x="246.948826" xlink:href="#m01f4a2f918" y="149.150573"/>
     <use style="fill:#d62728;stroke:#d62728;" x="248.867034" xlink:href="#m01f4a2f918" y="148.221698"/>
     <use style="fill:#d62728;stroke:#d62728;" x="250.785242" xlink:href="#m01f4a2f918" y="147.952253"/>
     <use style="fill:#d62728;stroke:#d62728;" x="252.703451" xlink:href="#m01f4a2f918" y="146.753934"/>
     <use style="fill:#d62728;stroke:#d62728;" x="254.621659" xlink:href="#m01f4a2f918" y="146.746843"/>
     <use style="fill:#d62728;stroke:#d62728;" x="256.539867" xlink:href="#m01f4a2f918" y="145.938509"/>
     <use style="fill:#d62728;stroke:#d62728;" x="258.458075" xlink:href="#m01f4a2f918" y="145.874694"/>
     <use style="fill:#d62728;stroke:#d62728;" x="260.376283" xlink:href="#m01f4a2f918" y="146.243407"/>
     <use style="fill:#d62728;stroke:#d62728;" x="262.294491" xlink:href="#m01f4a2f918" y="145.569796"/>
     <use style="fill:#d62728;stroke:#d62728;" x="264.2127" xlink:href="#m01f4a2f918" y="146.300132"/>
     <use style="fill:#d62728;stroke:#d62728;" x="266.130908" xlink:href="#m01f4a2f918" y="146.349767"/>
     <use style="fill:#d62728;stroke:#d62728;" x="268.049116" xlink:href="#m01f4a2f918" y="146.257588"/>
     <use style="fill:#d62728;stroke:#d62728;" x="269.967324" xlink:href="#m01f4a2f918" y="146.314314"/>
     <use style="fill:#d62728;stroke:#d62728;" x="271.885532" xlink:href="#m01f4a2f918" y="146.144138"/>
     <use style="fill:#d62728;stroke:#d62728;" x="273.803741" xlink:href="#m01f4a2f918" y="146.356858"/>
     <use style="fill:#d62728;stroke:#d62728;" x="275.721949" xlink:href="#m01f4a2f918" y="145.83215"/>
     <use style="fill:#d62728;stroke:#d62728;" x="277.640157" xlink:href="#m01f4a2f918" y="144.570014"/>
     <use style="fill:#d62728;stroke:#d62728;" x="279.558365" xlink:href="#m01f4a2f918" y="145.264898"/>
     <use style="fill:#d62728;stroke:#d62728;" x="281.476573" xlink:href="#m01f4a2f918" y="144.882003"/>
     <use style="fill:#d62728;stroke:#d62728;" x="283.394782" xlink:href="#m01f4a2f918" y="145.50598"/>
     <use style="fill:#d62728;stroke:#d62728;" x="285.31299" xlink:href="#m01f4a2f918" y="144.527471"/>
     <use style="fill:#d62728;stroke:#d62728;" x="287.231198" xlink:href="#m01f4a2f918" y="144.648012"/>
     <use style="fill:#d62728;stroke:#d62728;" x="289.149406" xlink:href="#m01f4a2f918" y="144.236754"/>
     <use style="fill:#d62728;stroke:#d62728;" x="291.067614" xlink:href="#m01f4a2f918" y="144.917456"/>
     <use style="fill:#d62728;stroke:#d62728;" x="292.985822" xlink:href="#m01f4a2f918" y="143.414239"/>
     <use style="fill:#d62728;stroke:#d62728;" x="294.904031" xlink:href="#m01f4a2f918" y="145.264898"/>
     <use style="fill:#d62728;stroke:#d62728;" x="296.822239" xlink:href="#m01f4a2f918" y="143.75459"/>
     <use style="fill:#d62728;stroke:#d62728;" x="298.740447" xlink:href="#m01f4a2f918" y="143.967309"/>
     <use style="fill:#d62728;stroke:#d62728;" x="300.658655" xlink:href="#m01f4a2f918" y="144.045306"/>
     <use style="fill:#d62728;stroke:#d62728;" x="302.576863" xlink:href="#m01f4a2f918" y="144.052397"/>
     <use style="fill:#d62728;stroke:#d62728;" x="304.495072" xlink:href="#m01f4a2f918" y="143.832587"/>
     <use style="fill:#d62728;stroke:#d62728;" x="306.41328" xlink:href="#m01f4a2f918" y="144.584196"/>
     <use style="fill:#d62728;stroke:#d62728;" x="308.331488" xlink:href="#m01f4a2f918" y="144.180029"/>
     <use style="fill:#d62728;stroke:#d62728;" x="310.249696" xlink:href="#m01f4a2f918" y="143.655321"/>
     <use style="fill:#d62728;stroke:#d62728;" x="312.167904" xlink:href="#m01f4a2f918" y="143.513508"/>
     <use style="fill:#d62728;stroke:#d62728;" x="314.086113" xlink:href="#m01f4a2f918" y="143.782953"/>
     <use style="fill:#d62728;stroke:#d62728;" x="316.004321" xlink:href="#m01f4a2f918" y="143.75459"/>
     <use style="fill:#d62728;stroke:#d62728;" x="317.922529" xlink:href="#m01f4a2f918" y="143.683683"/>
     <use style="fill:#d62728;stroke:#d62728;" x="319.840737" xlink:href="#m01f4a2f918" y="142.946256"/>
     <use style="fill:#d62728;stroke:#d62728;" x="321.758945" xlink:href="#m01f4a2f918" y="143.591505"/>
     <use style="fill:#d62728;stroke:#d62728;" x="323.677153" xlink:href="#m01f4a2f918" y="143.293698"/>
     <use style="fill:#d62728;stroke:#d62728;" x="325.595362" xlink:href="#m01f4a2f918" y="143.591505"/>
     <use style="fill:#d62728;stroke:#d62728;" x="327.51357" xlink:href="#m01f4a2f918" y="142.591724"/>
     <use style="fill:#d62728;stroke:#d62728;" x="329.431778" xlink:href="#m01f4a2f918" y="144.328932"/>
     <use style="fill:#d62728;stroke:#d62728;" x="331.349986" xlink:href="#m01f4a2f918" y="142.570452"/>
     <use style="fill:#d62728;stroke:#d62728;" x="333.268194" xlink:href="#m01f4a2f918" y="142.818624"/>
     <use style="fill:#d62728;stroke:#d62728;" x="335.186403" xlink:href="#m01f4a2f918" y="141.911022"/>
     <use style="fill:#d62728;stroke:#d62728;" x="337.104611" xlink:href="#m01f4a2f918" y="142.010291"/>
     <use style="fill:#d62728;stroke:#d62728;" x="339.022819" xlink:href="#m01f4a2f918" y="143.017163"/>
     <use style="fill:#d62728;stroke:#d62728;" x="340.941027" xlink:href="#m01f4a2f918" y="143.059706"/>
     <use style="fill:#d62728;stroke:#d62728;" x="342.859235" xlink:href="#m01f4a2f918" y="143.20861"/>
     <use style="fill:#d62728;stroke:#d62728;" x="344.777443" xlink:href="#m01f4a2f918" y="142.605905"/>
     <use style="fill:#d62728;stroke:#d62728;" x="346.695652" xlink:href="#m01f4a2f918" y="142.322279"/>
     <use style="fill:#d62728;stroke:#d62728;" x="348.61386" xlink:href="#m01f4a2f918" y="141.329588"/>
     <use style="fill:#d62728;stroke:#d62728;" x="350.532068" xlink:href="#m01f4a2f918" y="140.336898"/>
     <use style="fill:#d62728;stroke:#d62728;" x="352.450276" xlink:href="#m01f4a2f918" y="141.755027"/>
     <use style="fill:#d62728;stroke:#d62728;" x="354.368484" xlink:href="#m01f4a2f918" y="141.776299"/>
     <use style="fill:#d62728;stroke:#d62728;" x="356.286693" xlink:href="#m01f4a2f918" y="141.797571"/>
     <use style="fill:#d62728;stroke:#d62728;" x="358.204901" xlink:href="#m01f4a2f918" y="141.719574"/>
     <use style="fill:#d62728;stroke:#d62728;" x="360.123109" xlink:href="#m01f4a2f918" y="141.981928"/>
     <use style="fill:#d62728;stroke:#d62728;" x="362.041317" xlink:href="#m01f4a2f918" y="142.0032"/>
     <use style="fill:#d62728;stroke:#d62728;" x="363.959525" xlink:href="#m01f4a2f918" y="142.208829"/>
     <use style="fill:#d62728;stroke:#d62728;" x="365.877734" xlink:href="#m01f4a2f918" y="140.946694"/>
     <use style="fill:#d62728;stroke:#d62728;" x="367.795942" xlink:href="#m01f4a2f918" y="141.506855"/>
     <use style="fill:#d62728;stroke:#d62728;" x="369.71415" xlink:href="#m01f4a2f918" y="140.804881"/>
     <use style="fill:#d62728;stroke:#d62728;" x="371.632358" xlink:href="#m01f4a2f918" y="141.599033"/>
     <use style="fill:#d62728;stroke:#d62728;" x="373.550566" xlink:href="#m01f4a2f918" y="140.698521"/>
     <use style="fill:#d62728;stroke:#d62728;" x="375.468774" xlink:href="#m01f4a2f918" y="141.024691"/>
     <use style="fill:#d62728;stroke:#d62728;" x="377.386983" xlink:href="#m01f4a2f918" y="141.712483"/>
     <use style="fill:#d62728;stroke:#d62728;" x="379.305191" xlink:href="#m01f4a2f918" y="141.414676"/>
     <use style="fill:#d62728;stroke:#d62728;" x="381.223399" xlink:href="#m01f4a2f918" y="141.329588"/>
     <use style="fill:#d62728;stroke:#d62728;" x="383.141607" xlink:href="#m01f4a2f918" y="141.180685"/>
     <use style="fill:#d62728;stroke:#d62728;" x="385.059815" xlink:href="#m01f4a2f918" y="140.613433"/>
     <use style="fill:#d62728;stroke:#d62728;" x="386.978024" xlink:href="#m01f4a2f918" y="141.258682"/>
     <use style="fill:#d62728;stroke:#d62728;" x="388.896232" xlink:href="#m01f4a2f918" y="141.265773"/>
     <use style="fill:#d62728;stroke:#d62728;" x="390.81444" xlink:href="#m01f4a2f918" y="141.031781"/>
     <use style="fill:#d62728;stroke:#d62728;" x="392.732648" xlink:href="#m01f4a2f918" y="141.12396"/>
     <use style="fill:#d62728;stroke:#d62728;" x="394.650856" xlink:href="#m01f4a2f918" y="140.088725"/>
     <use style="fill:#d62728;stroke:#d62728;" x="396.569065" xlink:href="#m01f4a2f918" y="140.570889"/>
     <use style="fill:#d62728;stroke:#d62728;" x="398.487273" xlink:href="#m01f4a2f918" y="141.301226"/>
    </g>
   </g>
   <g id="line2d_22">
    <path clip-path="url(#p03b5cb5dfa)" d="M 73.849698 233.642728 
L 76.491241 236.18118 
L 77.953301 251.213353 
L 80.452629 236.18118 
L 82.255039 242.137324 
L 83.708519 251.638791 
L 85.506781 220.19886 
L 87.090012 227.509318 
L 88.594281 229.523062 
L 90.334337 228.835269 
L 91.849736 210.215229 
L 94.250914 229.040898 
L 96.652093 229.310342 
L 98.154529 202.663689 
L 99.616419 204.471804 
L 101.356475 198.097312 
L 102.937812 209.413986 
L 104.453162 223.269111 
L 105.915222 196.452282 
L 107.713485 194.190365 
L 109.453541 193.977646 
L 111.051241 209.272173 
L 112.634472 211.65463 
L 114.096362 199.437445 
L 116.697727 211.782262 
L 118.296962 203.776921 
L 119.799398 183.3984 
L 121.398633 208.47802 
L 122.85824 180.271424 
L 124.644026 188.10659 
L 126.238387 201.68518 
L 127.835459 202.174435 
L 129.64429 180.399056 
L 131.10635 182.185899 
L 132.61062 198.1824 
L 134.20832 190.900305 
L 135.664613 174.804535 
L 137.12243 182.256806 
L 138.624866 170.954314 
L 140.222567 178.300224 
L 141.735404 180.66141 
L 143.332476 184.525813 
L 144.785956 169.961623 
L 146.584218 165.664691 
L 148.046108 179.12983 
L 149.854939 156.744656 
L 151.359209 170.032529 
L 152.817025 175.40724 
L 154.276632 155.383252 
L 155.779068 160.360886 
L 157.236884 171.557019 
L 158.694701 169.585819 
L 160.198971 171.521565 
L 161.714369 155.702331 
L 163.311441 169.833991 
L 164.767734 157.779891 
L 166.221214 156.290855 
L 167.818915 177.300443 
L 169.323184 163.35314 
L 170.922419 162.729163 
L 172.382026 149.56183 
L 174.122082 149.178935 
L 175.581688 152.071919 
L 177.041294 151.398308 
L 178.622631 150.136173 
L 180.433754 153.688587 
L 182.232016 154.192023 
L 183.685496 147.746624 
L 185.425553 153.383689 
L 186.887612 151.440852 
L 188.345429 161.488299 
L 189.926766 147.101376 
L 191.523838 166.629019 
L 193.332669 146.16541 
L 194.836939 160.637422 
L 196.352289 148.604593 
L 197.808582 143.244063 
L 199.406283 152.873163 
L 200.910552 155.681059 
L 202.425951 143.931856 
L 203.930221 160.297071 
L 205.529456 154.369289 
L 207.043211 140.861606 
L 208.505101 153.752403 
L 210.007537 138.39406 
L 211.469597 144.825278 
L 212.931656 147.540996 
L 214.387949 140.790699 
L 215.849839 147.058832 
L 217.36519 141.329588 
L 218.962262 154.312564 
L 220.561497 158.148604 
L 222.158569 160.956501 
L 223.612049 139.613652 
L 225.114485 136.841209 
L 226.570778 140.244719 
L 228.152115 143.187338 
L 229.735345 153.17806 
L 231.250696 137.458095 
L 234.442129 164.069295 
L 236.03983 155.432886 
L 237.493309 136.302319 
L 238.949602 140.819062 
L 240.403082 139.514383 
L 242.000154 149.739096 
L 243.462044 144.711827 
L 244.977395 140.549617 
L 246.575095 147.04465 
L 248.031388 137.302101 
L 249.546787 136.621399 
L 251.128123 136.507948 
L 252.643522 135.628708 
L 254.157277 139.244938 
L 255.672628 138.514601 
L 257.185465 146.831931 
L 258.638945 136.42286 
L 260.096762 148.618774 
L 261.610517 138.613871 
L 263.072577 143.293698 
L 264.585414 139.876006 
L 266.047474 145.016725 
L 267.54991 133.480242 
L 269.009516 137.649542 
L 272.025707 132.274832 
L 273.483524 148.313876 
L 276.452654 133.955315 
L 277.908947 134.33821 
L 279.366764 150.235442 
L 280.882114 137.124835 
L 282.338407 132.310285 
L 283.851245 141.265773 
L 285.313304 143.286607 
L 286.766784 135.274176 
L 288.220264 133.366791 
L 289.735663 131.799758 
L 291.2485 143.010072 
L 292.71039 146.966653 
L 294.172279 140.698521 
L 295.630096 144.045306 
L 297.142933 137.968622 
L 298.658332 134.146763 
L 300.172087 134.196397 
L 301.676356 147.959344 
L 303.189193 145.888875 
L 304.693463 149.01585 
L 306.155353 142.832806 
L 307.670703 134.572201 
L 309.17314 133.23916 
L 310.632746 134.238941 
L 312.146501 131.984115 
L 313.604318 144.598377 
L 315.066207 141.542308 
L 316.525814 133.721324 
L 318.030083 144.562924 
L 319.532519 131.884846 
L 320.985999 128.779142 
L 322.448059 140.698521 
L 323.907665 134.437479 
L 325.363958 131.062331 
L 326.825848 139.301663 
L 328.287737 138.521692 
L 329.747344 134.210578 
L 331.20516 144.492017 
L 332.66722 140.514164 
L 334.125037 144.796915 
L 335.586927 138.308973 
L 337.046533 133.380973 
L 337.046533 133.380973 
" style="fill:none;stroke:#9467bd;stroke-linecap:square;stroke-width:1.5;"/>
   </g>
   <g id="patch_3">
    <path d="M 57.6 307.584 
L 57.6 41.472 
" style="fill:none;stroke:#000000;stroke-linecap:square;stroke-linejoin:miter;stroke-width:0.8;"/>
   </g>
   <g id="patch_4">
    <path d="M 414.72 307.584 
L 414.72 41.472 
" style="fill:none;stroke:#000000;stroke-linecap:square;stroke-linejoin:miter;stroke-width:0.8;"/>
   </g>
   <g id="patch_5">
    <path d="M 57.6 307.584 
L 414.72 307.584 
" style="fill:none;stroke:#000000;stroke-linecap:square;stroke-linejoin:miter;stroke-width:0.8;"/>
   </g>
   <g id="patch_6">
    <path d="M 57.6 41.472 
L 414.72 41.472 
" style="fill:none;stroke:#000000;stroke-linecap:square;stroke-linejoin:miter;stroke-width:0.8;"/>
   </g>
   <g id="text_20">
    <!-- Accuracy vs Time taken -->
    <g transform="translate(164.908125 35.472)scale(0.12 -0.12)">
     <defs>
      <path d="M 191 3500 
L 800 3500 
L 1894 563 
L 2988 3500 
L 3597 3500 
L 2284 0 
L 1503 0 
L 191 3500 
z
" id="DejaVuSans-76" transform="scale(0.015625)"/>
     </defs>
     <use xlink:href="#DejaVuSans-41"/>
     <use x="66.658203" xlink:href="#DejaVuSans-63"/>
     <use x="121.638672" xlink:href="#DejaVuSans-63"/>
     <use x="176.619141" xlink:href="#DejaVuSans-75"/>
     <use x="239.998047" xlink:href="#DejaVuSans-72"/>
     <use x="281.111328" xlink:href="#DejaVuSans-61"/>
     <use x="342.390625" xlink:href="#DejaVuSans-63"/>
     <use x="397.371094" xlink:href="#DejaVuSans-79"/>
     <use x="456.550781" xlink:href="#DejaVuSans-20"/>
     <use x="488.337891" xlink:href="#DejaVuSans-76"/>
     <use x="547.517578" xlink:href="#DejaVuSans-73"/>
     <use x="599.617188" xlink:href="#DejaVuSans-20"/>
     <use x="631.404297" xlink:href="#DejaVuSans-54"/>
     <use x="689.363281" xlink:href="#DejaVuSans-69"/>
     <use x="717.146484" xlink:href="#DejaVuSans-6d"/>
     <use x="814.558594" xlink:href="#DejaVuSans-65"/>
     <use x="876.082031" xlink:href="#DejaVuSans-20"/>
     <use x="907.869141" xlink:href="#DejaVuSans-74"/>
     <use x="947.078125" xlink:href="#DejaVuSans-61"/>
     <use x="1008.357422" xlink:href="#DejaVuSans-6b"/>
     <use x="1062.642578" xlink:href="#DejaVuSans-65"/>
     <use x="1124.166016" xlink:href="#DejaVuSans-6e"/>
    </g>
   </g>
   <g id="legend_1">
    <g id="patch_7">
     <path d="M 336.935625 122.862625 
L 407.72 122.862625 
Q 409.72 122.862625 409.72 120.862625 
L 409.72 48.472 
Q 409.72 46.472 407.72 46.472 
L 336.935625 46.472 
Q 334.935625 46.472 334.935625 48.472 
L 334.935625 120.862625 
Q 334.935625 122.862625 336.935625 122.862625 
z
" style="fill:#ffffff;opacity:0.8;stroke:#cccccc;stroke-linejoin:miter;"/>
    </g>
    <g id="line2d_23">
     <path d="M 338.935625 54.570438 
L 358.935625 54.570438 
" style="fill:none;stroke:#1f77b4;stroke-dasharray:5.55,2.4;stroke-dashoffset:0;stroke-width:1.5;"/>
    </g>
    <g id="line2d_24"/>
    <g id="text_21">
     <!-- random -->
     <g transform="translate(366.935625 58.070438)scale(0.1 -0.1)">
      <defs>
       <path d="M 2906 2969 
L 2906 4863 
L 3481 4863 
L 3481 0 
L 2906 0 
L 2906 525 
Q 2725 213 2448 61 
Q 2172 -91 1784 -91 
Q 1150 -91 751 415 
Q 353 922 353 1747 
Q 353 2572 751 3078 
Q 1150 3584 1784 3584 
Q 2172 3584 2448 3432 
Q 2725 3281 2906 2969 
z
M 947 1747 
Q 947 1113 1208 752 
Q 1469 391 1925 391 
Q 2381 391 2643 752 
Q 2906 1113 2906 1747 
Q 2906 2381 2643 2742 
Q 2381 3103 1925 3103 
Q 1469 3103 1208 2742 
Q 947 2381 947 1747 
z
" id="DejaVuSans-64" transform="scale(0.015625)"/>
       <path d="M 1959 3097 
Q 1497 3097 1228 2736 
Q 959 2375 959 1747 
Q 959 1119 1226 758 
Q 1494 397 1959 397 
Q 2419 397 2687 759 
Q 2956 1122 2956 1747 
Q 2956 2369 2687 2733 
Q 2419 3097 1959 3097 
z
M 1959 3584 
Q 2709 3584 3137 3096 
Q 3566 2609 3566 1747 
Q 3566 888 3137 398 
Q 2709 -91 1959 -91 
Q 1206 -91 779 398 
Q 353 888 353 1747 
Q 353 2609 779 3096 
Q 1206 3584 1959 3584 
z
" id="DejaVuSans-6f" transform="scale(0.015625)"/>
      </defs>
      <use xlink:href="#DejaVuSans-72"/>
      <use x="41.113281" xlink:href="#DejaVuSans-61"/>
      <use x="102.392578" xlink:href="#DejaVuSans-6e"/>
      <use x="165.771484" xlink:href="#DejaVuSans-64"/>
      <use x="229.248047" xlink:href="#DejaVuSans-6f"/>
      <use x="290.429688" xlink:href="#DejaVuSans-6d"/>
     </g>
    </g>
    <g id="line2d_25">
     <path d="M 338.935625 69.248563 
L 358.935625 69.248563 
" style="fill:none;stroke:#ff7f0e;stroke-dasharray:9.6,2.4,1.5,2.4;stroke-dashoffset:0;stroke-width:1.5;"/>
    </g>
    <g id="line2d_26"/>
    <g id="text_22">
     <!-- py -->
     <g transform="translate(366.935625 72.748563)scale(0.1 -0.1)">
      <defs>
       <path d="M 1159 525 
L 1159 -1331 
L 581 -1331 
L 581 3500 
L 1159 3500 
L 1159 2969 
Q 1341 3281 1617 3432 
Q 1894 3584 2278 3584 
Q 2916 3584 3314 3078 
Q 3713 2572 3713 1747 
Q 3713 922 3314 415 
Q 2916 -91 2278 -91 
Q 1894 -91 1617 61 
Q 1341 213 1159 525 
z
M 3116 1747 
Q 3116 2381 2855 2742 
Q 2594 3103 2138 3103 
Q 1681 3103 1420 2742 
Q 1159 2381 1159 1747 
Q 1159 1113 1420 752 
Q 1681 391 2138 391 
Q 2594 391 2855 752 
Q 3116 1113 3116 1747 
z
" id="DejaVuSans-70" transform="scale(0.015625)"/>
      </defs>
      <use xlink:href="#DejaVuSans-70"/>
      <use x="63.476562" xlink:href="#DejaVuSans-79"/>
     </g>
    </g>
    <g id="line2d_27"/>
    <g id="line2d_28">
     <g>
      <use style="fill:#2ca02c;stroke:#2ca02c;stroke-linejoin:miter;" x="348.935625" xlink:href="#m233cedf8c6" y="83.926688"/>
     </g>
    </g>
    <g id="text_23">
     <!-- pxy -->
     <g transform="translate(366.935625 87.426688)scale(0.1 -0.1)">
      <defs>
       <path d="M 3513 3500 
L 2247 1797 
L 3578 0 
L 2900 0 
L 1881 1375 
L 863 0 
L 184 0 
L 1544 1831 
L 300 3500 
L 978 3500 
L 1906 2253 
L 2834 3500 
L 3513 3500 
z
" id="DejaVuSans-78" transform="scale(0.015625)"/>
      </defs>
      <use xlink:href="#DejaVuSans-70"/>
      <use x="63.476562" xlink:href="#DejaVuSans-78"/>
      <use x="122.65625" xlink:href="#DejaVuSans-79"/>
     </g>
    </g>
    <g id="line2d_29"/>
    <g id="line2d_30">
     <g>
      <use style="fill:#d62728;stroke:#d62728;" x="348.935625" xlink:href="#m01f4a2f918" y="98.604813"/>
     </g>
    </g>
    <g id="text_24">
     <!-- oort -->
     <g transform="translate(366.935625 102.104813)scale(0.1 -0.1)">
      <use xlink:href="#DejaVuSans-6f"/>
      <use x="61.181641" xlink:href="#DejaVuSans-6f"/>
      <use x="122.363281" xlink:href="#DejaVuSans-72"/>
      <use x="163.476562" xlink:href="#DejaVuSans-74"/>
     </g>
    </g>
    <g id="line2d_31">
     <path d="M 338.935625 113.282938 
L 358.935625 113.282938 
" style="fill:none;stroke:#9467bd;stroke-linecap:square;stroke-width:1.5;"/>
    </g>
    <g id="line2d_32"/>
    <g id="text_25">
     <!-- tifl -->
     <g transform="translate(366.935625 116.782938)scale(0.1 -0.1)">
      <defs>
       <path d="M 2375 4863 
L 2375 4384 
L 1825 4384 
Q 1516 4384 1395 4259 
Q 1275 4134 1275 3809 
L 1275 3500 
L 2222 3500 
L 2222 3053 
L 1275 3053 
L 1275 0 
L 697 0 
L 697 3053 
L 147 3053 
L 147 3500 
L 697 3500 
L 697 3744 
Q 697 4328 969 4595 
Q 1241 4863 1831 4863 
L 2375 4863 
z
" id="DejaVuSans-66" transform="scale(0.015625)"/>
       <path d="M 603 4863 
L 1178 4863 
L 1178 0 
L 603 0 
L 603 4863 
z
" id="DejaVuSans-6c" transform="scale(0.015625)"/>
      </defs>
      <use xlink:href="#DejaVuSans-74"/>
      <use x="39.208984" xlink:href="#DejaVuSans-69"/>
      <use x="66.992188" xlink:href="#DejaVuSans-66"/>
      <use x="102.197266" xlink:href="#DejaVuSans-6c"/>
     </g>
    </g>
   </g>
  </g>
 </g>
 <defs>
  <clipPath id="p03b5cb5dfa">
   <rect height="266.112" width="357.12" x="57.6" y="41.472"/>
  </clipPath>
 </defs>
</svg>
