<?xml version="1.0" encoding="utf-8" standalone="no"?>
<!DOCTYPE svg PUBLIC "-//W3C//DTD SVG 1.1//EN"
  "http://www.w3.org/Graphics/SVG/1.1/DTD/svg11.dtd">
<svg height="345.6pt" version="1.1" viewBox="0 0 460.8 345.6" width="460.8pt" xmlns="http://www.w3.org/2000/svg" xmlns:xlink="http://www.w3.org/1999/xlink">
 <metadata>
  <rdf:RDF xmlns:cc="http://creativecommons.org/ns#" xmlns:dc="http://purl.org/dc/elements/1.1/" xmlns:rdf="http://www.w3.org/1999/02/22-rdf-syntax-ns#">
   <cc:Work>
    <dc:type rdf:resource="http://purl.org/dc/dcmitype/StillImage"/>
    <dc:date>2021-09-26T21:50:13.900798</dc:date>
    <dc:format>image/svg+xml</dc:format>
    <dc:creator>
     <cc:Agent>
      <dc:title>Matplotlib v3.4.2, https://matplotlib.org/</dc:title>
     </cc:Agent>
    </dc:creator>
   </cc:Work>
  </rdf:RDF>
 </metadata>
 <defs>
  <style type="text/css">*{stroke-linecap:butt;stroke-linejoin:round;}</style>
 </defs>
 <g id="figure_1">
  <g id="patch_1">
   <path d="M 0 345.6 
L 460.8 345.6 
L 460.8 0 
L 0 0 
z
" style="fill:#ffffff;"/>
  </g>
  <g id="axes_1">
   <g id="patch_2">
    <path d="M 57.6 307.584 
L 414.72 307.584 
L 414.72 41.472 
L 57.6 41.472 
z
" style="fill:#ffffff;"/>
   </g>
   <g id="matplotlib.axis_1">
    <g id="xtick_1">
     <g id="line2d_1">
      <defs>
       <path d="M 0 0 
L 0 3.5 
" id="mc99176b8f8" style="stroke:#000000;stroke-width:0.8;"/>
      </defs>
      <g>
       <use style="stroke:#000000;stroke-width:0.8;" x="72.178938" xlink:href="#mc99176b8f8" y="307.584"/>
      </g>
     </g>
     <g id="text_1">
      <!-- 0 -->
      <g transform="translate(68.997688 322.182437)scale(0.1 -0.1)">
       <defs>
        <path d="M 2034 4250 
Q 1547 4250 1301 3770 
Q 1056 3291 1056 2328 
Q 1056 1369 1301 889 
Q 1547 409 2034 409 
Q 2525 409 2770 889 
Q 3016 1369 3016 2328 
Q 3016 3291 2770 3770 
Q 2525 4250 2034 4250 
z
M 2034 4750 
Q 2819 4750 3233 4129 
Q 3647 3509 3647 2328 
Q 3647 1150 3233 529 
Q 2819 -91 2034 -91 
Q 1250 -91 836 529 
Q 422 1150 422 2328 
Q 422 3509 836 4129 
Q 1250 4750 2034 4750 
z
" id="DejaVuSans-30" transform="scale(0.015625)"/>
       </defs>
       <use xlink:href="#DejaVuSans-30"/>
      </g>
     </g>
    </g>
    <g id="xtick_2">
     <g id="line2d_2">
      <g>
       <use style="stroke:#000000;stroke-width:0.8;" x="116.301233" xlink:href="#mc99176b8f8" y="307.584"/>
      </g>
     </g>
     <g id="text_2">
      <!-- 1500 -->
      <g transform="translate(103.576233 322.182437)scale(0.1 -0.1)">
       <defs>
        <path d="M 794 531 
L 1825 531 
L 1825 4091 
L 703 3866 
L 703 4441 
L 1819 4666 
L 2450 4666 
L 2450 531 
L 3481 531 
L 3481 0 
L 794 0 
L 794 531 
z
" id="DejaVuSans-31" transform="scale(0.015625)"/>
        <path d="M 691 4666 
L 3169 4666 
L 3169 4134 
L 1269 4134 
L 1269 2991 
Q 1406 3038 1543 3061 
Q 1681 3084 1819 3084 
Q 2600 3084 3056 2656 
Q 3513 2228 3513 1497 
Q 3513 744 3044 326 
Q 2575 -91 1722 -91 
Q 1428 -91 1123 -41 
Q 819 9 494 109 
L 494 744 
Q 775 591 1075 516 
Q 1375 441 1709 441 
Q 2250 441 2565 725 
Q 2881 1009 2881 1497 
Q 2881 1984 2565 2268 
Q 2250 2553 1709 2553 
Q 1456 2553 1204 2497 
Q 953 2441 691 2322 
L 691 4666 
z
" id="DejaVuSans-35" transform="scale(0.015625)"/>
       </defs>
       <use xlink:href="#DejaVuSans-31"/>
       <use x="63.623047" xlink:href="#DejaVuSans-35"/>
       <use x="127.246094" xlink:href="#DejaVuSans-30"/>
       <use x="190.869141" xlink:href="#DejaVuSans-30"/>
      </g>
     </g>
    </g>
    <g id="xtick_3">
     <g id="line2d_3">
      <g>
       <use style="stroke:#000000;stroke-width:0.8;" x="160.423527" xlink:href="#mc99176b8f8" y="307.584"/>
      </g>
     </g>
     <g id="text_3">
      <!-- 3000 -->
      <g transform="translate(147.698527 322.182437)scale(0.1 -0.1)">
       <defs>
        <path d="M 2597 2516 
Q 3050 2419 3304 2112 
Q 3559 1806 3559 1356 
Q 3559 666 3084 287 
Q 2609 -91 1734 -91 
Q 1441 -91 1130 -33 
Q 819 25 488 141 
L 488 750 
Q 750 597 1062 519 
Q 1375 441 1716 441 
Q 2309 441 2620 675 
Q 2931 909 2931 1356 
Q 2931 1769 2642 2001 
Q 2353 2234 1838 2234 
L 1294 2234 
L 1294 2753 
L 1863 2753 
Q 2328 2753 2575 2939 
Q 2822 3125 2822 3475 
Q 2822 3834 2567 4026 
Q 2313 4219 1838 4219 
Q 1578 4219 1281 4162 
Q 984 4106 628 3988 
L 628 4550 
Q 988 4650 1302 4700 
Q 1616 4750 1894 4750 
Q 2613 4750 3031 4423 
Q 3450 4097 3450 3541 
Q 3450 3153 3228 2886 
Q 3006 2619 2597 2516 
z
" id="DejaVuSans-33" transform="scale(0.015625)"/>
       </defs>
       <use xlink:href="#DejaVuSans-33"/>
       <use x="63.623047" xlink:href="#DejaVuSans-30"/>
       <use x="127.246094" xlink:href="#DejaVuSans-30"/>
       <use x="190.869141" xlink:href="#DejaVuSans-30"/>
      </g>
     </g>
    </g>
    <g id="xtick_4">
     <g id="line2d_4">
      <g>
       <use style="stroke:#000000;stroke-width:0.8;" x="204.545822" xlink:href="#mc99176b8f8" y="307.584"/>
      </g>
     </g>
     <g id="text_4">
      <!-- 4500 -->
      <g transform="translate(191.820822 322.182437)scale(0.1 -0.1)">
       <defs>
        <path d="M 2419 4116 
L 825 1625 
L 2419 1625 
L 2419 4116 
z
M 2253 4666 
L 3047 4666 
L 3047 1625 
L 3713 1625 
L 3713 1100 
L 3047 1100 
L 3047 0 
L 2419 0 
L 2419 1100 
L 313 1100 
L 313 1709 
L 2253 4666 
z
" id="DejaVuSans-34" transform="scale(0.015625)"/>
       </defs>
       <use xlink:href="#DejaVuSans-34"/>
       <use x="63.623047" xlink:href="#DejaVuSans-35"/>
       <use x="127.246094" xlink:href="#DejaVuSans-30"/>
       <use x="190.869141" xlink:href="#DejaVuSans-30"/>
      </g>
     </g>
    </g>
    <g id="xtick_5">
     <g id="line2d_5">
      <g>
       <use style="stroke:#000000;stroke-width:0.8;" x="248.668116" xlink:href="#mc99176b8f8" y="307.584"/>
      </g>
     </g>
     <g id="text_5">
      <!-- 6000 -->
      <g transform="translate(235.943116 322.182437)scale(0.1 -0.1)">
       <defs>
        <path d="M 2113 2584 
Q 1688 2584 1439 2293 
Q 1191 2003 1191 1497 
Q 1191 994 1439 701 
Q 1688 409 2113 409 
Q 2538 409 2786 701 
Q 3034 994 3034 1497 
Q 3034 2003 2786 2293 
Q 2538 2584 2113 2584 
z
M 3366 4563 
L 3366 3988 
Q 3128 4100 2886 4159 
Q 2644 4219 2406 4219 
Q 1781 4219 1451 3797 
Q 1122 3375 1075 2522 
Q 1259 2794 1537 2939 
Q 1816 3084 2150 3084 
Q 2853 3084 3261 2657 
Q 3669 2231 3669 1497 
Q 3669 778 3244 343 
Q 2819 -91 2113 -91 
Q 1303 -91 875 529 
Q 447 1150 447 2328 
Q 447 3434 972 4092 
Q 1497 4750 2381 4750 
Q 2619 4750 2861 4703 
Q 3103 4656 3366 4563 
z
" id="DejaVuSans-36" transform="scale(0.015625)"/>
       </defs>
       <use xlink:href="#DejaVuSans-36"/>
       <use x="63.623047" xlink:href="#DejaVuSans-30"/>
       <use x="127.246094" xlink:href="#DejaVuSans-30"/>
       <use x="190.869141" xlink:href="#DejaVuSans-30"/>
      </g>
     </g>
    </g>
    <g id="xtick_6">
     <g id="line2d_6">
      <g>
       <use style="stroke:#000000;stroke-width:0.8;" x="292.790411" xlink:href="#mc99176b8f8" y="307.584"/>
      </g>
     </g>
     <g id="text_6">
      <!-- 7500 -->
      <g transform="translate(280.065411 322.182437)scale(0.1 -0.1)">
       <defs>
        <path d="M 525 4666 
L 3525 4666 
L 3525 4397 
L 1831 0 
L 1172 0 
L 2766 4134 
L 525 4134 
L 525 4666 
z
" id="DejaVuSans-37" transform="scale(0.015625)"/>
       </defs>
       <use xlink:href="#DejaVuSans-37"/>
       <use x="63.623047" xlink:href="#DejaVuSans-35"/>
       <use x="127.246094" xlink:href="#DejaVuSans-30"/>
       <use x="190.869141" xlink:href="#DejaVuSans-30"/>
      </g>
     </g>
    </g>
    <g id="xtick_7">
     <g id="line2d_7">
      <g>
       <use style="stroke:#000000;stroke-width:0.8;" x="336.912705" xlink:href="#mc99176b8f8" y="307.584"/>
      </g>
     </g>
     <g id="text_7">
      <!-- 9000 -->
      <g transform="translate(324.187705 322.182437)scale(0.1 -0.1)">
       <defs>
        <path d="M 703 97 
L 703 672 
Q 941 559 1184 500 
Q 1428 441 1663 441 
Q 2288 441 2617 861 
Q 2947 1281 2994 2138 
Q 2813 1869 2534 1725 
Q 2256 1581 1919 1581 
Q 1219 1581 811 2004 
Q 403 2428 403 3163 
Q 403 3881 828 4315 
Q 1253 4750 1959 4750 
Q 2769 4750 3195 4129 
Q 3622 3509 3622 2328 
Q 3622 1225 3098 567 
Q 2575 -91 1691 -91 
Q 1453 -91 1209 -44 
Q 966 3 703 97 
z
M 1959 2075 
Q 2384 2075 2632 2365 
Q 2881 2656 2881 3163 
Q 2881 3666 2632 3958 
Q 2384 4250 1959 4250 
Q 1534 4250 1286 3958 
Q 1038 3666 1038 3163 
Q 1038 2656 1286 2365 
Q 1534 2075 1959 2075 
z
" id="DejaVuSans-39" transform="scale(0.015625)"/>
       </defs>
       <use xlink:href="#DejaVuSans-39"/>
       <use x="63.623047" xlink:href="#DejaVuSans-30"/>
       <use x="127.246094" xlink:href="#DejaVuSans-30"/>
       <use x="190.869141" xlink:href="#DejaVuSans-30"/>
      </g>
     </g>
    </g>
    <g id="xtick_8">
     <g id="line2d_8">
      <g>
       <use style="stroke:#000000;stroke-width:0.8;" x="381.035" xlink:href="#mc99176b8f8" y="307.584"/>
      </g>
     </g>
     <g id="text_8">
      <!-- 10500 -->
      <g transform="translate(365.12875 322.182437)scale(0.1 -0.1)">
       <use xlink:href="#DejaVuSans-31"/>
       <use x="63.623047" xlink:href="#DejaVuSans-30"/>
       <use x="127.246094" xlink:href="#DejaVuSans-35"/>
       <use x="190.869141" xlink:href="#DejaVuSans-30"/>
       <use x="254.492188" xlink:href="#DejaVuSans-30"/>
      </g>
     </g>
    </g>
    <g id="text_9">
     <!-- Time taken (sec) -->
     <g transform="translate(194.432656 335.860562)scale(0.1 -0.1)">
      <defs>
       <path d="M -19 4666 
L 3928 4666 
L 3928 4134 
L 2272 4134 
L 2272 0 
L 1638 0 
L 1638 4134 
L -19 4134 
L -19 4666 
z
" id="DejaVuSans-54" transform="scale(0.015625)"/>
       <path d="M 603 3500 
L 1178 3500 
L 1178 0 
L 603 0 
L 603 3500 
z
M 603 4863 
L 1178 4863 
L 1178 4134 
L 603 4134 
L 603 4863 
z
" id="DejaVuSans-69" transform="scale(0.015625)"/>
       <path d="M 3328 2828 
Q 3544 3216 3844 3400 
Q 4144 3584 4550 3584 
Q 5097 3584 5394 3201 
Q 5691 2819 5691 2113 
L 5691 0 
L 5113 0 
L 5113 2094 
Q 5113 2597 4934 2840 
Q 4756 3084 4391 3084 
Q 3944 3084 3684 2787 
Q 3425 2491 3425 1978 
L 3425 0 
L 2847 0 
L 2847 2094 
Q 2847 2600 2669 2842 
Q 2491 3084 2119 3084 
Q 1678 3084 1418 2786 
Q 1159 2488 1159 1978 
L 1159 0 
L 581 0 
L 581 3500 
L 1159 3500 
L 1159 2956 
Q 1356 3278 1631 3431 
Q 1906 3584 2284 3584 
Q 2666 3584 2933 3390 
Q 3200 3197 3328 2828 
z
" id="DejaVuSans-6d" transform="scale(0.015625)"/>
       <path d="M 3597 1894 
L 3597 1613 
L 953 1613 
Q 991 1019 1311 708 
Q 1631 397 2203 397 
Q 2534 397 2845 478 
Q 3156 559 3463 722 
L 3463 178 
Q 3153 47 2828 -22 
Q 2503 -91 2169 -91 
Q 1331 -91 842 396 
Q 353 884 353 1716 
Q 353 2575 817 3079 
Q 1281 3584 2069 3584 
Q 2775 3584 3186 3129 
Q 3597 2675 3597 1894 
z
M 3022 2063 
Q 3016 2534 2758 2815 
Q 2500 3097 2075 3097 
Q 1594 3097 1305 2825 
Q 1016 2553 972 2059 
L 3022 2063 
z
" id="DejaVuSans-65" transform="scale(0.015625)"/>
       <path id="DejaVuSans-20" transform="scale(0.015625)"/>
       <path d="M 1172 4494 
L 1172 3500 
L 2356 3500 
L 2356 3053 
L 1172 3053 
L 1172 1153 
Q 1172 725 1289 603 
Q 1406 481 1766 481 
L 2356 481 
L 2356 0 
L 1766 0 
Q 1100 0 847 248 
Q 594 497 594 1153 
L 594 3053 
L 172 3053 
L 172 3500 
L 594 3500 
L 594 4494 
L 1172 4494 
z
" id="DejaVuSans-74" transform="scale(0.015625)"/>
       <path d="M 2194 1759 
Q 1497 1759 1228 1600 
Q 959 1441 959 1056 
Q 959 750 1161 570 
Q 1363 391 1709 391 
Q 2188 391 2477 730 
Q 2766 1069 2766 1631 
L 2766 1759 
L 2194 1759 
z
M 3341 1997 
L 3341 0 
L 2766 0 
L 2766 531 
Q 2569 213 2275 61 
Q 1981 -91 1556 -91 
Q 1019 -91 701 211 
Q 384 513 384 1019 
Q 384 1609 779 1909 
Q 1175 2209 1959 2209 
L 2766 2209 
L 2766 2266 
Q 2766 2663 2505 2880 
Q 2244 3097 1772 3097 
Q 1472 3097 1187 3025 
Q 903 2953 641 2809 
L 641 3341 
Q 956 3463 1253 3523 
Q 1550 3584 1831 3584 
Q 2591 3584 2966 3190 
Q 3341 2797 3341 1997 
z
" id="DejaVuSans-61" transform="scale(0.015625)"/>
       <path d="M 581 4863 
L 1159 4863 
L 1159 1991 
L 2875 3500 
L 3609 3500 
L 1753 1863 
L 3688 0 
L 2938 0 
L 1159 1709 
L 1159 0 
L 581 0 
L 581 4863 
z
" id="DejaVuSans-6b" transform="scale(0.015625)"/>
       <path d="M 3513 2113 
L 3513 0 
L 2938 0 
L 2938 2094 
Q 2938 2591 2744 2837 
Q 2550 3084 2163 3084 
Q 1697 3084 1428 2787 
Q 1159 2491 1159 1978 
L 1159 0 
L 581 0 
L 581 3500 
L 1159 3500 
L 1159 2956 
Q 1366 3272 1645 3428 
Q 1925 3584 2291 3584 
Q 2894 3584 3203 3211 
Q 3513 2838 3513 2113 
z
" id="DejaVuSans-6e" transform="scale(0.015625)"/>
       <path d="M 1984 4856 
Q 1566 4138 1362 3434 
Q 1159 2731 1159 2009 
Q 1159 1288 1364 580 
Q 1569 -128 1984 -844 
L 1484 -844 
Q 1016 -109 783 600 
Q 550 1309 550 2009 
Q 550 2706 781 3412 
Q 1013 4119 1484 4856 
L 1984 4856 
z
" id="DejaVuSans-28" transform="scale(0.015625)"/>
       <path d="M 2834 3397 
L 2834 2853 
Q 2591 2978 2328 3040 
Q 2066 3103 1784 3103 
Q 1356 3103 1142 2972 
Q 928 2841 928 2578 
Q 928 2378 1081 2264 
Q 1234 2150 1697 2047 
L 1894 2003 
Q 2506 1872 2764 1633 
Q 3022 1394 3022 966 
Q 3022 478 2636 193 
Q 2250 -91 1575 -91 
Q 1294 -91 989 -36 
Q 684 19 347 128 
L 347 722 
Q 666 556 975 473 
Q 1284 391 1588 391 
Q 1994 391 2212 530 
Q 2431 669 2431 922 
Q 2431 1156 2273 1281 
Q 2116 1406 1581 1522 
L 1381 1569 
Q 847 1681 609 1914 
Q 372 2147 372 2553 
Q 372 3047 722 3315 
Q 1072 3584 1716 3584 
Q 2034 3584 2315 3537 
Q 2597 3491 2834 3397 
z
" id="DejaVuSans-73" transform="scale(0.015625)"/>
       <path d="M 3122 3366 
L 3122 2828 
Q 2878 2963 2633 3030 
Q 2388 3097 2138 3097 
Q 1578 3097 1268 2742 
Q 959 2388 959 1747 
Q 959 1106 1268 751 
Q 1578 397 2138 397 
Q 2388 397 2633 464 
Q 2878 531 3122 666 
L 3122 134 
Q 2881 22 2623 -34 
Q 2366 -91 2075 -91 
Q 1284 -91 818 406 
Q 353 903 353 1747 
Q 353 2603 823 3093 
Q 1294 3584 2113 3584 
Q 2378 3584 2631 3529 
Q 2884 3475 3122 3366 
z
" id="DejaVuSans-63" transform="scale(0.015625)"/>
       <path d="M 513 4856 
L 1013 4856 
Q 1481 4119 1714 3412 
Q 1947 2706 1947 2009 
Q 1947 1309 1714 600 
Q 1481 -109 1013 -844 
L 513 -844 
Q 928 -128 1133 580 
Q 1338 1288 1338 2009 
Q 1338 2731 1133 3434 
Q 928 4138 513 4856 
z
" id="DejaVuSans-29" transform="scale(0.015625)"/>
      </defs>
      <use xlink:href="#DejaVuSans-54"/>
      <use x="57.958984" xlink:href="#DejaVuSans-69"/>
      <use x="85.742188" xlink:href="#DejaVuSans-6d"/>
      <use x="183.154297" xlink:href="#DejaVuSans-65"/>
      <use x="244.677734" xlink:href="#DejaVuSans-20"/>
      <use x="276.464844" xlink:href="#DejaVuSans-74"/>
      <use x="315.673828" xlink:href="#DejaVuSans-61"/>
      <use x="376.953125" xlink:href="#DejaVuSans-6b"/>
      <use x="431.238281" xlink:href="#DejaVuSans-65"/>
      <use x="492.761719" xlink:href="#DejaVuSans-6e"/>
      <use x="556.140625" xlink:href="#DejaVuSans-20"/>
      <use x="587.927734" xlink:href="#DejaVuSans-28"/>
      <use x="626.941406" xlink:href="#DejaVuSans-73"/>
      <use x="679.041016" xlink:href="#DejaVuSans-65"/>
      <use x="740.564453" xlink:href="#DejaVuSans-63"/>
      <use x="795.544922" xlink:href="#DejaVuSans-29"/>
     </g>
    </g>
   </g>
   <g id="matplotlib.axis_2">
    <g id="ytick_1">
     <g id="line2d_9">
      <defs>
       <path d="M 0 0 
L -3.5 0 
" id="m3457d63954" style="stroke:#000000;stroke-width:0.8;"/>
      </defs>
      <g>
       <use style="stroke:#000000;stroke-width:0.8;" x="57.6" xlink:href="#m3457d63954" y="307.584"/>
      </g>
     </g>
     <g id="text_10">
      <!-- 0.0 -->
      <g transform="translate(34.696875 311.383219)scale(0.1 -0.1)">
       <defs>
        <path d="M 684 794 
L 1344 794 
L 1344 0 
L 684 0 
L 684 794 
z
" id="DejaVuSans-2e" transform="scale(0.015625)"/>
       </defs>
       <use xlink:href="#DejaVuSans-30"/>
       <use x="63.623047" xlink:href="#DejaVuSans-2e"/>
       <use x="95.410156" xlink:href="#DejaVuSans-30"/>
      </g>
     </g>
    </g>
    <g id="ytick_2">
     <g id="line2d_10">
      <g>
       <use style="stroke:#000000;stroke-width:0.8;" x="57.6" xlink:href="#m3457d63954" y="281.858347"/>
      </g>
     </g>
     <g id="text_11">
      <!-- 0.1 -->
      <g transform="translate(34.696875 285.657566)scale(0.1 -0.1)">
       <use xlink:href="#DejaVuSans-30"/>
       <use x="63.623047" xlink:href="#DejaVuSans-2e"/>
       <use x="95.410156" xlink:href="#DejaVuSans-31"/>
      </g>
     </g>
    </g>
    <g id="ytick_3">
     <g id="line2d_11">
      <g>
       <use style="stroke:#000000;stroke-width:0.8;" x="57.6" xlink:href="#m3457d63954" y="256.132695"/>
      </g>
     </g>
     <g id="text_12">
      <!-- 0.2 -->
      <g transform="translate(34.696875 259.931914)scale(0.1 -0.1)">
       <defs>
        <path d="M 1228 531 
L 3431 531 
L 3431 0 
L 469 0 
L 469 531 
Q 828 903 1448 1529 
Q 2069 2156 2228 2338 
Q 2531 2678 2651 2914 
Q 2772 3150 2772 3378 
Q 2772 3750 2511 3984 
Q 2250 4219 1831 4219 
Q 1534 4219 1204 4116 
Q 875 4013 500 3803 
L 500 4441 
Q 881 4594 1212 4672 
Q 1544 4750 1819 4750 
Q 2544 4750 2975 4387 
Q 3406 4025 3406 3419 
Q 3406 3131 3298 2873 
Q 3191 2616 2906 2266 
Q 2828 2175 2409 1742 
Q 1991 1309 1228 531 
z
" id="DejaVuSans-32" transform="scale(0.015625)"/>
       </defs>
       <use xlink:href="#DejaVuSans-30"/>
       <use x="63.623047" xlink:href="#DejaVuSans-2e"/>
       <use x="95.410156" xlink:href="#DejaVuSans-32"/>
      </g>
     </g>
    </g>
    <g id="ytick_4">
     <g id="line2d_12">
      <g>
       <use style="stroke:#000000;stroke-width:0.8;" x="57.6" xlink:href="#m3457d63954" y="230.407042"/>
      </g>
     </g>
     <g id="text_13">
      <!-- 0.3 -->
      <g transform="translate(34.696875 234.206261)scale(0.1 -0.1)">
       <use xlink:href="#DejaVuSans-30"/>
       <use x="63.623047" xlink:href="#DejaVuSans-2e"/>
       <use x="95.410156" xlink:href="#DejaVuSans-33"/>
      </g>
     </g>
    </g>
    <g id="ytick_5">
     <g id="line2d_13">
      <g>
       <use style="stroke:#000000;stroke-width:0.8;" x="57.6" xlink:href="#m3457d63954" y="204.68139"/>
      </g>
     </g>
     <g id="text_14">
      <!-- 0.4 -->
      <g transform="translate(34.696875 208.480608)scale(0.1 -0.1)">
       <use xlink:href="#DejaVuSans-30"/>
       <use x="63.623047" xlink:href="#DejaVuSans-2e"/>
       <use x="95.410156" xlink:href="#DejaVuSans-34"/>
      </g>
     </g>
    </g>
    <g id="ytick_6">
     <g id="line2d_14">
      <g>
       <use style="stroke:#000000;stroke-width:0.8;" x="57.6" xlink:href="#m3457d63954" y="178.955737"/>
      </g>
     </g>
     <g id="text_15">
      <!-- 0.5 -->
      <g transform="translate(34.696875 182.754956)scale(0.1 -0.1)">
       <use xlink:href="#DejaVuSans-30"/>
       <use x="63.623047" xlink:href="#DejaVuSans-2e"/>
       <use x="95.410156" xlink:href="#DejaVuSans-35"/>
      </g>
     </g>
    </g>
    <g id="ytick_7">
     <g id="line2d_15">
      <g>
       <use style="stroke:#000000;stroke-width:0.8;" x="57.6" xlink:href="#m3457d63954" y="153.230085"/>
      </g>
     </g>
     <g id="text_16">
      <!-- 0.6 -->
      <g transform="translate(34.696875 157.029303)scale(0.1 -0.1)">
       <use xlink:href="#DejaVuSans-30"/>
       <use x="63.623047" xlink:href="#DejaVuSans-2e"/>
       <use x="95.410156" xlink:href="#DejaVuSans-36"/>
      </g>
     </g>
    </g>
    <g id="ytick_8">
     <g id="line2d_16">
      <g>
       <use style="stroke:#000000;stroke-width:0.8;" x="57.6" xlink:href="#m3457d63954" y="127.504432"/>
      </g>
     </g>
     <g id="text_17">
      <!-- 0.7 -->
      <g transform="translate(34.696875 131.303651)scale(0.1 -0.1)">
       <use xlink:href="#DejaVuSans-30"/>
       <use x="63.623047" xlink:href="#DejaVuSans-2e"/>
       <use x="95.410156" xlink:href="#DejaVuSans-37"/>
      </g>
     </g>
    </g>
    <g id="ytick_9">
     <g id="line2d_17">
      <g>
       <use style="stroke:#000000;stroke-width:0.8;" x="57.6" xlink:href="#m3457d63954" y="101.778779"/>
      </g>
     </g>
     <g id="text_18">
      <!-- 0.8 -->
      <g transform="translate(34.696875 105.577998)scale(0.1 -0.1)">
       <defs>
        <path d="M 2034 2216 
Q 1584 2216 1326 1975 
Q 1069 1734 1069 1313 
Q 1069 891 1326 650 
Q 1584 409 2034 409 
Q 2484 409 2743 651 
Q 3003 894 3003 1313 
Q 3003 1734 2745 1975 
Q 2488 2216 2034 2216 
z
M 1403 2484 
Q 997 2584 770 2862 
Q 544 3141 544 3541 
Q 544 4100 942 4425 
Q 1341 4750 2034 4750 
Q 2731 4750 3128 4425 
Q 3525 4100 3525 3541 
Q 3525 3141 3298 2862 
Q 3072 2584 2669 2484 
Q 3125 2378 3379 2068 
Q 3634 1759 3634 1313 
Q 3634 634 3220 271 
Q 2806 -91 2034 -91 
Q 1263 -91 848 271 
Q 434 634 434 1313 
Q 434 1759 690 2068 
Q 947 2378 1403 2484 
z
M 1172 3481 
Q 1172 3119 1398 2916 
Q 1625 2713 2034 2713 
Q 2441 2713 2670 2916 
Q 2900 3119 2900 3481 
Q 2900 3844 2670 4047 
Q 2441 4250 2034 4250 
Q 1625 4250 1398 4047 
Q 1172 3844 1172 3481 
z
" id="DejaVuSans-38" transform="scale(0.015625)"/>
       </defs>
       <use xlink:href="#DejaVuSans-30"/>
       <use x="63.623047" xlink:href="#DejaVuSans-2e"/>
       <use x="95.410156" xlink:href="#DejaVuSans-38"/>
      </g>
     </g>
    </g>
    <g id="ytick_10">
     <g id="line2d_18">
      <g>
       <use style="stroke:#000000;stroke-width:0.8;" x="57.6" xlink:href="#m3457d63954" y="76.053127"/>
      </g>
     </g>
     <g id="text_19">
      <!-- 0.9 -->
      <g transform="translate(34.696875 79.852346)scale(0.1 -0.1)">
       <use xlink:href="#DejaVuSans-30"/>
       <use x="63.623047" xlink:href="#DejaVuSans-2e"/>
       <use x="95.410156" xlink:href="#DejaVuSans-39"/>
      </g>
     </g>
    </g>
    <g id="text_20">
     <!-- Accuracy -->
     <g transform="translate(28.617187 197.356125)rotate(-90)scale(0.1 -0.1)">
      <defs>
       <path d="M 2188 4044 
L 1331 1722 
L 3047 1722 
L 2188 4044 
z
M 1831 4666 
L 2547 4666 
L 4325 0 
L 3669 0 
L 3244 1197 
L 1141 1197 
L 716 0 
L 50 0 
L 1831 4666 
z
" id="DejaVuSans-41" transform="scale(0.015625)"/>
       <path d="M 544 1381 
L 544 3500 
L 1119 3500 
L 1119 1403 
Q 1119 906 1312 657 
Q 1506 409 1894 409 
Q 2359 409 2629 706 
Q 2900 1003 2900 1516 
L 2900 3500 
L 3475 3500 
L 3475 0 
L 2900 0 
L 2900 538 
Q 2691 219 2414 64 
Q 2138 -91 1772 -91 
Q 1169 -91 856 284 
Q 544 659 544 1381 
z
M 1991 3584 
L 1991 3584 
z
" id="DejaVuSans-75" transform="scale(0.015625)"/>
       <path d="M 2631 2963 
Q 2534 3019 2420 3045 
Q 2306 3072 2169 3072 
Q 1681 3072 1420 2755 
Q 1159 2438 1159 1844 
L 1159 0 
L 581 0 
L 581 3500 
L 1159 3500 
L 1159 2956 
Q 1341 3275 1631 3429 
Q 1922 3584 2338 3584 
Q 2397 3584 2469 3576 
Q 2541 3569 2628 3553 
L 2631 2963 
z
" id="DejaVuSans-72" transform="scale(0.015625)"/>
       <path d="M 2059 -325 
Q 1816 -950 1584 -1140 
Q 1353 -1331 966 -1331 
L 506 -1331 
L 506 -850 
L 844 -850 
Q 1081 -850 1212 -737 
Q 1344 -625 1503 -206 
L 1606 56 
L 191 3500 
L 800 3500 
L 1894 763 
L 2988 3500 
L 3597 3500 
L 2059 -325 
z
" id="DejaVuSans-79" transform="scale(0.015625)"/>
      </defs>
      <use xlink:href="#DejaVuSans-41"/>
      <use x="66.658203" xlink:href="#DejaVuSans-63"/>
      <use x="121.638672" xlink:href="#DejaVuSans-63"/>
      <use x="176.619141" xlink:href="#DejaVuSans-75"/>
      <use x="239.998047" xlink:href="#DejaVuSans-72"/>
      <use x="281.111328" xlink:href="#DejaVuSans-61"/>
      <use x="342.390625" xlink:href="#DejaVuSans-63"/>
      <use x="397.371094" xlink:href="#DejaVuSans-79"/>
     </g>
    </g>
   </g>
   <g id="line2d_19">
    <path clip-path="url(#p3e902f4591)" d="M 74.084389 251.608392 
L 75.942981 227.899061 
L 77.893389 217.175043 
L 79.761921 185.671097 
L 81.839312 163.426468 
L 83.736768 138.038296 
L 85.808102 131.365764 
L 87.81063 121.729565 
L 89.763114 115.142688 
L 91.764075 110.662926 
L 93.531273 103.262326 
L 95.3512 88.315511 
L 97.344749 103.964698 
L 99.272695 108.572942 
L 101.309897 85.583113 
L 103.233584 82.662274 
L 105.119721 88.384035 
L 107.078849 85.882906 
L 108.82848 83.955666 
L 110.653453 83.775791 
L 112.683475 79.021933 
L 114.577516 77.300265 
L 118.538541 76.991907 
L 120.411884 76.837728 
L 122.345512 77.248872 
L 124.397135 73.505744 
L 126.281381 74.088199 
L 128.186413 78.30243 
L 130.060726 77.719975 
L 131.930494 73.402958 
L 133.857343 72.717717 
L 135.745919 72.563538 
L 137.583523 72.683455 
L 139.563871 71.946821 
L 141.47465 71.775511 
L 143.472031 70.139499 
L 145.243909 71.210187 
L 147.000952 70.413595 
L 148.965717 71.869732 
L 150.879631 70.130933 
L 152.799401 70.259416 
L 154.698759 68.863238 
L 156.530126 68.631969 
L 158.531891 68.554879 
L 160.451324 68.923196 
L 162.301092 69.65983 
L 164.280475 69.711223 
L 166.378189 69.531348 
L 168.230232 68.734755 
L 170.261928 68.392135 
L 172.110668 68.272218 
L 174.096023 66.978826 
L 176.047588 67.31288 
L 177.838061 69.402865 
L 179.785014 66.858908 
L 181.680354 66.730426 
L 183.70487 67.766852 
L 185.663419 68.940327 
L 187.457459 67.80968 
L 189.430914 65.831047 
L 191.231978 65.265724 
L 193.093922 67.252922 
L 195.177585 66.190799 
L 197.093599 66.13084 
L 198.966327 65.53982 
L 200.871908 65.428468 
L 202.822328 65.12011 
L 206.491946 65.025889 
L 208.38035 64.786055 
L 210.378493 65.402772 
L 212.28923 65.094413 
L 214.203569 65.36851 
L 216.133531 66.028054 
L 218.105973 64.880276 
L 219.99034 64.734662 
L 222.010745 65.753958 
L 223.951511 66.995957 
L 225.98726 64.057987 
L 227.955854 64.040856 
L 229.747094 64.443435 
L 233.516539 63.698235 
L 235.448358 64.237862 
L 237.251781 63.920939 
L 239.182811 64.409173 
L 241.098714 64.28069 
L 242.955178 63.741063 
L 244.871546 63.338484 
L 248.542968 63.115781 
L 250.567114 62.696071 
L 252.403884 63.090084 
L 254.323755 63.218567 
L 256.336564 63.835283 
L 258.357761 63.141477 
L 260.131076 63.389877 
L 261.911899 62.481933 
L 263.798577 62.721767 
L 265.705244 63.321353 
L 267.697004 63.732497 
L 269.545366 62.893077 
L 271.554229 63.115781 
L 273.559622 62.85025 
L 275.679449 63.244263 
L 277.654372 62.833119 
L 283.413102 62.216402 
L 285.238473 62.747464 
L 287.2429 62.439105 
L 289.187321 62.730333 
L 291.240872 62.447671 
L 293.150795 62.490498 
L 295.001796 62.045092 
L 298.89456 62.302057 
L 300.793466 62.10505 
L 302.604645 62.439105 
L 304.433452 62.953036 
L 306.55041 63.115781 
L 308.348168 61.890913 
L 310.259036 62.473367 
L 312.17188 62.173574 
L 314.041835 62.233533 
L 316.125174 61.702471 
L 318.014819 61.976568 
L 319.999562 62.439105 
L 321.83659 61.788127 
L 323.758708 62.250664 
L 325.578895 61.856651 
L 327.559154 61.17141 
L 329.58699 61.445506 
L 331.397363 61.976568 
L 335.197245 61.608251 
L 337.17659 62.224968 
L 339.135825 61.908044 
L 340.986828 61.394113 
L 343.058066 61.402679 
L 345.007407 61.068624 
L 350.698415 61.582554 
L 354.440679 61.531161 
L 356.461228 61.325589 
L 358.402946 61.805258 
L 360.199252 61.830954 
L 361.990875 62.499064 
L 363.84271 62.10505 
L 365.803271 61.068624 
L 367.746915 61.34272 
L 369.771829 61.068624 
L 371.658635 61.539727 
L 375.57301 61.162844 
L 379.383655 61.231368 
L 381.169955 61.599685 
L 383.045185 61.402679 
L 384.960079 61.522596 
L 386.787595 61.205672 
L 390.578398 61.899478 
L 392.480158 61.282761 
L 398.487273 60.957272 
L 398.487273 60.957272 
" style="fill:none;stroke:#1f77b4;stroke-dasharray:5.55,2.4;stroke-dashoffset:0;stroke-width:1.5;"/>
   </g>
   <g id="line2d_20">
    <path clip-path="url(#p3e902f4591)" d="M 74.028157 266.195726 
L 75.802991 287.680042 
L 77.642373 210.644035 
L 79.591877 203.673378 
L 81.472909 188.134623 
L 83.361367 136.298906 
L 85.071384 136.427043 
L 86.955497 172.014979 
L 88.823456 110.082062 
L 90.740615 113.268403 
L 92.612424 102.137563 
L 94.385392 107.869561 
L 96.279534 101.377283 
L 98.150863 83.147649 
L 100.007292 93.996588 
L 101.778399 81.31956 
L 103.611103 77.432736 
L 105.49968 78.432205 
L 107.244713 75.698614 
L 109.234913 76.518692 
L 111.125772 77.953827 
L 113.075349 77.432736 
L 114.900069 73.076076 
L 116.863839 73.861983 
L 118.678259 71.213817 
L 122.325015 71.564058 
L 124.219281 73.88761 
L 126.023753 70.22289 
L 127.927771 69.556577 
L 129.74925 69.539492 
L 131.610211 68.574193 
L 133.521883 70.333942 
L 135.316563 69.231963 
L 139.084778 67.822456 
L 141.009314 68.241037 
L 142.866298 67.28428 
L 144.674883 66.677764 
L 146.400249 67.788286 
L 148.246317 67.412417 
L 150.056463 66.575255 
L 151.880749 66.925496 
L 153.68114 65.353681 
L 155.416742 66.59234 
L 157.227266 65.413479 
L 159.103922 66.677764 
L 160.87332 66.430033 
L 162.687751 64.806963 
L 164.455842 66.404405 
L 166.309667 64.601944 
L 168.054008 64.952185 
L 171.520623 65.413479 
L 173.409116 64.952185 
L 177.059893 65.029067 
L 178.850657 64.268788 
L 180.66249 63.867291 
L 182.653502 63.260776 
L 186.278333 63.935631 
L 188.109157 63.875834 
L 190.065714 62.884907 
L 191.79412 63.183894 
L 193.602531 62.304019 
L 195.385057 63.303488 
L 197.172374 62.782398 
L 199.032317 62.782398 
L 200.827682 62.244222 
L 202.666795 61.99649 
L 204.587386 62.645718 
L 206.403832 61.620621 
L 208.208486 62.782398 
L 209.955197 61.987948 
L 211.959435 61.868353 
L 213.824723 60.945766 
L 215.668055 61.313092 
L 219.434261 61.740216 
L 221.336905 61.244753 
L 223.186155 61.014106 
L 227.174116 61.791471 
L 229.062211 61.654791 
L 230.971329 61.261838 
L 232.905739 61.296007 
L 234.773056 61.757301 
L 236.612043 61.253295 
L 240.275853 61.748758 
L 242.066772 60.450303 
L 243.906642 60.740747 
L 247.713992 60.732204 
L 249.642929 60.322166 
L 251.53602 60.57844 
L 253.472469 61.483942 
L 255.329931 60.595525 
L 257.279319 61.424145 
L 259.061808 60.826172 
L 262.623778 60.125689 
L 264.508037 59.92067 
L 266.264447 60.54427 
L 268.06799 61.586452 
L 269.973424 60.527185 
L 271.872126 61.27038 
L 273.738158 60.493015 
L 275.668762 61.552282 
L 279.335636 59.843787 
L 281.163731 60.057349 
L 283.094981 60.458845 
L 284.981992 60.535728 
L 286.784832 60.433218 
L 288.59278 60.100061 
L 290.40674 60.168401 
L 292.255141 59.587513 
L 294.075154 60.023179 
L 297.895442 59.869415 
L 299.763598 59.476461 
L 301.612294 59.85233 
L 303.381975 59.860872 
L 305.054046 59.71565 
L 306.824767 59.758363 
L 308.72787 60.211114 
L 310.679467 60.117146 
L 312.477828 59.297069 
L 314.41803 59.450834 
L 316.34365 59.895042 
L 318.173845 60.074434 
L 319.977078 59.826702 
L 321.793521 59.19456 
L 323.563765 59.322697 
L 327.252596 60.048807 
L 329.039727 59.553343 
L 330.935312 59.860872 
L 334.620935 59.391036 
L 342.074963 59.946297 
L 347.697067 59.476461 
L 349.541763 59.68148 
L 351.417655 59.134762 
L 355.117491 59.655853 
L 357.018816 59.527716 
L 358.813963 59.963382 
L 360.658215 59.450834 
L 362.454456 59.664395 
L 364.30862 59.758363 
L 366.220265 59.741278 
L 367.989605 59.331239 
L 369.85359 59.587513 
L 371.638493 58.827233 
L 373.455494 59.049338 
L 375.328483 59.425206 
L 377.285875 59.450834 
L 379.235469 59.78399 
L 381.052066 59.724193 
L 382.998498 59.356866 
L 386.549569 58.946828 
L 386.549569 58.946828 
" style="fill:none;stroke:#ff7f0e;stroke-dasharray:9.6,2.4,1.5,2.4;stroke-dashoffset:0;stroke-width:1.5;"/>
   </g>
   <g id="line2d_21">
    <defs>
     <path d="M 3 0 
L -3 -3 
L -3 3 
z
" id="mcb9a10d9f4" style="stroke:#2ca02c;stroke-linejoin:miter;"/>
    </defs>
    <g clip-path="url(#p3e902f4591)">
     <use style="fill:#2ca02c;stroke:#2ca02c;stroke-linejoin:miter;" x="74.071924" xlink:href="#mcb9a10d9f4" y="273.680125"/>
     <use style="fill:#2ca02c;stroke:#2ca02c;stroke-linejoin:miter;" x="75.976774" xlink:href="#mcb9a10d9f4" y="235.399631"/>
     <use style="fill:#2ca02c;stroke:#2ca02c;stroke-linejoin:miter;" x="77.820634" xlink:href="#mcb9a10d9f4" y="224.291718"/>
     <use style="fill:#2ca02c;stroke:#2ca02c;stroke-linejoin:miter;" x="79.687199" xlink:href="#mcb9a10d9f4" y="199.303181"/>
     <use style="fill:#2ca02c;stroke:#2ca02c;stroke-linejoin:miter;" x="81.51898" xlink:href="#mcb9a10d9f4" y="155.076284"/>
     <use style="fill:#2ca02c;stroke:#2ca02c;stroke-linejoin:miter;" x="83.410496" xlink:href="#mcb9a10d9f4" y="142.842224"/>
     <use style="fill:#2ca02c;stroke:#2ca02c;stroke-linejoin:miter;" x="85.305701" xlink:href="#mcb9a10d9f4" y="108.921287"/>
     <use style="fill:#2ca02c;stroke:#2ca02c;stroke-linejoin:miter;" x="87.084451" xlink:href="#mcb9a10d9f4" y="116.249779"/>
     <use style="fill:#2ca02c;stroke:#2ca02c;stroke-linejoin:miter;" x="88.92632" xlink:href="#mcb9a10d9f4" y="107.146751"/>
     <use style="fill:#2ca02c;stroke:#2ca02c;stroke-linejoin:miter;" x="90.714469" xlink:href="#mcb9a10d9f4" y="104.723827"/>
     <use style="fill:#2ca02c;stroke:#2ca02c;stroke-linejoin:miter;" x="92.452291" xlink:href="#mcb9a10d9f4" y="93.35144"/>
     <use style="fill:#2ca02c;stroke:#2ca02c;stroke-linejoin:miter;" x="94.304722" xlink:href="#mcb9a10d9f4" y="96.115621"/>
     <use style="fill:#2ca02c;stroke:#2ca02c;stroke-linejoin:miter;" x="96.203175" xlink:href="#mcb9a10d9f4" y="82.806601"/>
     <use style="fill:#2ca02c;stroke:#2ca02c;stroke-linejoin:miter;" x="97.988462" xlink:href="#mcb9a10d9f4" y="80.980877"/>
     <use style="fill:#2ca02c;stroke:#2ca02c;stroke-linejoin:miter;" x="99.803201" xlink:href="#mcb9a10d9f4" y="81.322134"/>
     <use style="fill:#2ca02c;stroke:#2ca02c;stroke-linejoin:miter;" x="101.624228" xlink:href="#mcb9a10d9f4" y="78.293478"/>
     <use style="fill:#2ca02c;stroke:#2ca02c;stroke-linejoin:miter;" x="103.551338" xlink:href="#mcb9a10d9f4" y="80.690808"/>
     <use style="fill:#2ca02c;stroke:#2ca02c;stroke-linejoin:miter;" x="105.300386" xlink:href="#mcb9a10d9f4" y="79.905917"/>
     <use style="fill:#2ca02c;stroke:#2ca02c;stroke-linejoin:miter;" x="107.085907" xlink:href="#mcb9a10d9f4" y="78.549421"/>
     <use style="fill:#2ca02c;stroke:#2ca02c;stroke-linejoin:miter;" x="108.832769" xlink:href="#mcb9a10d9f4" y="75.239229"/>
     <use style="fill:#2ca02c;stroke:#2ca02c;stroke-linejoin:miter;" x="110.648289" xlink:href="#mcb9a10d9f4" y="74.795595"/>
     <use style="fill:#2ca02c;stroke:#2ca02c;stroke-linejoin:miter;" x="112.494384" xlink:href="#mcb9a10d9f4" y="72.858962"/>
     <use style="fill:#2ca02c;stroke:#2ca02c;stroke-linejoin:miter;" x="114.299829" xlink:href="#mcb9a10d9f4" y="72.756585"/>
     <use style="fill:#2ca02c;stroke:#2ca02c;stroke-linejoin:miter;" x="116.199096" xlink:href="#mcb9a10d9f4" y="77.227051"/>
     <use style="fill:#2ca02c;stroke:#2ca02c;stroke-linejoin:miter;" x="117.966321" xlink:href="#mcb9a10d9f4" y="74.309304"/>
     <use style="fill:#2ca02c;stroke:#2ca02c;stroke-linejoin:miter;" x="119.771448" xlink:href="#mcb9a10d9f4" y="71.084426"/>
     <use style="fill:#2ca02c;stroke:#2ca02c;stroke-linejoin:miter;" x="121.666242" xlink:href="#mcb9a10d9f4" y="72.867494"/>
     <use style="fill:#2ca02c;stroke:#2ca02c;stroke-linejoin:miter;" x="123.492686" xlink:href="#mcb9a10d9f4" y="70.760232"/>
     <use style="fill:#2ca02c;stroke:#2ca02c;stroke-linejoin:miter;" x="125.30381" xlink:href="#mcb9a10d9f4" y="71.451277"/>
     <use style="fill:#2ca02c;stroke:#2ca02c;stroke-linejoin:miter;" x="127.214301" xlink:href="#mcb9a10d9f4" y="72.858962"/>
     <use style="fill:#2ca02c;stroke:#2ca02c;stroke-linejoin:miter;" x="129.128122" xlink:href="#mcb9a10d9f4" y="73.191688"/>
     <use style="fill:#2ca02c;stroke:#2ca02c;stroke-linejoin:miter;" x="130.86807" xlink:href="#mcb9a10d9f4" y="71.16974"/>
     <use style="fill:#2ca02c;stroke:#2ca02c;stroke-linejoin:miter;" x="132.643809" xlink:href="#mcb9a10d9f4" y="70.862609"/>
     <use style="fill:#2ca02c;stroke:#2ca02c;stroke-linejoin:miter;" x="134.525395" xlink:href="#mcb9a10d9f4" y="69.890027"/>
     <use style="fill:#2ca02c;stroke:#2ca02c;stroke-linejoin:miter;" x="136.256096" xlink:href="#mcb9a10d9f4" y="68.490874"/>
     <use style="fill:#2ca02c;stroke:#2ca02c;stroke-linejoin:miter;" x="138.08435" xlink:href="#mcb9a10d9f4" y="67.501229"/>
     <use style="fill:#2ca02c;stroke:#2ca02c;stroke-linejoin:miter;" x="139.970295" xlink:href="#mcb9a10d9f4" y="68.576188"/>
     <use style="fill:#2ca02c;stroke:#2ca02c;stroke-linejoin:miter;" x="141.779862" xlink:href="#mcb9a10d9f4" y="68.465279"/>
     <use style="fill:#2ca02c;stroke:#2ca02c;stroke-linejoin:miter;" x="143.597678" xlink:href="#mcb9a10d9f4" y="69.156325"/>
     <use style="fill:#2ca02c;stroke:#2ca02c;stroke-linejoin:miter;" x="145.533432" xlink:href="#mcb9a10d9f4" y="66.596898"/>
     <use style="fill:#2ca02c;stroke:#2ca02c;stroke-linejoin:miter;" x="147.335296" xlink:href="#mcb9a10d9f4" y="65.248933"/>
     <use style="fill:#2ca02c;stroke:#2ca02c;stroke-linejoin:miter;" x="149.221957" xlink:href="#mcb9a10d9f4" y="67.526823"/>
     <use style="fill:#2ca02c;stroke:#2ca02c;stroke-linejoin:miter;" x="151.048622" xlink:href="#mcb9a10d9f4" y="66.776058"/>
     <use style="fill:#2ca02c;stroke:#2ca02c;stroke-linejoin:miter;" x="152.955318" xlink:href="#mcb9a10d9f4" y="66.332424"/>
     <use style="fill:#2ca02c;stroke:#2ca02c;stroke-linejoin:miter;" x="154.819205" xlink:href="#mcb9a10d9f4" y="65.905852"/>
     <use style="fill:#2ca02c;stroke:#2ca02c;stroke-linejoin:miter;" x="156.647911" xlink:href="#mcb9a10d9f4" y="65.086836"/>
     <use style="fill:#2ca02c;stroke:#2ca02c;stroke-linejoin:miter;" x="158.495968" xlink:href="#mcb9a10d9f4" y="65.393967"/>
     <use style="fill:#2ca02c;stroke:#2ca02c;stroke-linejoin:miter;" x="160.253749" xlink:href="#mcb9a10d9f4" y="65.743755"/>
     <use style="fill:#2ca02c;stroke:#2ca02c;stroke-linejoin:miter;" x="162.050758" xlink:href="#mcb9a10d9f4" y="65.70963"/>
     <use style="fill:#2ca02c;stroke:#2ca02c;stroke-linejoin:miter;" x="163.844323" xlink:href="#mcb9a10d9f4" y="65.095367"/>
     <use style="fill:#2ca02c;stroke:#2ca02c;stroke-linejoin:miter;" x="165.775111" xlink:href="#mcb9a10d9f4" y="63.943625"/>
     <use style="fill:#2ca02c;stroke:#2ca02c;stroke-linejoin:miter;" x="167.570326" xlink:href="#mcb9a10d9f4" y="64.958864"/>
     <use style="fill:#2ca02c;stroke:#2ca02c;stroke-linejoin:miter;" x="169.455517" xlink:href="#mcb9a10d9f4" y="64.506699"/>
     <use style="fill:#2ca02c;stroke:#2ca02c;stroke-linejoin:miter;" x="171.326416" xlink:href="#mcb9a10d9f4" y="64.711453"/>
     <use style="fill:#2ca02c;stroke:#2ca02c;stroke-linejoin:miter;" x="173.17835" xlink:href="#mcb9a10d9f4" y="65.240401"/>
     <use style="fill:#2ca02c;stroke:#2ca02c;stroke-linejoin:miter;" x="174.967264" xlink:href="#mcb9a10d9f4" y="63.875374"/>
     <use style="fill:#2ca02c;stroke:#2ca02c;stroke-linejoin:miter;" x="176.834983" xlink:href="#mcb9a10d9f4" y="64.99299"/>
     <use style="fill:#2ca02c;stroke:#2ca02c;stroke-linejoin:miter;" x="178.671772" xlink:href="#mcb9a10d9f4" y="63.747402"/>
     <use style="fill:#2ca02c;stroke:#2ca02c;stroke-linejoin:miter;" x="180.438997" xlink:href="#mcb9a10d9f4" y="63.517054"/>
     <use style="fill:#2ca02c;stroke:#2ca02c;stroke-linejoin:miter;" x="182.246622" xlink:href="#mcb9a10d9f4" y="65.317184"/>
     <use style="fill:#2ca02c;stroke:#2ca02c;stroke-linejoin:miter;" x="184.027087" xlink:href="#mcb9a10d9f4" y="63.900968"/>
     <use style="fill:#2ca02c;stroke:#2ca02c;stroke-linejoin:miter;" x="185.899758" xlink:href="#mcb9a10d9f4" y="63.517054"/>
     <use style="fill:#2ca02c;stroke:#2ca02c;stroke-linejoin:miter;" x="187.722971" xlink:href="#mcb9a10d9f4" y="63.218454"/>
     <use style="fill:#2ca02c;stroke:#2ca02c;stroke-linejoin:miter;" x="189.607667" xlink:href="#mcb9a10d9f4" y="62.228809"/>
     <use style="fill:#2ca02c;stroke:#2ca02c;stroke-linejoin:miter;" x="191.383074" xlink:href="#mcb9a10d9f4" y="63.184329"/>
     <use style="fill:#2ca02c;stroke:#2ca02c;stroke-linejoin:miter;" x="193.16886" xlink:href="#mcb9a10d9f4" y="62.53594"/>
     <use style="fill:#2ca02c;stroke:#2ca02c;stroke-linejoin:miter;" x="195.059967" xlink:href="#mcb9a10d9f4" y="63.43174"/>
     <use style="fill:#2ca02c;stroke:#2ca02c;stroke-linejoin:miter;" x="196.847831" xlink:href="#mcb9a10d9f4" y="62.032586"/>
     <use style="fill:#2ca02c;stroke:#2ca02c;stroke-linejoin:miter;" x="198.718722" xlink:href="#mcb9a10d9f4" y="64.532293"/>
     <use style="fill:#2ca02c;stroke:#2ca02c;stroke-linejoin:miter;" x="200.579615" xlink:href="#mcb9a10d9f4" y="62.271466"/>
     <use style="fill:#2ca02c;stroke:#2ca02c;stroke-linejoin:miter;" x="202.461436" xlink:href="#mcb9a10d9f4" y="64.361665"/>
     <use style="fill:#2ca02c;stroke:#2ca02c;stroke-linejoin:miter;" x="204.298619" xlink:href="#mcb9a10d9f4" y="62.407969"/>
     <use style="fill:#2ca02c;stroke:#2ca02c;stroke-linejoin:miter;" x="206.030927" xlink:href="#mcb9a10d9f4" y="62.783352"/>
     <use style="fill:#2ca02c;stroke:#2ca02c;stroke-linejoin:miter;" x="207.915922" xlink:href="#mcb9a10d9f4" y="61.384198"/>
     <use style="fill:#2ca02c;stroke:#2ca02c;stroke-linejoin:miter;" x="209.702791" xlink:href="#mcb9a10d9f4" y="62.305592"/>
     <use style="fill:#2ca02c;stroke:#2ca02c;stroke-linejoin:miter;" x="211.509051" xlink:href="#mcb9a10d9f4" y="61.699861"/>
     <use style="fill:#2ca02c;stroke:#2ca02c;stroke-linejoin:miter;" x="213.404377" xlink:href="#mcb9a10d9f4" y="61.563358"/>
     <use style="fill:#2ca02c;stroke:#2ca02c;stroke-linejoin:miter;" x="215.204623" xlink:href="#mcb9a10d9f4" y="61.486575"/>
     <use style="fill:#2ca02c;stroke:#2ca02c;stroke-linejoin:miter;" x="217.108909" xlink:href="#mcb9a10d9f4" y="62.049649"/>
     <use style="fill:#2ca02c;stroke:#2ca02c;stroke-linejoin:miter;" x="218.916106" xlink:href="#mcb9a10d9f4" y="61.435387"/>
     <use style="fill:#2ca02c;stroke:#2ca02c;stroke-linejoin:miter;" x="220.802207" xlink:href="#mcb9a10d9f4" y="61.162381"/>
     <use style="fill:#2ca02c;stroke:#2ca02c;stroke-linejoin:miter;" x="222.677524" xlink:href="#mcb9a10d9f4" y="62.621255"/>
     <use style="fill:#2ca02c;stroke:#2ca02c;stroke-linejoin:miter;" x="224.444919" xlink:href="#mcb9a10d9f4" y="61.068536"/>
     <use style="fill:#2ca02c;stroke:#2ca02c;stroke-linejoin:miter;" x="226.227625" xlink:href="#mcb9a10d9f4" y="61.401261"/>
     <use style="fill:#2ca02c;stroke:#2ca02c;stroke-linejoin:miter;" x="228.092372" xlink:href="#mcb9a10d9f4" y="62.425032"/>
     <use style="fill:#2ca02c;stroke:#2ca02c;stroke-linejoin:miter;" x="229.878262" xlink:href="#mcb9a10d9f4" y="61.290353"/>
     <use style="fill:#2ca02c;stroke:#2ca02c;stroke-linejoin:miter;" x="231.714432" xlink:href="#mcb9a10d9f4" y="61.443918"/>
     <use style="fill:#2ca02c;stroke:#2ca02c;stroke-linejoin:miter;" x="233.505995" xlink:href="#mcb9a10d9f4" y="60.821124"/>
     <use style="fill:#2ca02c;stroke:#2ca02c;stroke-linejoin:miter;" x="235.365028" xlink:href="#mcb9a10d9f4" y="60.531056"/>
     <use style="fill:#2ca02c;stroke:#2ca02c;stroke-linejoin:miter;" x="237.124678" xlink:href="#mcb9a10d9f4" y="61.085598"/>
     <use style="fill:#2ca02c;stroke:#2ca02c;stroke-linejoin:miter;" x="238.912928" xlink:href="#mcb9a10d9f4" y="61.69133"/>
     <use style="fill:#2ca02c;stroke:#2ca02c;stroke-linejoin:miter;" x="240.716297" xlink:href="#mcb9a10d9f4" y="60.25805"/>
     <use style="fill:#2ca02c;stroke:#2ca02c;stroke-linejoin:miter;" x="242.57642" xlink:href="#mcb9a10d9f4" y="60.275113"/>
     <use style="fill:#2ca02c;stroke:#2ca02c;stroke-linejoin:miter;" x="244.487602" xlink:href="#mcb9a10d9f4" y="60.838187"/>
     <use style="fill:#2ca02c;stroke:#2ca02c;stroke-linejoin:miter;" x="246.230754" xlink:href="#mcb9a10d9f4" y="60.428679"/>
     <use style="fill:#2ca02c;stroke:#2ca02c;stroke-linejoin:miter;" x="248.033611" xlink:href="#mcb9a10d9f4" y="61.085598"/>
     <use style="fill:#2ca02c;stroke:#2ca02c;stroke-linejoin:miter;" x="249.788641" xlink:href="#mcb9a10d9f4" y="60.761404"/>
     <use style="fill:#2ca02c;stroke:#2ca02c;stroke-linejoin:miter;" x="251.565444" xlink:href="#mcb9a10d9f4" y="61.45245"/>
     <use style="fill:#2ca02c;stroke:#2ca02c;stroke-linejoin:miter;" x="253.453359" xlink:href="#mcb9a10d9f4" y="60.070359"/>
     <use style="fill:#2ca02c;stroke:#2ca02c;stroke-linejoin:miter;" x="255.305105" xlink:href="#mcb9a10d9f4" y="60.164205"/>
     <use style="fill:#2ca02c;stroke:#2ca02c;stroke-linejoin:miter;" x="257.151157" xlink:href="#mcb9a10d9f4" y="60.240988"/>
     <use style="fill:#2ca02c;stroke:#2ca02c;stroke-linejoin:miter;" x="258.981324" xlink:href="#mcb9a10d9f4" y="59.967982"/>
     <use style="fill:#2ca02c;stroke:#2ca02c;stroke-linejoin:miter;" x="260.757335" xlink:href="#mcb9a10d9f4" y="60.394553"/>
     <use style="fill:#2ca02c;stroke:#2ca02c;stroke-linejoin:miter;" x="262.511048" xlink:href="#mcb9a10d9f4" y="60.198331"/>
     <use style="fill:#2ca02c;stroke:#2ca02c;stroke-linejoin:miter;" x="264.334371" xlink:href="#mcb9a10d9f4" y="60.181268"/>
     <use style="fill:#2ca02c;stroke:#2ca02c;stroke-linejoin:miter;" x="266.12139" xlink:href="#mcb9a10d9f4" y="60.266582"/>
     <use style="fill:#2ca02c;stroke:#2ca02c;stroke-linejoin:miter;" x="267.933053" xlink:href="#mcb9a10d9f4" y="60.266582"/>
     <use style="fill:#2ca02c;stroke:#2ca02c;stroke-linejoin:miter;" x="269.7731" xlink:href="#mcb9a10d9f4" y="61.051473"/>
     <use style="fill:#2ca02c;stroke:#2ca02c;stroke-linejoin:miter;" x="271.566707" xlink:href="#mcb9a10d9f4" y="60.121548"/>
     <use style="fill:#2ca02c;stroke:#2ca02c;stroke-linejoin:miter;" x="273.355011" xlink:href="#mcb9a10d9f4" y="60.522525"/>
     <use style="fill:#2ca02c;stroke:#2ca02c;stroke-linejoin:miter;" x="275.205839" xlink:href="#mcb9a10d9f4" y="59.771759"/>
     <use style="fill:#2ca02c;stroke:#2ca02c;stroke-linejoin:miter;" x="277.009962" xlink:href="#mcb9a10d9f4" y="59.746165"/>
     <use style="fill:#2ca02c;stroke:#2ca02c;stroke-linejoin:miter;" x="278.923179" xlink:href="#mcb9a10d9f4" y="59.967982"/>
     <use style="fill:#2ca02c;stroke:#2ca02c;stroke-linejoin:miter;" x="280.70257" xlink:href="#mcb9a10d9f4" y="59.797354"/>
     <use style="fill:#2ca02c;stroke:#2ca02c;stroke-linejoin:miter;" x="282.370305" xlink:href="#mcb9a10d9f4" y="59.967982"/>
     <use style="fill:#2ca02c;stroke:#2ca02c;stroke-linejoin:miter;" x="284.210327" xlink:href="#mcb9a10d9f4" y="60.582245"/>
     <use style="fill:#2ca02c;stroke:#2ca02c;stroke-linejoin:miter;" x="286.098346" xlink:href="#mcb9a10d9f4" y="60.189799"/>
     <use style="fill:#2ca02c;stroke:#2ca02c;stroke-linejoin:miter;" x="287.964143" xlink:href="#mcb9a10d9f4" y="60.002108"/>
     <use style="fill:#2ca02c;stroke:#2ca02c;stroke-linejoin:miter;" x="289.745326" xlink:href="#mcb9a10d9f4" y="59.985045"/>
     <use style="fill:#2ca02c;stroke:#2ca02c;stroke-linejoin:miter;" x="291.6112" xlink:href="#mcb9a10d9f4" y="59.933856"/>
     <use style="fill:#2ca02c;stroke:#2ca02c;stroke-linejoin:miter;" x="293.326775" xlink:href="#mcb9a10d9f4" y="60.138611"/>
     <use style="fill:#2ca02c;stroke:#2ca02c;stroke-linejoin:miter;" x="295.127089" xlink:href="#mcb9a10d9f4" y="59.549942"/>
     <use style="fill:#2ca02c;stroke:#2ca02c;stroke-linejoin:miter;" x="296.987357" xlink:href="#mcb9a10d9f4" y="59.456097"/>
     <use style="fill:#2ca02c;stroke:#2ca02c;stroke-linejoin:miter;" x="298.808304" xlink:href="#mcb9a10d9f4" y="59.712039"/>
     <use style="fill:#2ca02c;stroke:#2ca02c;stroke-linejoin:miter;" x="300.593542" xlink:href="#mcb9a10d9f4" y="60.240988"/>
     <use style="fill:#2ca02c;stroke:#2ca02c;stroke-linejoin:miter;" x="302.371781" xlink:href="#mcb9a10d9f4" y="60.138611"/>
     <use style="fill:#2ca02c;stroke:#2ca02c;stroke-linejoin:miter;" x="304.119988" xlink:href="#mcb9a10d9f4" y="59.421971"/>
     <use style="fill:#2ca02c;stroke:#2ca02c;stroke-linejoin:miter;" x="305.9051" xlink:href="#mcb9a10d9f4" y="60.155673"/>
     <use style="fill:#2ca02c;stroke:#2ca02c;stroke-linejoin:miter;" x="307.650154" xlink:href="#mcb9a10d9f4" y="59.345188"/>
     <use style="fill:#2ca02c;stroke:#2ca02c;stroke-linejoin:miter;" x="309.46233" xlink:href="#mcb9a10d9f4" y="59.41344"/>
     <use style="fill:#2ca02c;stroke:#2ca02c;stroke-linejoin:miter;" x="311.151536" xlink:href="#mcb9a10d9f4" y="59.660851"/>
     <use style="fill:#2ca02c;stroke:#2ca02c;stroke-linejoin:miter;" x="312.926843" xlink:href="#mcb9a10d9f4" y="59.404908"/>
     <use style="fill:#2ca02c;stroke:#2ca02c;stroke-linejoin:miter;" x="314.837925" xlink:href="#mcb9a10d9f4" y="59.217217"/>
     <use style="fill:#2ca02c;stroke:#2ca02c;stroke-linejoin:miter;" x="316.711525" xlink:href="#mcb9a10d9f4" y="59.677914"/>
     <use style="fill:#2ca02c;stroke:#2ca02c;stroke-linejoin:miter;" x="318.492281" xlink:href="#mcb9a10d9f4" y="59.567005"/>
     <use style="fill:#2ca02c;stroke:#2ca02c;stroke-linejoin:miter;" x="320.185018" xlink:href="#mcb9a10d9f4" y="59.677914"/>
     <use style="fill:#2ca02c;stroke:#2ca02c;stroke-linejoin:miter;" x="322.13234" xlink:href="#mcb9a10d9f4" y="59.379314"/>
     <use style="fill:#2ca02c;stroke:#2ca02c;stroke-linejoin:miter;" x="324.010239" xlink:href="#mcb9a10d9f4" y="59.328125"/>
     <use style="fill:#2ca02c;stroke:#2ca02c;stroke-linejoin:miter;" x="325.800493" xlink:href="#mcb9a10d9f4" y="59.507285"/>
     <use style="fill:#2ca02c;stroke:#2ca02c;stroke-linejoin:miter;" x="327.650339" xlink:href="#mcb9a10d9f4" y="59.592599"/>
     <use style="fill:#2ca02c;stroke:#2ca02c;stroke-linejoin:miter;" x="329.469465" xlink:href="#mcb9a10d9f4" y="59.959451"/>
     <use style="fill:#2ca02c;stroke:#2ca02c;stroke-linejoin:miter;" x="331.268302" xlink:href="#mcb9a10d9f4" y="59.925325"/>
     <use style="fill:#2ca02c;stroke:#2ca02c;stroke-linejoin:miter;" x="333.067697" xlink:href="#mcb9a10d9f4" y="59.746165"/>
     <use style="fill:#2ca02c;stroke:#2ca02c;stroke-linejoin:miter;" x="334.805252" xlink:href="#mcb9a10d9f4" y="59.41344"/>
     <use style="fill:#2ca02c;stroke:#2ca02c;stroke-linejoin:miter;" x="336.602122" xlink:href="#mcb9a10d9f4" y="59.490222"/>
     <use style="fill:#2ca02c;stroke:#2ca02c;stroke-linejoin:miter;" x="338.512857" xlink:href="#mcb9a10d9f4" y="59.345188"/>
     <use style="fill:#2ca02c;stroke:#2ca02c;stroke-linejoin:miter;" x="340.25148" xlink:href="#mcb9a10d9f4" y="59.396377"/>
     <use style="fill:#2ca02c;stroke:#2ca02c;stroke-linejoin:miter;" x="342.204686" xlink:href="#mcb9a10d9f4" y="59.259874"/>
     <use style="fill:#2ca02c;stroke:#2ca02c;stroke-linejoin:miter;" x="344.061591" xlink:href="#mcb9a10d9f4" y="59.311063"/>
     <use style="fill:#2ca02c;stroke:#2ca02c;stroke-linejoin:miter;" x="345.929186" xlink:href="#mcb9a10d9f4" y="59.148965"/>
     <use style="fill:#2ca02c;stroke:#2ca02c;stroke-linejoin:miter;" x="347.82519" xlink:href="#mcb9a10d9f4" y="59.703508"/>
     <use style="fill:#2ca02c;stroke:#2ca02c;stroke-linejoin:miter;" x="349.624169" xlink:href="#mcb9a10d9f4" y="59.643788"/>
     <use style="fill:#2ca02c;stroke:#2ca02c;stroke-linejoin:miter;" x="351.414143" xlink:href="#mcb9a10d9f4" y="59.217217"/>
     <use style="fill:#2ca02c;stroke:#2ca02c;stroke-linejoin:miter;" x="353.14985" xlink:href="#mcb9a10d9f4" y="59.020994"/>
     <use style="fill:#2ca02c;stroke:#2ca02c;stroke-linejoin:miter;" x="354.914766" xlink:href="#mcb9a10d9f4" y="59.447565"/>
     <use style="fill:#2ca02c;stroke:#2ca02c;stroke-linejoin:miter;" x="356.754982" xlink:href="#mcb9a10d9f4" y="59.35372"/>
     <use style="fill:#2ca02c;stroke:#2ca02c;stroke-linejoin:miter;" x="358.603518" xlink:href="#mcb9a10d9f4" y="59.012463"/>
     <use style="fill:#2ca02c;stroke:#2ca02c;stroke-linejoin:miter;" x="360.398515" xlink:href="#mcb9a10d9f4" y="59.515817"/>
     <use style="fill:#2ca02c;stroke:#2ca02c;stroke-linejoin:miter;" x="362.269415" xlink:href="#mcb9a10d9f4" y="59.285468"/>
     <use style="fill:#2ca02c;stroke:#2ca02c;stroke-linejoin:miter;" x="364.071271" xlink:href="#mcb9a10d9f4" y="59.481691"/>
     <use style="fill:#2ca02c;stroke:#2ca02c;stroke-linejoin:miter;" x="365.905758" xlink:href="#mcb9a10d9f4" y="59.456097"/>
     <use style="fill:#2ca02c;stroke:#2ca02c;stroke-linejoin:miter;" x="367.765247" xlink:href="#mcb9a10d9f4" y="59.592599"/>
     <use style="fill:#2ca02c;stroke:#2ca02c;stroke-linejoin:miter;" x="369.648964" xlink:href="#mcb9a10d9f4" y="59.703508"/>
     <use style="fill:#2ca02c;stroke:#2ca02c;stroke-linejoin:miter;" x="371.456893" xlink:href="#mcb9a10d9f4" y="59.302531"/>
     <use style="fill:#2ca02c;stroke:#2ca02c;stroke-linejoin:miter;" x="373.205385" xlink:href="#mcb9a10d9f4" y="59.251343"/>
     <use style="fill:#2ca02c;stroke:#2ca02c;stroke-linejoin:miter;" x="374.997405" xlink:href="#mcb9a10d9f4" y="59.737634"/>
     <use style="fill:#2ca02c;stroke:#2ca02c;stroke-linejoin:miter;" x="376.888921" xlink:href="#mcb9a10d9f4" y="59.592599"/>
     <use style="fill:#2ca02c;stroke:#2ca02c;stroke-linejoin:miter;" x="378.623251" xlink:href="#mcb9a10d9f4" y="59.549942"/>
     <use style="fill:#2ca02c;stroke:#2ca02c;stroke-linejoin:miter;" x="380.460328" xlink:href="#mcb9a10d9f4" y="59.584068"/>
     <use style="fill:#2ca02c;stroke:#2ca02c;stroke-linejoin:miter;" x="382.316628" xlink:href="#mcb9a10d9f4" y="59.558474"/>
    </g>
   </g>
   <g id="line2d_22">
    <defs>
     <path d="M -3 0 
L 3 0 
M 0 3 
L 0 -3 
" id="me607a6d44c" style="stroke:#d62728;"/>
    </defs>
    <g clip-path="url(#p3e902f4591)">
     <use style="fill:#d62728;stroke:#d62728;" x="74.062337" xlink:href="#me607a6d44c" y="256.228495"/>
     <use style="fill:#d62728;stroke:#d62728;" x="75.991502" xlink:href="#me607a6d44c" y="276.380655"/>
     <use style="fill:#d62728;stroke:#d62728;" x="77.860289" xlink:href="#me607a6d44c" y="209.748512"/>
     <use style="fill:#d62728;stroke:#d62728;" x="79.728905" xlink:href="#me607a6d44c" y="219.764717"/>
     <use style="fill:#d62728;stroke:#d62728;" x="81.444868" xlink:href="#me607a6d44c" y="184.447115"/>
     <use style="fill:#d62728;stroke:#d62728;" x="83.311035" xlink:href="#me607a6d44c" y="153.089806"/>
     <use style="fill:#d62728;stroke:#d62728;" x="85.065611" xlink:href="#me607a6d44c" y="148.214284"/>
     <use style="fill:#d62728;stroke:#d62728;" x="87.009723" xlink:href="#me607a6d44c" y="147.358929"/>
     <use style="fill:#d62728;stroke:#d62728;" x="88.862711" xlink:href="#me607a6d44c" y="135.939942"/>
     <use style="fill:#d62728;stroke:#d62728;" x="90.757206" xlink:href="#me607a6d44c" y="113.427002"/>
     <use style="fill:#d62728;stroke:#d62728;" x="92.699133" xlink:href="#me607a6d44c" y="107.439518"/>
     <use style="fill:#d62728;stroke:#d62728;" x="94.569744" xlink:href="#me607a6d44c" y="108.953496"/>
     <use style="fill:#d62728;stroke:#d62728;" x="96.47217" xlink:href="#me607a6d44c" y="106.507181"/>
     <use style="fill:#d62728;stroke:#d62728;" x="98.336574" xlink:href="#me607a6d44c" y="94.087429"/>
     <use style="fill:#d62728;stroke:#d62728;" x="100.239001" xlink:href="#me607a6d44c" y="93.788054"/>
     <use style="fill:#d62728;stroke:#d62728;" x="102.10947" xlink:href="#me607a6d44c" y="86.414896"/>
     <use style="fill:#d62728;stroke:#d62728;" x="104.041179" xlink:href="#me607a6d44c" y="88.125605"/>
     <use style="fill:#d62728;stroke:#d62728;" x="105.895292" xlink:href="#me607a6d44c" y="80.418858"/>
     <use style="fill:#d62728;stroke:#d62728;" x="107.80766" xlink:href="#me607a6d44c" y="80.786661"/>
     <use style="fill:#d62728;stroke:#d62728;" x="109.73529" xlink:href="#me607a6d44c" y="81.137356"/>
     <use style="fill:#d62728;stroke:#d62728;" x="111.615311" xlink:href="#me607a6d44c" y="80.555715"/>
     <use style="fill:#d62728;stroke:#d62728;" x="113.551978" xlink:href="#me607a6d44c" y="75.115658"/>
     <use style="fill:#d62728;stroke:#d62728;" x="115.523978" xlink:href="#me607a6d44c" y="76.065102"/>
     <use style="fill:#d62728;stroke:#d62728;" x="117.496158" xlink:href="#me607a6d44c" y="77.065867"/>
     <use style="fill:#d62728;stroke:#d62728;" x="119.4678" xlink:href="#me607a6d44c" y="73.909608"/>
     <use style="fill:#d62728;stroke:#d62728;" x="121.417137" xlink:href="#me607a6d44c" y="75.551889"/>
     <use style="fill:#d62728;stroke:#d62728;" x="123.299975" xlink:href="#me607a6d44c" y="75.166979"/>
     <use style="fill:#d62728;stroke:#d62728;" x="125.286043" xlink:href="#me607a6d44c" y="77.604741"/>
     <use style="fill:#d62728;stroke:#d62728;" x="127.120457" xlink:href="#me607a6d44c" y="72.03638"/>
     <use style="fill:#d62728;stroke:#d62728;" x="129.011404" xlink:href="#me607a6d44c" y="75.72296"/>
     <use style="fill:#d62728;stroke:#d62728;" x="130.96696" xlink:href="#me607a6d44c" y="71.950845"/>
     <use style="fill:#d62728;stroke:#d62728;" x="132.857907" xlink:href="#me607a6d44c" y="73.413502"/>
     <use style="fill:#d62728;stroke:#d62728;" x="134.774927" xlink:href="#me607a6d44c" y="72.044934"/>
     <use style="fill:#d62728;stroke:#d62728;" x="136.67357" xlink:href="#me607a6d44c" y="71.74556"/>
     <use style="fill:#d62728;stroke:#d62728;" x="138.624962" xlink:href="#me607a6d44c" y="71.394864"/>
     <use style="fill:#d62728;stroke:#d62728;" x="140.524654" xlink:href="#me607a6d44c" y="70.890205"/>
     <use style="fill:#d62728;stroke:#d62728;" x="142.393323" xlink:href="#me607a6d44c" y="69.897993"/>
     <use style="fill:#d62728;stroke:#d62728;" x="144.293015" xlink:href="#me607a6d44c" y="70.633598"/>
     <use style="fill:#d62728;stroke:#d62728;" x="146.24982" xlink:href="#me607a6d44c" y="68.691943"/>
     <use style="fill:#d62728;stroke:#d62728;" x="148.085567" xlink:href="#me607a6d44c" y="69.615726"/>
     <use style="fill:#d62728;stroke:#d62728;" x="150.045974" xlink:href="#me607a6d44c" y="69.590066"/>
     <use style="fill:#d62728;stroke:#d62728;" x="151.88172" xlink:href="#me607a6d44c" y="70.411206"/>
     <use style="fill:#d62728;stroke:#d62728;" x="153.882892" xlink:href="#me607a6d44c" y="68.341247"/>
     <use style="fill:#d62728;stroke:#d62728;" x="155.794734" xlink:href="#me607a6d44c" y="69.136727"/>
     <use style="fill:#d62728;stroke:#d62728;" x="157.711564" xlink:href="#me607a6d44c" y="67.400357"/>
     <use style="fill:#d62728;stroke:#d62728;" x="159.623405" xlink:href="#me607a6d44c" y="68.435336"/>
     <use style="fill:#d62728;stroke:#d62728;" x="161.540236" xlink:href="#me607a6d44c" y="67.964891"/>
     <use style="fill:#d62728;stroke:#d62728;" x="163.41654" xlink:href="#me607a6d44c" y="68.44389"/>
     <use style="fill:#d62728;stroke:#d62728;" x="165.33337" xlink:href="#me607a6d44c" y="66.262735"/>
     <use style="fill:#d62728;stroke:#d62728;" x="167.245212" xlink:href="#me607a6d44c" y="68.5893"/>
     <use style="fill:#d62728;stroke:#d62728;" x="169.205619" xlink:href="#me607a6d44c" y="66.570663"/>
     <use style="fill:#d62728;stroke:#d62728;" x="171.117461" xlink:href="#me607a6d44c" y="67.503"/>
     <use style="fill:#d62728;stroke:#d62728;" x="173.034291" xlink:href="#me607a6d44c" y="66.690413"/>
     <use style="fill:#d62728;stroke:#d62728;" x="174.946133" xlink:href="#me607a6d44c" y="67.810927"/>
     <use style="fill:#d62728;stroke:#d62728;" x="176.90654" xlink:href="#me607a6d44c" y="66.425253"/>
     <use style="fill:#d62728;stroke:#d62728;" x="178.742286" xlink:href="#me607a6d44c" y="66.758841"/>
     <use style="fill:#d62728;stroke:#d62728;" x="180.609677" xlink:href="#me607a6d44c" y="65.184988"/>
     <use style="fill:#d62728;stroke:#d62728;" x="182.544906" xlink:href="#me607a6d44c" y="65.740969"/>
     <use style="fill:#d62728;stroke:#d62728;" x="184.413575" xlink:href="#me607a6d44c" y="65.073792"/>
     <use style="fill:#d62728;stroke:#d62728;" x="186.289619" xlink:href="#me607a6d44c" y="65.40738"/>
     <use style="fill:#d62728;stroke:#d62728;" x="188.131911" xlink:href="#me607a6d44c" y="64.534918"/>
     <use style="fill:#d62728;stroke:#d62728;" x="190.04996" xlink:href="#me607a6d44c" y="65.159327"/>
     <use style="fill:#d62728;stroke:#d62728;" x="191.918628" xlink:href="#me607a6d44c" y="64.244098"/>
     <use style="fill:#d62728;stroke:#d62728;" x="193.836677" xlink:href="#me607a6d44c" y="64.774418"/>
     <use style="fill:#d62728;stroke:#d62728;" x="195.753507" xlink:href="#me607a6d44c" y="64.098687"/>
     <use style="fill:#d62728;stroke:#d62728;" x="197.665348" xlink:href="#me607a6d44c" y="65.638326"/>
     <use style="fill:#d62728;stroke:#d62728;" x="199.50764" xlink:href="#me607a6d44c" y="64.278312"/>
     <use style="fill:#d62728;stroke:#d62728;" x="201.420441" xlink:href="#me607a6d44c" y="64.235544"/>
     <use style="fill:#d62728;stroke:#d62728;" x="203.254737" xlink:href="#me607a6d44c" y="63.474278"/>
     <use style="fill:#d62728;stroke:#d62728;" x="205.201889" xlink:href="#me607a6d44c" y="63.679563"/>
     <use style="fill:#d62728;stroke:#d62728;" x="207.040963" xlink:href="#me607a6d44c" y="62.909744"/>
     <use style="fill:#d62728;stroke:#d62728;" x="208.991045" xlink:href="#me607a6d44c" y="64.629007"/>
     <use style="fill:#d62728;stroke:#d62728;" x="210.796641" xlink:href="#me607a6d44c" y="61.866211"/>
     <use style="fill:#d62728;stroke:#d62728;" x="212.661723" xlink:href="#me607a6d44c" y="64.064473"/>
     <use style="fill:#d62728;stroke:#d62728;" x="214.662894" xlink:href="#me607a6d44c" y="62.909744"/>
     <use style="fill:#d62728;stroke:#d62728;" x="216.539199" xlink:href="#me607a6d44c" y="63.893402"/>
     <use style="fill:#d62728;stroke:#d62728;" x="218.407867" xlink:href="#me607a6d44c" y="62.747227"/>
     <use style="fill:#d62728;stroke:#d62728;" x="220.313507" xlink:href="#me607a6d44c" y="63.713778"/>
     <use style="fill:#d62728;stroke:#d62728;" x="222.213775" xlink:href="#me607a6d44c" y="61.686587"/>
     <use style="fill:#d62728;stroke:#d62728;" x="224.11379" xlink:href="#me607a6d44c" y="63.294654"/>
     <use style="fill:#d62728;stroke:#d62728;" x="226.07295" xlink:href="#me607a6d44c" y="61.16482"/>
     <use style="fill:#d62728;stroke:#d62728;" x="227.957241" xlink:href="#me607a6d44c" y="62.986726"/>
     <use style="fill:#d62728;stroke:#d62728;" x="229.864307" xlink:href="#me607a6d44c" y="61.42998"/>
     <use style="fill:#d62728;stroke:#d62728;" x="231.748858" xlink:href="#me607a6d44c" y="62.567602"/>
     <use style="fill:#d62728;stroke:#d62728;" x="233.708018" xlink:href="#me607a6d44c" y="60.993749"/>
     <use style="fill:#d62728;stroke:#d62728;" x="235.59257" xlink:href="#me607a6d44c" y="63.93617"/>
     <use style="fill:#d62728;stroke:#d62728;" x="237.508479" xlink:href="#me607a6d44c" y="60.762803"/>
     <use style="fill:#d62728;stroke:#d62728;" x="239.392771" xlink:href="#me607a6d44c" y="61.900425"/>
     <use style="fill:#d62728;stroke:#d62728;" x="241.304959" xlink:href="#me607a6d44c" y="61.113499"/>
     <use style="fill:#d62728;stroke:#d62728;" x="243.210598" xlink:href="#me607a6d44c" y="62.114264"/>
     <use style="fill:#d62728;stroke:#d62728;" x="245.123559" xlink:href="#me607a6d44c" y="61.301677"/>
     <use style="fill:#d62728;stroke:#d62728;" x="247.059112" xlink:href="#me607a6d44c" y="61.823443"/>
     <use style="fill:#d62728;stroke:#d62728;" x="248.977732" xlink:href="#me607a6d44c" y="60.702929"/>
     <use style="fill:#d62728;stroke:#d62728;" x="250.876552" xlink:href="#me607a6d44c" y="63.243333"/>
     <use style="fill:#d62728;stroke:#d62728;" x="252.83031" xlink:href="#me607a6d44c" y="61.40432"/>
     <use style="fill:#d62728;stroke:#d62728;" x="254.751057" xlink:href="#me607a6d44c" y="62.328103"/>
     <use style="fill:#d62728;stroke:#d62728;" x="256.658007" xlink:href="#me607a6d44c" y="61.352998"/>
     <use style="fill:#d62728;stroke:#d62728;" x="258.561801" xlink:href="#me607a6d44c" y="61.831997"/>
     <use style="fill:#d62728;stroke:#d62728;" x="260.417669" xlink:href="#me607a6d44c" y="61.335891"/>
     <use style="fill:#d62728;stroke:#d62728;" x="262.400471" xlink:href="#me607a6d44c" y="61.01941"/>
     <use style="fill:#d62728;stroke:#d62728;" x="264.228512" xlink:href="#me607a6d44c" y="61.772122"/>
     <use style="fill:#d62728;stroke:#d62728;" x="266.300196" xlink:href="#me607a6d44c" y="61.233249"/>
     <use style="fill:#d62728;stroke:#d62728;" x="268.096768" xlink:href="#me607a6d44c" y="61.609605"/>
     <use style="fill:#d62728;stroke:#d62728;" x="270.123128" xlink:href="#me607a6d44c" y="61.053624"/>
     <use style="fill:#d62728;stroke:#d62728;" x="271.9197" xlink:href="#me607a6d44c" y="61.498409"/>
     <use style="fill:#d62728;stroke:#d62728;" x="273.948401" xlink:href="#me607a6d44c" y="60.968089"/>
     <use style="fill:#d62728;stroke:#d62728;" x="275.80427" xlink:href="#me607a6d44c" y="61.190481"/>
     <use style="fill:#d62728;stroke:#d62728;" x="277.795885" xlink:href="#me607a6d44c" y="61.849104"/>
     <use style="fill:#d62728;stroke:#d62728;" x="279.717038" xlink:href="#me607a6d44c" y="61.045071"/>
     <use style="fill:#d62728;stroke:#d62728;" x="281.594528" xlink:href="#me607a6d44c" y="61.335891"/>
     <use style="fill:#d62728;stroke:#d62728;" x="283.387293" xlink:href="#me607a6d44c" y="60.711482"/>
     <use style="fill:#d62728;stroke:#d62728;" x="285.322611" xlink:href="#me607a6d44c" y="61.421427"/>
     <use style="fill:#d62728;stroke:#d62728;" x="287.320452" xlink:href="#me607a6d44c" y="61.489855"/>
     <use style="fill:#d62728;stroke:#d62728;" x="289.189868" xlink:href="#me607a6d44c" y="60.497643"/>
     <use style="fill:#d62728;stroke:#d62728;" x="291.157612" xlink:href="#me607a6d44c" y="60.942428"/>
     <use style="fill:#d62728;stroke:#d62728;" x="293.088574" xlink:href="#me607a6d44c" y="60.471983"/>
     <use style="fill:#d62728;stroke:#d62728;" x="295.05021" xlink:href="#me607a6d44c" y="60.942428"/>
     <use style="fill:#d62728;stroke:#d62728;" x="296.924202" xlink:href="#me607a6d44c" y="60.814125"/>
     <use style="fill:#d62728;stroke:#d62728;" x="298.915351" xlink:href="#me607a6d44c" y="60.702929"/>
     <use style="fill:#d62728;stroke:#d62728;" x="300.906966" xlink:href="#me607a6d44c" y="61.361552"/>
     <use style="fill:#d62728;stroke:#d62728;" x="302.766641" xlink:href="#me607a6d44c" y="60.617393"/>
     <use style="fill:#d62728;stroke:#d62728;" x="304.653569" xlink:href="#me607a6d44c" y="60.574625"/>
     <use style="fill:#d62728;stroke:#d62728;" x="306.520754" xlink:href="#me607a6d44c" y="59.830467"/>
     <use style="fill:#d62728;stroke:#d62728;" x="308.456143" xlink:href="#me607a6d44c" y="61.310231"/>
     <use style="fill:#d62728;stroke:#d62728;" x="310.450306" xlink:href="#me607a6d44c" y="60.839785"/>
     <use style="fill:#d62728;stroke:#d62728;" x="312.37034" xlink:href="#me607a6d44c" y="60.437769"/>
     <use style="fill:#d62728;stroke:#d62728;" x="314.334584" xlink:href="#me607a6d44c" y="60.839785"/>
     <use style="fill:#d62728;stroke:#d62728;" x="316.293743" xlink:href="#me607a6d44c" y="59.488325"/>
     <use style="fill:#d62728;stroke:#d62728;" x="318.178295" xlink:href="#me607a6d44c" y="60.600286"/>
     <use style="fill:#d62728;stroke:#d62728;" x="320.119134" xlink:href="#me607a6d44c" y="60.36934"/>
     <use style="fill:#d62728;stroke:#d62728;" x="322.030574" xlink:href="#me607a6d44c" y="61.01941"/>
     <use style="fill:#d62728;stroke:#d62728;" x="323.974275" xlink:href="#me607a6d44c" y="59.864681"/>
     <use style="fill:#d62728;stroke:#d62728;" x="325.811404" xlink:href="#me607a6d44c" y="60.395001"/>
     <use style="fill:#d62728;stroke:#d62728;" x="327.798083" xlink:href="#me607a6d44c" y="60.283805"/>
     <use style="fill:#d62728;stroke:#d62728;" x="329.67101" xlink:href="#me607a6d44c" y="60.831232"/>
     <use style="fill:#d62728;stroke:#d62728;" x="331.71655" xlink:href="#me607a6d44c" y="60.403554"/>
     <use style="fill:#d62728;stroke:#d62728;" x="333.606567" xlink:href="#me607a6d44c" y="60.950982"/>
     <use style="fill:#d62728;stroke:#d62728;" x="335.573073" xlink:href="#me607a6d44c" y="59.616628"/>
     <use style="fill:#d62728;stroke:#d62728;" x="337.457365" xlink:href="#me607a6d44c" y="60.335126"/>
     <use style="fill:#d62728;stroke:#d62728;" x="339.34738" xlink:href="#me607a6d44c" y="59.770592"/>
     <use style="fill:#d62728;stroke:#d62728;" x="341.215457" xlink:href="#me607a6d44c" y="60.027198"/>
     <use style="fill:#d62728;stroke:#d62728;" x="343.309077" xlink:href="#me607a6d44c" y="59.830467"/>
     <use style="fill:#d62728;stroke:#d62728;" x="345.182004" xlink:href="#me607a6d44c" y="60.600286"/>
     <use style="fill:#d62728;stroke:#d62728;" x="347.199107" xlink:href="#me607a6d44c" y="59.890341"/>
     <use style="fill:#d62728;stroke:#d62728;" x="349.087722" xlink:href="#me607a6d44c" y="60.429215"/>
     <use style="fill:#d62728;stroke:#d62728;" x="351.073409" xlink:href="#me607a6d44c" y="59.727824"/>
     <use style="fill:#d62728;stroke:#d62728;" x="352.9577" xlink:href="#me607a6d44c" y="59.787699"/>
     <use style="fill:#d62728;stroke:#d62728;" x="354.895267" xlink:href="#me607a6d44c" y="59.650842"/>
     <use style="fill:#d62728;stroke:#d62728;" x="356.749905" xlink:href="#me607a6d44c" y="60.215376"/>
     <use style="fill:#d62728;stroke:#d62728;" x="358.729249" xlink:href="#me607a6d44c" y="59.787699"/>
     <use style="fill:#d62728;stroke:#d62728;" x="360.617864" xlink:href="#me607a6d44c" y="60.377894"/>
     <use style="fill:#d62728;stroke:#d62728;" x="362.628413" xlink:href="#me607a6d44c" y="59.42845"/>
     <use style="fill:#d62728;stroke:#d62728;" x="364.512704" xlink:href="#me607a6d44c" y="60.027198"/>
     <use style="fill:#d62728;stroke:#d62728;" x="366.400642" xlink:href="#me607a6d44c" y="59.57386"/>
     <use style="fill:#d62728;stroke:#d62728;" x="368.253904" xlink:href="#me607a6d44c" y="60.36934"/>
     <use style="fill:#d62728;stroke:#d62728;" x="370.20114" xlink:href="#me607a6d44c" y="59.881788"/>
     <use style="fill:#d62728;stroke:#d62728;" x="372.092527" xlink:href="#me607a6d44c" y="59.368575"/>
     <use style="fill:#d62728;stroke:#d62728;" x="374.027941" xlink:href="#me607a6d44c" y="59.479771"/>
     <use style="fill:#d62728;stroke:#d62728;" x="375.918116" xlink:href="#me607a6d44c" y="59.727824"/>
     <use style="fill:#d62728;stroke:#d62728;" x="377.853025" xlink:href="#me607a6d44c" y="59.513985"/>
     <use style="fill:#d62728;stroke:#d62728;" x="379.647401" xlink:href="#me607a6d44c" y="59.81336"/>
     <use style="fill:#d62728;stroke:#d62728;" x="381.650022" xlink:href="#me607a6d44c" y="59.556753"/>
     <use style="fill:#d62728;stroke:#d62728;" x="383.56751" xlink:href="#me607a6d44c" y="60.087073"/>
     <use style="fill:#d62728;stroke:#d62728;" x="385.457861" xlink:href="#me607a6d44c" y="59.103415"/>
     <use style="fill:#d62728;stroke:#d62728;" x="387.347838" xlink:href="#me607a6d44c" y="59.5482"/>
     <use style="fill:#d62728;stroke:#d62728;" x="389.278473" xlink:href="#me607a6d44c" y="59.608074"/>
     <use style="fill:#d62728;stroke:#d62728;" x="391.228555" xlink:href="#me607a6d44c" y="59.727824"/>
     <use style="fill:#d62728;stroke:#d62728;" x="393.147907" xlink:href="#me607a6d44c" y="59.28304"/>
     <use style="fill:#d62728;stroke:#d62728;" x="395.03684" xlink:href="#me607a6d44c" y="59.924556"/>
     <use style="fill:#d62728;stroke:#d62728;" x="396.993815" xlink:href="#me607a6d44c" y="59.265932"/>
    </g>
   </g>
   <g id="line2d_23">
    <path clip-path="url(#p3e902f4591)" d="M 73.832727 256.293006 
L 75.226334 215.270335 
L 76.617629 158.773461 
L 78.088382 140.346165 
L 79.430722 117.126422 
L 81.860044 82.305245 
L 83.204485 68.695708 
L 84.858274 60.469237 
L 86.194981 61.102042 
L 90.019858 60.857358 
L 91.677462 57.338959 
L 93.059192 59.406124 
L 94.716796 57.617393 
L 96.053503 59.203626 
L 97.719119 58.587695 
L 99.173411 57.288335 
L 100.567062 58.587695 
L 101.903769 57.279897 
L 104.202299 56.284283 
L 105.802559 58.292386 
L 107.402818 59.262688 
L 108.858852 56.014286 
L 110.201192 57.364271 
L 111.594843 56.343345 
L 113.064184 55.803351 
L 114.406525 57.0099 
L 116.705055 55.567104 
L 119.060592 55.609291 
L 120.442322 55.761164 
L 121.783018 56.242096 
L 123.440621 55.718977 
L 125.040881 56.630217 
L 126.50715 54.605239 
L 127.963184 54.782425 
L 129.305525 55.693665 
L 130.947841 55.44898 
L 132.605445 55.499604 
L 134.268954 55.238045 
L 135.738294 54.326805 
L 137.082892 55.077734 
L 139.846351 54.672739 
L 141.312621 54.217119 
L 142.657218 54.520865 
L 144.12797 55.204295 
L 145.597311 54.208681 
L 147.068063 54.900549 
L 148.731572 54.790862 
L 150.076169 54.444929 
L 151.718485 54.892111 
L 153.318745 56.292721 
L 154.663186 55.398356 
L 156.003881 54.99336 
L 157.458173 54.166494 
L 158.85178 54.411179 
L 160.245431 54.444929 
L 161.587772 54.360555 
L 163.058524 54.124307 
L 164.514557 53.677125 
L 165.97059 53.837435 
L 167.439353 53.719312 
L 168.833004 54.242431 
L 170.177445 55.195858 
L 171.56874 54.124307 
L 173.035009 53.88806 
L 174.37945 54.402742 
L 175.845719 53.744624 
L 177.311989 53.693999 
L 178.705596 53.989309 
L 180.089012 54.411179 
L 181.555281 53.643375 
L 182.938697 54.039933 
L 184.329992 54.090558 
L 185.800744 53.85431 
L 187.145185 54.191806 
L 188.611454 53.592751 
L 191.284868 54.048371 
L 192.754209 53.272129 
L 194.093503 53.634938 
L 195.564255 53.6265 
L 197.018546 53.39869 
L 198.487309 53.39869 
L 199.82965 53.896497 
L 201.298413 53.440877 
L 204.026426 53.693999 
L 205.408156 53.744624 
L 206.878908 53.550564 
L 208.347671 53.592751 
L 209.686965 53.491502 
L 212.370856 54.039933 
L 213.762996 54.11587 
L 215.156602 53.618063 
L 217.843541 53.896497 
L 219.23568 53.896497 
L 220.626976 53.693999 
L 221.971416 53.685562 
L 223.315857 54.318368 
L 224.707997 53.812123 
L 226.091413 53.491502 
L 227.473143 53.424002 
L 228.812437 53.542126 
L 230.203732 53.474627 
L 231.548329 53.710874 
L 232.941936 53.736186 
L 234.333231 53.499939 
L 235.677672 53.584313 
L 237.068968 53.525251 
L 238.450698 53.297441 
L 239.787404 53.516814 
L 241.131845 54.250868 
L 242.474186 54.11587 
L 243.818784 53.466189 
L 245.200513 53.39869 
L 246.583929 53.618063 
L 247.92627 53.348066 
L 249.308 53.322754 
L 251.994938 53.66025 
L 253.387078 53.415565 
L 256.070114 53.744624 
L 257.409408 53.440877 
L 260.191999 53.693999 
L 261.532694 53.474627 
L 262.924833 53.39869 
L 264.316973 53.685562 
L 265.66157 53.516814 
L 268.436282 53.769936 
L 269.778623 53.373378 
L 272.460013 53.373378 
L 273.852153 53.685562 
L 275.245803 53.348066 
L 276.586499 53.297441 
L 279.372289 53.618063 
L 282.09846 53.196192 
L 287.517942 53.297441 
L 288.862383 53.938684 
L 290.20698 53.457752 
L 291.58871 53.322754 
L 294.320144 53.39869 
L 297.041167 53.424002 
L 298.381863 53.348066 
L 301.110709 53.542126 
L 302.45515 53.297441 
L 309.152209 53.542126 
L 311.829611 53.710874 
L 313.168905 53.491502 
L 315.852796 53.491502 
L 315.852796 53.491502 
" style="fill:none;stroke:#9467bd;stroke-linecap:square;stroke-width:1.5;"/>
   </g>
   <g id="patch_3">
    <path d="M 57.6 307.584 
L 57.6 41.472 
" style="fill:none;stroke:#000000;stroke-linecap:square;stroke-linejoin:miter;stroke-width:0.8;"/>
   </g>
   <g id="patch_4">
    <path d="M 414.72 307.584 
L 414.72 41.472 
" style="fill:none;stroke:#000000;stroke-linecap:square;stroke-linejoin:miter;stroke-width:0.8;"/>
   </g>
   <g id="patch_5">
    <path d="M 57.6 307.584 
L 414.72 307.584 
" style="fill:none;stroke:#000000;stroke-linecap:square;stroke-linejoin:miter;stroke-width:0.8;"/>
   </g>
   <g id="patch_6">
    <path d="M 57.6 41.472 
L 414.72 41.472 
" style="fill:none;stroke:#000000;stroke-linecap:square;stroke-linejoin:miter;stroke-width:0.8;"/>
   </g>
   <g id="text_21">
    <!-- Accuracy vs Time taken -->
    <g transform="translate(164.908125 35.472)scale(0.12 -0.12)">
     <defs>
      <path d="M 191 3500 
L 800 3500 
L 1894 563 
L 2988 3500 
L 3597 3500 
L 2284 0 
L 1503 0 
L 191 3500 
z
" id="DejaVuSans-76" transform="scale(0.015625)"/>
     </defs>
     <use xlink:href="#DejaVuSans-41"/>
     <use x="66.658203" xlink:href="#DejaVuSans-63"/>
     <use x="121.638672" xlink:href="#DejaVuSans-63"/>
     <use x="176.619141" xlink:href="#DejaVuSans-75"/>
     <use x="239.998047" xlink:href="#DejaVuSans-72"/>
     <use x="281.111328" xlink:href="#DejaVuSans-61"/>
     <use x="342.390625" xlink:href="#DejaVuSans-63"/>
     <use x="397.371094" xlink:href="#DejaVuSans-79"/>
     <use x="456.550781" xlink:href="#DejaVuSans-20"/>
     <use x="488.337891" xlink:href="#DejaVuSans-76"/>
     <use x="547.517578" xlink:href="#DejaVuSans-73"/>
     <use x="599.617188" xlink:href="#DejaVuSans-20"/>
     <use x="631.404297" xlink:href="#DejaVuSans-54"/>
     <use x="689.363281" xlink:href="#DejaVuSans-69"/>
     <use x="717.146484" xlink:href="#DejaVuSans-6d"/>
     <use x="814.558594" xlink:href="#DejaVuSans-65"/>
     <use x="876.082031" xlink:href="#DejaVuSans-20"/>
     <use x="907.869141" xlink:href="#DejaVuSans-74"/>
     <use x="947.078125" xlink:href="#DejaVuSans-61"/>
     <use x="1008.357422" xlink:href="#DejaVuSans-6b"/>
     <use x="1062.642578" xlink:href="#DejaVuSans-65"/>
     <use x="1124.166016" xlink:href="#DejaVuSans-6e"/>
    </g>
   </g>
   <g id="legend_1">
    <g id="patch_7">
     <path d="M 336.935625 302.584 
L 407.72 302.584 
Q 409.72 302.584 409.72 300.584 
L 409.72 228.193375 
Q 409.72 226.193375 407.72 226.193375 
L 336.935625 226.193375 
Q 334.935625 226.193375 334.935625 228.193375 
L 334.935625 300.584 
Q 334.935625 302.584 336.935625 302.584 
z
" style="fill:#ffffff;opacity:0.8;stroke:#cccccc;stroke-linejoin:miter;"/>
    </g>
    <g id="line2d_24">
     <path d="M 338.935625 234.291812 
L 358.935625 234.291812 
" style="fill:none;stroke:#1f77b4;stroke-dasharray:5.55,2.4;stroke-dashoffset:0;stroke-width:1.5;"/>
    </g>
    <g id="line2d_25"/>
    <g id="text_22">
     <!-- random -->
     <g transform="translate(366.935625 237.791812)scale(0.1 -0.1)">
      <defs>
       <path d="M 2906 2969 
L 2906 4863 
L 3481 4863 
L 3481 0 
L 2906 0 
L 2906 525 
Q 2725 213 2448 61 
Q 2172 -91 1784 -91 
Q 1150 -91 751 415 
Q 353 922 353 1747 
Q 353 2572 751 3078 
Q 1150 3584 1784 3584 
Q 2172 3584 2448 3432 
Q 2725 3281 2906 2969 
z
M 947 1747 
Q 947 1113 1208 752 
Q 1469 391 1925 391 
Q 2381 391 2643 752 
Q 2906 1113 2906 1747 
Q 2906 2381 2643 2742 
Q 2381 3103 1925 3103 
Q 1469 3103 1208 2742 
Q 947 2381 947 1747 
z
" id="DejaVuSans-64" transform="scale(0.015625)"/>
       <path d="M 1959 3097 
Q 1497 3097 1228 2736 
Q 959 2375 959 1747 
Q 959 1119 1226 758 
Q 1494 397 1959 397 
Q 2419 397 2687 759 
Q 2956 1122 2956 1747 
Q 2956 2369 2687 2733 
Q 2419 3097 1959 3097 
z
M 1959 3584 
Q 2709 3584 3137 3096 
Q 3566 2609 3566 1747 
Q 3566 888 3137 398 
Q 2709 -91 1959 -91 
Q 1206 -91 779 398 
Q 353 888 353 1747 
Q 353 2609 779 3096 
Q 1206 3584 1959 3584 
z
" id="DejaVuSans-6f" transform="scale(0.015625)"/>
      </defs>
      <use xlink:href="#DejaVuSans-72"/>
      <use x="41.113281" xlink:href="#DejaVuSans-61"/>
      <use x="102.392578" xlink:href="#DejaVuSans-6e"/>
      <use x="165.771484" xlink:href="#DejaVuSans-64"/>
      <use x="229.248047" xlink:href="#DejaVuSans-6f"/>
      <use x="290.429688" xlink:href="#DejaVuSans-6d"/>
     </g>
    </g>
    <g id="line2d_26">
     <path d="M 338.935625 248.969937 
L 358.935625 248.969937 
" style="fill:none;stroke:#ff7f0e;stroke-dasharray:9.6,2.4,1.5,2.4;stroke-dashoffset:0;stroke-width:1.5;"/>
    </g>
    <g id="line2d_27"/>
    <g id="text_23">
     <!-- py -->
     <g transform="translate(366.935625 252.469937)scale(0.1 -0.1)">
      <defs>
       <path d="M 1159 525 
L 1159 -1331 
L 581 -1331 
L 581 3500 
L 1159 3500 
L 1159 2969 
Q 1341 3281 1617 3432 
Q 1894 3584 2278 3584 
Q 2916 3584 3314 3078 
Q 3713 2572 3713 1747 
Q 3713 922 3314 415 
Q 2916 -91 2278 -91 
Q 1894 -91 1617 61 
Q 1341 213 1159 525 
z
M 3116 1747 
Q 3116 2381 2855 2742 
Q 2594 3103 2138 3103 
Q 1681 3103 1420 2742 
Q 1159 2381 1159 1747 
Q 1159 1113 1420 752 
Q 1681 391 2138 391 
Q 2594 391 2855 752 
Q 3116 1113 3116 1747 
z
" id="DejaVuSans-70" transform="scale(0.015625)"/>
      </defs>
      <use xlink:href="#DejaVuSans-70"/>
      <use x="63.476562" xlink:href="#DejaVuSans-79"/>
     </g>
    </g>
    <g id="line2d_28"/>
    <g id="line2d_29">
     <g>
      <use style="fill:#2ca02c;stroke:#2ca02c;stroke-linejoin:miter;" x="348.935625" xlink:href="#mcb9a10d9f4" y="263.648062"/>
     </g>
    </g>
    <g id="text_24">
     <!-- pxy -->
     <g transform="translate(366.935625 267.148062)scale(0.1 -0.1)">
      <defs>
       <path d="M 3513 3500 
L 2247 1797 
L 3578 0 
L 2900 0 
L 1881 1375 
L 863 0 
L 184 0 
L 1544 1831 
L 300 3500 
L 978 3500 
L 1906 2253 
L 2834 3500 
L 3513 3500 
z
" id="DejaVuSans-78" transform="scale(0.015625)"/>
      </defs>
      <use xlink:href="#DejaVuSans-70"/>
      <use x="63.476562" xlink:href="#DejaVuSans-78"/>
      <use x="122.65625" xlink:href="#DejaVuSans-79"/>
     </g>
    </g>
    <g id="line2d_30"/>
    <g id="line2d_31">
     <g>
      <use style="fill:#d62728;stroke:#d62728;" x="348.935625" xlink:href="#me607a6d44c" y="278.326188"/>
     </g>
    </g>
    <g id="text_25">
     <!-- oort -->
     <g transform="translate(366.935625 281.826188)scale(0.1 -0.1)">
      <use xlink:href="#DejaVuSans-6f"/>
      <use x="61.181641" xlink:href="#DejaVuSans-6f"/>
      <use x="122.363281" xlink:href="#DejaVuSans-72"/>
      <use x="163.476562" xlink:href="#DejaVuSans-74"/>
     </g>
    </g>
    <g id="line2d_32">
     <path d="M 338.935625 293.004312 
L 358.935625 293.004312 
" style="fill:none;stroke:#9467bd;stroke-linecap:square;stroke-width:1.5;"/>
    </g>
    <g id="line2d_33"/>
    <g id="text_26">
     <!-- tifl -->
     <g transform="translate(366.935625 296.504312)scale(0.1 -0.1)">
      <defs>
       <path d="M 2375 4863 
L 2375 4384 
L 1825 4384 
Q 1516 4384 1395 4259 
Q 1275 4134 1275 3809 
L 1275 3500 
L 2222 3500 
L 2222 3053 
L 1275 3053 
L 1275 0 
L 697 0 
L 697 3053 
L 147 3053 
L 147 3500 
L 697 3500 
L 697 3744 
Q 697 4328 969 4595 
Q 1241 4863 1831 4863 
L 2375 4863 
z
" id="DejaVuSans-66" transform="scale(0.015625)"/>
       <path d="M 603 4863 
L 1178 4863 
L 1178 0 
L 603 0 
L 603 4863 
z
" id="DejaVuSans-6c" transform="scale(0.015625)"/>
      </defs>
      <use xlink:href="#DejaVuSans-74"/>
      <use x="39.208984" xlink:href="#DejaVuSans-69"/>
      <use x="66.992188" xlink:href="#DejaVuSans-66"/>
      <use x="102.197266" xlink:href="#DejaVuSans-6c"/>
     </g>
    </g>
   </g>
  </g>
 </g>
 <defs>
  <clipPath id="p3e902f4591">
   <rect height="266.112" width="357.12" x="57.6" y="41.472"/>
  </clipPath>
 </defs>
</svg>
