<?xml version="1.0" encoding="utf-8" standalone="no"?>
<!DOCTYPE svg PUBLIC "-//W3C//DTD SVG 1.1//EN"
  "http://www.w3.org/Graphics/SVG/1.1/DTD/svg11.dtd">
<svg height="720.72pt" version="1.1" viewBox="0 0 1382.4 720.72" width="1382.4pt" xmlns="http://www.w3.org/2000/svg" xmlns:xlink="http://www.w3.org/1999/xlink">
 <metadata>
  <rdf:RDF xmlns:cc="http://creativecommons.org/ns#" xmlns:dc="http://purl.org/dc/elements/1.1/" xmlns:rdf="http://www.w3.org/1999/02/22-rdf-syntax-ns#">
   <cc:Work>
    <dc:type rdf:resource="http://purl.org/dc/dcmitype/StillImage"/>
    <dc:date>2021-10-01T11:45:09.254391</dc:date>
    <dc:format>image/svg+xml</dc:format>
    <dc:creator>
     <cc:Agent>
      <dc:title>Matplotlib v3.4.2, https://matplotlib.org/</dc:title>
     </cc:Agent>
    </dc:creator>
   </cc:Work>
  </rdf:RDF>
 </metadata>
 <defs>
  <style type="text/css">*{stroke-linecap:butt;stroke-linejoin:round;}</style>
 </defs>
 <g id="figure_1">
  <g id="patch_1">
   <path d="M 0 720.72 
L 1382.4 720.72 
L 1382.4 0 
L 0 0 
z
" style="fill:#ffffff;"/>
  </g>
  <g id="axes_1">
   <g id="patch_2">
    <path d="M 172.8 641.4408 
L 1244.16 641.4408 
L 1244.16 86.4864 
L 172.8 86.4864 
z
" style="fill:#ffffff;"/>
   </g>
   <g id="matplotlib.axis_1">
    <g id="xtick_1">
     <g id="line2d_1">
      <defs>
       <path d="M 0 0 
L 0 3.5 
" id="m54526bcbc0" style="stroke:#000000;stroke-width:0.8;"/>
      </defs>
      <g>
       <use style="stroke:#000000;stroke-width:0.8;" x="218.102233" xlink:href="#m54526bcbc0" y="641.4408"/>
      </g>
     </g>
     <g id="text_1">
      <!-- 0 -->
      <g transform="translate(214.920983 656.039238)scale(0.1 -0.1)">
       <defs>
        <path d="M 2034 4250 
Q 1547 4250 1301 3770 
Q 1056 3291 1056 2328 
Q 1056 1369 1301 889 
Q 1547 409 2034 409 
Q 2525 409 2770 889 
Q 3016 1369 3016 2328 
Q 3016 3291 2770 3770 
Q 2525 4250 2034 4250 
z
M 2034 4750 
Q 2819 4750 3233 4129 
Q 3647 3509 3647 2328 
Q 3647 1150 3233 529 
Q 2819 -91 2034 -91 
Q 1250 -91 836 529 
Q 422 1150 422 2328 
Q 422 3509 836 4129 
Q 1250 4750 2034 4750 
z
" id="DejaVuSans-30" transform="scale(0.015625)"/>
       </defs>
       <use xlink:href="#DejaVuSans-30"/>
      </g>
     </g>
    </g>
    <g id="xtick_2">
     <g id="line2d_2">
      <g>
       <use style="stroke:#000000;stroke-width:0.8;" x="338.493793" xlink:href="#m54526bcbc0" y="641.4408"/>
      </g>
     </g>
     <g id="text_2">
      <!-- 1500 -->
      <g transform="translate(325.768793 656.039238)scale(0.1 -0.1)">
       <defs>
        <path d="M 794 531 
L 1825 531 
L 1825 4091 
L 703 3866 
L 703 4441 
L 1819 4666 
L 2450 4666 
L 2450 531 
L 3481 531 
L 3481 0 
L 794 0 
L 794 531 
z
" id="DejaVuSans-31" transform="scale(0.015625)"/>
        <path d="M 691 4666 
L 3169 4666 
L 3169 4134 
L 1269 4134 
L 1269 2991 
Q 1406 3038 1543 3061 
Q 1681 3084 1819 3084 
Q 2600 3084 3056 2656 
Q 3513 2228 3513 1497 
Q 3513 744 3044 326 
Q 2575 -91 1722 -91 
Q 1428 -91 1123 -41 
Q 819 9 494 109 
L 494 744 
Q 775 591 1075 516 
Q 1375 441 1709 441 
Q 2250 441 2565 725 
Q 2881 1009 2881 1497 
Q 2881 1984 2565 2268 
Q 2250 2553 1709 2553 
Q 1456 2553 1204 2497 
Q 953 2441 691 2322 
L 691 4666 
z
" id="DejaVuSans-35" transform="scale(0.015625)"/>
       </defs>
       <use xlink:href="#DejaVuSans-31"/>
       <use x="63.623047" xlink:href="#DejaVuSans-35"/>
       <use x="127.246094" xlink:href="#DejaVuSans-30"/>
       <use x="190.869141" xlink:href="#DejaVuSans-30"/>
      </g>
     </g>
    </g>
    <g id="xtick_3">
     <g id="line2d_3">
      <g>
       <use style="stroke:#000000;stroke-width:0.8;" x="458.885353" xlink:href="#m54526bcbc0" y="641.4408"/>
      </g>
     </g>
     <g id="text_3">
      <!-- 3000 -->
      <g transform="translate(446.160353 656.039238)scale(0.1 -0.1)">
       <defs>
        <path d="M 2597 2516 
Q 3050 2419 3304 2112 
Q 3559 1806 3559 1356 
Q 3559 666 3084 287 
Q 2609 -91 1734 -91 
Q 1441 -91 1130 -33 
Q 819 25 488 141 
L 488 750 
Q 750 597 1062 519 
Q 1375 441 1716 441 
Q 2309 441 2620 675 
Q 2931 909 2931 1356 
Q 2931 1769 2642 2001 
Q 2353 2234 1838 2234 
L 1294 2234 
L 1294 2753 
L 1863 2753 
Q 2328 2753 2575 2939 
Q 2822 3125 2822 3475 
Q 2822 3834 2567 4026 
Q 2313 4219 1838 4219 
Q 1578 4219 1281 4162 
Q 984 4106 628 3988 
L 628 4550 
Q 988 4650 1302 4700 
Q 1616 4750 1894 4750 
Q 2613 4750 3031 4423 
Q 3450 4097 3450 3541 
Q 3450 3153 3228 2886 
Q 3006 2619 2597 2516 
z
" id="DejaVuSans-33" transform="scale(0.015625)"/>
       </defs>
       <use xlink:href="#DejaVuSans-33"/>
       <use x="63.623047" xlink:href="#DejaVuSans-30"/>
       <use x="127.246094" xlink:href="#DejaVuSans-30"/>
       <use x="190.869141" xlink:href="#DejaVuSans-30"/>
      </g>
     </g>
    </g>
    <g id="xtick_4">
     <g id="line2d_4">
      <g>
       <use style="stroke:#000000;stroke-width:0.8;" x="579.276913" xlink:href="#m54526bcbc0" y="641.4408"/>
      </g>
     </g>
     <g id="text_4">
      <!-- 4500 -->
      <g transform="translate(566.551913 656.039238)scale(0.1 -0.1)">
       <defs>
        <path d="M 2419 4116 
L 825 1625 
L 2419 1625 
L 2419 4116 
z
M 2253 4666 
L 3047 4666 
L 3047 1625 
L 3713 1625 
L 3713 1100 
L 3047 1100 
L 3047 0 
L 2419 0 
L 2419 1100 
L 313 1100 
L 313 1709 
L 2253 4666 
z
" id="DejaVuSans-34" transform="scale(0.015625)"/>
       </defs>
       <use xlink:href="#DejaVuSans-34"/>
       <use x="63.623047" xlink:href="#DejaVuSans-35"/>
       <use x="127.246094" xlink:href="#DejaVuSans-30"/>
       <use x="190.869141" xlink:href="#DejaVuSans-30"/>
      </g>
     </g>
    </g>
    <g id="xtick_5">
     <g id="line2d_5">
      <g>
       <use style="stroke:#000000;stroke-width:0.8;" x="699.668472" xlink:href="#m54526bcbc0" y="641.4408"/>
      </g>
     </g>
     <g id="text_5">
      <!-- 6000 -->
      <g transform="translate(686.943472 656.039238)scale(0.1 -0.1)">
       <defs>
        <path d="M 2113 2584 
Q 1688 2584 1439 2293 
Q 1191 2003 1191 1497 
Q 1191 994 1439 701 
Q 1688 409 2113 409 
Q 2538 409 2786 701 
Q 3034 994 3034 1497 
Q 3034 2003 2786 2293 
Q 2538 2584 2113 2584 
z
M 3366 4563 
L 3366 3988 
Q 3128 4100 2886 4159 
Q 2644 4219 2406 4219 
Q 1781 4219 1451 3797 
Q 1122 3375 1075 2522 
Q 1259 2794 1537 2939 
Q 1816 3084 2150 3084 
Q 2853 3084 3261 2657 
Q 3669 2231 3669 1497 
Q 3669 778 3244 343 
Q 2819 -91 2113 -91 
Q 1303 -91 875 529 
Q 447 1150 447 2328 
Q 447 3434 972 4092 
Q 1497 4750 2381 4750 
Q 2619 4750 2861 4703 
Q 3103 4656 3366 4563 
z
" id="DejaVuSans-36" transform="scale(0.015625)"/>
       </defs>
       <use xlink:href="#DejaVuSans-36"/>
       <use x="63.623047" xlink:href="#DejaVuSans-30"/>
       <use x="127.246094" xlink:href="#DejaVuSans-30"/>
       <use x="190.869141" xlink:href="#DejaVuSans-30"/>
      </g>
     </g>
    </g>
    <g id="xtick_6">
     <g id="line2d_6">
      <g>
       <use style="stroke:#000000;stroke-width:0.8;" x="820.060032" xlink:href="#m54526bcbc0" y="641.4408"/>
      </g>
     </g>
     <g id="text_6">
      <!-- 7500 -->
      <g transform="translate(807.335032 656.039238)scale(0.1 -0.1)">
       <defs>
        <path d="M 525 4666 
L 3525 4666 
L 3525 4397 
L 1831 0 
L 1172 0 
L 2766 4134 
L 525 4134 
L 525 4666 
z
" id="DejaVuSans-37" transform="scale(0.015625)"/>
       </defs>
       <use xlink:href="#DejaVuSans-37"/>
       <use x="63.623047" xlink:href="#DejaVuSans-35"/>
       <use x="127.246094" xlink:href="#DejaVuSans-30"/>
       <use x="190.869141" xlink:href="#DejaVuSans-30"/>
      </g>
     </g>
    </g>
    <g id="xtick_7">
     <g id="line2d_7">
      <g>
       <use style="stroke:#000000;stroke-width:0.8;" x="940.451592" xlink:href="#m54526bcbc0" y="641.4408"/>
      </g>
     </g>
     <g id="text_7">
      <!-- 9000 -->
      <g transform="translate(927.726592 656.039238)scale(0.1 -0.1)">
       <defs>
        <path d="M 703 97 
L 703 672 
Q 941 559 1184 500 
Q 1428 441 1663 441 
Q 2288 441 2617 861 
Q 2947 1281 2994 2138 
Q 2813 1869 2534 1725 
Q 2256 1581 1919 1581 
Q 1219 1581 811 2004 
Q 403 2428 403 3163 
Q 403 3881 828 4315 
Q 1253 4750 1959 4750 
Q 2769 4750 3195 4129 
Q 3622 3509 3622 2328 
Q 3622 1225 3098 567 
Q 2575 -91 1691 -91 
Q 1453 -91 1209 -44 
Q 966 3 703 97 
z
M 1959 2075 
Q 2384 2075 2632 2365 
Q 2881 2656 2881 3163 
Q 2881 3666 2632 3958 
Q 2384 4250 1959 4250 
Q 1534 4250 1286 3958 
Q 1038 3666 1038 3163 
Q 1038 2656 1286 2365 
Q 1534 2075 1959 2075 
z
" id="DejaVuSans-39" transform="scale(0.015625)"/>
       </defs>
       <use xlink:href="#DejaVuSans-39"/>
       <use x="63.623047" xlink:href="#DejaVuSans-30"/>
       <use x="127.246094" xlink:href="#DejaVuSans-30"/>
       <use x="190.869141" xlink:href="#DejaVuSans-30"/>
      </g>
     </g>
    </g>
    <g id="xtick_8">
     <g id="line2d_8">
      <g>
       <use style="stroke:#000000;stroke-width:0.8;" x="1060.843152" xlink:href="#m54526bcbc0" y="641.4408"/>
      </g>
     </g>
     <g id="text_8">
      <!-- 10500 -->
      <g transform="translate(1044.936902 656.039238)scale(0.1 -0.1)">
       <use xlink:href="#DejaVuSans-31"/>
       <use x="63.623047" xlink:href="#DejaVuSans-30"/>
       <use x="127.246094" xlink:href="#DejaVuSans-35"/>
       <use x="190.869141" xlink:href="#DejaVuSans-30"/>
       <use x="254.492188" xlink:href="#DejaVuSans-30"/>
      </g>
     </g>
    </g>
    <g id="xtick_9">
     <g id="line2d_9">
      <g>
       <use style="stroke:#000000;stroke-width:0.8;" x="1181.234712" xlink:href="#m54526bcbc0" y="641.4408"/>
      </g>
     </g>
     <g id="text_9">
      <!-- 12000 -->
      <g transform="translate(1165.328462 656.039238)scale(0.1 -0.1)">
       <defs>
        <path d="M 1228 531 
L 3431 531 
L 3431 0 
L 469 0 
L 469 531 
Q 828 903 1448 1529 
Q 2069 2156 2228 2338 
Q 2531 2678 2651 2914 
Q 2772 3150 2772 3378 
Q 2772 3750 2511 3984 
Q 2250 4219 1831 4219 
Q 1534 4219 1204 4116 
Q 875 4013 500 3803 
L 500 4441 
Q 881 4594 1212 4672 
Q 1544 4750 1819 4750 
Q 2544 4750 2975 4387 
Q 3406 4025 3406 3419 
Q 3406 3131 3298 2873 
Q 3191 2616 2906 2266 
Q 2828 2175 2409 1742 
Q 1991 1309 1228 531 
z
" id="DejaVuSans-32" transform="scale(0.015625)"/>
       </defs>
       <use xlink:href="#DejaVuSans-31"/>
       <use x="63.623047" xlink:href="#DejaVuSans-32"/>
       <use x="127.246094" xlink:href="#DejaVuSans-30"/>
       <use x="190.869141" xlink:href="#DejaVuSans-30"/>
       <use x="254.492188" xlink:href="#DejaVuSans-30"/>
      </g>
     </g>
    </g>
    <g id="text_10">
     <!-- Time taken (sec) -->
     <g transform="translate(666.752656 669.717363)scale(0.1 -0.1)">
      <defs>
       <path d="M -19 4666 
L 3928 4666 
L 3928 4134 
L 2272 4134 
L 2272 0 
L 1638 0 
L 1638 4134 
L -19 4134 
L -19 4666 
z
" id="DejaVuSans-54" transform="scale(0.015625)"/>
       <path d="M 603 3500 
L 1178 3500 
L 1178 0 
L 603 0 
L 603 3500 
z
M 603 4863 
L 1178 4863 
L 1178 4134 
L 603 4134 
L 603 4863 
z
" id="DejaVuSans-69" transform="scale(0.015625)"/>
       <path d="M 3328 2828 
Q 3544 3216 3844 3400 
Q 4144 3584 4550 3584 
Q 5097 3584 5394 3201 
Q 5691 2819 5691 2113 
L 5691 0 
L 5113 0 
L 5113 2094 
Q 5113 2597 4934 2840 
Q 4756 3084 4391 3084 
Q 3944 3084 3684 2787 
Q 3425 2491 3425 1978 
L 3425 0 
L 2847 0 
L 2847 2094 
Q 2847 2600 2669 2842 
Q 2491 3084 2119 3084 
Q 1678 3084 1418 2786 
Q 1159 2488 1159 1978 
L 1159 0 
L 581 0 
L 581 3500 
L 1159 3500 
L 1159 2956 
Q 1356 3278 1631 3431 
Q 1906 3584 2284 3584 
Q 2666 3584 2933 3390 
Q 3200 3197 3328 2828 
z
" id="DejaVuSans-6d" transform="scale(0.015625)"/>
       <path d="M 3597 1894 
L 3597 1613 
L 953 1613 
Q 991 1019 1311 708 
Q 1631 397 2203 397 
Q 2534 397 2845 478 
Q 3156 559 3463 722 
L 3463 178 
Q 3153 47 2828 -22 
Q 2503 -91 2169 -91 
Q 1331 -91 842 396 
Q 353 884 353 1716 
Q 353 2575 817 3079 
Q 1281 3584 2069 3584 
Q 2775 3584 3186 3129 
Q 3597 2675 3597 1894 
z
M 3022 2063 
Q 3016 2534 2758 2815 
Q 2500 3097 2075 3097 
Q 1594 3097 1305 2825 
Q 1016 2553 972 2059 
L 3022 2063 
z
" id="DejaVuSans-65" transform="scale(0.015625)"/>
       <path id="DejaVuSans-20" transform="scale(0.015625)"/>
       <path d="M 1172 4494 
L 1172 3500 
L 2356 3500 
L 2356 3053 
L 1172 3053 
L 1172 1153 
Q 1172 725 1289 603 
Q 1406 481 1766 481 
L 2356 481 
L 2356 0 
L 1766 0 
Q 1100 0 847 248 
Q 594 497 594 1153 
L 594 3053 
L 172 3053 
L 172 3500 
L 594 3500 
L 594 4494 
L 1172 4494 
z
" id="DejaVuSans-74" transform="scale(0.015625)"/>
       <path d="M 2194 1759 
Q 1497 1759 1228 1600 
Q 959 1441 959 1056 
Q 959 750 1161 570 
Q 1363 391 1709 391 
Q 2188 391 2477 730 
Q 2766 1069 2766 1631 
L 2766 1759 
L 2194 1759 
z
M 3341 1997 
L 3341 0 
L 2766 0 
L 2766 531 
Q 2569 213 2275 61 
Q 1981 -91 1556 -91 
Q 1019 -91 701 211 
Q 384 513 384 1019 
Q 384 1609 779 1909 
Q 1175 2209 1959 2209 
L 2766 2209 
L 2766 2266 
Q 2766 2663 2505 2880 
Q 2244 3097 1772 3097 
Q 1472 3097 1187 3025 
Q 903 2953 641 2809 
L 641 3341 
Q 956 3463 1253 3523 
Q 1550 3584 1831 3584 
Q 2591 3584 2966 3190 
Q 3341 2797 3341 1997 
z
" id="DejaVuSans-61" transform="scale(0.015625)"/>
       <path d="M 581 4863 
L 1159 4863 
L 1159 1991 
L 2875 3500 
L 3609 3500 
L 1753 1863 
L 3688 0 
L 2938 0 
L 1159 1709 
L 1159 0 
L 581 0 
L 581 4863 
z
" id="DejaVuSans-6b" transform="scale(0.015625)"/>
       <path d="M 3513 2113 
L 3513 0 
L 2938 0 
L 2938 2094 
Q 2938 2591 2744 2837 
Q 2550 3084 2163 3084 
Q 1697 3084 1428 2787 
Q 1159 2491 1159 1978 
L 1159 0 
L 581 0 
L 581 3500 
L 1159 3500 
L 1159 2956 
Q 1366 3272 1645 3428 
Q 1925 3584 2291 3584 
Q 2894 3584 3203 3211 
Q 3513 2838 3513 2113 
z
" id="DejaVuSans-6e" transform="scale(0.015625)"/>
       <path d="M 1984 4856 
Q 1566 4138 1362 3434 
Q 1159 2731 1159 2009 
Q 1159 1288 1364 580 
Q 1569 -128 1984 -844 
L 1484 -844 
Q 1016 -109 783 600 
Q 550 1309 550 2009 
Q 550 2706 781 3412 
Q 1013 4119 1484 4856 
L 1984 4856 
z
" id="DejaVuSans-28" transform="scale(0.015625)"/>
       <path d="M 2834 3397 
L 2834 2853 
Q 2591 2978 2328 3040 
Q 2066 3103 1784 3103 
Q 1356 3103 1142 2972 
Q 928 2841 928 2578 
Q 928 2378 1081 2264 
Q 1234 2150 1697 2047 
L 1894 2003 
Q 2506 1872 2764 1633 
Q 3022 1394 3022 966 
Q 3022 478 2636 193 
Q 2250 -91 1575 -91 
Q 1294 -91 989 -36 
Q 684 19 347 128 
L 347 722 
Q 666 556 975 473 
Q 1284 391 1588 391 
Q 1994 391 2212 530 
Q 2431 669 2431 922 
Q 2431 1156 2273 1281 
Q 2116 1406 1581 1522 
L 1381 1569 
Q 847 1681 609 1914 
Q 372 2147 372 2553 
Q 372 3047 722 3315 
Q 1072 3584 1716 3584 
Q 2034 3584 2315 3537 
Q 2597 3491 2834 3397 
z
" id="DejaVuSans-73" transform="scale(0.015625)"/>
       <path d="M 3122 3366 
L 3122 2828 
Q 2878 2963 2633 3030 
Q 2388 3097 2138 3097 
Q 1578 3097 1268 2742 
Q 959 2388 959 1747 
Q 959 1106 1268 751 
Q 1578 397 2138 397 
Q 2388 397 2633 464 
Q 2878 531 3122 666 
L 3122 134 
Q 2881 22 2623 -34 
Q 2366 -91 2075 -91 
Q 1284 -91 818 406 
Q 353 903 353 1747 
Q 353 2603 823 3093 
Q 1294 3584 2113 3584 
Q 2378 3584 2631 3529 
Q 2884 3475 3122 3366 
z
" id="DejaVuSans-63" transform="scale(0.015625)"/>
       <path d="M 513 4856 
L 1013 4856 
Q 1481 4119 1714 3412 
Q 1947 2706 1947 2009 
Q 1947 1309 1714 600 
Q 1481 -109 1013 -844 
L 513 -844 
Q 928 -128 1133 580 
Q 1338 1288 1338 2009 
Q 1338 2731 1133 3434 
Q 928 4138 513 4856 
z
" id="DejaVuSans-29" transform="scale(0.015625)"/>
      </defs>
      <use xlink:href="#DejaVuSans-54"/>
      <use x="57.958984" xlink:href="#DejaVuSans-69"/>
      <use x="85.742188" xlink:href="#DejaVuSans-6d"/>
      <use x="183.154297" xlink:href="#DejaVuSans-65"/>
      <use x="244.677734" xlink:href="#DejaVuSans-20"/>
      <use x="276.464844" xlink:href="#DejaVuSans-74"/>
      <use x="315.673828" xlink:href="#DejaVuSans-61"/>
      <use x="376.953125" xlink:href="#DejaVuSans-6b"/>
      <use x="431.238281" xlink:href="#DejaVuSans-65"/>
      <use x="492.761719" xlink:href="#DejaVuSans-6e"/>
      <use x="556.140625" xlink:href="#DejaVuSans-20"/>
      <use x="587.927734" xlink:href="#DejaVuSans-28"/>
      <use x="626.941406" xlink:href="#DejaVuSans-73"/>
      <use x="679.041016" xlink:href="#DejaVuSans-65"/>
      <use x="740.564453" xlink:href="#DejaVuSans-63"/>
      <use x="795.544922" xlink:href="#DejaVuSans-29"/>
     </g>
    </g>
   </g>
   <g id="matplotlib.axis_2">
    <g id="ytick_1">
     <g id="line2d_10">
      <defs>
       <path d="M 0 0 
L -3.5 0 
" id="m68e9d3fa68" style="stroke:#000000;stroke-width:0.8;"/>
      </defs>
      <g>
       <use style="stroke:#000000;stroke-width:0.8;" x="172.8" xlink:href="#m68e9d3fa68" y="641.4408"/>
      </g>
     </g>
     <g id="text_11">
      <!-- 0.0 -->
      <g transform="translate(149.896875 645.240019)scale(0.1 -0.1)">
       <defs>
        <path d="M 684 794 
L 1344 794 
L 1344 0 
L 684 0 
L 684 794 
z
" id="DejaVuSans-2e" transform="scale(0.015625)"/>
       </defs>
       <use xlink:href="#DejaVuSans-30"/>
       <use x="63.623047" xlink:href="#DejaVuSans-2e"/>
       <use x="95.410156" xlink:href="#DejaVuSans-30"/>
      </g>
     </g>
    </g>
    <g id="ytick_2">
     <g id="line2d_11">
      <g>
       <use style="stroke:#000000;stroke-width:0.8;" x="172.8" xlink:href="#m68e9d3fa68" y="582.418324"/>
      </g>
     </g>
     <g id="text_12">
      <!-- 0.1 -->
      <g transform="translate(149.896875 586.217543)scale(0.1 -0.1)">
       <use xlink:href="#DejaVuSans-30"/>
       <use x="63.623047" xlink:href="#DejaVuSans-2e"/>
       <use x="95.410156" xlink:href="#DejaVuSans-31"/>
      </g>
     </g>
    </g>
    <g id="ytick_3">
     <g id="line2d_12">
      <g>
       <use style="stroke:#000000;stroke-width:0.8;" x="172.8" xlink:href="#m68e9d3fa68" y="523.395848"/>
      </g>
     </g>
     <g id="text_13">
      <!-- 0.2 -->
      <g transform="translate(149.896875 527.195067)scale(0.1 -0.1)">
       <use xlink:href="#DejaVuSans-30"/>
       <use x="63.623047" xlink:href="#DejaVuSans-2e"/>
       <use x="95.410156" xlink:href="#DejaVuSans-32"/>
      </g>
     </g>
    </g>
    <g id="ytick_4">
     <g id="line2d_13">
      <g>
       <use style="stroke:#000000;stroke-width:0.8;" x="172.8" xlink:href="#m68e9d3fa68" y="464.373372"/>
      </g>
     </g>
     <g id="text_14">
      <!-- 0.3 -->
      <g transform="translate(149.896875 468.172591)scale(0.1 -0.1)">
       <use xlink:href="#DejaVuSans-30"/>
       <use x="63.623047" xlink:href="#DejaVuSans-2e"/>
       <use x="95.410156" xlink:href="#DejaVuSans-33"/>
      </g>
     </g>
    </g>
    <g id="ytick_5">
     <g id="line2d_14">
      <g>
       <use style="stroke:#000000;stroke-width:0.8;" x="172.8" xlink:href="#m68e9d3fa68" y="405.350896"/>
      </g>
     </g>
     <g id="text_15">
      <!-- 0.4 -->
      <g transform="translate(149.896875 409.150115)scale(0.1 -0.1)">
       <use xlink:href="#DejaVuSans-30"/>
       <use x="63.623047" xlink:href="#DejaVuSans-2e"/>
       <use x="95.410156" xlink:href="#DejaVuSans-34"/>
      </g>
     </g>
    </g>
    <g id="ytick_6">
     <g id="line2d_15">
      <g>
       <use style="stroke:#000000;stroke-width:0.8;" x="172.8" xlink:href="#m68e9d3fa68" y="346.32842"/>
      </g>
     </g>
     <g id="text_16">
      <!-- 0.5 -->
      <g transform="translate(149.896875 350.127639)scale(0.1 -0.1)">
       <use xlink:href="#DejaVuSans-30"/>
       <use x="63.623047" xlink:href="#DejaVuSans-2e"/>
       <use x="95.410156" xlink:href="#DejaVuSans-35"/>
      </g>
     </g>
    </g>
    <g id="ytick_7">
     <g id="line2d_16">
      <g>
       <use style="stroke:#000000;stroke-width:0.8;" x="172.8" xlink:href="#m68e9d3fa68" y="287.305944"/>
      </g>
     </g>
     <g id="text_17">
      <!-- 0.6 -->
      <g transform="translate(149.896875 291.105163)scale(0.1 -0.1)">
       <use xlink:href="#DejaVuSans-30"/>
       <use x="63.623047" xlink:href="#DejaVuSans-2e"/>
       <use x="95.410156" xlink:href="#DejaVuSans-36"/>
      </g>
     </g>
    </g>
    <g id="ytick_8">
     <g id="line2d_17">
      <g>
       <use style="stroke:#000000;stroke-width:0.8;" x="172.8" xlink:href="#m68e9d3fa68" y="228.283468"/>
      </g>
     </g>
     <g id="text_18">
      <!-- 0.7 -->
      <g transform="translate(149.896875 232.082687)scale(0.1 -0.1)">
       <use xlink:href="#DejaVuSans-30"/>
       <use x="63.623047" xlink:href="#DejaVuSans-2e"/>
       <use x="95.410156" xlink:href="#DejaVuSans-37"/>
      </g>
     </g>
    </g>
    <g id="ytick_9">
     <g id="line2d_18">
      <g>
       <use style="stroke:#000000;stroke-width:0.8;" x="172.8" xlink:href="#m68e9d3fa68" y="169.260992"/>
      </g>
     </g>
     <g id="text_19">
      <!-- 0.8 -->
      <g transform="translate(149.896875 173.060211)scale(0.1 -0.1)">
       <defs>
        <path d="M 2034 2216 
Q 1584 2216 1326 1975 
Q 1069 1734 1069 1313 
Q 1069 891 1326 650 
Q 1584 409 2034 409 
Q 2484 409 2743 651 
Q 3003 894 3003 1313 
Q 3003 1734 2745 1975 
Q 2488 2216 2034 2216 
z
M 1403 2484 
Q 997 2584 770 2862 
Q 544 3141 544 3541 
Q 544 4100 942 4425 
Q 1341 4750 2034 4750 
Q 2731 4750 3128 4425 
Q 3525 4100 3525 3541 
Q 3525 3141 3298 2862 
Q 3072 2584 2669 2484 
Q 3125 2378 3379 2068 
Q 3634 1759 3634 1313 
Q 3634 634 3220 271 
Q 2806 -91 2034 -91 
Q 1263 -91 848 271 
Q 434 634 434 1313 
Q 434 1759 690 2068 
Q 947 2378 1403 2484 
z
M 1172 3481 
Q 1172 3119 1398 2916 
Q 1625 2713 2034 2713 
Q 2441 2713 2670 2916 
Q 2900 3119 2900 3481 
Q 2900 3844 2670 4047 
Q 2441 4250 2034 4250 
Q 1625 4250 1398 4047 
Q 1172 3844 1172 3481 
z
" id="DejaVuSans-38" transform="scale(0.015625)"/>
       </defs>
       <use xlink:href="#DejaVuSans-30"/>
       <use x="63.623047" xlink:href="#DejaVuSans-2e"/>
       <use x="95.410156" xlink:href="#DejaVuSans-38"/>
      </g>
     </g>
    </g>
    <g id="ytick_10">
     <g id="line2d_19">
      <g>
       <use style="stroke:#000000;stroke-width:0.8;" x="172.8" xlink:href="#m68e9d3fa68" y="110.238516"/>
      </g>
     </g>
     <g id="text_20">
      <!-- 0.9 -->
      <g transform="translate(149.896875 114.037735)scale(0.1 -0.1)">
       <use xlink:href="#DejaVuSans-30"/>
       <use x="63.623047" xlink:href="#DejaVuSans-2e"/>
       <use x="95.410156" xlink:href="#DejaVuSans-39"/>
      </g>
     </g>
    </g>
    <g id="text_21">
     <!-- Accuracy -->
     <g transform="translate(143.817187 386.791725)rotate(-90)scale(0.1 -0.1)">
      <defs>
       <path d="M 2188 4044 
L 1331 1722 
L 3047 1722 
L 2188 4044 
z
M 1831 4666 
L 2547 4666 
L 4325 0 
L 3669 0 
L 3244 1197 
L 1141 1197 
L 716 0 
L 50 0 
L 1831 4666 
z
" id="DejaVuSans-41" transform="scale(0.015625)"/>
       <path d="M 544 1381 
L 544 3500 
L 1119 3500 
L 1119 1403 
Q 1119 906 1312 657 
Q 1506 409 1894 409 
Q 2359 409 2629 706 
Q 2900 1003 2900 1516 
L 2900 3500 
L 3475 3500 
L 3475 0 
L 2900 0 
L 2900 538 
Q 2691 219 2414 64 
Q 2138 -91 1772 -91 
Q 1169 -91 856 284 
Q 544 659 544 1381 
z
M 1991 3584 
L 1991 3584 
z
" id="DejaVuSans-75" transform="scale(0.015625)"/>
       <path d="M 2631 2963 
Q 2534 3019 2420 3045 
Q 2306 3072 2169 3072 
Q 1681 3072 1420 2755 
Q 1159 2438 1159 1844 
L 1159 0 
L 581 0 
L 581 3500 
L 1159 3500 
L 1159 2956 
Q 1341 3275 1631 3429 
Q 1922 3584 2338 3584 
Q 2397 3584 2469 3576 
Q 2541 3569 2628 3553 
L 2631 2963 
z
" id="DejaVuSans-72" transform="scale(0.015625)"/>
       <path d="M 2059 -325 
Q 1816 -950 1584 -1140 
Q 1353 -1331 966 -1331 
L 506 -1331 
L 506 -850 
L 844 -850 
Q 1081 -850 1212 -737 
Q 1344 -625 1503 -206 
L 1606 56 
L 191 3500 
L 800 3500 
L 1894 763 
L 2988 3500 
L 3597 3500 
L 2059 -325 
z
" id="DejaVuSans-79" transform="scale(0.015625)"/>
      </defs>
      <use xlink:href="#DejaVuSans-41"/>
      <use x="66.658203" xlink:href="#DejaVuSans-63"/>
      <use x="121.638672" xlink:href="#DejaVuSans-63"/>
      <use x="176.619141" xlink:href="#DejaVuSans-75"/>
      <use x="239.998047" xlink:href="#DejaVuSans-72"/>
      <use x="281.111328" xlink:href="#DejaVuSans-61"/>
      <use x="342.390625" xlink:href="#DejaVuSans-63"/>
      <use x="397.371094" xlink:href="#DejaVuSans-79"/>
     </g>
    </g>
   </g>
   <g id="line2d_20">
    <path clip-path="url(#pc2551a68fd)" d="M 222.7639 551.475825 
L 229.239775 551.475825 
L 233.563408 580.441821 
L 237.937283 580.441821 
L 242.281545 551.475825 
L 246.869969 551.475825 
L 251.423286 580.441821 
L 255.913242 580.441821 
L 262.144583 508.878773 
L 266.079438 551.475825 
L 270.655607 583.849585 
L 274.80454 508.878773 
L 279.419066 577.034057 
L 285.820107 508.878773 
L 290.372043 508.878773 
L 294.96587 551.475825 
L 305.695269 551.475825 
L 310.262591 508.878773 
L 314.413545 551.475825 
L 318.563082 544.31952 
L 323.181485 503.085573 
L 329.543931 508.878773 
L 333.767135 551.475825 
L 338.336583 551.475825 
L 344.586725 505.471008 
L 349.286824 551.475825 
L 353.333216 580.441821 
L 359.721592 508.878773 
L 364.193552 551.475825 
L 368.467861 566.469988 
L 374.713615 463.214732 
L 380.950925 430.500196 
L 387.366324 422.321562 
L 393.523053 424.025444 
L 398.399593 539.54865 
L 403.003921 481.275883 
L 407.469822 366.434229 
L 411.734254 451.628334 
L 416.353466 357.574042 
L 420.60474 305.094473 
L 424.71596 260.111986 
L 428.986335 260.793539 
L 433.106047 349.054632 
L 438.186546 255.341116 
L 442.803745 262.838197 
L 447.161838 281.5809 
L 451.438632 268.29062 
L 455.695747 285.670218 
L 460.325557 252.274128 
L 465.386861 200.135336 
L 471.754739 204.224653 
L 477.989079 219.900368 
L 482.444209 246.140153 
L 486.751018 272.720714 
L 491.769909 205.928535 
L 496.789103 232.16832 
L 500.945856 187.185832 
L 505.591871 192.979031 
L 510.66174 214.447946 
L 514.778785 197.409125 
L 519.2559 192.638255 
L 523.610611 194.001361 
L 528.170161 192.297478 
L 532.782816 218.878039 
L 538.94208 231.827543 
L 543.681652 172.19167 
L 548.361769 168.443129 
L 552.970342 170.828564 
L 556.616209 158.219836 
L 561.164217 181.392633 
L 567.655635 161.968377 
L 571.946375 175.258657 
L 576.325241 166.39847 
L 579.915218 154.471296 
L 584.369223 159.242166 
L 588.936828 153.448967 
L 593.196499 148.678097 
L 597.485179 167.761576 
L 602.068896 147.314991 
L 606.663993 153.448967 
L 611.662209 164.353812 
L 616.644319 144.248003 
L 621.823844 140.499463 
L 626.178923 149.018873 
L 630.553992 158.901389 
L 635.173275 148.678097 
L 639.482265 139.477133 
L 644.172082 150.381979 
L 648.62177 164.694588 
L 652.726328 150.381979 
L 657.32913 174.236328 
L 663.617032 165.035365 
L 668.629311 179.688751 
L 673.121919 155.493625 
L 677.700137 140.499463 
L 682.308435 163.331483 
L 686.904689 140.499463 
L 693.164149 150.381979 
L 699.558811 151.745084 
L 703.842935 157.197507 
L 708.457537 168.102353 
L 713.431823 133.683934 
L 717.207636 146.292662 
L 721.484073 128.231511 
L 726.10068 160.264495 
L 730.243533 156.175178 
L 736.490374 153.789743 
L 740.772223 172.532446 
L 747.145205 171.16934 
L 753.318446 158.560613 
L 757.900127 155.152849 
L 762.2591 140.840239 
L 766.856758 149.359649 
L 771.339475 152.767414 
L 776.33539 140.499463 
L 780.926555 138.114028 
L 785.942871 129.253841 
L 790.217187 145.270332 
L 795.211664 132.661605 
L 799.031098 128.231511 
L 803.61223 137.432475 
L 808.470637 143.907227 
L 817.480695 154.812072 
L 822.475105 134.365487 
L 827.062499 146.292662 
L 831.314288 129.253841 
L 837.47927 132.320828 
L 846.95188 160.264495 
L 851.560899 165.035365 
L 855.615067 136.069369 
L 859.742152 157.538284 
L 866.04003 144.929556 
L 870.655026 131.639276 
L 875.749264 128.913064 
L 880.188001 136.410146 
L 884.790597 152.426637 
L 891.211217 138.79558 
L 895.818576 139.81791 
L 900.262924 158.219836 
L 905.116941 153.448967 
L 909.487397 126.868406 
L 915.884711 133.002381 
L 920.26553 137.773251 
L 924.655798 139.81791 
L 929.673017 145.270332 
L 933.987449 129.594617 
L 938.231588 137.432475 
L 944.619222 143.907227 
L 949.648705 127.549959 
L 954.659706 125.846077 
L 959.246315 137.773251 
L 963.70484 138.79558 
L 968.293054 127.209182 
L 972.761922 129.253841 
L 979.163652 135.387816 
L 983.743041 127.549959 
L 990.142612 135.728593 
L 996.304213 139.477133 
L 1002.697523 134.706263 
L 1006.948704 134.024711 
L 1011.969583 137.773251 
L 1016.607148 126.527629 
L 1021.602931 127.549959 
L 1026.031314 142.203345 
L 1030.365501 134.706263 
L 1034.631108 128.231511 
L 1039.011703 131.298499 
L 1045.392647 133.002381 
L 1049.427369 125.164524 
L 1054.036501 126.527629 
L 1058.332998 128.913064 
L 1062.941498 138.454804 
L 1067.558954 128.913064 
L 1072.38782 128.572288 
L 1076.750611 136.069369 
L 1081.316572 140.158686 
L 1085.956998 126.868406 
L 1090.721719 130.27617 
L 1095.73801 127.890735 
L 1102.113625 125.846077 
L 1107.118325 132.320828 
L 1112.120401 134.024711 
L 1118.63914 143.56645 
L 1123.200523 142.884898 
L 1127.41448 135.728593 
L 1133.672178 140.499463 
L 1137.926332 133.002381 
L 1142.369391 150.722755 
L 1147.363666 142.884898 
L 1153.613762 141.181015 
L 1158.191722 130.616946 
L 1164.549652 137.432475 
L 1169.129809 134.024711 
L 1174.112623 126.527629 
L 1180.482846 125.5053 
L 1185.101654 128.231511 
L 1191.494963 136.750922 
L 1195.461818 128.572288 
L 1195.461818 128.572288 
" style="fill:none;stroke:#1f77b4;stroke-linecap:square;stroke-width:1.5;"/>
   </g>
   <g id="line2d_21">
    <path clip-path="url(#pc2551a68fd)" d="M 222.094161 508.878773 
L 230.588166 508.878773 
L 234.481041 551.475825 
L 238.334578 551.475825 
L 242.478868 577.715609 
L 246.078263 508.878773 
L 250.11174 580.441821 
L 254.251015 508.878773 
L 258.374475 508.878773 
L 261.863785 549.771943 
L 266.143814 508.878773 
L 270.040028 508.878773 
L 273.741729 580.441821 
L 277.898502 551.475825 
L 281.689775 508.878773 
L 285.856343 583.849585 
L 289.925146 580.441821 
L 293.804388 542.615638 
L 297.832596 508.878773 
L 301.803004 429.477867 
L 306.067824 490.476846 
L 310.733455 467.304049 
L 314.883041 415.84681 
L 319.875774 484.34287 
L 324.12644 485.3652 
L 327.909569 454.695322 
L 331.517073 325.200282 
L 335.339053 381.769168 
L 339.456447 380.746839 
L 345.740839 298.278945 
L 349.813498 301.345933 
L 358.269337 267.609067 
L 362.407246 247.844035 
L 366.448708 243.413941 
L 371.065837 195.364466 
L 375.915556 263.178974 
L 379.676509 222.285803 
L 384.576915 263.178974 
L 388.884129 191.275149 
L 393.14508 212.062511 
L 396.963573 211.721734 
L 400.836661 190.934373 
L 405.117183 193.660584 
L 409.242317 190.25282 
L 413.827248 219.218816 
L 418.074326 189.571267 
L 422.210486 183.778068 
L 426.341506 220.581921 
L 430.472485 263.178974 
L 434.262095 212.062511 
L 438.078084 192.297478 
L 442.089973 173.554775 
L 446.287216 170.147011 
L 450.298199 154.812072 
L 454.306073 167.4208 
L 458.265035 165.376141 
L 461.820642 156.175178 
L 465.716438 155.834401 
L 469.787367 151.063532 
L 473.744 161.627601 
L 477.907969 157.197507 
L 482.038663 152.085861 
L 485.905528 172.19167 
L 489.670986 155.493625 
L 493.922522 149.359649 
L 497.142125 149.700426 
L 501.099816 156.856731 
L 505.2378 165.035365 
L 508.928058 159.242166 
L 512.770878 162.64993 
L 516.930738 157.538284 
L 521.916328 146.633438 
L 525.886242 156.515954 
L 530.01713 147.314991 
L 534.184634 162.309153 
L 538.466295 165.035365 
L 542.574796 156.856731 
L 547.176561 143.225674 
L 551.769245 137.432475 
L 556.357542 152.767414 
L 560.528975 146.633438 
L 564.81273 151.404308 
L 568.874828 154.130519 
L 572.907539 144.58878 
L 576.98152 135.728593 
L 580.824396 137.091698 
L 584.773078 152.085861 
L 588.797723 147.314991 
L 592.593926 144.58878 
L 596.730288 141.862568 
L 600.764873 142.884898 
L 604.100791 135.728593 
L 608.434101 137.432475 
L 612.619985 152.426637 
L 616.903643 136.410146 
L 621.500058 130.957723 
L 624.894107 127.549959 
L 628.960322 143.907227 
L 632.962204 141.862568 
L 636.971018 149.018873 
L 641.114858 134.365487 
L 645.255428 150.041202 
L 649.102097 137.432475 
L 653.694064 138.114028 
L 657.468438 145.951885 
L 661.524929 139.81791 
L 665.392774 125.5053 
L 669.572633 155.493625 
L 673.573713 134.706263 
L 677.535821 147.996544 
L 681.55878 129.253841 
L 685.560148 138.454804 
L 689.739293 128.231511 
L 693.902915 134.365487 
L 697.736457 142.884898 
L 701.86271 146.292662 
L 706.02024 152.085861 
L 709.899998 173.213999 
L 713.862434 126.527629 
L 718.456728 135.728593 
L 722.521052 131.639276 
L 727.122958 122.438312 
L 730.938362 124.142194 
L 734.893856 146.974215 
L 738.893511 127.549959 
L 743.356889 126.186853 
L 747.329772 143.907227 
L 751.356752 132.320828 
L 755.796945 126.868406 
L 759.682455 118.008219 
L 764.444996 121.756759 
L 768.491206 124.142194 
L 772.755352 129.594617 
L 776.748513 125.846077 
L 780.648675 126.186853 
L 784.756301 134.706263 
L 789.139181 138.454804 
L 793.732986 122.097536 
L 797.794563 124.823747 
L 801.945787 139.477133 
L 805.767262 142.544121 
L 809.623742 131.639276 
L 814.218138 138.79558 
L 818.360873 130.957723 
L 822.184967 122.438312 
L 826.636835 147.314991 
L 831.008969 150.381979 
L 835.19234 126.186853 
L 839.787833 131.298499 
L 843.944762 125.5053 
L 848.103035 114.600455 
L 852.71955 120.052877 
L 856.115644 124.482971 
L 860.076342 126.186853 
L 863.894522 124.482971 
L 867.37718 117.667442 
L 871.332233 134.365487 
L 875.513984 126.186853 
L 883.539439 133.002381 
L 887.820014 128.572288 
L 891.646915 138.114028 
L 895.37739 133.002381 
L 899.524491 128.231511 
L 904.002909 129.253841 
L 908.135666 136.750922 
L 912.256016 130.957723 
L 916.255187 122.779089 
L 924.16711 120.052877 
L 927.940523 132.320828 
L 932.231914 129.253841 
L 936.102424 126.868406 
L 940.41527 124.482971 
L 944.377851 133.002381 
L 948.562876 132.320828 
L 952.41063 136.410146 
L 956.364616 134.706263 
L 964.048286 117.326666 
L 968.231725 119.371325 
L 972.400528 126.527629 
L 976.272028 114.941231 
L 979.709559 124.142194 
L 983.839487 128.913064 
L 987.797389 121.075207 
L 991.819626 119.712101 
L 995.975474 120.73443 
L 999.979708 122.097536 
L 1003.806309 116.98589 
L 1007.948434 127.549959 
L 1011.629471 121.075207 
L 1015.662281 127.209182 
L 1019.808975 113.578125 
L 1023.577856 119.030548 
L 1027.337085 121.756759 
L 1031.602358 121.075207 
L 1035.669542 137.091698 
L 1035.669542 137.091698 
" style="fill:none;stroke:#ff7f0e;stroke-linecap:square;stroke-width:1.5;"/>
   </g>
   <g id="line2d_22">
    <path clip-path="url(#pc2551a68fd)" d="M 221.533091 508.878773 
L 225.045489 551.475825 
L 229.350744 551.475825 
L 232.676592 508.878773 
L 236.175808 548.408837 
L 239.549541 551.475825 
L 246.198251 551.475825 
L 249.463832 580.441821 
L 252.739564 508.878773 
L 255.937781 583.849585 
L 259.132188 551.475825 
L 262.498239 508.878773 
L 265.819357 551.475825 
L 269.592676 551.475825 
L 273.006362 549.431167 
L 276.376097 580.441821 
L 279.727982 551.475825 
L 283.328659 551.475825 
L 286.804099 508.878773 
L 290.664149 508.878773 
L 294.235515 551.475825 
L 304.11683 551.475825 
L 307.51107 583.849585 
L 310.795564 508.878773 
L 314.219344 551.475825 
L 317.986414 508.878773 
L 321.666054 500.359362 
L 324.90811 551.475825 
L 328.308871 580.441821 
L 331.701018 551.475825 
L 334.794846 476.505013 
L 338.183465 551.475825 
L 341.792288 363.367241 
L 345.248797 470.711814 
L 348.864981 422.321562 
L 352.695192 494.566163 
L 355.876959 321.110965 
L 359.256988 462.533179 
L 363.342797 414.142928 
L 366.802928 344.624538 
L 370.646661 347.009973 
L 374.304977 299.642051 
L 377.70194 451.96911 
L 381.052144 288.737205 
L 384.82398 341.55755 
L 388.238506 337.127457 
L 392.033602 258.067327 
L 395.198113 235.91686 
L 398.553101 278.513913 
L 401.952608 304.412921 
L 405.149382 293.167299 
L 408.307555 249.207141 
L 411.62822 251.251799 
L 415.096256 228.079003 
L 418.757747 233.531425 
L 422.144634 252.274128 
L 425.328993 256.704222 
L 428.917251 248.525588 
L 432.333185 275.787701 
L 436.577573 253.97801 
L 439.913154 229.101332 
L 443.687349 237.961519 
L 447.929344 311.569225 
L 451.123655 228.760555 
L 454.654085 200.135336 
L 458.882754 289.759535 
L 462.156241 191.615926 
L 465.437414 203.5431 
L 468.730368 168.102353 
L 472.146539 184.800397 
L 475.528958 207.291641 
L 478.915498 221.263474 
L 482.375739 224.671238 
L 486.192652 269.994502 
L 489.822592 192.979031 
L 493.117586 194.682913 
L 496.375439 202.520771 
L 499.618512 182.755739 
L 503.027 184.800397 
L 506.553153 187.185832 
L 509.856941 192.638255 
L 513.991494 225.693568 
L 517.142363 163.331483 
L 520.559599 159.582942 
L 523.82478 180.029527 
L 527.458553 162.990706 
L 531.065391 169.124682 
L 534.52725 174.236328 
L 537.706857 182.414962 
L 540.944902 179.007198 
L 544.099859 163.331483 
L 547.333051 170.487788 
L 550.58262 178.325645 
L 554.380106 180.370304 
L 557.711714 172.19167 
L 561.105636 180.71108 
L 564.522016 168.102353 
L 568.063381 151.404308 
L 571.483372 150.041202 
L 575.092752 177.644092 
L 579.541971 175.258657 
L 582.762846 162.990706 
L 586.169298 150.722755 
L 589.659966 157.87906 
L 592.94304 159.582942 
L 596.605035 150.381979 
L 599.795482 157.87906 
L 603.141553 154.812072 
L 606.734652 142.884898 
L 609.951135 161.968377 
L 613.621237 147.314991 
L 616.949746 144.248003 
L 620.14859 155.152849 
L 623.446256 148.33732 
L 626.861923 144.248003 
L 630.276295 153.10819 
L 637.43651 146.292662 
L 641.63945 155.834401 
L 644.914266 155.493625 
L 648.525155 173.895552 
L 652.679611 151.404308 
L 656.093992 164.353812 
L 659.339551 143.907227 
L 663.210945 157.87906 
L 666.669466 153.448967 
L 670.047515 160.264495 
L 673.444429 157.197507 
L 676.747785 141.521792 
L 680.340366 156.175178 
L 684.188589 158.219836 
L 687.776779 152.085861 
L 691.457947 175.258657 
L 695.047354 160.605271 
L 698.658342 153.789743 
L 701.918075 171.16934 
L 705.13413 140.499463 
L 708.404421 147.314991 
L 711.542108 144.58878 
L 715.072493 132.320828 
L 718.740096 152.426637 
L 722.604308 151.404308 
L 729.448854 160.605271 
L 733.430132 135.387816 
L 736.766354 156.856731 
L 739.924721 150.722755 
L 743.31982 146.633438 
L 746.69012 145.951885 
L 749.958765 139.477133 
L 753.354405 158.560613 
L 756.725143 154.471296 
L 759.942316 152.085861 
L 763.349731 146.633438 
L 767.605028 166.739247 
L 770.94236 143.56645 
L 774.564665 144.58878 
L 777.927828 142.203345 
L 781.157591 165.376141 
L 784.491977 147.996544 
L 787.919318 148.678097 
L 791.272762 141.521792 
L 794.661675 154.130519 
L 798.335884 141.521792 
L 801.745265 147.996544 
L 805.146713 142.884898 
L 808.651791 140.840239 
L 811.9252 140.840239 
L 815.107737 169.465458 
L 818.380498 164.353812 
L 821.682895 139.81791 
L 824.977566 134.365487 
L 828.401344 136.750922 
L 831.574497 147.655767 
L 834.669448 156.175178 
L 838.925629 133.683934 
L 843.154992 144.929556 
L 846.628603 148.33732 
L 849.711482 142.203345 
L 853.026093 153.448967 
L 856.426588 147.996544 
L 860.006389 137.432475 
L 863.406004 136.750922 
L 866.677229 134.706263 
L 870.094129 138.114028 
L 873.373446 135.728593 
L 876.85521 141.862568 
L 880.336824 136.069369 
L 883.709388 132.661605 
L 887.120326 141.181015 
L 890.351565 143.56645 
L 893.444381 146.633438 
L 896.694498 142.884898 
L 899.948113 133.002381 
L 903.345525 145.611109 
L 906.600485 149.700426 
L 910.833778 137.773251 
L 910.833778 137.773251 
" style="fill:none;stroke:#2ca02c;stroke-linecap:square;stroke-width:1.5;"/>
   </g>
   <g id="line2d_23">
    <path clip-path="url(#pc2551a68fd)" d="M 223.724392 551.475825 
L 228.55109 580.441821 
L 233.812677 508.878773 
L 239.181311 551.475825 
L 243.921408 580.441821 
L 249.132175 508.878773 
L 254.39181 551.475825 
L 259.124225 580.441821 
L 264.280838 508.878773 
L 269.550238 551.475825 
L 274.238198 580.441821 
L 279.403462 508.878773 
L 284.716562 551.475825 
L 289.43362 580.441821 
L 294.614605 508.878773 
L 299.974901 551.475825 
L 304.715003 580.441821 
L 309.915967 508.878773 
L 315.230192 551.475825 
L 319.960404 580.441821 
L 325.14434 508.878773 
L 330.448623 551.475825 
L 335.192865 580.441821 
L 340.310339 508.878773 
L 345.575815 551.475825 
L 350.307696 580.441821 
L 355.488134 508.878773 
L 360.837282 551.475825 
L 365.566501 580.441821 
L 370.709968 508.878773 
L 375.995084 550.794272 
L 380.428862 580.441821 
L 385.604666 508.878773 
L 390.896027 538.185545 
L 395.347737 575.330175 
L 399.362967 420.61768 
L 403.800813 539.207874 
L 407.826461 398.807989 
L 412.297808 523.872935 
L 416.311939 396.081778 
L 420.72592 500.359362 
L 424.936687 504.448679 
L 429.392586 475.82346 
L 433.964422 507.856443 
L 438.411162 489.454517 
L 442.984012 495.588492 
L 447.438934 489.11374 
L 451.714166 439.360383 
L 456.144459 378.70218 
L 460.727466 393.696343 
L 466.962183 336.786681 
L 471.530694 412.439046 
L 475.647693 254.318787 
L 480.242829 395.400225 
L 486.475621 319.407083 
L 491.069282 399.148765 
L 495.161578 207.973194 
L 499.759847 340.535221 
L 503.993703 348.032302 
L 508.821583 373.249757 
L 513.044791 319.407083 
L 517.888515 366.093453 
L 522.473635 272.720714 
L 531.342448 310.20612 
L 535.909738 268.972173 
L 540.015422 163.672259 
L 544.616403 289.759535 
L 550.998892 295.89351 
L 555.612648 256.704222 
L 559.855916 287.714876 
L 564.455993 265.564409 
L 568.706866 255.341116 
L 573.309939 257.044998 
L 577.565345 242.732389 
L 582.188816 246.140153 
L 586.415992 236.257637 
L 591.033792 185.48195 
L 595.890863 252.955681 
L 600.150186 194.342137 
L 604.998422 227.738226 
L 609.280504 192.979031 
L 613.361078 184.118844 
L 617.617194 167.761576 
L 622.229273 207.973194 
L 628.484793 209.677076 
L 633.078381 163.331483 
L 637.670817 150.722755 
L 644.056557 207.973194 
L 648.618594 159.582942 
L 653.218264 151.404308 
L 657.818578 216.833381 
L 664.079833 203.5431 
L 668.672153 175.599434 
L 672.911599 194.342137 
L 677.515205 167.761576 
L 681.738363 189.230491 
L 686.332883 161.627601 
L 690.583972 183.096515 
L 695.185222 155.493625 
L 699.436818 142.884898 
L 704.289553 179.688751 
L 708.55772 160.264495 
L 713.158837 153.448967 
L 719.426743 176.621763 
L 724.027539 141.521792 
L 728.875676 179.007198 
L 733.139151 152.085861 
L 737.747497 149.018873 
L 744.011984 171.16934 
L 748.6037 136.750922 
L 753.16413 130.957723 
L 757.78211 175.258657 
L 764.17881 177.303316 
L 768.77026 142.544121 
L 773.313777 135.728593 
L 777.92344 137.091698 
L 782.164731 134.706263 
L 786.741102 135.04704 
L 793.015352 163.672259 
L 797.378015 127.890735 
L 801.950126 128.572288 
L 806.552526 160.605271 
L 812.909757 169.806235 
L 817.526238 140.499463 
L 822.124866 155.152849 
L 828.36384 132.661605 
L 832.964876 145.951885 
L 837.812 173.213999 
L 842.068205 144.929556 
L 846.650006 123.801418 
L 851.254751 129.253841 
L 857.476974 127.549959 
L 862.101421 140.840239 
L 866.930899 167.4208 
L 871.193628 137.773251 
L 875.798349 134.024711 
L 880.402068 132.320828 
L 886.793882 118.689772 
L 891.370725 120.393654 
L 895.972039 142.544121 
L 902.233572 126.527629 
L 906.825743 144.248003 
L 911.670652 161.286824 
L 915.927791 138.79558 
L 920.500956 121.756759 
L 925.121827 124.142194 
L 931.380676 122.779089 
L 935.97895 133.343158 
L 940.831688 152.085861 
L 945.416799 147.314991 
L 951.811306 151.745084 
L 956.417758 121.756759 
L 960.982139 119.371325 
L 965.587721 136.410146 
L 971.845408 121.075207 
L 976.445446 136.069369 
L 981.036894 128.572288 
L 987.308944 143.907227 
L 991.900267 116.304337 
L 996.495788 114.259678 
L 1001.07937 133.343158 
L 1007.331058 120.052877 
L 1011.902283 130.957723 
L 1016.51531 127.209182 
L 1022.729372 141.521792 
L 1027.344392 114.600455 
L 1031.927206 114.600455 
L 1036.53933 129.253841 
L 1041.395611 142.884898 
L 1047.780958 126.868406 
L 1052.371537 127.549959 
L 1056.923434 119.030548 
L 1061.530295 132.661605 
L 1067.78073 118.008219 
L 1072.362728 130.27617 
L 1076.960307 124.823747 
L 1083.218533 136.750922 
L 1087.807562 113.237349 
L 1092.398725 110.851914 
L 1097.003432 126.527629 
L 1101.861965 133.683934 
L 1108.224617 124.482971 
L 1112.805107 124.823747 
L 1117.405695 113.918902 
L 1122.023248 125.846077 
L 1128.271046 114.941231 
L 1132.844154 121.756759 
L 1137.451693 118.008219 
L 1143.695881 112.555796 
L 1148.29174 118.348995 
L 1152.867604 121.415983 
L 1157.690539 124.823747 
L 1162.296695 130.616946 
L 1168.557048 127.890735 
L 1173.155388 116.304337 
L 1177.731235 110.170361 
L 1182.330188 122.097536 
L 1187.149725 123.460642 
L 1193.539102 123.119865 
L 1193.539102 123.119865 
" style="fill:none;stroke:#d62728;stroke-linecap:square;stroke-width:1.5;"/>
   </g>
   <g id="line2d_24">
    <path clip-path="url(#pc2551a68fd)" d="M 221.498182 580.441821 
L 224.88696 551.475825 
L 228.286227 580.441821 
L 232.698059 551.475825 
L 236.579851 508.878773 
L 240.837064 551.475825 
L 244.445494 508.878773 
L 248.705899 551.475825 
L 252.318876 508.878773 
L 256.224746 551.475825 
L 260.120368 508.878773 
L 263.753096 508.878773 
L 267.668984 551.475825 
L 270.924874 580.441821 
L 275.173537 551.475825 
L 281.635751 551.475825 
L 284.90618 580.441821 
L 291.362215 551.475825 
L 295.293572 551.475825 
L 299.236226 508.878773 
L 302.490897 580.441821 
L 308.932307 551.475825 
L 312.820476 433.567184 
L 316.777413 451.628334 
L 320.020926 580.441821 
L 326.465858 551.475825 
L 330.358119 436.634172 
L 336.810184 545.001073 
L 343.266551 527.280699 
L 347.186977 449.242899 
L 353.666923 477.186566 
L 357.921977 551.475825 
L 361.827545 434.589513 
L 365.439677 476.164236 
L 371.892266 457.76231 
L 375.852826 428.455537 
L 379.473963 434.930289 
L 385.927522 420.276903 
L 389.189655 390.970131 
L 392.446027 301.005156 
L 395.690125 282.60323 
L 399.939033 331.675034 
L 403.208114 290.441087 
L 406.48071 250.911023 
L 410.103254 262.156645 
L 416.549332 315.317766 
L 422.979952 291.12264 
L 427.25312 266.586738 
L 430.50697 238.302295 
L 434.787448 268.972173 
L 438.061994 231.827543 
L 444.506638 250.570246 
L 448.767097 221.604251 
L 455.208426 244.436271 
L 459.475377 220.922698 
L 463.729676 210.699405 
L 466.984573 219.218816 
L 473.413234 220.241145 
L 480.254786 194.682913 
L 484.515641 205.246982 
L 490.968001 205.928535 
L 497.449621 206.269312 
L 501.064277 186.163503 
L 504.305366 188.208161 
L 508.244438 177.303316 
L 511.874172 175.599434 
L 518.314409 189.571267 
L 521.945026 177.303316 
L 528.361883 188.208161 
L 531.604375 175.94021 
L 534.845245 177.303316 
L 539.104965 196.386795 
L 542.703593 164.694588 
L 546.320948 164.694588 
L 552.736022 172.532446 
L 556.624939 162.990706 
L 559.877034 165.716918 
L 564.127774 177.644092 
L 568.061913 161.286824 
L 571.696744 159.242166 
L 575.6358 157.87906 
L 582.087527 159.242166 
L 586.052276 153.789743 
L 590.324499 161.286824 
L 594.265148 154.812072 
L 601.823548 152.767414 
L 605.453214 152.085861 
L 609.714914 165.035365 
L 613.336625 144.929556 
L 620.885638 151.404308 
L 624.145658 152.767414 
L 628.417311 164.353812 
L 631.668432 157.197507 
L 635.282743 149.700426 
L 638.538899 153.10819 
L 642.814448 161.968377 
L 646.404772 145.611109 
L 650.37742 146.974215 
L 654.312219 147.655767 
L 657.936582 140.499463 
L 661.558246 145.951885 
L 664.830952 150.381979 
L 668.087568 151.745084 
L 671.993609 150.381979 
L 675.621879 146.633438 
L 679.262215 141.521792 
L 682.536851 147.655767 
L 686.789332 154.130519 
L 690.714552 150.041202 
L 693.972619 148.33732 
L 698.231489 154.812072 
L 702.186523 142.203345 
L 706.154111 142.203345 
L 709.410109 145.951885 
L 713.320188 146.633438 
L 717.273979 144.248003 
L 720.524705 147.314991 
L 724.485911 146.292662 
L 728.41382 140.499463 
L 732.036778 136.069369 
L 735.964452 140.158686 
L 739.575819 137.773251 
L 742.828745 143.56645 
L 746.456511 139.477133 
L 750.421008 140.840239 
L 754.360264 138.454804 
L 757.969111 136.750922 
L 761.228335 144.248003 
L 764.862865 137.773251 
L 768.823767 140.499463 
L 772.44687 137.091698 
L 776.366725 138.454804 
L 779.612432 141.181015 
L 783.532993 142.203345 
L 786.796148 142.203345 
L 790.396011 138.454804 
L 794.344627 138.114028 
L 798.296401 138.114028 
L 801.559806 140.499463 
L 805.49762 140.840239 
L 809.44076 139.136357 
L 812.694752 141.181015 
L 816.602147 139.81791 
L 819.849607 142.203345 
L 823.752123 141.181015 
L 826.993842 141.181015 
L 830.891614 142.203345 
L 834.830295 139.136357 
L 838.08548 140.499463 
L 841.342157 143.907227 
L 845.278461 141.181015 
L 849.184363 137.432475 
L 857.051983 136.750922 
L 860.296908 139.81791 
L 863.541146 140.499463 
L 867.447414 141.862568 
L 871.403801 139.81791 
L 874.642089 139.477133 
L 877.889565 139.81791 
L 881.137048 141.181015 
L 884.38618 144.58878 
L 887.632328 145.611109 
L 890.885787 145.611109 
L 894.136174 145.951885 
L 897.382764 145.951885 
L 900.614843 144.929556 
L 903.851007 146.292662 
L 907.118771 145.270332 
L 910.354935 146.292662 
L 913.587752 144.929556 
L 916.82912 145.270332 
L 920.068402 145.270332 
L 923.285135 144.58878 
L 926.529064 144.58878 
L 929.774023 144.929556 
L 933.013032 143.225674 
L 936.262847 144.58878 
L 939.511027 144.248003 
L 942.755449 144.929556 
L 945.994429 142.884898 
L 949.221247 142.203345 
L 952.456645 143.225674 
L 958.931639 143.225674 
L 962.176128 143.907227 
L 971.896377 142.884898 
L 975.143648 141.181015 
L 978.398619 141.181015 
L 981.642792 142.203345 
L 997.797942 142.203345 
L 997.797942 142.203345 
" style="fill:none;stroke:#9467bd;stroke-linecap:square;stroke-width:1.5;"/>
   </g>
   <g id="patch_3">
    <path d="M 172.8 641.4408 
L 172.8 86.4864 
" style="fill:none;stroke:#000000;stroke-linecap:square;stroke-linejoin:miter;stroke-width:0.8;"/>
   </g>
   <g id="patch_4">
    <path d="M 1244.16 641.4408 
L 1244.16 86.4864 
" style="fill:none;stroke:#000000;stroke-linecap:square;stroke-linejoin:miter;stroke-width:0.8;"/>
   </g>
   <g id="patch_5">
    <path d="M 172.8 641.4408 
L 1244.16 641.4408 
" style="fill:none;stroke:#000000;stroke-linecap:square;stroke-linejoin:miter;stroke-width:0.8;"/>
   </g>
   <g id="patch_6">
    <path d="M 172.8 86.4864 
L 1244.16 86.4864 
" style="fill:none;stroke:#000000;stroke-linecap:square;stroke-linejoin:miter;stroke-width:0.8;"/>
   </g>
   <g id="text_22">
    <!-- Accuracy vs Time taken -->
    <g transform="translate(637.228125 80.4864)scale(0.12 -0.12)">
     <defs>
      <path d="M 191 3500 
L 800 3500 
L 1894 563 
L 2988 3500 
L 3597 3500 
L 2284 0 
L 1503 0 
L 191 3500 
z
" id="DejaVuSans-76" transform="scale(0.015625)"/>
     </defs>
     <use xlink:href="#DejaVuSans-41"/>
     <use x="66.658203" xlink:href="#DejaVuSans-63"/>
     <use x="121.638672" xlink:href="#DejaVuSans-63"/>
     <use x="176.619141" xlink:href="#DejaVuSans-75"/>
     <use x="239.998047" xlink:href="#DejaVuSans-72"/>
     <use x="281.111328" xlink:href="#DejaVuSans-61"/>
     <use x="342.390625" xlink:href="#DejaVuSans-63"/>
     <use x="397.371094" xlink:href="#DejaVuSans-79"/>
     <use x="456.550781" xlink:href="#DejaVuSans-20"/>
     <use x="488.337891" xlink:href="#DejaVuSans-76"/>
     <use x="547.517578" xlink:href="#DejaVuSans-73"/>
     <use x="599.617188" xlink:href="#DejaVuSans-20"/>
     <use x="631.404297" xlink:href="#DejaVuSans-54"/>
     <use x="689.363281" xlink:href="#DejaVuSans-69"/>
     <use x="717.146484" xlink:href="#DejaVuSans-6d"/>
     <use x="814.558594" xlink:href="#DejaVuSans-65"/>
     <use x="876.082031" xlink:href="#DejaVuSans-20"/>
     <use x="907.869141" xlink:href="#DejaVuSans-74"/>
     <use x="947.078125" xlink:href="#DejaVuSans-61"/>
     <use x="1008.357422" xlink:href="#DejaVuSans-6b"/>
     <use x="1062.642578" xlink:href="#DejaVuSans-65"/>
     <use x="1124.166016" xlink:href="#DejaVuSans-6e"/>
    </g>
   </g>
   <g id="legend_1">
    <g id="patch_7">
     <path d="M 179.8 167.877025 
L 250.584375 167.877025 
Q 252.584375 167.877025 252.584375 165.877025 
L 252.584375 93.4864 
Q 252.584375 91.4864 250.584375 91.4864 
L 179.8 91.4864 
Q 177.8 91.4864 177.8 93.4864 
L 177.8 165.877025 
Q 177.8 167.877025 179.8 167.877025 
z
" style="fill:#ffffff;opacity:0.8;stroke:#cccccc;stroke-linejoin:miter;"/>
    </g>
    <g id="line2d_25">
     <path d="M 181.8 99.584838 
L 201.8 99.584838 
" style="fill:none;stroke:#1f77b4;stroke-linecap:square;stroke-width:1.5;"/>
    </g>
    <g id="line2d_26"/>
    <g id="text_23">
     <!-- random -->
     <g transform="translate(209.8 103.084838)scale(0.1 -0.1)">
      <defs>
       <path d="M 2906 2969 
L 2906 4863 
L 3481 4863 
L 3481 0 
L 2906 0 
L 2906 525 
Q 2725 213 2448 61 
Q 2172 -91 1784 -91 
Q 1150 -91 751 415 
Q 353 922 353 1747 
Q 353 2572 751 3078 
Q 1150 3584 1784 3584 
Q 2172 3584 2448 3432 
Q 2725 3281 2906 2969 
z
M 947 1747 
Q 947 1113 1208 752 
Q 1469 391 1925 391 
Q 2381 391 2643 752 
Q 2906 1113 2906 1747 
Q 2906 2381 2643 2742 
Q 2381 3103 1925 3103 
Q 1469 3103 1208 2742 
Q 947 2381 947 1747 
z
" id="DejaVuSans-64" transform="scale(0.015625)"/>
       <path d="M 1959 3097 
Q 1497 3097 1228 2736 
Q 959 2375 959 1747 
Q 959 1119 1226 758 
Q 1494 397 1959 397 
Q 2419 397 2687 759 
Q 2956 1122 2956 1747 
Q 2956 2369 2687 2733 
Q 2419 3097 1959 3097 
z
M 1959 3584 
Q 2709 3584 3137 3096 
Q 3566 2609 3566 1747 
Q 3566 888 3137 398 
Q 2709 -91 1959 -91 
Q 1206 -91 779 398 
Q 353 888 353 1747 
Q 353 2609 779 3096 
Q 1206 3584 1959 3584 
z
" id="DejaVuSans-6f" transform="scale(0.015625)"/>
      </defs>
      <use xlink:href="#DejaVuSans-72"/>
      <use x="41.113281" xlink:href="#DejaVuSans-61"/>
      <use x="102.392578" xlink:href="#DejaVuSans-6e"/>
      <use x="165.771484" xlink:href="#DejaVuSans-64"/>
      <use x="229.248047" xlink:href="#DejaVuSans-6f"/>
      <use x="290.429688" xlink:href="#DejaVuSans-6d"/>
     </g>
    </g>
    <g id="line2d_27">
     <path d="M 181.8 114.262963 
L 201.8 114.262963 
" style="fill:none;stroke:#ff7f0e;stroke-linecap:square;stroke-width:1.5;"/>
    </g>
    <g id="line2d_28"/>
    <g id="text_24">
     <!-- py -->
     <g transform="translate(209.8 117.762963)scale(0.1 -0.1)">
      <defs>
       <path d="M 1159 525 
L 1159 -1331 
L 581 -1331 
L 581 3500 
L 1159 3500 
L 1159 2969 
Q 1341 3281 1617 3432 
Q 1894 3584 2278 3584 
Q 2916 3584 3314 3078 
Q 3713 2572 3713 1747 
Q 3713 922 3314 415 
Q 2916 -91 2278 -91 
Q 1894 -91 1617 61 
Q 1341 213 1159 525 
z
M 3116 1747 
Q 3116 2381 2855 2742 
Q 2594 3103 2138 3103 
Q 1681 3103 1420 2742 
Q 1159 2381 1159 1747 
Q 1159 1113 1420 752 
Q 1681 391 2138 391 
Q 2594 391 2855 752 
Q 3116 1113 3116 1747 
z
" id="DejaVuSans-70" transform="scale(0.015625)"/>
      </defs>
      <use xlink:href="#DejaVuSans-70"/>
      <use x="63.476562" xlink:href="#DejaVuSans-79"/>
     </g>
    </g>
    <g id="line2d_29">
     <path d="M 181.8 128.941088 
L 201.8 128.941088 
" style="fill:none;stroke:#2ca02c;stroke-linecap:square;stroke-width:1.5;"/>
    </g>
    <g id="line2d_30"/>
    <g id="text_25">
     <!-- pxy -->
     <g transform="translate(209.8 132.441088)scale(0.1 -0.1)">
      <defs>
       <path d="M 3513 3500 
L 2247 1797 
L 3578 0 
L 2900 0 
L 1881 1375 
L 863 0 
L 184 0 
L 1544 1831 
L 300 3500 
L 978 3500 
L 1906 2253 
L 2834 3500 
L 3513 3500 
z
" id="DejaVuSans-78" transform="scale(0.015625)"/>
      </defs>
      <use xlink:href="#DejaVuSans-70"/>
      <use x="63.476562" xlink:href="#DejaVuSans-78"/>
      <use x="122.65625" xlink:href="#DejaVuSans-79"/>
     </g>
    </g>
    <g id="line2d_31">
     <path d="M 181.8 143.619213 
L 201.8 143.619213 
" style="fill:none;stroke:#d62728;stroke-linecap:square;stroke-width:1.5;"/>
    </g>
    <g id="line2d_32"/>
    <g id="text_26">
     <!-- oort -->
     <g transform="translate(209.8 147.119213)scale(0.1 -0.1)">
      <use xlink:href="#DejaVuSans-6f"/>
      <use x="61.181641" xlink:href="#DejaVuSans-6f"/>
      <use x="122.363281" xlink:href="#DejaVuSans-72"/>
      <use x="163.476562" xlink:href="#DejaVuSans-74"/>
     </g>
    </g>
    <g id="line2d_33">
     <path d="M 181.8 158.297338 
L 201.8 158.297338 
" style="fill:none;stroke:#9467bd;stroke-linecap:square;stroke-width:1.5;"/>
    </g>
    <g id="line2d_34"/>
    <g id="text_27">
     <!-- tifl -->
     <g transform="translate(209.8 161.797338)scale(0.1 -0.1)">
      <defs>
       <path d="M 2375 4863 
L 2375 4384 
L 1825 4384 
Q 1516 4384 1395 4259 
Q 1275 4134 1275 3809 
L 1275 3500 
L 2222 3500 
L 2222 3053 
L 1275 3053 
L 1275 0 
L 697 0 
L 697 3053 
L 147 3053 
L 147 3500 
L 697 3500 
L 697 3744 
Q 697 4328 969 4595 
Q 1241 4863 1831 4863 
L 2375 4863 
z
" id="DejaVuSans-66" transform="scale(0.015625)"/>
       <path d="M 603 4863 
L 1178 4863 
L 1178 0 
L 603 0 
L 603 4863 
z
" id="DejaVuSans-6c" transform="scale(0.015625)"/>
      </defs>
      <use xlink:href="#DejaVuSans-74"/>
      <use x="39.208984" xlink:href="#DejaVuSans-69"/>
      <use x="66.992188" xlink:href="#DejaVuSans-66"/>
      <use x="102.197266" xlink:href="#DejaVuSans-6c"/>
     </g>
    </g>
   </g>
  </g>
 </g>
 <defs>
  <clipPath id="pc2551a68fd">
   <rect height="554.9544" width="1071.36" x="172.8" y="86.4864"/>
  </clipPath>
 </defs>
</svg>
