<?xml version="1.0" encoding="utf-8" standalone="no"?>
<!DOCTYPE svg PUBLIC "-//W3C//DTD SVG 1.1//EN"
  "http://www.w3.org/Graphics/SVG/1.1/DTD/svg11.dtd">
<svg height="701.28pt" version="1.1" viewBox="0 0 1330.56 701.28" width="1330.56pt" xmlns="http://www.w3.org/2000/svg" xmlns:xlink="http://www.w3.org/1999/xlink">
 <metadata>
  <rdf:RDF xmlns:cc="http://creativecommons.org/ns#" xmlns:dc="http://purl.org/dc/elements/1.1/" xmlns:rdf="http://www.w3.org/1999/02/22-rdf-syntax-ns#">
   <cc:Work>
    <dc:type rdf:resource="http://purl.org/dc/dcmitype/StillImage"/>
    <dc:date>2021-10-03T11:40:39.939411</dc:date>
    <dc:format>image/svg+xml</dc:format>
    <dc:creator>
     <cc:Agent>
      <dc:title>Matplotlib v3.4.2, https://matplotlib.org/</dc:title>
     </cc:Agent>
    </dc:creator>
   </cc:Work>
  </rdf:RDF>
 </metadata>
 <defs>
  <style type="text/css">*{stroke-linecap:butt;stroke-linejoin:round;}</style>
 </defs>
 <g id="figure_1">
  <g id="patch_1">
   <path d="M 0 701.28 
L 1330.56 701.28 
L 1330.56 0 
L 0 0 
z
" style="fill:#ffffff;"/>
  </g>
  <g id="axes_1">
   <g id="patch_2">
    <path d="M 166.32 624.1392 
L 1197.504 624.1392 
L 1197.504 84.1536 
L 166.32 84.1536 
z
" style="fill:#ffffff;"/>
   </g>
   <g id="matplotlib.axis_1">
    <g id="xtick_1">
     <g id="line2d_1">
      <defs>
       <path d="M 0 0 
L 0 3.5 
" id="me000a5eb6e" style="stroke:#000000;stroke-width:0.8;"/>
      </defs>
      <g>
       <use style="stroke:#000000;stroke-width:0.8;" x="209.974371" xlink:href="#me000a5eb6e" y="624.1392"/>
      </g>
     </g>
     <g id="text_1">
      <!-- 0 -->
      <g transform="translate(206.793121 638.737638)scale(0.1 -0.1)">
       <defs>
        <path d="M 2034 4250 
Q 1547 4250 1301 3770 
Q 1056 3291 1056 2328 
Q 1056 1369 1301 889 
Q 1547 409 2034 409 
Q 2525 409 2770 889 
Q 3016 1369 3016 2328 
Q 3016 3291 2770 3770 
Q 2525 4250 2034 4250 
z
M 2034 4750 
Q 2819 4750 3233 4129 
Q 3647 3509 3647 2328 
Q 3647 1150 3233 529 
Q 2819 -91 2034 -91 
Q 1250 -91 836 529 
Q 422 1150 422 2328 
Q 422 3509 836 4129 
Q 1250 4750 2034 4750 
z
" id="DejaVuSans-30" transform="scale(0.015625)"/>
       </defs>
       <use xlink:href="#DejaVuSans-30"/>
      </g>
     </g>
    </g>
    <g id="xtick_2">
     <g id="line2d_2">
      <g>
       <use style="stroke:#000000;stroke-width:0.8;" x="418.751981" xlink:href="#me000a5eb6e" y="624.1392"/>
      </g>
     </g>
     <g id="text_2">
      <!-- 1500 -->
      <g transform="translate(406.026981 638.737638)scale(0.1 -0.1)">
       <defs>
        <path d="M 794 531 
L 1825 531 
L 1825 4091 
L 703 3866 
L 703 4441 
L 1819 4666 
L 2450 4666 
L 2450 531 
L 3481 531 
L 3481 0 
L 794 0 
L 794 531 
z
" id="DejaVuSans-31" transform="scale(0.015625)"/>
        <path d="M 691 4666 
L 3169 4666 
L 3169 4134 
L 1269 4134 
L 1269 2991 
Q 1406 3038 1543 3061 
Q 1681 3084 1819 3084 
Q 2600 3084 3056 2656 
Q 3513 2228 3513 1497 
Q 3513 744 3044 326 
Q 2575 -91 1722 -91 
Q 1428 -91 1123 -41 
Q 819 9 494 109 
L 494 744 
Q 775 591 1075 516 
Q 1375 441 1709 441 
Q 2250 441 2565 725 
Q 2881 1009 2881 1497 
Q 2881 1984 2565 2268 
Q 2250 2553 1709 2553 
Q 1456 2553 1204 2497 
Q 953 2441 691 2322 
L 691 4666 
z
" id="DejaVuSans-35" transform="scale(0.015625)"/>
       </defs>
       <use xlink:href="#DejaVuSans-31"/>
       <use x="63.623047" xlink:href="#DejaVuSans-35"/>
       <use x="127.246094" xlink:href="#DejaVuSans-30"/>
       <use x="190.869141" xlink:href="#DejaVuSans-30"/>
      </g>
     </g>
    </g>
    <g id="xtick_3">
     <g id="line2d_3">
      <g>
       <use style="stroke:#000000;stroke-width:0.8;" x="627.529591" xlink:href="#me000a5eb6e" y="624.1392"/>
      </g>
     </g>
     <g id="text_3">
      <!-- 3000 -->
      <g transform="translate(614.804591 638.737638)scale(0.1 -0.1)">
       <defs>
        <path d="M 2597 2516 
Q 3050 2419 3304 2112 
Q 3559 1806 3559 1356 
Q 3559 666 3084 287 
Q 2609 -91 1734 -91 
Q 1441 -91 1130 -33 
Q 819 25 488 141 
L 488 750 
Q 750 597 1062 519 
Q 1375 441 1716 441 
Q 2309 441 2620 675 
Q 2931 909 2931 1356 
Q 2931 1769 2642 2001 
Q 2353 2234 1838 2234 
L 1294 2234 
L 1294 2753 
L 1863 2753 
Q 2328 2753 2575 2939 
Q 2822 3125 2822 3475 
Q 2822 3834 2567 4026 
Q 2313 4219 1838 4219 
Q 1578 4219 1281 4162 
Q 984 4106 628 3988 
L 628 4550 
Q 988 4650 1302 4700 
Q 1616 4750 1894 4750 
Q 2613 4750 3031 4423 
Q 3450 4097 3450 3541 
Q 3450 3153 3228 2886 
Q 3006 2619 2597 2516 
z
" id="DejaVuSans-33" transform="scale(0.015625)"/>
       </defs>
       <use xlink:href="#DejaVuSans-33"/>
       <use x="63.623047" xlink:href="#DejaVuSans-30"/>
       <use x="127.246094" xlink:href="#DejaVuSans-30"/>
       <use x="190.869141" xlink:href="#DejaVuSans-30"/>
      </g>
     </g>
    </g>
    <g id="xtick_4">
     <g id="line2d_4">
      <g>
       <use style="stroke:#000000;stroke-width:0.8;" x="836.307201" xlink:href="#me000a5eb6e" y="624.1392"/>
      </g>
     </g>
     <g id="text_4">
      <!-- 4500 -->
      <g transform="translate(823.582201 638.737638)scale(0.1 -0.1)">
       <defs>
        <path d="M 2419 4116 
L 825 1625 
L 2419 1625 
L 2419 4116 
z
M 2253 4666 
L 3047 4666 
L 3047 1625 
L 3713 1625 
L 3713 1100 
L 3047 1100 
L 3047 0 
L 2419 0 
L 2419 1100 
L 313 1100 
L 313 1709 
L 2253 4666 
z
" id="DejaVuSans-34" transform="scale(0.015625)"/>
       </defs>
       <use xlink:href="#DejaVuSans-34"/>
       <use x="63.623047" xlink:href="#DejaVuSans-35"/>
       <use x="127.246094" xlink:href="#DejaVuSans-30"/>
       <use x="190.869141" xlink:href="#DejaVuSans-30"/>
      </g>
     </g>
    </g>
    <g id="xtick_5">
     <g id="line2d_5">
      <g>
       <use style="stroke:#000000;stroke-width:0.8;" x="1045.084811" xlink:href="#me000a5eb6e" y="624.1392"/>
      </g>
     </g>
     <g id="text_5">
      <!-- 6000 -->
      <g transform="translate(1032.359811 638.737638)scale(0.1 -0.1)">
       <defs>
        <path d="M 2113 2584 
Q 1688 2584 1439 2293 
Q 1191 2003 1191 1497 
Q 1191 994 1439 701 
Q 1688 409 2113 409 
Q 2538 409 2786 701 
Q 3034 994 3034 1497 
Q 3034 2003 2786 2293 
Q 2538 2584 2113 2584 
z
M 3366 4563 
L 3366 3988 
Q 3128 4100 2886 4159 
Q 2644 4219 2406 4219 
Q 1781 4219 1451 3797 
Q 1122 3375 1075 2522 
Q 1259 2794 1537 2939 
Q 1816 3084 2150 3084 
Q 2853 3084 3261 2657 
Q 3669 2231 3669 1497 
Q 3669 778 3244 343 
Q 2819 -91 2113 -91 
Q 1303 -91 875 529 
Q 447 1150 447 2328 
Q 447 3434 972 4092 
Q 1497 4750 2381 4750 
Q 2619 4750 2861 4703 
Q 3103 4656 3366 4563 
z
" id="DejaVuSans-36" transform="scale(0.015625)"/>
       </defs>
       <use xlink:href="#DejaVuSans-36"/>
       <use x="63.623047" xlink:href="#DejaVuSans-30"/>
       <use x="127.246094" xlink:href="#DejaVuSans-30"/>
       <use x="190.869141" xlink:href="#DejaVuSans-30"/>
      </g>
     </g>
    </g>
    <g id="text_6">
     <!-- Time taken (sec) -->
     <g transform="translate(640.184656 652.415763)scale(0.1 -0.1)">
      <defs>
       <path d="M -19 4666 
L 3928 4666 
L 3928 4134 
L 2272 4134 
L 2272 0 
L 1638 0 
L 1638 4134 
L -19 4134 
L -19 4666 
z
" id="DejaVuSans-54" transform="scale(0.015625)"/>
       <path d="M 603 3500 
L 1178 3500 
L 1178 0 
L 603 0 
L 603 3500 
z
M 603 4863 
L 1178 4863 
L 1178 4134 
L 603 4134 
L 603 4863 
z
" id="DejaVuSans-69" transform="scale(0.015625)"/>
       <path d="M 3328 2828 
Q 3544 3216 3844 3400 
Q 4144 3584 4550 3584 
Q 5097 3584 5394 3201 
Q 5691 2819 5691 2113 
L 5691 0 
L 5113 0 
L 5113 2094 
Q 5113 2597 4934 2840 
Q 4756 3084 4391 3084 
Q 3944 3084 3684 2787 
Q 3425 2491 3425 1978 
L 3425 0 
L 2847 0 
L 2847 2094 
Q 2847 2600 2669 2842 
Q 2491 3084 2119 3084 
Q 1678 3084 1418 2786 
Q 1159 2488 1159 1978 
L 1159 0 
L 581 0 
L 581 3500 
L 1159 3500 
L 1159 2956 
Q 1356 3278 1631 3431 
Q 1906 3584 2284 3584 
Q 2666 3584 2933 3390 
Q 3200 3197 3328 2828 
z
" id="DejaVuSans-6d" transform="scale(0.015625)"/>
       <path d="M 3597 1894 
L 3597 1613 
L 953 1613 
Q 991 1019 1311 708 
Q 1631 397 2203 397 
Q 2534 397 2845 478 
Q 3156 559 3463 722 
L 3463 178 
Q 3153 47 2828 -22 
Q 2503 -91 2169 -91 
Q 1331 -91 842 396 
Q 353 884 353 1716 
Q 353 2575 817 3079 
Q 1281 3584 2069 3584 
Q 2775 3584 3186 3129 
Q 3597 2675 3597 1894 
z
M 3022 2063 
Q 3016 2534 2758 2815 
Q 2500 3097 2075 3097 
Q 1594 3097 1305 2825 
Q 1016 2553 972 2059 
L 3022 2063 
z
" id="DejaVuSans-65" transform="scale(0.015625)"/>
       <path id="DejaVuSans-20" transform="scale(0.015625)"/>
       <path d="M 1172 4494 
L 1172 3500 
L 2356 3500 
L 2356 3053 
L 1172 3053 
L 1172 1153 
Q 1172 725 1289 603 
Q 1406 481 1766 481 
L 2356 481 
L 2356 0 
L 1766 0 
Q 1100 0 847 248 
Q 594 497 594 1153 
L 594 3053 
L 172 3053 
L 172 3500 
L 594 3500 
L 594 4494 
L 1172 4494 
z
" id="DejaVuSans-74" transform="scale(0.015625)"/>
       <path d="M 2194 1759 
Q 1497 1759 1228 1600 
Q 959 1441 959 1056 
Q 959 750 1161 570 
Q 1363 391 1709 391 
Q 2188 391 2477 730 
Q 2766 1069 2766 1631 
L 2766 1759 
L 2194 1759 
z
M 3341 1997 
L 3341 0 
L 2766 0 
L 2766 531 
Q 2569 213 2275 61 
Q 1981 -91 1556 -91 
Q 1019 -91 701 211 
Q 384 513 384 1019 
Q 384 1609 779 1909 
Q 1175 2209 1959 2209 
L 2766 2209 
L 2766 2266 
Q 2766 2663 2505 2880 
Q 2244 3097 1772 3097 
Q 1472 3097 1187 3025 
Q 903 2953 641 2809 
L 641 3341 
Q 956 3463 1253 3523 
Q 1550 3584 1831 3584 
Q 2591 3584 2966 3190 
Q 3341 2797 3341 1997 
z
" id="DejaVuSans-61" transform="scale(0.015625)"/>
       <path d="M 581 4863 
L 1159 4863 
L 1159 1991 
L 2875 3500 
L 3609 3500 
L 1753 1863 
L 3688 0 
L 2938 0 
L 1159 1709 
L 1159 0 
L 581 0 
L 581 4863 
z
" id="DejaVuSans-6b" transform="scale(0.015625)"/>
       <path d="M 3513 2113 
L 3513 0 
L 2938 0 
L 2938 2094 
Q 2938 2591 2744 2837 
Q 2550 3084 2163 3084 
Q 1697 3084 1428 2787 
Q 1159 2491 1159 1978 
L 1159 0 
L 581 0 
L 581 3500 
L 1159 3500 
L 1159 2956 
Q 1366 3272 1645 3428 
Q 1925 3584 2291 3584 
Q 2894 3584 3203 3211 
Q 3513 2838 3513 2113 
z
" id="DejaVuSans-6e" transform="scale(0.015625)"/>
       <path d="M 1984 4856 
Q 1566 4138 1362 3434 
Q 1159 2731 1159 2009 
Q 1159 1288 1364 580 
Q 1569 -128 1984 -844 
L 1484 -844 
Q 1016 -109 783 600 
Q 550 1309 550 2009 
Q 550 2706 781 3412 
Q 1013 4119 1484 4856 
L 1984 4856 
z
" id="DejaVuSans-28" transform="scale(0.015625)"/>
       <path d="M 2834 3397 
L 2834 2853 
Q 2591 2978 2328 3040 
Q 2066 3103 1784 3103 
Q 1356 3103 1142 2972 
Q 928 2841 928 2578 
Q 928 2378 1081 2264 
Q 1234 2150 1697 2047 
L 1894 2003 
Q 2506 1872 2764 1633 
Q 3022 1394 3022 966 
Q 3022 478 2636 193 
Q 2250 -91 1575 -91 
Q 1294 -91 989 -36 
Q 684 19 347 128 
L 347 722 
Q 666 556 975 473 
Q 1284 391 1588 391 
Q 1994 391 2212 530 
Q 2431 669 2431 922 
Q 2431 1156 2273 1281 
Q 2116 1406 1581 1522 
L 1381 1569 
Q 847 1681 609 1914 
Q 372 2147 372 2553 
Q 372 3047 722 3315 
Q 1072 3584 1716 3584 
Q 2034 3584 2315 3537 
Q 2597 3491 2834 3397 
z
" id="DejaVuSans-73" transform="scale(0.015625)"/>
       <path d="M 3122 3366 
L 3122 2828 
Q 2878 2963 2633 3030 
Q 2388 3097 2138 3097 
Q 1578 3097 1268 2742 
Q 959 2388 959 1747 
Q 959 1106 1268 751 
Q 1578 397 2138 397 
Q 2388 397 2633 464 
Q 2878 531 3122 666 
L 3122 134 
Q 2881 22 2623 -34 
Q 2366 -91 2075 -91 
Q 1284 -91 818 406 
Q 353 903 353 1747 
Q 353 2603 823 3093 
Q 1294 3584 2113 3584 
Q 2378 3584 2631 3529 
Q 2884 3475 3122 3366 
z
" id="DejaVuSans-63" transform="scale(0.015625)"/>
       <path d="M 513 4856 
L 1013 4856 
Q 1481 4119 1714 3412 
Q 1947 2706 1947 2009 
Q 1947 1309 1714 600 
Q 1481 -109 1013 -844 
L 513 -844 
Q 928 -128 1133 580 
Q 1338 1288 1338 2009 
Q 1338 2731 1133 3434 
Q 928 4138 513 4856 
z
" id="DejaVuSans-29" transform="scale(0.015625)"/>
      </defs>
      <use xlink:href="#DejaVuSans-54"/>
      <use x="57.958984" xlink:href="#DejaVuSans-69"/>
      <use x="85.742188" xlink:href="#DejaVuSans-6d"/>
      <use x="183.154297" xlink:href="#DejaVuSans-65"/>
      <use x="244.677734" xlink:href="#DejaVuSans-20"/>
      <use x="276.464844" xlink:href="#DejaVuSans-74"/>
      <use x="315.673828" xlink:href="#DejaVuSans-61"/>
      <use x="376.953125" xlink:href="#DejaVuSans-6b"/>
      <use x="431.238281" xlink:href="#DejaVuSans-65"/>
      <use x="492.761719" xlink:href="#DejaVuSans-6e"/>
      <use x="556.140625" xlink:href="#DejaVuSans-20"/>
      <use x="587.927734" xlink:href="#DejaVuSans-28"/>
      <use x="626.941406" xlink:href="#DejaVuSans-73"/>
      <use x="679.041016" xlink:href="#DejaVuSans-65"/>
      <use x="740.564453" xlink:href="#DejaVuSans-63"/>
      <use x="795.544922" xlink:href="#DejaVuSans-29"/>
     </g>
    </g>
   </g>
   <g id="matplotlib.axis_2">
    <g id="ytick_1">
     <g id="line2d_6">
      <defs>
       <path d="M 0 0 
L -3.5 0 
" id="m7f84c76bcb" style="stroke:#000000;stroke-width:0.8;"/>
      </defs>
      <g>
       <use style="stroke:#000000;stroke-width:0.8;" x="166.32" xlink:href="#m7f84c76bcb" y="624.1392"/>
      </g>
     </g>
     <g id="text_7">
      <!-- 0.0 -->
      <g transform="translate(143.416875 627.938419)scale(0.1 -0.1)">
       <defs>
        <path d="M 684 794 
L 1344 794 
L 1344 0 
L 684 0 
L 684 794 
z
" id="DejaVuSans-2e" transform="scale(0.015625)"/>
       </defs>
       <use xlink:href="#DejaVuSans-30"/>
       <use x="63.623047" xlink:href="#DejaVuSans-2e"/>
       <use x="95.410156" xlink:href="#DejaVuSans-30"/>
      </g>
     </g>
    </g>
    <g id="ytick_2">
     <g id="line2d_7">
      <g>
       <use style="stroke:#000000;stroke-width:0.8;" x="166.32" xlink:href="#m7f84c76bcb" y="524.864667"/>
      </g>
     </g>
     <g id="text_8">
      <!-- 0.1 -->
      <g transform="translate(143.416875 528.663886)scale(0.1 -0.1)">
       <use xlink:href="#DejaVuSans-30"/>
       <use x="63.623047" xlink:href="#DejaVuSans-2e"/>
       <use x="95.410156" xlink:href="#DejaVuSans-31"/>
      </g>
     </g>
    </g>
    <g id="ytick_3">
     <g id="line2d_8">
      <g>
       <use style="stroke:#000000;stroke-width:0.8;" x="166.32" xlink:href="#m7f84c76bcb" y="425.590134"/>
      </g>
     </g>
     <g id="text_9">
      <!-- 0.2 -->
      <g transform="translate(143.416875 429.389353)scale(0.1 -0.1)">
       <defs>
        <path d="M 1228 531 
L 3431 531 
L 3431 0 
L 469 0 
L 469 531 
Q 828 903 1448 1529 
Q 2069 2156 2228 2338 
Q 2531 2678 2651 2914 
Q 2772 3150 2772 3378 
Q 2772 3750 2511 3984 
Q 2250 4219 1831 4219 
Q 1534 4219 1204 4116 
Q 875 4013 500 3803 
L 500 4441 
Q 881 4594 1212 4672 
Q 1544 4750 1819 4750 
Q 2544 4750 2975 4387 
Q 3406 4025 3406 3419 
Q 3406 3131 3298 2873 
Q 3191 2616 2906 2266 
Q 2828 2175 2409 1742 
Q 1991 1309 1228 531 
z
" id="DejaVuSans-32" transform="scale(0.015625)"/>
       </defs>
       <use xlink:href="#DejaVuSans-30"/>
       <use x="63.623047" xlink:href="#DejaVuSans-2e"/>
       <use x="95.410156" xlink:href="#DejaVuSans-32"/>
      </g>
     </g>
    </g>
    <g id="ytick_4">
     <g id="line2d_9">
      <g>
       <use style="stroke:#000000;stroke-width:0.8;" x="166.32" xlink:href="#m7f84c76bcb" y="326.315601"/>
      </g>
     </g>
     <g id="text_10">
      <!-- 0.3 -->
      <g transform="translate(143.416875 330.11482)scale(0.1 -0.1)">
       <use xlink:href="#DejaVuSans-30"/>
       <use x="63.623047" xlink:href="#DejaVuSans-2e"/>
       <use x="95.410156" xlink:href="#DejaVuSans-33"/>
      </g>
     </g>
    </g>
    <g id="ytick_5">
     <g id="line2d_10">
      <g>
       <use style="stroke:#000000;stroke-width:0.8;" x="166.32" xlink:href="#m7f84c76bcb" y="227.041068"/>
      </g>
     </g>
     <g id="text_11">
      <!-- 0.4 -->
      <g transform="translate(143.416875 230.840287)scale(0.1 -0.1)">
       <use xlink:href="#DejaVuSans-30"/>
       <use x="63.623047" xlink:href="#DejaVuSans-2e"/>
       <use x="95.410156" xlink:href="#DejaVuSans-34"/>
      </g>
     </g>
    </g>
    <g id="ytick_6">
     <g id="line2d_11">
      <g>
       <use style="stroke:#000000;stroke-width:0.8;" x="166.32" xlink:href="#m7f84c76bcb" y="127.766535"/>
      </g>
     </g>
     <g id="text_12">
      <!-- 0.5 -->
      <g transform="translate(143.416875 131.565754)scale(0.1 -0.1)">
       <use xlink:href="#DejaVuSans-30"/>
       <use x="63.623047" xlink:href="#DejaVuSans-2e"/>
       <use x="95.410156" xlink:href="#DejaVuSans-35"/>
      </g>
     </g>
    </g>
    <g id="text_13">
     <!-- Accuracy -->
     <g transform="translate(137.337187 376.974525)rotate(-90)scale(0.1 -0.1)">
      <defs>
       <path d="M 2188 4044 
L 1331 1722 
L 3047 1722 
L 2188 4044 
z
M 1831 4666 
L 2547 4666 
L 4325 0 
L 3669 0 
L 3244 1197 
L 1141 1197 
L 716 0 
L 50 0 
L 1831 4666 
z
" id="DejaVuSans-41" transform="scale(0.015625)"/>
       <path d="M 544 1381 
L 544 3500 
L 1119 3500 
L 1119 1403 
Q 1119 906 1312 657 
Q 1506 409 1894 409 
Q 2359 409 2629 706 
Q 2900 1003 2900 1516 
L 2900 3500 
L 3475 3500 
L 3475 0 
L 2900 0 
L 2900 538 
Q 2691 219 2414 64 
Q 2138 -91 1772 -91 
Q 1169 -91 856 284 
Q 544 659 544 1381 
z
M 1991 3584 
L 1991 3584 
z
" id="DejaVuSans-75" transform="scale(0.015625)"/>
       <path d="M 2631 2963 
Q 2534 3019 2420 3045 
Q 2306 3072 2169 3072 
Q 1681 3072 1420 2755 
Q 1159 2438 1159 1844 
L 1159 0 
L 581 0 
L 581 3500 
L 1159 3500 
L 1159 2956 
Q 1341 3275 1631 3429 
Q 1922 3584 2338 3584 
Q 2397 3584 2469 3576 
Q 2541 3569 2628 3553 
L 2631 2963 
z
" id="DejaVuSans-72" transform="scale(0.015625)"/>
       <path d="M 2059 -325 
Q 1816 -950 1584 -1140 
Q 1353 -1331 966 -1331 
L 506 -1331 
L 506 -850 
L 844 -850 
Q 1081 -850 1212 -737 
Q 1344 -625 1503 -206 
L 1606 56 
L 191 3500 
L 800 3500 
L 1894 763 
L 2988 3500 
L 3597 3500 
L 2059 -325 
z
" id="DejaVuSans-79" transform="scale(0.015625)"/>
      </defs>
      <use xlink:href="#DejaVuSans-41"/>
      <use x="66.658203" xlink:href="#DejaVuSans-63"/>
      <use x="121.638672" xlink:href="#DejaVuSans-63"/>
      <use x="176.619141" xlink:href="#DejaVuSans-75"/>
      <use x="239.998047" xlink:href="#DejaVuSans-72"/>
      <use x="281.111328" xlink:href="#DejaVuSans-61"/>
      <use x="342.390625" xlink:href="#DejaVuSans-63"/>
      <use x="397.371094" xlink:href="#DejaVuSans-79"/>
     </g>
    </g>
   </g>
   <g id="line2d_12">
    <path clip-path="url(#p74fb523956)" d="M 216.932359 446.205355 
L 224.534676 439.210953 
L 228.734933 432.906686 
L 231.986592 427.246513 
L 235.801976 422.184396 
L 239.826109 417.674297 
L 247.151837 410.125993 
L 257.894422 401.792689 
L 266.200734 397.6928 
L 270.159848 395.941432 
L 274.198429 394.32773 
L 278.395524 392.805656 
L 285.629147 391.679261 
L 290.132172 387.890502 
L 293.984519 385.597275 
L 300.919992 383.390333 
L 307.997035 382.977711 
L 311.450804 381.101809 
L 318.561049 376.556991 
L 322.370457 375.095299 
L 326.410244 367.485219 
L 333.351403 366.722188 
L 340.278885 361.132047 
L 343.085119 356.734971 
L 346.165407 350.483896 
L 353.637525 345.133482 
L 356.821872 343.006228 
L 364.176532 333.278344 
L 371.088515 332.76721 
L 375.761341 326.060196 
L 382.668326 321.395197 
L 387.158472 315.280217 
L 390.38679 309.298269 
L 394.887806 304.131058 
L 399.581298 300.279537 
L 406.529221 296.299143 
L 410.351435 298.266461 
L 413.966509 293.91576 
L 417.272838 298.326315 
L 421.296265 300.570967 
L 433.077676 311.675053 
L 436.391016 316.692536 
L 440.890918 316.665842 
L 444.754924 320.384179 
L 452.046359 320.508188 
L 456.516097 324.770681 
L 460.337986 324.724651 
L 464.98542 319.350797 
L 468.773343 317.296305 
L 473.689554 318.036936 
L 476.916782 316.489758 
L 480.96265 317.738004 
L 489.082082 318.909651 
L 492.923412 316.286486 
L 497.13413 312.317412 
L 504.246907 307.651915 
L 508.288064 307.043473 
L 513.265053 297.498209 
L 516.723902 291.42988 
L 520.766374 284.625763 
L 524.019093 278.625216 
L 528.724864 273.277626 
L 532.739276 264.443563 
L 536.573935 262.439189 
L 540.398133 265.10136 
L 544.918234 261.008265 
L 558.831583 261.863997 
L 562.766639 264.570221 
L 569.857095 265.68785 
L 574.419096 260.585133 
L 578.863068 258.229534 
L 582.903706 256.901559 
L 586.183122 249.976033 
L 593.140775 248.274818 
L 597.643936 245.322166 
L 601.99249 239.457085 
L 605.975046 238.317862 
L 610.672267 241.309186 
L 614.735177 241.109958 
L 618.228753 244.255249 
L 621.524212 245.05363 
L 628.616171 243.209017 
L 632.470819 241.095106 
L 636.226147 243.210562 
L 643.154864 241.596111 
L 650.439011 240.076362 
L 657.340575 240.670494 
L 659.58033 244.062799 
L 663.403613 244.843027 
L 667.708136 244.927669 
L 671.547778 239.503972 
L 678.505807 243.191176 
L 681.971715 244.381834 
L 686.706907 245.40775 
L 693.601759 246.760189 
L 697.132256 245.050948 
L 704.071828 242.04684 
L 711.064169 244.180734 
L 714.716583 244.90119 
L 721.76962 244.006164 
L 726.296331 240.816036 
L 729.542375 240.757225 
L 736.451933 241.245929 
L 740.452872 238.952101 
L 744.968692 234.052703 
L 749.210308 230.250329 
L 756.30177 230.447228 
L 759.328565 228.243092 
L 763.13714 226.766046 
L 767.139251 228.625356 
L 770.978534 227.082458 
L 775.452995 228.130903 
L 778.650545 229.567739 
L 785.580449 226.536441 
L 792.502651 226.35669 
L 799.372315 228.181236 
L 803.677386 223.666201 
L 807.73962 213.076959 
L 811.178321 209.670168 
L 814.424935 206.165406 
L 821.310724 211.095011 
L 825.16147 210.87721 
L 828.413894 209.218122 
L 835.342555 213.359513 
L 839.798783 213.831761 
L 843.067163 217.435147 
L 849.999714 224.071251 
L 856.885945 225.857791 
L 861.609367 232.37557 
L 865.373681 235.684818 
L 872.302872 238.096802 
L 876.730834 239.763893 
L 880.556968 239.645729 
L 885.230578 238.676714 
L 889.034172 237.498383 
L 893.733932 236.328569 
L 898.212802 239.847904 
L 900.610961 242.048331 
L 904.675354 244.447665 
L 908.488361 243.197742 
L 911.804094 241.29222 
L 915.120971 238.821888 
L 918.526273 236.681202 
L 925.915905 233.033306 
L 929.35995 229.728609 
L 932.828849 223.245371 
L 936.079957 213.887164 
L 943.03234 208.834713 
L 946.408842 211.339399 
L 950.231198 208.357188 
L 957.198663 204.475409 
L 962.185117 199.30733 
L 969.122905 192.643041 
L 972.832466 194.123839 
L 976.648281 193.594447 
L 981.356873 192.102404 
L 985.375516 193.511739 
L 992.514099 199.645699 
L 999.459979 205.774692 
L 1003.442147 206.010547 
L 1006.9247 208.19816 
L 1013.877973 209.188951 
L 1020.852699 207.212124 
L 1024.131146 209.631359 
L 1028.802279 209.59886 
L 1032.589178 213.502937 
L 1035.815085 217.193896 
L 1039.791062 217.071317 
L 1044.468774 213.22699 
L 1049.030616 210.771188 
L 1052.528626 210.604605 
L 1061.089519 208.518563 
L 1065.783538 206.762723 
L 1069.777113 202.129925 
L 1073.618306 195.401213 
L 1078.318814 193.378062 
L 1082.824803 188.374283 
L 1086.217955 183.569234 
L 1090.177238 179.106452 
L 1099.138949 171.781839 
L 1106.235528 169.207082 
L 1110.073582 167.548743 
L 1113.35112 166.950357 
L 1117.193585 167.555462 
L 1124.104105 169.507596 
L 1128.589494 172.950296 
L 1135.70377 178.0271 
L 1139.765174 184.881544 
L 1143.540303 193.657167 
L 1150.632 204.497505 
L 1150.632 204.497505 
" style="fill:none;stroke:#1f77b4;stroke-dasharray:9.6,2.4,1.5,2.4;stroke-dashoffset:0;stroke-width:1.5;"/>
   </g>
   <g id="line2d_13">
    <defs>
     <path d="M 3 0 
L -3 -3 
L -3 3 
z
" id="m108cb7d2c3" style="stroke:#ff7f0e;stroke-linejoin:miter;"/>
    </defs>
    <g clip-path="url(#p74fb523956)">
     <use style="fill:#ff7f0e;stroke:#ff7f0e;stroke-linejoin:miter;" x="213.972557" xlink:href="#m108cb7d2c3" y="429.72073"/>
     <use style="fill:#ff7f0e;stroke:#ff7f0e;stroke-linejoin:miter;" x="218.043243" xlink:href="#m108cb7d2c3" y="431.663109"/>
     <use style="fill:#ff7f0e;stroke:#ff7f0e;stroke-linejoin:miter;" x="220.6096" xlink:href="#m108cb7d2c3" y="432.980108"/>
     <use style="fill:#ff7f0e;stroke:#ff7f0e;stroke-linejoin:miter;" x="224.488819" xlink:href="#m108cb7d2c3" y="433.709764"/>
     <use style="fill:#ff7f0e;stroke:#ff7f0e;stroke-linejoin:miter;" x="227.610157" xlink:href="#m108cb7d2c3" y="433.890111"/>
     <use style="fill:#ff7f0e;stroke:#ff7f0e;stroke-linejoin:miter;" x="230.589126" xlink:href="#m108cb7d2c3" y="433.559184"/>
     <use style="fill:#ff7f0e;stroke:#ff7f0e;stroke-linejoin:miter;" x="234.57793" xlink:href="#m108cb7d2c3" y="432.755019"/>
     <use style="fill:#ff7f0e;stroke:#ff7f0e;stroke-linejoin:miter;" x="238.51565" xlink:href="#m108cb7d2c3" y="431.515651"/>
     <use style="fill:#ff7f0e;stroke:#ff7f0e;stroke-linejoin:miter;" x="240.406445" xlink:href="#m108cb7d2c3" y="429.879114"/>
     <use style="fill:#ff7f0e;stroke:#ff7f0e;stroke-linejoin:miter;" x="243.101978" xlink:href="#m108cb7d2c3" y="427.883445"/>
     <use style="fill:#ff7f0e;stroke:#ff7f0e;stroke-linejoin:miter;" x="246.615683" xlink:href="#m108cb7d2c3" y="425.566678"/>
     <use style="fill:#ff7f0e;stroke:#ff7f0e;stroke-linejoin:miter;" x="249.775802" xlink:href="#m108cb7d2c3" y="422.966848"/>
     <use style="fill:#ff7f0e;stroke:#ff7f0e;stroke-linejoin:miter;" x="252.027041" xlink:href="#m108cb7d2c3" y="420.12199"/>
     <use style="fill:#ff7f0e;stroke:#ff7f0e;stroke-linejoin:miter;" x="254.878483" xlink:href="#m108cb7d2c3" y="417.070141"/>
     <use style="fill:#ff7f0e;stroke:#ff7f0e;stroke-linejoin:miter;" x="257.114492" xlink:href="#m108cb7d2c3" y="413.849334"/>
     <use style="fill:#ff7f0e;stroke:#ff7f0e;stroke-linejoin:miter;" x="260.356568" xlink:href="#m108cb7d2c3" y="410.497605"/>
     <use style="fill:#ff7f0e;stroke:#ff7f0e;stroke-linejoin:miter;" x="263.364689" xlink:href="#m108cb7d2c3" y="406.847701"/>
     <use style="fill:#ff7f0e;stroke:#ff7f0e;stroke-linejoin:miter;" x="265.14415" xlink:href="#m108cb7d2c3" y="401.122281"/>
     <use style="fill:#ff7f0e;stroke:#ff7f0e;stroke-linejoin:miter;" x="268.646203" xlink:href="#m108cb7d2c3" y="394.183032"/>
     <use style="fill:#ff7f0e;stroke:#ff7f0e;stroke-linejoin:miter;" x="271.657385" xlink:href="#m108cb7d2c3" y="396.519006"/>
     <use style="fill:#ff7f0e;stroke:#ff7f0e;stroke-linejoin:miter;" x="274.640437" xlink:href="#m108cb7d2c3" y="393.735661"/>
     <use style="fill:#ff7f0e;stroke:#ff7f0e;stroke-linejoin:miter;" x="277.975022" xlink:href="#m108cb7d2c3" y="390.08779"/>
     <use style="fill:#ff7f0e;stroke:#ff7f0e;stroke-linejoin:miter;" x="281.293979" xlink:href="#m108cb7d2c3" y="391.164298"/>
     <use style="fill:#ff7f0e;stroke:#ff7f0e;stroke-linejoin:miter;" x="285.268514" xlink:href="#m108cb7d2c3" y="392.586484"/>
     <use style="fill:#ff7f0e;stroke:#ff7f0e;stroke-linejoin:miter;" x="289.111963" xlink:href="#m108cb7d2c3" y="393.190752"/>
     <use style="fill:#ff7f0e;stroke:#ff7f0e;stroke-linejoin:miter;" x="292.263041" xlink:href="#m108cb7d2c3" y="388.903817"/>
     <use style="fill:#ff7f0e;stroke:#ff7f0e;stroke-linejoin:miter;" x="295.636757" xlink:href="#m108cb7d2c3" y="386.616862"/>
     <use style="fill:#ff7f0e;stroke:#ff7f0e;stroke-linejoin:miter;" x="297.847281" xlink:href="#m108cb7d2c3" y="384.776357"/>
     <use style="fill:#ff7f0e;stroke:#ff7f0e;stroke-linejoin:miter;" x="300.996424" xlink:href="#m108cb7d2c3" y="381.703554"/>
     <use style="fill:#ff7f0e;stroke:#ff7f0e;stroke-linejoin:miter;" x="304.761636" xlink:href="#m108cb7d2c3" y="376.341449"/>
     <use style="fill:#ff7f0e;stroke:#ff7f0e;stroke-linejoin:miter;" x="307.413089" xlink:href="#m108cb7d2c3" y="374.814361"/>
     <use style="fill:#ff7f0e;stroke:#ff7f0e;stroke-linejoin:miter;" x="309.499595" xlink:href="#m108cb7d2c3" y="376.210597"/>
     <use style="fill:#ff7f0e;stroke:#ff7f0e;stroke-linejoin:miter;" x="312.935358" xlink:href="#m108cb7d2c3" y="367.823984"/>
     <use style="fill:#ff7f0e;stroke:#ff7f0e;stroke-linejoin:miter;" x="316.116944" xlink:href="#m108cb7d2c3" y="361.691341"/>
     <use style="fill:#ff7f0e;stroke:#ff7f0e;stroke-linejoin:miter;" x="319.113844" xlink:href="#m108cb7d2c3" y="364.13779"/>
     <use style="fill:#ff7f0e;stroke:#ff7f0e;stroke-linejoin:miter;" x="322.29438" xlink:href="#m108cb7d2c3" y="365.13311"/>
     <use style="fill:#ff7f0e;stroke:#ff7f0e;stroke-linejoin:miter;" x="325.776321" xlink:href="#m108cb7d2c3" y="362.07734"/>
     <use style="fill:#ff7f0e;stroke:#ff7f0e;stroke-linejoin:miter;" x="329.130659" xlink:href="#m108cb7d2c3" y="361.115852"/>
     <use style="fill:#ff7f0e;stroke:#ff7f0e;stroke-linejoin:miter;" x="332.915814" xlink:href="#m108cb7d2c3" y="362.159951"/>
     <use style="fill:#ff7f0e;stroke:#ff7f0e;stroke-linejoin:miter;" x="335.895759" xlink:href="#m108cb7d2c3" y="360.770482"/>
     <use style="fill:#ff7f0e;stroke:#ff7f0e;stroke-linejoin:miter;" x="338.166431" xlink:href="#m108cb7d2c3" y="360.592001"/>
     <use style="fill:#ff7f0e;stroke:#ff7f0e;stroke-linejoin:miter;" x="341.461754" xlink:href="#m108cb7d2c3" y="359.658174"/>
     <use style="fill:#ff7f0e;stroke:#ff7f0e;stroke-linejoin:miter;" x="344.788014" xlink:href="#m108cb7d2c3" y="360.719496"/>
     <use style="fill:#ff7f0e;stroke:#ff7f0e;stroke-linejoin:miter;" x="348.199753" xlink:href="#m108cb7d2c3" y="354.4307"/>
     <use style="fill:#ff7f0e;stroke:#ff7f0e;stroke-linejoin:miter;" x="351.422975" xlink:href="#m108cb7d2c3" y="349.775124"/>
     <use style="fill:#ff7f0e;stroke:#ff7f0e;stroke-linejoin:miter;" x="353.785477" xlink:href="#m108cb7d2c3" y="343.633701"/>
     <use style="fill:#ff7f0e;stroke:#ff7f0e;stroke-linejoin:miter;" x="356.016656" xlink:href="#m108cb7d2c3" y="340.413066"/>
     <use style="fill:#ff7f0e;stroke:#ff7f0e;stroke-linejoin:miter;" x="359.036549" xlink:href="#m108cb7d2c3" y="335.592776"/>
     <use style="fill:#ff7f0e;stroke:#ff7f0e;stroke-linejoin:miter;" x="361.739203" xlink:href="#m108cb7d2c3" y="333.926451"/>
     <use style="fill:#ff7f0e;stroke:#ff7f0e;stroke-linejoin:miter;" x="363.987537" xlink:href="#m108cb7d2c3" y="333.95696"/>
     <use style="fill:#ff7f0e;stroke:#ff7f0e;stroke-linejoin:miter;" x="366.495178" xlink:href="#m108cb7d2c3" y="330.908012"/>
     <use style="fill:#ff7f0e;stroke:#ff7f0e;stroke-linejoin:miter;" x="368.954187" xlink:href="#m108cb7d2c3" y="331.289261"/>
     <use style="fill:#ff7f0e;stroke:#ff7f0e;stroke-linejoin:miter;" x="372.067541" xlink:href="#m108cb7d2c3" y="330.017916"/>
     <use style="fill:#ff7f0e;stroke:#ff7f0e;stroke-linejoin:miter;" x="374.063381" xlink:href="#m108cb7d2c3" y="330.894252"/>
     <use style="fill:#ff7f0e;stroke:#ff7f0e;stroke-linejoin:miter;" x="376.464375" xlink:href="#m108cb7d2c3" y="326.057974"/>
     <use style="fill:#ff7f0e;stroke:#ff7f0e;stroke-linejoin:miter;" x="379.663654" xlink:href="#m108cb7d2c3" y="321.189563"/>
     <use style="fill:#ff7f0e;stroke:#ff7f0e;stroke-linejoin:miter;" x="382.818493" xlink:href="#m108cb7d2c3" y="314.526952"/>
     <use style="fill:#ff7f0e;stroke:#ff7f0e;stroke-linejoin:miter;" x="386.127141" xlink:href="#m108cb7d2c3" y="307.979689"/>
     <use style="fill:#ff7f0e;stroke:#ff7f0e;stroke-linejoin:miter;" x="388.819352" xlink:href="#m108cb7d2c3" y="305.335288"/>
     <use style="fill:#ff7f0e;stroke:#ff7f0e;stroke-linejoin:miter;" x="391.082115" xlink:href="#m108cb7d2c3" y="305.810191"/>
     <use style="fill:#ff7f0e;stroke:#ff7f0e;stroke-linejoin:miter;" x="394.856184" xlink:href="#m108cb7d2c3" y="299.991351"/>
     <use style="fill:#ff7f0e;stroke:#ff7f0e;stroke-linejoin:miter;" x="397.105734" xlink:href="#m108cb7d2c3" y="298.655133"/>
     <use style="fill:#ff7f0e;stroke:#ff7f0e;stroke-linejoin:miter;" x="400.885645" xlink:href="#m108cb7d2c3" y="292.461691"/>
     <use style="fill:#ff7f0e;stroke:#ff7f0e;stroke-linejoin:miter;" x="403.890576" xlink:href="#m108cb7d2c3" y="285.768961"/>
     <use style="fill:#ff7f0e;stroke:#ff7f0e;stroke-linejoin:miter;" x="405.996965" xlink:href="#m108cb7d2c3" y="282.409551"/>
     <use style="fill:#ff7f0e;stroke:#ff7f0e;stroke-linejoin:miter;" x="408.015015" xlink:href="#m108cb7d2c3" y="279.89235"/>
     <use style="fill:#ff7f0e;stroke:#ff7f0e;stroke-linejoin:miter;" x="410.649295" xlink:href="#m108cb7d2c3" y="282.888874"/>
     <use style="fill:#ff7f0e;stroke:#ff7f0e;stroke-linejoin:miter;" x="414.090372" xlink:href="#m108cb7d2c3" y="289.412396"/>
     <use style="fill:#ff7f0e;stroke:#ff7f0e;stroke-linejoin:miter;" x="417.296905" xlink:href="#m108cb7d2c3" y="293.977901"/>
     <use style="fill:#ff7f0e;stroke:#ff7f0e;stroke-linejoin:miter;" x="420.428465" xlink:href="#m108cb7d2c3" y="291.963817"/>
     <use style="fill:#ff7f0e;stroke:#ff7f0e;stroke-linejoin:miter;" x="423.443217" xlink:href="#m108cb7d2c3" y="294.544975"/>
     <use style="fill:#ff7f0e;stroke:#ff7f0e;stroke-linejoin:miter;" x="426.923342" xlink:href="#m108cb7d2c3" y="295.07063"/>
     <use style="fill:#ff7f0e;stroke:#ff7f0e;stroke-linejoin:miter;" x="429.015825" xlink:href="#m108cb7d2c3" y="297.238334"/>
     <use style="fill:#ff7f0e;stroke:#ff7f0e;stroke-linejoin:miter;" x="432.194921" xlink:href="#m108cb7d2c3" y="293.774281"/>
     <use style="fill:#ff7f0e;stroke:#ff7f0e;stroke-linejoin:miter;" x="434.692981" xlink:href="#m108cb7d2c3" y="293.013339"/>
     <use style="fill:#ff7f0e;stroke:#ff7f0e;stroke-linejoin:miter;" x="438.124183" xlink:href="#m108cb7d2c3" y="289.101783"/>
     <use style="fill:#ff7f0e;stroke:#ff7f0e;stroke-linejoin:miter;" x="440.618224" xlink:href="#m108cb7d2c3" y="288.424481"/>
     <use style="fill:#ff7f0e;stroke:#ff7f0e;stroke-linejoin:miter;" x="443.105202" xlink:href="#m108cb7d2c3" y="284.717043"/>
     <use style="fill:#ff7f0e;stroke:#ff7f0e;stroke-linejoin:miter;" x="446.327043" xlink:href="#m108cb7d2c3" y="281.59089"/>
     <use style="fill:#ff7f0e;stroke:#ff7f0e;stroke-linejoin:miter;" x="449.49542" xlink:href="#m108cb7d2c3" y="277.655087"/>
     <use style="fill:#ff7f0e;stroke:#ff7f0e;stroke-linejoin:miter;" x="451.30325" xlink:href="#m108cb7d2c3" y="273.698522"/>
     <use style="fill:#ff7f0e;stroke:#ff7f0e;stroke-linejoin:miter;" x="454.545631" xlink:href="#m108cb7d2c3" y="269.634169"/>
     <use style="fill:#ff7f0e;stroke:#ff7f0e;stroke-linejoin:miter;" x="457.714969" xlink:href="#m108cb7d2c3" y="264.504865"/>
     <use style="fill:#ff7f0e;stroke:#ff7f0e;stroke-linejoin:miter;" x="460.907888" xlink:href="#m108cb7d2c3" y="259.325455"/>
     <use style="fill:#ff7f0e;stroke:#ff7f0e;stroke-linejoin:miter;" x="463.70118" xlink:href="#m108cb7d2c3" y="253.215948"/>
     <use style="fill:#ff7f0e;stroke:#ff7f0e;stroke-linejoin:miter;" x="466.180159" xlink:href="#m108cb7d2c3" y="248.675754"/>
     <use style="fill:#ff7f0e;stroke:#ff7f0e;stroke-linejoin:miter;" x="468.402909" xlink:href="#m108cb7d2c3" y="245.682622"/>
     <use style="fill:#ff7f0e;stroke:#ff7f0e;stroke-linejoin:miter;" x="470.49915" xlink:href="#m108cb7d2c3" y="239.611488"/>
     <use style="fill:#ff7f0e;stroke:#ff7f0e;stroke-linejoin:miter;" x="473.272963" xlink:href="#m108cb7d2c3" y="234.525403"/>
     <use style="fill:#ff7f0e;stroke:#ff7f0e;stroke-linejoin:miter;" x="476.385694" xlink:href="#m108cb7d2c3" y="229.414803"/>
     <use style="fill:#ff7f0e;stroke:#ff7f0e;stroke-linejoin:miter;" x="478.869175" xlink:href="#m108cb7d2c3" y="225.633232"/>
     <use style="fill:#ff7f0e;stroke:#ff7f0e;stroke-linejoin:miter;" x="481.11273" xlink:href="#m108cb7d2c3" y="222.72511"/>
     <use style="fill:#ff7f0e;stroke:#ff7f0e;stroke-linejoin:miter;" x="483.744921" xlink:href="#m108cb7d2c3" y="216.009999"/>
     <use style="fill:#ff7f0e;stroke:#ff7f0e;stroke-linejoin:miter;" x="486.188131" xlink:href="#m108cb7d2c3" y="210.677487"/>
     <use style="fill:#ff7f0e;stroke:#ff7f0e;stroke-linejoin:miter;" x="489.463366" xlink:href="#m108cb7d2c3" y="218.576141"/>
     <use style="fill:#ff7f0e;stroke:#ff7f0e;stroke-linejoin:miter;" x="492.249347" xlink:href="#m108cb7d2c3" y="224.543065"/>
     <use style="fill:#ff7f0e;stroke:#ff7f0e;stroke-linejoin:miter;" x="495.739279" xlink:href="#m108cb7d2c3" y="231.697972"/>
     <use style="fill:#ff7f0e;stroke:#ff7f0e;stroke-linejoin:miter;" x="497.83424" xlink:href="#m108cb7d2c3" y="232.056279"/>
     <use style="fill:#ff7f0e;stroke:#ff7f0e;stroke-linejoin:miter;" x="501.070868" xlink:href="#m108cb7d2c3" y="231.355931"/>
     <use style="fill:#ff7f0e;stroke:#ff7f0e;stroke-linejoin:miter;" x="503.201941" xlink:href="#m108cb7d2c3" y="231.045436"/>
     <use style="fill:#ff7f0e;stroke:#ff7f0e;stroke-linejoin:miter;" x="506.199277" xlink:href="#m108cb7d2c3" y="233.864416"/>
     <use style="fill:#ff7f0e;stroke:#ff7f0e;stroke-linejoin:miter;" x="508.468367" xlink:href="#m108cb7d2c3" y="235.291893"/>
     <use style="fill:#ff7f0e;stroke:#ff7f0e;stroke-linejoin:miter;" x="510.999584" xlink:href="#m108cb7d2c3" y="235.816531"/>
     <use style="fill:#ff7f0e;stroke:#ff7f0e;stroke-linejoin:miter;" x="514.79014" xlink:href="#m108cb7d2c3" y="235.142567"/>
     <use style="fill:#ff7f0e;stroke:#ff7f0e;stroke-linejoin:miter;" x="518.79864" xlink:href="#m108cb7d2c3" y="232.565004"/>
     <use style="fill:#ff7f0e;stroke:#ff7f0e;stroke-linejoin:miter;" x="521.280938" xlink:href="#m108cb7d2c3" y="229.95214"/>
     <use style="fill:#ff7f0e;stroke:#ff7f0e;stroke-linejoin:miter;" x="524.700139" xlink:href="#m108cb7d2c3" y="226.711293"/>
     <use style="fill:#ff7f0e;stroke:#ff7f0e;stroke-linejoin:miter;" x="527.355746" xlink:href="#m108cb7d2c3" y="223.370583"/>
     <use style="fill:#ff7f0e;stroke:#ff7f0e;stroke-linejoin:miter;" x="531.132323" xlink:href="#m108cb7d2c3" y="221.212652"/>
     <use style="fill:#ff7f0e;stroke:#ff7f0e;stroke-linejoin:miter;" x="533.674698" xlink:href="#m108cb7d2c3" y="215.540404"/>
     <use style="fill:#ff7f0e;stroke:#ff7f0e;stroke-linejoin:miter;" x="536.137299" xlink:href="#m108cb7d2c3" y="212.457438"/>
     <use style="fill:#ff7f0e;stroke:#ff7f0e;stroke-linejoin:miter;" x="538.329286" xlink:href="#m108cb7d2c3" y="208.55812"/>
     <use style="fill:#ff7f0e;stroke:#ff7f0e;stroke-linejoin:miter;" x="540.773456" xlink:href="#m108cb7d2c3" y="210.548097"/>
     <use style="fill:#ff7f0e;stroke:#ff7f0e;stroke-linejoin:miter;" x="544.463764" xlink:href="#m108cb7d2c3" y="204.817464"/>
     <use style="fill:#ff7f0e;stroke:#ff7f0e;stroke-linejoin:miter;" x="547.562935" xlink:href="#m108cb7d2c3" y="204.160744"/>
     <use style="fill:#ff7f0e;stroke:#ff7f0e;stroke-linejoin:miter;" x="551.058831" xlink:href="#m108cb7d2c3" y="203.360878"/>
     <use style="fill:#ff7f0e;stroke:#ff7f0e;stroke-linejoin:miter;" x="553.532778" xlink:href="#m108cb7d2c3" y="196.614993"/>
     <use style="fill:#ff7f0e;stroke:#ff7f0e;stroke-linejoin:miter;" x="555.681819" xlink:href="#m108cb7d2c3" y="194.744016"/>
     <use style="fill:#ff7f0e;stroke:#ff7f0e;stroke-linejoin:miter;" x="559.412987" xlink:href="#m108cb7d2c3" y="194.805727"/>
     <use style="fill:#ff7f0e;stroke:#ff7f0e;stroke-linejoin:miter;" x="563.278873" xlink:href="#m108cb7d2c3" y="197.607251"/>
     <use style="fill:#ff7f0e;stroke:#ff7f0e;stroke-linejoin:miter;" x="566.774141" xlink:href="#m108cb7d2c3" y="196.864765"/>
     <use style="fill:#ff7f0e;stroke:#ff7f0e;stroke-linejoin:miter;" x="570.298499" xlink:href="#m108cb7d2c3" y="194.591007"/>
     <use style="fill:#ff7f0e;stroke:#ff7f0e;stroke-linejoin:miter;" x="573.593404" xlink:href="#m108cb7d2c3" y="193.984161"/>
     <use style="fill:#ff7f0e;stroke:#ff7f0e;stroke-linejoin:miter;" x="577.598499" xlink:href="#m108cb7d2c3" y="198.234566"/>
     <use style="fill:#ff7f0e;stroke:#ff7f0e;stroke-linejoin:miter;" x="579.809227" xlink:href="#m108cb7d2c3" y="198.643656"/>
     <use style="fill:#ff7f0e;stroke:#ff7f0e;stroke-linejoin:miter;" x="583.301352" xlink:href="#m108cb7d2c3" y="198.460851"/>
     <use style="fill:#ff7f0e;stroke:#ff7f0e;stroke-linejoin:miter;" x="586.517285" xlink:href="#m108cb7d2c3" y="195.48257"/>
     <use style="fill:#ff7f0e;stroke:#ff7f0e;stroke-linejoin:miter;" x="588.784623" xlink:href="#m108cb7d2c3" y="192.41375"/>
     <use style="fill:#ff7f0e;stroke:#ff7f0e;stroke-linejoin:miter;" x="591.771516" xlink:href="#m108cb7d2c3" y="189.800724"/>
     <use style="fill:#ff7f0e;stroke:#ff7f0e;stroke-linejoin:miter;" x="594.102367" xlink:href="#m108cb7d2c3" y="187.047407"/>
     <use style="fill:#ff7f0e;stroke:#ff7f0e;stroke-linejoin:miter;" x="596.611869" xlink:href="#m108cb7d2c3" y="188.33607"/>
     <use style="fill:#ff7f0e;stroke:#ff7f0e;stroke-linejoin:miter;" x="600.072752" xlink:href="#m108cb7d2c3" y="186.594619"/>
     <use style="fill:#ff7f0e;stroke:#ff7f0e;stroke-linejoin:miter;" x="603.390443" xlink:href="#m108cb7d2c3" y="184.637268"/>
     <use style="fill:#ff7f0e;stroke:#ff7f0e;stroke-linejoin:miter;" x="606.861639" xlink:href="#m108cb7d2c3" y="182.483828"/>
     <use style="fill:#ff7f0e;stroke:#ff7f0e;stroke-linejoin:miter;" x="609.365409" xlink:href="#m108cb7d2c3" y="182.438496"/>
     <use style="fill:#ff7f0e;stroke:#ff7f0e;stroke-linejoin:miter;" x="612.761394" xlink:href="#m108cb7d2c3" y="183.921623"/>
     <use style="fill:#ff7f0e;stroke:#ff7f0e;stroke-linejoin:miter;" x="615.035092" xlink:href="#m108cb7d2c3" y="182.564172"/>
     <use style="fill:#ff7f0e;stroke:#ff7f0e;stroke-linejoin:miter;" x="618.068044" xlink:href="#m108cb7d2c3" y="181.936587"/>
     <use style="fill:#ff7f0e;stroke:#ff7f0e;stroke-linejoin:miter;" x="620.796022" xlink:href="#m108cb7d2c3" y="179.989254"/>
     <use style="fill:#ff7f0e;stroke:#ff7f0e;stroke-linejoin:miter;" x="623.993421" xlink:href="#m108cb7d2c3" y="179.087307"/>
     <use style="fill:#ff7f0e;stroke:#ff7f0e;stroke-linejoin:miter;" x="627.023306" xlink:href="#m108cb7d2c3" y="178.775283"/>
     <use style="fill:#ff7f0e;stroke:#ff7f0e;stroke-linejoin:miter;" x="630.315361" xlink:href="#m108cb7d2c3" y="177.431964"/>
     <use style="fill:#ff7f0e;stroke:#ff7f0e;stroke-linejoin:miter;" x="634.075632" xlink:href="#m108cb7d2c3" y="178.163359"/>
     <use style="fill:#ff7f0e;stroke:#ff7f0e;stroke-linejoin:miter;" x="636.75172" xlink:href="#m108cb7d2c3" y="175.362024"/>
     <use style="fill:#ff7f0e;stroke:#ff7f0e;stroke-linejoin:miter;" x="640.215088" xlink:href="#m108cb7d2c3" y="177.456872"/>
     <use style="fill:#ff7f0e;stroke:#ff7f0e;stroke-linejoin:miter;" x="644.5658" xlink:href="#m108cb7d2c3" y="175.620208"/>
     <use style="fill:#ff7f0e;stroke:#ff7f0e;stroke-linejoin:miter;" x="647.915955" xlink:href="#m108cb7d2c3" y="174.686272"/>
     <use style="fill:#ff7f0e;stroke:#ff7f0e;stroke-linejoin:miter;" x="651.129668" xlink:href="#m108cb7d2c3" y="177.22544"/>
     <use style="fill:#ff7f0e;stroke:#ff7f0e;stroke-linejoin:miter;" x="654.364791" xlink:href="#m108cb7d2c3" y="173.902693"/>
     <use style="fill:#ff7f0e;stroke:#ff7f0e;stroke-linejoin:miter;" x="657.72257" xlink:href="#m108cb7d2c3" y="172.359741"/>
     <use style="fill:#ff7f0e;stroke:#ff7f0e;stroke-linejoin:miter;" x="661.063379" xlink:href="#m108cb7d2c3" y="167.852754"/>
     <use style="fill:#ff7f0e;stroke:#ff7f0e;stroke-linejoin:miter;" x="663.922622" xlink:href="#m108cb7d2c3" y="167.690463"/>
     <use style="fill:#ff7f0e;stroke:#ff7f0e;stroke-linejoin:miter;" x="667.913659" xlink:href="#m108cb7d2c3" y="167.459204"/>
     <use style="fill:#ff7f0e;stroke:#ff7f0e;stroke-linejoin:miter;" x="670.293599" xlink:href="#m108cb7d2c3" y="165.608824"/>
     <use style="fill:#ff7f0e;stroke:#ff7f0e;stroke-linejoin:miter;" x="673.28617" xlink:href="#m108cb7d2c3" y="162.455524"/>
     <use style="fill:#ff7f0e;stroke:#ff7f0e;stroke-linejoin:miter;" x="675.947504" xlink:href="#m108cb7d2c3" y="158.527761"/>
     <use style="fill:#ff7f0e;stroke:#ff7f0e;stroke-linejoin:miter;" x="678.552518" xlink:href="#m108cb7d2c3" y="155.303654"/>
     <use style="fill:#ff7f0e;stroke:#ff7f0e;stroke-linejoin:miter;" x="682.036201" xlink:href="#m108cb7d2c3" y="152.988908"/>
     <use style="fill:#ff7f0e;stroke:#ff7f0e;stroke-linejoin:miter;" x="684.439678" xlink:href="#m108cb7d2c3" y="151.548692"/>
     <use style="fill:#ff7f0e;stroke:#ff7f0e;stroke-linejoin:miter;" x="686.515012" xlink:href="#m108cb7d2c3" y="150.884069"/>
     <use style="fill:#ff7f0e;stroke:#ff7f0e;stroke-linejoin:miter;" x="690.113776" xlink:href="#m108cb7d2c3" y="153.291103"/>
     <use style="fill:#ff7f0e;stroke:#ff7f0e;stroke-linejoin:miter;" x="692.340953" xlink:href="#m108cb7d2c3" y="152.753796"/>
     <use style="fill:#ff7f0e;stroke:#ff7f0e;stroke-linejoin:miter;" x="695.857337" xlink:href="#m108cb7d2c3" y="151.262749"/>
     <use style="fill:#ff7f0e;stroke:#ff7f0e;stroke-linejoin:miter;" x="700.144117" xlink:href="#m108cb7d2c3" y="154.234574"/>
     <use style="fill:#ff7f0e;stroke:#ff7f0e;stroke-linejoin:miter;" x="702.521344" xlink:href="#m108cb7d2c3" y="154.714656"/>
     <use style="fill:#ff7f0e;stroke:#ff7f0e;stroke-linejoin:miter;" x="705.549485" xlink:href="#m108cb7d2c3" y="154.23714"/>
     <use style="fill:#ff7f0e;stroke:#ff7f0e;stroke-linejoin:miter;" x="709.018983" xlink:href="#m108cb7d2c3" y="155.994491"/>
     <use style="fill:#ff7f0e;stroke:#ff7f0e;stroke-linejoin:miter;" x="712.163559" xlink:href="#m108cb7d2c3" y="158.79437"/>
     <use style="fill:#ff7f0e;stroke:#ff7f0e;stroke-linejoin:miter;" x="715.855037" xlink:href="#m108cb7d2c3" y="158.227436"/>
     <use style="fill:#ff7f0e;stroke:#ff7f0e;stroke-linejoin:miter;" x="718.865282" xlink:href="#m108cb7d2c3" y="159.76011"/>
     <use style="fill:#ff7f0e;stroke:#ff7f0e;stroke-linejoin:miter;" x="722.135867" xlink:href="#m108cb7d2c3" y="159.199203"/>
     <use style="fill:#ff7f0e;stroke:#ff7f0e;stroke-linejoin:miter;" x="724.62667" xlink:href="#m108cb7d2c3" y="156.495188"/>
     <use style="fill:#ff7f0e;stroke:#ff7f0e;stroke-linejoin:miter;" x="727.904278" xlink:href="#m108cb7d2c3" y="154.000181"/>
     <use style="fill:#ff7f0e;stroke:#ff7f0e;stroke-linejoin:miter;" x="730.896655" xlink:href="#m108cb7d2c3" y="156.287399"/>
     <use style="fill:#ff7f0e;stroke:#ff7f0e;stroke-linejoin:miter;" x="733.75801" xlink:href="#m108cb7d2c3" y="159.232775"/>
     <use style="fill:#ff7f0e;stroke:#ff7f0e;stroke-linejoin:miter;" x="736.120363" xlink:href="#m108cb7d2c3" y="159.61814"/>
     <use style="fill:#ff7f0e;stroke:#ff7f0e;stroke-linejoin:miter;" x="739.503213" xlink:href="#m108cb7d2c3" y="162.706279"/>
     <use style="fill:#ff7f0e;stroke:#ff7f0e;stroke-linejoin:miter;" x="741.989001" xlink:href="#m108cb7d2c3" y="162.013094"/>
     <use style="fill:#ff7f0e;stroke:#ff7f0e;stroke-linejoin:miter;" x="745.706345" xlink:href="#m108cb7d2c3" y="161.082641"/>
     <use style="fill:#ff7f0e;stroke:#ff7f0e;stroke-linejoin:miter;" x="749.132597" xlink:href="#m108cb7d2c3" y="160.888075"/>
     <use style="fill:#ff7f0e;stroke:#ff7f0e;stroke-linejoin:miter;" x="751.262333" xlink:href="#m108cb7d2c3" y="158.95065"/>
     <use style="fill:#ff7f0e;stroke:#ff7f0e;stroke-linejoin:miter;" x="754.935465" xlink:href="#m108cb7d2c3" y="157.962846"/>
     <use style="fill:#ff7f0e;stroke:#ff7f0e;stroke-linejoin:miter;" x="757.359794" xlink:href="#m108cb7d2c3" y="157.717391"/>
     <use style="fill:#ff7f0e;stroke:#ff7f0e;stroke-linejoin:miter;" x="760.474921" xlink:href="#m108cb7d2c3" y="158.043743"/>
     <use style="fill:#ff7f0e;stroke:#ff7f0e;stroke-linejoin:miter;" x="764.241897" xlink:href="#m108cb7d2c3" y="157.874561"/>
     <use style="fill:#ff7f0e;stroke:#ff7f0e;stroke-linejoin:miter;" x="767.568153" xlink:href="#m108cb7d2c3" y="157.298449"/>
     <use style="fill:#ff7f0e;stroke:#ff7f0e;stroke-linejoin:miter;" x="770.572615" xlink:href="#m108cb7d2c3" y="156.606798"/>
     <use style="fill:#ff7f0e;stroke:#ff7f0e;stroke-linejoin:miter;" x="772.331261" xlink:href="#m108cb7d2c3" y="155.784624"/>
     <use style="fill:#ff7f0e;stroke:#ff7f0e;stroke-linejoin:miter;" x="775.751118" xlink:href="#m108cb7d2c3" y="154.816944"/>
     <use style="fill:#ff7f0e;stroke:#ff7f0e;stroke-linejoin:miter;" x="779.285205" xlink:href="#m108cb7d2c3" y="153.688774"/>
     <use style="fill:#ff7f0e;stroke:#ff7f0e;stroke-linejoin:miter;" x="782.303068" xlink:href="#m108cb7d2c3" y="152.38513"/>
     <use style="fill:#ff7f0e;stroke:#ff7f0e;stroke-linejoin:miter;" x="784.000556" xlink:href="#m108cb7d2c3" y="150.891028"/>
     <use style="fill:#ff7f0e;stroke:#ff7f0e;stroke-linejoin:miter;" x="787.011015" xlink:href="#m108cb7d2c3" y="149.191484"/>
     <use style="fill:#ff7f0e;stroke:#ff7f0e;stroke-linejoin:miter;" x="789.532227" xlink:href="#m108cb7d2c3" y="147.271515"/>
     <use style="fill:#ff7f0e;stroke:#ff7f0e;stroke-linejoin:miter;" x="792.236156" xlink:href="#m108cb7d2c3" y="145.116138"/>
     <use style="fill:#ff7f0e;stroke:#ff7f0e;stroke-linejoin:miter;" x="795.224302" xlink:href="#m108cb7d2c3" y="142.710367"/>
     <use style="fill:#ff7f0e;stroke:#ff7f0e;stroke-linejoin:miter;" x="798.693943" xlink:href="#m108cb7d2c3" y="140.039219"/>
     <use style="fill:#ff7f0e;stroke:#ff7f0e;stroke-linejoin:miter;" x="802.645141" xlink:href="#m108cb7d2c3" y="137.087712"/>
     <use style="fill:#ff7f0e;stroke:#ff7f0e;stroke-linejoin:miter;" x="805.673173" xlink:href="#m108cb7d2c3" y="133.84086"/>
     <use style="fill:#ff7f0e;stroke:#ff7f0e;stroke-linejoin:miter;" x="807.920942" xlink:href="#m108cb7d2c3" y="130.28368"/>
    </g>
   </g>
   <g id="line2d_14">
    <path clip-path="url(#p74fb523956)" d="M 213.409684 512.553688 
L 215.701919 487.116006 
L 218.005258 465.785693 
L 220.878518 448.269586 
L 224.059837 434.274523 
L 227.2712 423.507343 
L 229.903013 415.674882 
L 233.020262 410.483979 
L 236.26247 407.641471 
L 239.490125 406.854196 
L 241.412265 407.828993 
L 243.760106 410.272697 
L 247.475542 413.892148 
L 250.745451 418.394183 
L 257.261731 428.873356 
L 260.729419 430.620734 
L 263.970263 436.623669 
L 265.932173 436.51326 
L 268.272925 433.28789 
L 271.955121 431.765132 
L 274.276345 432.243162 
L 276.351804 436.945958 
L 279.999945 434.96046 
L 283.45032 428.624841 
L 285.382169 430.745439 
L 287.601174 421.426817 
L 290.845828 422.031303 
L 292.616837 417.97334 
L 296.445474 403.13865 
L 298.419076 405.486312 
L 302.091605 394.681882 
L 304.069754 382.039707 
L 307.631126 381.90102 
L 310.855484 369.751298 
L 314.881736 365.086171 
L 317.448927 360.460152 
L 319.323207 362.44023 
L 322.509709 352.759232 
L 324.816572 358.194637 
L 326.594616 355.705399 
L 328.370091 349.850708 
L 330.487186 346.904408 
L 333.899446 341.882564 
L 337.579794 325.664594 
L 341.624565 324.498741 
L 343.595791 329.369243 
L 347.140455 327.566141 
L 348.935636 319.950555 
L 351.034165 318.245328 
L 353.379802 327.778843 
L 355.987107 317.883135 
L 358.117093 317.309892 
L 361.365337 317.05497 
L 364.75732 313.71758 
L 366.522241 312.439151 
L 369.725377 306.375332 
L 371.617264 306.729259 
L 374.490238 295.732198 
L 377.947225 297.659984 
L 381.216709 295.811774 
L 384.456931 293.0497 
L 387.837587 295.437578 
L 391.089505 286.090945 
L 393.617695 284.762787 
L 396.857737 287.166291 
L 400.253155 292.466507 
L 402.060629 286.66917 
L 403.761604 293.867199 
L 407.030237 294.156327 
L 410.234763 296.548071 
L 412.318603 289.649704 
L 415.613904 281.068056 
L 419.499426 283.465387 
L 421.253603 287.853154 
L 423.064592 295.170882 
L 426.933545 294.985341 
L 428.674073 293.175392 
L 432.054098 288.667777 
L 435.306901 286.348789 
L 438.533004 289.416769 
L 440.645253 288.740886 
L 444.333413 291.397722 
L 446.177411 290.704087 
L 448.748103 280.765136 
L 452.181836 280.809796 
L 454.438416 278.985669 
L 457.864865 283.26757 
L 461.289713 275.821539 
L 464.513219 275.04606 
L 466.849101 277.545863 
L 469.691682 273.348391 
L 476.127157 254.488245 
L 479.340406 258.563899 
L 482.743819 260.394465 
L 485.300876 256.172119 
L 488.976142 251.384721 
L 492.342892 247.845298 
L 494.490774 242.904039 
L 496.621028 240.105862 
L 499.215596 239.42756 
L 502.444074 239.240633 
L 505.673863 237.891485 
L 507.809105 238.737571 
L 509.921451 239.834922 
L 511.803655 239.520201 
L 516.025714 238.285437 
L 519.232851 231.675277 
L 521.13145 230.938302 
L 524.38566 232.743632 
L 527.273896 228.779991 
L 530.72149 218.952451 
L 533.953075 218.487418 
L 537.191953 220.006943 
L 541.201244 226.775393 
L 543.135838 225.519269 
L 546.35671 221.934677 
L 549.967317 216.083512 
L 553.192209 215.143765 
L 555.279586 214.078812 
L 558.516462 199.761537 
L 560.240721 193.338096 
L 564.12064 189.141541 
L 565.989254 188.313534 
L 569.430587 185.966047 
L 571.125055 179.927972 
L 573.248407 178.296558 
L 576.94303 176.184564 
L 578.984334 185.063319 
L 582.237769 185.55827 
L 584.24285 186.568583 
L 586.34412 182.045359 
L 590.393212 185.314889 
L 593.037141 192.445094 
L 594.765287 198.89743 
L 598.384689 197.962749 
L 600.484657 196.665116 
L 604.341995 198.084754 
L 608.041598 202.879581 
L 611.429229 200.688176 
L 614.725347 205.272065 
L 617.954048 199.715741 
L 621.177531 205.432326 
L 625.220158 216.198804 
L 628.457947 214.804058 
L 631.680094 210.841874 
L 635.966405 211.428509 
L 639.22253 207.948679 
L 642.476664 209.135726 
L 644.305831 202.482326 
L 647.667176 195.975037 
L 651.477341 199.20771 
L 653.358511 191.023607 
L 656.230489 191.55452 
L 659.439244 187.606821 
L 661.21044 183.848591 
L 664.902066 182.435133 
L 666.988535 179.22986 
L 669.632797 175.408432 
L 671.776068 172.676271 
L 675.499544 174.886547 
L 677.826751 174.249873 
L 681.262819 175.495475 
L 684.5231 167.538323 
L 687.935332 167.934164 
L 689.741114 162.747705 
L 691.850248 162.541362 
L 695.076465 164.871687 
L 697.189357 163.003014 
L 701.222476 158.206754 
L 704.115709 156.230058 
L 706.213246 152.461178 
L 709.385444 153.060581 
L 713.038859 154.300705 
L 716.440816 151.021963 
L 719.697043 149.833997 
L 721.482281 152.515424 
L 724.090274 153.578789 
L 727.934603 156.091358 
L 730.972263 150.901703 
L 733.501736 151.6702 
L 735.610484 149.62478 
L 737.498859 147.484107 
L 744.143252 148.05099 
L 748.25077 148.090219 
L 750.537401 147.859603 
L 753.904086 147.278863 
L 758.157518 144.745904 
L 760.035649 142.63313 
L 763.445767 139.849121 
L 765.27876 136.3136 
L 772.583219 126.666914 
L 775.989235 120.395192 
L 778.253314 113.050848 
L 780.394524 104.553604 
L 780.394524 104.553604 
" style="fill:none;stroke:#2ca02c;stroke-linecap:square;stroke-width:1.5;"/>
   </g>
   <g id="line2d_15">
    <path clip-path="url(#p74fb523956)" d="M 213.192 494.576063 
L 215.910287 471.337422 
L 223.044588 451.254877 
L 225.164622 434.126913 
L 228.37452 419.752014 
L 229.876031 407.928663 
L 236.980819 398.455346 
L 239.10177 391.130546 
L 246.198804 385.752747 
L 248.25761 382.120433 
L 251.483558 380.03209 
L 252.959976 379.2862 
L 255.686868 379.681248 
L 258.920429 381.015718 
L 260.377167 383.088095 
L 267.489363 385.696861 
L 269.596384 386.707914 
L 272.315794 392.302537 
L 273.759755 396.147676 
L 276.516172 390.952811 
L 277.994 393.596027 
L 280.699201 387.470092 
L 283.390912 392.233899 
L 286.651402 386.921187 
L 289.378578 389.622883 
L 292.641379 387.233827 
L 295.883166 388.394202 
L 299.163604 378.846593 
L 301.281705 379.835365 
L 304.525285 372.812067 
L 306.662287 360.352565 
L 308.148826 357.330713 
L 315.251296 355.414935 
L 317.394677 359.443743 
L 319.493701 355.407256 
L 321.600184 354.715299 
L 324.858202 350.381927 
L 326.958587 348.408904 
L 334.01698 350.485749 
L 337.264235 346.091571 
L 344.361038 348.535135 
L 351.436929 348.033472 
L 354.125801 343.821329 
L 356.22374 346.243449 
L 363.305073 349.13511 
L 366.046984 351.780144 
L 368.728265 356.628323 
L 370.828906 359.228038 
L 377.911328 356.188817 
L 381.1581 356.105169 
L 384.413237 358.937562 
L 386.51882 357.728128 
L 389.216126 359.213838 
L 390.711795 358.284654 
L 397.800222 355.725372 
L 400.494576 350.483026 
L 403.756408 346.697228 
L 406.490674 340.381495 
L 409.763635 339.403416 
L 416.81543 328.434757 
L 419.509682 325.173472 
L 421.661267 327.75025 
L 423.788894 324.306792 
L 427.034668 315.650685 
L 434.124258 307.081913 
L 436.239225 301.724522 
L 439.477088 302.193807 
L 442.220174 300.615715 
L 443.674521 298.872575 
L 450.746277 295.03453 
L 452.849456 290.467943 
L 454.97646 295.081981 
L 457.695589 290.656263 
L 460.94261 296.791616 
L 463.575889 299.715197 
L 465.680573 298.325778 
L 468.93793 305.89991 
L 476.045084 303.234203 
L 477.555335 296.695433 
L 484.65352 297.175103 
L 486.745954 292.487791 
L 491.457486 295.595654 
L 494.699112 295.940035 
L 496.828827 292.92063 
L 499.457796 295.603936 
L 500.951421 289.740208 
L 503.604983 288.859145 
L 505.078655 286.699751 
L 507.17667 286.471287 
L 514.275733 282.540594 
L 521.355477 279.453508 
L 528.442874 269.004931 
L 538.187007 263.433619 
L 540.861729 265.390214 
L 543.841185 261.987975 
L 545.35443 262.9037 
L 547.470681 265.968925 
L 549.608587 266.693062 
L 552.287943 271.281085 
L 554.4104 265.618999 
L 555.905952 269.841126 
L 557.376123 271.286407 
L 560.084317 268.379247 
L 562.237918 260.134041 
L 564.934016 254.575652 
L 567.580608 253.950024 
L 570.184749 252.753403 
L 572.722971 254.487478 
L 575.343229 257.153502 
L 577.98326 257.046452 
L 580.091439 250.400806 
L 582.176025 247.756871 
L 583.667743 242.716934 
L 585.162239 235.889942 
L 587.855948 238.013487 
L 590.839283 230.436568 
L 592.320182 224.345345 
L 594.899685 227.304775 
L 596.372871 227.56834 
L 597.880336 228.282671 
L 600.525253 230.208626 
L 602.589789 240.101261 
L 605.214944 242.532775 
L 606.699473 250.84202 
L 609.389012 257.981818 
L 610.846685 265.951892 
L 613.48625 271.256112 
L 616.086105 269.226549 
L 618.758553 270.498265 
L 621.42674 272.202316 
L 624.027931 275.173768 
L 626.722217 270.853801 
L 629.370443 270.776269 
L 630.839958 277.308102 
L 633.524519 277.882985 
L 636.149223 273.380146 
L 637.607841 272.649022 
L 640.183121 265.81052 
L 642.791114 262.194996 
L 645.464064 252.598272 
L 646.950948 247.800771 
L 648.425094 238.052526 
L 651.133071 230.607536 
L 652.60958 223.949037 
L 655.22709 216.247541 
L 656.686335 209.385677 
L 659.283511 202.801144 
L 662.245584 191.259369 
L 663.749712 180.738002 
L 665.228462 177.423373 
L 666.708406 172.537897 
L 668.221051 163.129476 
L 669.699878 160.67215 
L 671.150214 157.686223 
L 672.602477 156.34364 
L 674.084484 151.070352 
L 675.575986 144.020317 
L 677.079182 144.93087 
L 678.549442 140.90904 
L 680.026246 143.609857 
L 681.487037 142.821954 
L 682.937539 146.032173 
L 684.395559 146.397203 
L 685.895669 145.43558 
L 687.379628 145.451776 
L 688.794677 144.593269 
L 690.267872 144.71289 
L 691.735887 143.551584 
L 693.237538 144.237123 
L 694.72588 143.076112 
L 696.185514 144.392339 
L 697.675594 143.814273 
L 699.166603 145.245695 
L 700.656254 145.094871 
L 702.1147 146.696965 
L 703.62329 146.89762 
L 705.138851 148.34502 
L 706.600027 148.732523 
L 708.074126 150.388347 
L 709.508909 150.751208 
L 712.454927 153.022754 
L 715.382985 154.960573 
L 716.848731 155.727766 
L 718.334918 156.319644 
L 719.812396 156.70558 
L 721.280235 156.854947 
L 722.778202 156.737116 
L 724.269714 156.321461 
L 725.762218 155.577353 
L 727.209264 154.474166 
L 728.688757 152.981272 
L 730.175051 151.068042 
L 731.652005 148.703851 
L 731.652005 148.703851 
" style="fill:none;stroke:#d62728;stroke-dasharray:5.55,2.4;stroke-dashoffset:0;stroke-width:1.5;"/>
   </g>
   <g id="line2d_16">
    <defs>
     <path d="M -3 0 
L 3 0 
M 0 3 
L 0 -3 
" id="m4e5a94d7a0" style="stroke:#9467bd;"/>
    </defs>
    <g clip-path="url(#p74fb523956)">
     <use style="fill:#9467bd;stroke:#9467bd;" x="214.969139" xlink:href="#m4e5a94d7a0" y="423.25784"/>
     <use style="fill:#9467bd;stroke:#9467bd;" x="217.26612" xlink:href="#m4e5a94d7a0" y="428.357333"/>
     <use style="fill:#9467bd;stroke:#9467bd;" x="220.067363" xlink:href="#m4e5a94d7a0" y="432.827906"/>
     <use style="fill:#9467bd;stroke:#9467bd;" x="222.288835" xlink:href="#m4e5a94d7a0" y="436.695661"/>
     <use style="fill:#9467bd;stroke:#9467bd;" x="224.599216" xlink:href="#m4e5a94d7a0" y="439.986703"/>
     <use style="fill:#9467bd;stroke:#9467bd;" x="227.36006" xlink:href="#m4e5a94d7a0" y="442.727135"/>
     <use style="fill:#9467bd;stroke:#9467bd;" x="229.579133" xlink:href="#m4e5a94d7a0" y="444.943062"/>
     <use style="fill:#9467bd;stroke:#9467bd;" x="231.90975" xlink:href="#m4e5a94d7a0" y="446.660586"/>
     <use style="fill:#9467bd;stroke:#9467bd;" x="234.695096" xlink:href="#m4e5a94d7a0" y="447.905811"/>
     <use style="fill:#9467bd;stroke:#9467bd;" x="236.930595" xlink:href="#m4e5a94d7a0" y="448.704842"/>
     <use style="fill:#9467bd;stroke:#9467bd;" x="239.277223" xlink:href="#m4e5a94d7a0" y="449.083782"/>
     <use style="fill:#9467bd;stroke:#9467bd;" x="242.041415" xlink:href="#m4e5a94d7a0" y="449.068734"/>
     <use style="fill:#9467bd;stroke:#9467bd;" x="244.154136" xlink:href="#m4e5a94d7a0" y="448.685802"/>
     <use style="fill:#9467bd;stroke:#9467bd;" x="246.955213" xlink:href="#m4e5a94d7a0" y="447.961091"/>
     <use style="fill:#9467bd;stroke:#9467bd;" x="249.28465" xlink:href="#m4e5a94d7a0" y="446.920704"/>
     <use style="fill:#9467bd;stroke:#9467bd;" x="252.031621" xlink:href="#m4e5a94d7a0" y="445.590744"/>
     <use style="fill:#9467bd;stroke:#9467bd;" x="254.159467" xlink:href="#m4e5a94d7a0" y="443.331338"/>
     <use style="fill:#9467bd;stroke:#9467bd;" x="257.11857" xlink:href="#m4e5a94d7a0" y="439.55812"/>
     <use style="fill:#9467bd;stroke:#9467bd;" x="259.357996" xlink:href="#m4e5a94d7a0" y="444.342382"/>
     <use style="fill:#9467bd;stroke:#9467bd;" x="261.427525" xlink:href="#m4e5a94d7a0" y="433.999845"/>
     <use style="fill:#9467bd;stroke:#9467bd;" x="264.178524" xlink:href="#m4e5a94d7a0" y="435.35916"/>
     <use style="fill:#9467bd;stroke:#9467bd;" x="266.411475" xlink:href="#m4e5a94d7a0" y="434.670698"/>
     <use style="fill:#9467bd;stroke:#9467bd;" x="268.71055" xlink:href="#m4e5a94d7a0" y="430.871397"/>
     <use style="fill:#9467bd;stroke:#9467bd;" x="271.479219" xlink:href="#m4e5a94d7a0" y="426.832609"/>
     <use style="fill:#9467bd;stroke:#9467bd;" x="273.577616" xlink:href="#m4e5a94d7a0" y="430.151669"/>
     <use style="fill:#9467bd;stroke:#9467bd;" x="276.303761" xlink:href="#m4e5a94d7a0" y="418.703197"/>
     <use style="fill:#9467bd;stroke:#9467bd;" x="278.370624" xlink:href="#m4e5a94d7a0" y="419.862686"/>
     <use style="fill:#9467bd;stroke:#9467bd;" x="281.169583" xlink:href="#m4e5a94d7a0" y="410.650566"/>
     <use style="fill:#9467bd;stroke:#9467bd;" x="283.435306" xlink:href="#m4e5a94d7a0" y="411.484557"/>
     <use style="fill:#9467bd;stroke:#9467bd;" x="286.161025" xlink:href="#m4e5a94d7a0" y="401.785256"/>
     <use style="fill:#9467bd;stroke:#9467bd;" x="288.305369" xlink:href="#m4e5a94d7a0" y="394.016004"/>
     <use style="fill:#9467bd;stroke:#9467bd;" x="291.053028" xlink:href="#m4e5a94d7a0" y="389.077275"/>
     <use style="fill:#9467bd;stroke:#9467bd;" x="293.162776" xlink:href="#m4e5a94d7a0" y="394.994189"/>
     <use style="fill:#9467bd;stroke:#9467bd;" x="295.900794" xlink:href="#m4e5a94d7a0" y="393.352477"/>
     <use style="fill:#9467bd;stroke:#9467bd;" x="297.998281" xlink:href="#m4e5a94d7a0" y="385.778474"/>
     <use style="fill:#9467bd;stroke:#9467bd;" x="300.244809" xlink:href="#m4e5a94d7a0" y="385.567499"/>
     <use style="fill:#9467bd;stroke:#9467bd;" x="302.561477" xlink:href="#m4e5a94d7a0" y="393.560631"/>
     <use style="fill:#9467bd;stroke:#9467bd;" x="305.314937" xlink:href="#m4e5a94d7a0" y="389.168154"/>
     <use style="fill:#9467bd;stroke:#9467bd;" x="307.444473" xlink:href="#m4e5a94d7a0" y="398.795505"/>
     <use style="fill:#9467bd;stroke:#9467bd;" x="309.822701" xlink:href="#m4e5a94d7a0" y="396.18674"/>
     <use style="fill:#9467bd;stroke:#9467bd;" x="312.084037" xlink:href="#m4e5a94d7a0" y="406.040256"/>
     <use style="fill:#9467bd;stroke:#9467bd;" x="314.80976" xlink:href="#m4e5a94d7a0" y="405.936107"/>
     <use style="fill:#9467bd;stroke:#9467bd;" x="316.905113" xlink:href="#m4e5a94d7a0" y="408.897777"/>
     <use style="fill:#9467bd;stroke:#9467bd;" x="319.333428" xlink:href="#m4e5a94d7a0" y="409.905092"/>
     <use style="fill:#9467bd;stroke:#9467bd;" x="321.675524" xlink:href="#m4e5a94d7a0" y="413.395532"/>
     <use style="fill:#9467bd;stroke:#9467bd;" x="324.137669" xlink:href="#m4e5a94d7a0" y="406.062847"/>
     <use style="fill:#9467bd;stroke:#9467bd;" x="326.372378" xlink:href="#m4e5a94d7a0" y="414.818449"/>
     <use style="fill:#9467bd;stroke:#9467bd;" x="329.133209" xlink:href="#m4e5a94d7a0" y="414.120769"/>
     <use style="fill:#9467bd;stroke:#9467bd;" x="331.250156" xlink:href="#m4e5a94d7a0" y="414.370504"/>
     <use style="fill:#9467bd;stroke:#9467bd;" x="334.019741" xlink:href="#m4e5a94d7a0" y="414.407327"/>
     <use style="fill:#9467bd;stroke:#9467bd;" x="336.15783" xlink:href="#m4e5a94d7a0" y="413.445603"/>
     <use style="fill:#9467bd;stroke:#9467bd;" x="338.953582" xlink:href="#m4e5a94d7a0" y="411.331649"/>
     <use style="fill:#9467bd;stroke:#9467bd;" x="341.101507" xlink:href="#m4e5a94d7a0" y="412.476828"/>
     <use style="fill:#9467bd;stroke:#9467bd;" x="343.896802" xlink:href="#m4e5a94d7a0" y="407.274876"/>
     <use style="fill:#9467bd;stroke:#9467bd;" x="346.041958" xlink:href="#m4e5a94d7a0" y="411.379551"/>
     <use style="fill:#9467bd;stroke:#9467bd;" x="348.280401" xlink:href="#m4e5a94d7a0" y="407.868685"/>
     <use style="fill:#9467bd;stroke:#9467bd;" x="350.612807" xlink:href="#m4e5a94d7a0" y="407.365306"/>
     <use style="fill:#9467bd;stroke:#9467bd;" x="352.942249" xlink:href="#m4e5a94d7a0" y="406.347656"/>
     <use style="fill:#9467bd;stroke:#9467bd;" x="355.190799" xlink:href="#m4e5a94d7a0" y="407.850013"/>
     <use style="fill:#9467bd;stroke:#9467bd;" x="357.500383" xlink:href="#m4e5a94d7a0" y="400.576425"/>
     <use style="fill:#9467bd;stroke:#9467bd;" x="360.135226" xlink:href="#m4e5a94d7a0" y="399.287443"/>
     <use style="fill:#9467bd;stroke:#9467bd;" x="362.273807" xlink:href="#m4e5a94d7a0" y="401.441792"/>
     <use style="fill:#9467bd;stroke:#9467bd;" x="364.530905" xlink:href="#m4e5a94d7a0" y="399.516018"/>
     <use style="fill:#9467bd;stroke:#9467bd;" x="366.906546" xlink:href="#m4e5a94d7a0" y="394.851323"/>
     <use style="fill:#9467bd;stroke:#9467bd;" x="369.153762" xlink:href="#m4e5a94d7a0" y="393.136002"/>
     <use style="fill:#9467bd;stroke:#9467bd;" x="371.274046" xlink:href="#m4e5a94d7a0" y="398.629135"/>
     <use style="fill:#9467bd;stroke:#9467bd;" x="374.044707" xlink:href="#m4e5a94d7a0" y="397.879138"/>
     <use style="fill:#9467bd;stroke:#9467bd;" x="376.167219" xlink:href="#m4e5a94d7a0" y="397.862094"/>
     <use style="fill:#9467bd;stroke:#9467bd;" x="378.895323" xlink:href="#m4e5a94d7a0" y="396.545868"/>
     <use style="fill:#9467bd;stroke:#9467bd;" x="381.243967" xlink:href="#m4e5a94d7a0" y="396.270289"/>
     <use style="fill:#9467bd;stroke:#9467bd;" x="383.576489" xlink:href="#m4e5a94d7a0" y="396.46025"/>
     <use style="fill:#9467bd;stroke:#9467bd;" x="386.038464" xlink:href="#m4e5a94d7a0" y="389.977446"/>
     <use style="fill:#9467bd;stroke:#9467bd;" x="388.288281" xlink:href="#m4e5a94d7a0" y="389.645757"/>
     <use style="fill:#9467bd;stroke:#9467bd;" x="390.383356" xlink:href="#m4e5a94d7a0" y="388.56434"/>
     <use style="fill:#9467bd;stroke:#9467bd;" x="392.736275" xlink:href="#m4e5a94d7a0" y="381.018437"/>
     <use style="fill:#9467bd;stroke:#9467bd;" x="395.145307" xlink:href="#m4e5a94d7a0" y="380.709852"/>
     <use style="fill:#9467bd;stroke:#9467bd;" x="397.449156" xlink:href="#m4e5a94d7a0" y="380.92229"/>
     <use style="fill:#9467bd;stroke:#9467bd;" x="399.514783" xlink:href="#m4e5a94d7a0" y="374.853834"/>
     <use style="fill:#9467bd;stroke:#9467bd;" x="401.983238" xlink:href="#m4e5a94d7a0" y="367.536503"/>
     <use style="fill:#9467bd;stroke:#9467bd;" x="404.318471" xlink:href="#m4e5a94d7a0" y="370.281847"/>
     <use style="fill:#9467bd;stroke:#9467bd;" x="407.210367" xlink:href="#m4e5a94d7a0" y="362.966386"/>
     <use style="fill:#9467bd;stroke:#9467bd;" x="409.708873" xlink:href="#m4e5a94d7a0" y="367.902065"/>
     <use style="fill:#9467bd;stroke:#9467bd;" x="411.963326" xlink:href="#m4e5a94d7a0" y="364.852802"/>
     <use style="fill:#9467bd;stroke:#9467bd;" x="414.10676" xlink:href="#m4e5a94d7a0" y="368.489679"/>
     <use style="fill:#9467bd;stroke:#9467bd;" x="416.8534" xlink:href="#m4e5a94d7a0" y="369.881924"/>
     <use style="fill:#9467bd;stroke:#9467bd;" x="419.112316" xlink:href="#m4e5a94d7a0" y="365.810206"/>
     <use style="fill:#9467bd;stroke:#9467bd;" x="421.331398" xlink:href="#m4e5a94d7a0" y="360.158492"/>
     <use style="fill:#9467bd;stroke:#9467bd;" x="423.75678" xlink:href="#m4e5a94d7a0" y="362.920107"/>
     <use style="fill:#9467bd;stroke:#9467bd;" x="425.861504" xlink:href="#m4e5a94d7a0" y="364.858128"/>
     <use style="fill:#9467bd;stroke:#9467bd;" x="428.263971" xlink:href="#m4e5a94d7a0" y="362.217586"/>
     <use style="fill:#9467bd;stroke:#9467bd;" x="430.505429" xlink:href="#m4e5a94d7a0" y="366.14841"/>
     <use style="fill:#9467bd;stroke:#9467bd;" x="432.609309" xlink:href="#m4e5a94d7a0" y="361.823229"/>
     <use style="fill:#9467bd;stroke:#9467bd;" x="435.725256" xlink:href="#m4e5a94d7a0" y="360.017915"/>
     <use style="fill:#9467bd;stroke:#9467bd;" x="437.80282" xlink:href="#m4e5a94d7a0" y="358.99671"/>
     <use style="fill:#9467bd;stroke:#9467bd;" x="440.533962" xlink:href="#m4e5a94d7a0" y="355.359338"/>
     <use style="fill:#9467bd;stroke:#9467bd;" x="442.801003" xlink:href="#m4e5a94d7a0" y="357.513549"/>
     <use style="fill:#9467bd;stroke:#9467bd;" x="445.51834" xlink:href="#m4e5a94d7a0" y="353.445988"/>
     <use style="fill:#9467bd;stroke:#9467bd;" x="447.977988" xlink:href="#m4e5a94d7a0" y="353.070151"/>
     <use style="fill:#9467bd;stroke:#9467bd;" x="450.189121" xlink:href="#m4e5a94d7a0" y="348.602939"/>
     <use style="fill:#9467bd;stroke:#9467bd;" x="452.295783" xlink:href="#m4e5a94d7a0" y="350.80546"/>
     <use style="fill:#9467bd;stroke:#9467bd;" x="454.87943" xlink:href="#m4e5a94d7a0" y="346.268472"/>
     <use style="fill:#9467bd;stroke:#9467bd;" x="457.129738" xlink:href="#m4e5a94d7a0" y="345.045752"/>
     <use style="fill:#9467bd;stroke:#9467bd;" x="459.356326" xlink:href="#m4e5a94d7a0" y="347.088934"/>
     <use style="fill:#9467bd;stroke:#9467bd;" x="461.552131" xlink:href="#m4e5a94d7a0" y="339.195919"/>
     <use style="fill:#9467bd;stroke:#9467bd;" x="464.044083" xlink:href="#m4e5a94d7a0" y="337.552255"/>
     <use style="fill:#9467bd;stroke:#9467bd;" x="466.274208" xlink:href="#m4e5a94d7a0" y="338.598487"/>
     <use style="fill:#9467bd;stroke:#9467bd;" x="468.712059" xlink:href="#m4e5a94d7a0" y="333.163308"/>
     <use style="fill:#9467bd;stroke:#9467bd;" x="470.958241" xlink:href="#m4e5a94d7a0" y="332.529507"/>
     <use style="fill:#9467bd;stroke:#9467bd;" x="473.063828" xlink:href="#m4e5a94d7a0" y="328.97561"/>
     <use style="fill:#9467bd;stroke:#9467bd;" x="476.1071" xlink:href="#m4e5a94d7a0" y="329.792449"/>
     <use style="fill:#9467bd;stroke:#9467bd;" x="478.229619" xlink:href="#m4e5a94d7a0" y="323.798922"/>
     <use style="fill:#9467bd;stroke:#9467bd;" x="481.243005" xlink:href="#m4e5a94d7a0" y="326.29231"/>
     <use style="fill:#9467bd;stroke:#9467bd;" x="483.523433" xlink:href="#m4e5a94d7a0" y="322.325596"/>
     <use style="fill:#9467bd;stroke:#9467bd;" x="485.719457" xlink:href="#m4e5a94d7a0" y="322.986671"/>
     <use style="fill:#9467bd;stroke:#9467bd;" x="488.400026" xlink:href="#m4e5a94d7a0" y="318.161827"/>
     <use style="fill:#9467bd;stroke:#9467bd;" x="490.606304" xlink:href="#m4e5a94d7a0" y="311.937363"/>
     <use style="fill:#9467bd;stroke:#9467bd;" x="493.234426" xlink:href="#m4e5a94d7a0" y="309.453362"/>
     <use style="fill:#9467bd;stroke:#9467bd;" x="495.454747" xlink:href="#m4e5a94d7a0" y="311.62006"/>
     <use style="fill:#9467bd;stroke:#9467bd;" x="497.672454" xlink:href="#m4e5a94d7a0" y="312.311386"/>
     <use style="fill:#9467bd;stroke:#9467bd;" x="499.909501" xlink:href="#m4e5a94d7a0" y="307.886743"/>
     <use style="fill:#9467bd;stroke:#9467bd;" x="502.498845" xlink:href="#m4e5a94d7a0" y="304.070574"/>
     <use style="fill:#9467bd;stroke:#9467bd;" x="504.62922" xlink:href="#m4e5a94d7a0" y="298.25331"/>
     <use style="fill:#9467bd;stroke:#9467bd;" x="506.86148" xlink:href="#m4e5a94d7a0" y="296.402587"/>
     <use style="fill:#9467bd;stroke:#9467bd;" x="509.110983" xlink:href="#m4e5a94d7a0" y="286.69403"/>
     <use style="fill:#9467bd;stroke:#9467bd;" x="511.232041" xlink:href="#m4e5a94d7a0" y="287.784295"/>
     <use style="fill:#9467bd;stroke:#9467bd;" x="513.450852" xlink:href="#m4e5a94d7a0" y="284.328658"/>
     <use style="fill:#9467bd;stroke:#9467bd;" x="515.69197" xlink:href="#m4e5a94d7a0" y="279.044647"/>
     <use style="fill:#9467bd;stroke:#9467bd;" x="518.123826" xlink:href="#m4e5a94d7a0" y="272.321017"/>
     <use style="fill:#9467bd;stroke:#9467bd;" x="520.250588" xlink:href="#m4e5a94d7a0" y="272.172544"/>
     <use style="fill:#9467bd;stroke:#9467bd;" x="522.676411" xlink:href="#m4e5a94d7a0" y="274.361407"/>
     <use style="fill:#9467bd;stroke:#9467bd;" x="525.190543" xlink:href="#m4e5a94d7a0" y="273.514599"/>
     <use style="fill:#9467bd;stroke:#9467bd;" x="527.41847" xlink:href="#m4e5a94d7a0" y="274.642058"/>
     <use style="fill:#9467bd;stroke:#9467bd;" x="529.905075" xlink:href="#m4e5a94d7a0" y="274.868674"/>
     <use style="fill:#9467bd;stroke:#9467bd;" x="532.039632" xlink:href="#m4e5a94d7a0" y="272.960855"/>
     <use style="fill:#9467bd;stroke:#9467bd;" x="534.477871" xlink:href="#m4e5a94d7a0" y="274.899347"/>
     <use style="fill:#9467bd;stroke:#9467bd;" x="536.955733" xlink:href="#m4e5a94d7a0" y="275.930553"/>
     <use style="fill:#9467bd;stroke:#9467bd;" x="539.191728" xlink:href="#m4e5a94d7a0" y="272.831601"/>
     <use style="fill:#9467bd;stroke:#9467bd;" x="541.551723" xlink:href="#m4e5a94d7a0" y="273.574678"/>
     <use style="fill:#9467bd;stroke:#9467bd;" x="543.64381" xlink:href="#m4e5a94d7a0" y="268.745683"/>
     <use style="fill:#9467bd;stroke:#9467bd;" x="545.8825" xlink:href="#m4e5a94d7a0" y="269.049047"/>
     <use style="fill:#9467bd;stroke:#9467bd;" x="547.976828" xlink:href="#m4e5a94d7a0" y="265.87069"/>
     <use style="fill:#9467bd;stroke:#9467bd;" x="550.710016" xlink:href="#m4e5a94d7a0" y="270.245702"/>
     <use style="fill:#9467bd;stroke:#9467bd;" x="552.878539" xlink:href="#m4e5a94d7a0" y="267.682218"/>
     <use style="fill:#9467bd;stroke:#9467bd;" x="555.476641" xlink:href="#m4e5a94d7a0" y="267.445976"/>
     <use style="fill:#9467bd;stroke:#9467bd;" x="557.706752" xlink:href="#m4e5a94d7a0" y="267.541801"/>
     <use style="fill:#9467bd;stroke:#9467bd;" x="559.799889" xlink:href="#m4e5a94d7a0" y="266.323335"/>
     <use style="fill:#9467bd;stroke:#9467bd;" x="562.040066" xlink:href="#m4e5a94d7a0" y="267.671672"/>
     <use style="fill:#9467bd;stroke:#9467bd;" x="564.366406" xlink:href="#m4e5a94d7a0" y="269.62195"/>
     <use style="fill:#9467bd;stroke:#9467bd;" x="566.612813" xlink:href="#m4e5a94d7a0" y="269.383554"/>
     <use style="fill:#9467bd;stroke:#9467bd;" x="568.804599" xlink:href="#m4e5a94d7a0" y="266.927985"/>
     <use style="fill:#9467bd;stroke:#9467bd;" x="571.234299" xlink:href="#m4e5a94d7a0" y="263.365524"/>
     <use style="fill:#9467bd;stroke:#9467bd;" x="573.695975" xlink:href="#m4e5a94d7a0" y="264.013389"/>
     <use style="fill:#9467bd;stroke:#9467bd;" x="575.798705" xlink:href="#m4e5a94d7a0" y="258.216662"/>
     <use style="fill:#9467bd;stroke:#9467bd;" x="578.404652" xlink:href="#m4e5a94d7a0" y="253.312509"/>
     <use style="fill:#9467bd;stroke:#9467bd;" x="581.461652" xlink:href="#m4e5a94d7a0" y="254.91131"/>
     <use style="fill:#9467bd;stroke:#9467bd;" x="583.518958" xlink:href="#m4e5a94d7a0" y="250.20456"/>
     <use style="fill:#9467bd;stroke:#9467bd;" x="585.990717" xlink:href="#m4e5a94d7a0" y="247.416208"/>
     <use style="fill:#9467bd;stroke:#9467bd;" x="588.052113" xlink:href="#m4e5a94d7a0" y="248.469509"/>
     <use style="fill:#9467bd;stroke:#9467bd;" x="590.60307" xlink:href="#m4e5a94d7a0" y="250.635919"/>
     <use style="fill:#9467bd;stroke:#9467bd;" x="592.818788" xlink:href="#m4e5a94d7a0" y="245.66371"/>
     <use style="fill:#9467bd;stroke:#9467bd;" x="595.135622" xlink:href="#m4e5a94d7a0" y="243.55998"/>
     <use style="fill:#9467bd;stroke:#9467bd;" x="597.418154" xlink:href="#m4e5a94d7a0" y="243.57986"/>
     <use style="fill:#9467bd;stroke:#9467bd;" x="599.683166" xlink:href="#m4e5a94d7a0" y="239.095506"/>
     <use style="fill:#9467bd;stroke:#9467bd;" x="602.127279" xlink:href="#m4e5a94d7a0" y="232.610098"/>
     <use style="fill:#9467bd;stroke:#9467bd;" x="604.227946" xlink:href="#m4e5a94d7a0" y="233.115774"/>
     <use style="fill:#9467bd;stroke:#9467bd;" x="606.528493" xlink:href="#m4e5a94d7a0" y="231.445452"/>
     <use style="fill:#9467bd;stroke:#9467bd;" x="608.788204" xlink:href="#m4e5a94d7a0" y="223.583442"/>
     <use style="fill:#9467bd;stroke:#9467bd;" x="610.921217" xlink:href="#m4e5a94d7a0" y="222.064675"/>
     <use style="fill:#9467bd;stroke:#9467bd;" x="613.182859" xlink:href="#m4e5a94d7a0" y="217.732917"/>
     <use style="fill:#9467bd;stroke:#9467bd;" x="615.458675" xlink:href="#m4e5a94d7a0" y="216.505357"/>
     <use style="fill:#9467bd;stroke:#9467bd;" x="617.716995" xlink:href="#m4e5a94d7a0" y="216.376578"/>
     <use style="fill:#9467bd;stroke:#9467bd;" x="620.285285" xlink:href="#m4e5a94d7a0" y="215.901641"/>
     <use style="fill:#9467bd;stroke:#9467bd;" x="622.696259" xlink:href="#m4e5a94d7a0" y="215.336833"/>
     <use style="fill:#9467bd;stroke:#9467bd;" x="625.035719" xlink:href="#m4e5a94d7a0" y="214.247603"/>
     <use style="fill:#9467bd;stroke:#9467bd;" x="627.159579" xlink:href="#m4e5a94d7a0" y="217.005989"/>
     <use style="fill:#9467bd;stroke:#9467bd;" x="629.390711" xlink:href="#m4e5a94d7a0" y="215.149294"/>
     <use style="fill:#9467bd;stroke:#9467bd;" x="631.722022" xlink:href="#m4e5a94d7a0" y="214.329602"/>
     <use style="fill:#9467bd;stroke:#9467bd;" x="634.484749" xlink:href="#m4e5a94d7a0" y="214.078819"/>
     <use style="fill:#9467bd;stroke:#9467bd;" x="636.531845" xlink:href="#m4e5a94d7a0" y="211.545344"/>
     <use style="fill:#9467bd;stroke:#9467bd;" x="638.759375" xlink:href="#m4e5a94d7a0" y="211.359776"/>
     <use style="fill:#9467bd;stroke:#9467bd;" x="641.056145" xlink:href="#m4e5a94d7a0" y="212.910569"/>
     <use style="fill:#9467bd;stroke:#9467bd;" x="643.154085" xlink:href="#m4e5a94d7a0" y="213.725763"/>
     <use style="fill:#9467bd;stroke:#9467bd;" x="645.37517" xlink:href="#m4e5a94d7a0" y="211.47209"/>
     <use style="fill:#9467bd;stroke:#9467bd;" x="647.887027" xlink:href="#m4e5a94d7a0" y="213.333196"/>
     <use style="fill:#9467bd;stroke:#9467bd;" x="650.179142" xlink:href="#m4e5a94d7a0" y="214.111345"/>
     <use style="fill:#9467bd;stroke:#9467bd;" x="652.418744" xlink:href="#m4e5a94d7a0" y="214.025428"/>
     <use style="fill:#9467bd;stroke:#9467bd;" x="654.517176" xlink:href="#m4e5a94d7a0" y="213.889774"/>
     <use style="fill:#9467bd;stroke:#9467bd;" x="657.309762" xlink:href="#m4e5a94d7a0" y="213.697092"/>
     <use style="fill:#9467bd;stroke:#9467bd;" x="659.418999" xlink:href="#m4e5a94d7a0" y="213.440095"/>
     <use style="fill:#9467bd;stroke:#9467bd;" x="661.814633" xlink:href="#m4e5a94d7a0" y="213.111495"/>
     <use style="fill:#9467bd;stroke:#9467bd;" x="663.888816" xlink:href="#m4e5a94d7a0" y="212.704003"/>
     <use style="fill:#9467bd;stroke:#9467bd;" x="666.587358" xlink:href="#m4e5a94d7a0" y="212.210331"/>
     <use style="fill:#9467bd;stroke:#9467bd;" x="668.811204" xlink:href="#m4e5a94d7a0" y="211.623189"/>
     <use style="fill:#9467bd;stroke:#9467bd;" x="671.012094" xlink:href="#m4e5a94d7a0" y="210.93529"/>
     <use style="fill:#9467bd;stroke:#9467bd;" x="673.557001" xlink:href="#m4e5a94d7a0" y="210.139346"/>
     <use style="fill:#9467bd;stroke:#9467bd;" x="675.681706" xlink:href="#m4e5a94d7a0" y="209.228067"/>
     <use style="fill:#9467bd;stroke:#9467bd;" x="678.218669" xlink:href="#m4e5a94d7a0" y="208.194166"/>
     <use style="fill:#9467bd;stroke:#9467bd;" x="680.990268" xlink:href="#m4e5a94d7a0" y="207.030354"/>
     <use style="fill:#9467bd;stroke:#9467bd;" x="683.217044" xlink:href="#m4e5a94d7a0" y="205.729343"/>
     <use style="fill:#9467bd;stroke:#9467bd;" x="685.322435" xlink:href="#m4e5a94d7a0" y="204.283844"/>
    </g>
   </g>
   <g id="patch_3">
    <path d="M 166.32 624.1392 
L 166.32 84.1536 
" style="fill:none;stroke:#000000;stroke-linecap:square;stroke-linejoin:miter;stroke-width:0.8;"/>
   </g>
   <g id="patch_4">
    <path d="M 1197.504 624.1392 
L 1197.504 84.1536 
" style="fill:none;stroke:#000000;stroke-linecap:square;stroke-linejoin:miter;stroke-width:0.8;"/>
   </g>
   <g id="patch_5">
    <path d="M 166.32 624.1392 
L 1197.504 624.1392 
" style="fill:none;stroke:#000000;stroke-linecap:square;stroke-linejoin:miter;stroke-width:0.8;"/>
   </g>
   <g id="patch_6">
    <path d="M 166.32 84.1536 
L 1197.504 84.1536 
" style="fill:none;stroke:#000000;stroke-linecap:square;stroke-linejoin:miter;stroke-width:0.8;"/>
   </g>
   <g id="text_14">
    <!-- Accuracy vs Time taken -->
    <g transform="translate(610.660125 78.1536)scale(0.12 -0.12)">
     <defs>
      <path d="M 191 3500 
L 800 3500 
L 1894 563 
L 2988 3500 
L 3597 3500 
L 2284 0 
L 1503 0 
L 191 3500 
z
" id="DejaVuSans-76" transform="scale(0.015625)"/>
     </defs>
     <use xlink:href="#DejaVuSans-41"/>
     <use x="66.658203" xlink:href="#DejaVuSans-63"/>
     <use x="121.638672" xlink:href="#DejaVuSans-63"/>
     <use x="176.619141" xlink:href="#DejaVuSans-75"/>
     <use x="239.998047" xlink:href="#DejaVuSans-72"/>
     <use x="281.111328" xlink:href="#DejaVuSans-61"/>
     <use x="342.390625" xlink:href="#DejaVuSans-63"/>
     <use x="397.371094" xlink:href="#DejaVuSans-79"/>
     <use x="456.550781" xlink:href="#DejaVuSans-20"/>
     <use x="488.337891" xlink:href="#DejaVuSans-76"/>
     <use x="547.517578" xlink:href="#DejaVuSans-73"/>
     <use x="599.617188" xlink:href="#DejaVuSans-20"/>
     <use x="631.404297" xlink:href="#DejaVuSans-54"/>
     <use x="689.363281" xlink:href="#DejaVuSans-69"/>
     <use x="717.146484" xlink:href="#DejaVuSans-6d"/>
     <use x="814.558594" xlink:href="#DejaVuSans-65"/>
     <use x="876.082031" xlink:href="#DejaVuSans-20"/>
     <use x="907.869141" xlink:href="#DejaVuSans-74"/>
     <use x="947.078125" xlink:href="#DejaVuSans-61"/>
     <use x="1008.357422" xlink:href="#DejaVuSans-6b"/>
     <use x="1062.642578" xlink:href="#DejaVuSans-65"/>
     <use x="1124.166016" xlink:href="#DejaVuSans-6e"/>
    </g>
   </g>
   <g id="legend_1">
    <g id="patch_7">
     <path d="M 1117.107125 165.8661 
L 1190.504 165.8661 
Q 1192.504 165.8661 1192.504 163.8661 
L 1192.504 91.1536 
Q 1192.504 89.1536 1190.504 89.1536 
L 1117.107125 89.1536 
Q 1115.107125 89.1536 1115.107125 91.1536 
L 1115.107125 163.8661 
Q 1115.107125 165.8661 1117.107125 165.8661 
z
" style="fill:#ffffff;opacity:0.8;stroke:#cccccc;stroke-linejoin:miter;"/>
    </g>
    <g id="line2d_17">
     <path d="M 1119.107125 97.252037 
L 1139.107125 97.252037 
" style="fill:none;stroke:#1f77b4;stroke-dasharray:9.6,2.4,1.5,2.4;stroke-dashoffset:0;stroke-width:1.5;"/>
    </g>
    <g id="line2d_18"/>
    <g id="text_15">
     <!-- Random -->
     <g transform="translate(1147.107125 100.752037)scale(0.1 -0.1)">
      <defs>
       <path d="M 2841 2188 
Q 3044 2119 3236 1894 
Q 3428 1669 3622 1275 
L 4263 0 
L 3584 0 
L 2988 1197 
Q 2756 1666 2539 1819 
Q 2322 1972 1947 1972 
L 1259 1972 
L 1259 0 
L 628 0 
L 628 4666 
L 2053 4666 
Q 2853 4666 3247 4331 
Q 3641 3997 3641 3322 
Q 3641 2881 3436 2590 
Q 3231 2300 2841 2188 
z
M 1259 4147 
L 1259 2491 
L 2053 2491 
Q 2509 2491 2742 2702 
Q 2975 2913 2975 3322 
Q 2975 3731 2742 3939 
Q 2509 4147 2053 4147 
L 1259 4147 
z
" id="DejaVuSans-52" transform="scale(0.015625)"/>
       <path d="M 2906 2969 
L 2906 4863 
L 3481 4863 
L 3481 0 
L 2906 0 
L 2906 525 
Q 2725 213 2448 61 
Q 2172 -91 1784 -91 
Q 1150 -91 751 415 
Q 353 922 353 1747 
Q 353 2572 751 3078 
Q 1150 3584 1784 3584 
Q 2172 3584 2448 3432 
Q 2725 3281 2906 2969 
z
M 947 1747 
Q 947 1113 1208 752 
Q 1469 391 1925 391 
Q 2381 391 2643 752 
Q 2906 1113 2906 1747 
Q 2906 2381 2643 2742 
Q 2381 3103 1925 3103 
Q 1469 3103 1208 2742 
Q 947 2381 947 1747 
z
" id="DejaVuSans-64" transform="scale(0.015625)"/>
       <path d="M 1959 3097 
Q 1497 3097 1228 2736 
Q 959 2375 959 1747 
Q 959 1119 1226 758 
Q 1494 397 1959 397 
Q 2419 397 2687 759 
Q 2956 1122 2956 1747 
Q 2956 2369 2687 2733 
Q 2419 3097 1959 3097 
z
M 1959 3584 
Q 2709 3584 3137 3096 
Q 3566 2609 3566 1747 
Q 3566 888 3137 398 
Q 2709 -91 1959 -91 
Q 1206 -91 779 398 
Q 353 888 353 1747 
Q 353 2609 779 3096 
Q 1206 3584 1959 3584 
z
" id="DejaVuSans-6f" transform="scale(0.015625)"/>
      </defs>
      <use xlink:href="#DejaVuSans-52"/>
      <use x="67.232422" xlink:href="#DejaVuSans-61"/>
      <use x="128.511719" xlink:href="#DejaVuSans-6e"/>
      <use x="191.890625" xlink:href="#DejaVuSans-64"/>
      <use x="255.367188" xlink:href="#DejaVuSans-6f"/>
      <use x="316.548828" xlink:href="#DejaVuSans-6d"/>
     </g>
    </g>
    <g id="line2d_19"/>
    <g id="line2d_20">
     <g>
      <use style="fill:#ff7f0e;stroke:#ff7f0e;stroke-linejoin:miter;" x="1129.107125" xlink:href="#m108cb7d2c3" y="111.930162"/>
     </g>
    </g>
    <g id="text_16">
     <!-- P(y) -->
     <g transform="translate(1147.107125 115.430162)scale(0.1 -0.1)">
      <defs>
       <path d="M 1259 4147 
L 1259 2394 
L 2053 2394 
Q 2494 2394 2734 2622 
Q 2975 2850 2975 3272 
Q 2975 3691 2734 3919 
Q 2494 4147 2053 4147 
L 1259 4147 
z
M 628 4666 
L 2053 4666 
Q 2838 4666 3239 4311 
Q 3641 3956 3641 3272 
Q 3641 2581 3239 2228 
Q 2838 1875 2053 1875 
L 1259 1875 
L 1259 0 
L 628 0 
L 628 4666 
z
" id="DejaVuSans-50" transform="scale(0.015625)"/>
      </defs>
      <use xlink:href="#DejaVuSans-50"/>
      <use x="60.302734" xlink:href="#DejaVuSans-28"/>
      <use x="99.316406" xlink:href="#DejaVuSans-79"/>
      <use x="158.496094" xlink:href="#DejaVuSans-29"/>
     </g>
    </g>
    <g id="line2d_21">
     <path d="M 1119.107125 126.652037 
L 1139.107125 126.652037 
" style="fill:none;stroke:#2ca02c;stroke-linecap:square;stroke-width:1.5;"/>
    </g>
    <g id="line2d_22"/>
    <g id="text_17">
     <!-- P(X|y) -->
     <g transform="translate(1147.107125 130.152037)scale(0.1 -0.1)">
      <defs>
       <path d="M 403 4666 
L 1081 4666 
L 2241 2931 
L 3406 4666 
L 4084 4666 
L 2584 2425 
L 4184 0 
L 3506 0 
L 2194 1984 
L 872 0 
L 191 0 
L 1856 2491 
L 403 4666 
z
" id="DejaVuSans-58" transform="scale(0.015625)"/>
       <path d="M 1344 4891 
L 1344 -1509 
L 813 -1509 
L 813 4891 
L 1344 4891 
z
" id="DejaVuSans-7c" transform="scale(0.015625)"/>
      </defs>
      <use xlink:href="#DejaVuSans-50"/>
      <use x="60.302734" xlink:href="#DejaVuSans-28"/>
      <use x="99.316406" xlink:href="#DejaVuSans-58"/>
      <use x="167.822266" xlink:href="#DejaVuSans-7c"/>
      <use x="201.513672" xlink:href="#DejaVuSans-79"/>
      <use x="260.693359" xlink:href="#DejaVuSans-29"/>
     </g>
    </g>
    <g id="line2d_23">
     <path d="M 1119.107125 141.608287 
L 1139.107125 141.608287 
" style="fill:none;stroke:#d62728;stroke-dasharray:5.55,2.4;stroke-dashoffset:0;stroke-width:1.5;"/>
    </g>
    <g id="line2d_24"/>
    <g id="text_18">
     <!-- TiFL -->
     <g transform="translate(1147.107125 145.108287)scale(0.1 -0.1)">
      <defs>
       <path d="M 628 4666 
L 3309 4666 
L 3309 4134 
L 1259 4134 
L 1259 2759 
L 3109 2759 
L 3109 2228 
L 1259 2228 
L 1259 0 
L 628 0 
L 628 4666 
z
" id="DejaVuSans-46" transform="scale(0.015625)"/>
       <path d="M 628 4666 
L 1259 4666 
L 1259 531 
L 3531 531 
L 3531 0 
L 628 0 
L 628 4666 
z
" id="DejaVuSans-4c" transform="scale(0.015625)"/>
      </defs>
      <use xlink:href="#DejaVuSans-54"/>
      <use x="57.958984" xlink:href="#DejaVuSans-69"/>
      <use x="85.742188" xlink:href="#DejaVuSans-46"/>
      <use x="143.261719" xlink:href="#DejaVuSans-4c"/>
     </g>
    </g>
    <g id="line2d_25"/>
    <g id="line2d_26">
     <g>
      <use style="fill:#9467bd;stroke:#9467bd;" x="1129.107125" xlink:href="#m4e5a94d7a0" y="156.286412"/>
     </g>
    </g>
    <g id="text_19">
     <!-- Oort -->
     <g transform="translate(1147.107125 159.786412)scale(0.1 -0.1)">
      <defs>
       <path d="M 2522 4238 
Q 1834 4238 1429 3725 
Q 1025 3213 1025 2328 
Q 1025 1447 1429 934 
Q 1834 422 2522 422 
Q 3209 422 3611 934 
Q 4013 1447 4013 2328 
Q 4013 3213 3611 3725 
Q 3209 4238 2522 4238 
z
M 2522 4750 
Q 3503 4750 4090 4092 
Q 4678 3434 4678 2328 
Q 4678 1225 4090 567 
Q 3503 -91 2522 -91 
Q 1538 -91 948 565 
Q 359 1222 359 2328 
Q 359 3434 948 4092 
Q 1538 4750 2522 4750 
z
" id="DejaVuSans-4f" transform="scale(0.015625)"/>
      </defs>
      <use xlink:href="#DejaVuSans-4f"/>
      <use x="78.710938" xlink:href="#DejaVuSans-6f"/>
      <use x="139.892578" xlink:href="#DejaVuSans-72"/>
      <use x="181.005859" xlink:href="#DejaVuSans-74"/>
     </g>
    </g>
   </g>
  </g>
 </g>
 <defs>
  <clipPath id="p74fb523956">
   <rect height="539.9856" width="1031.184" x="166.32" y="84.1536"/>
  </clipPath>
 </defs>
</svg>
